<svg width="64" height="64" viewBox="0 0 64 64" fill="none" xmlns="http://www.w3.org/2000/svg">
<path fill-rule="evenodd" clip-rule="evenodd" d="M33.8169 0.00880935C19.3279 -0.312781 5.54208 8.19148 1.20433 22.0783C-3.01516 35.5866 4.32708 49.3971 15.8358 57.5735C26.8596 65.4052 41.5702 66.5069 52.4661 58.4968C63.2505 50.5688 66.3511 36.2164 62.2754 23.4338C58.1401 10.4646 47.3741 0.309715 33.8169 0.00880935Z" fill="#F1E9D0"/>
<path d="M14.75 2.0051C14.9239 2.00456 15.0977 2.00382 15.2716 2.00289C15.7461 2.00095 16.2207 2.0019 16.6953 2.00335C17.2083 2.00442 17.7213 2.00278 18.2344 2.00149C19.2382 1.99942 20.2419 1.99986 21.2457 2.00122C22.0618 2.00227 22.8778 2.00242 23.6939 2.00191C23.8102 2.00184 23.9264 2.00176 24.0463 2.00169C24.2825 2.00154 24.5188 2.00139 24.755 2.00124C26.9688 1.9999 29.1825 2.00143 31.3962 2.00395C33.2943 2.00604 35.1925 2.00568 37.0906 2.00352C39.2966 2.00101 41.5025 2.00003 43.7085 2.00147C43.9439 2.00162 44.1793 2.00176 44.4147 2.00191C44.5884 2.00202 44.5884 2.00202 44.7656 2.00213C45.5803 2.00253 46.3951 2.00185 47.2098 2.00075C48.2032 1.99943 49.1965 1.9998 50.1899 2.00228C50.6964 2.00351 51.2029 2.004 51.7094 2.00245C52.1736 2.00105 52.6378 2.00183 53.1021 2.00431C53.2694 2.00483 53.4368 2.00457 53.6041 2.00343C55.2454 1.99311 56.4302 2.38401 57.6752 3.46773C58.7542 4.5626 59.0927 6.02331 59.0935 7.51502C59.0937 7.6013 59.0939 7.68758 59.0941 7.77647C59.0947 8.06506 59.0944 8.35363 59.0941 8.64222C59.0943 8.85142 59.0946 9.06063 59.0949 9.26984C59.0956 9.84436 59.0956 10.4189 59.0955 10.9934C59.0954 11.6132 59.0961 12.2329 59.0966 12.8527C59.0976 14.0668 59.0979 15.2809 59.098 16.4949C59.0981 17.4817 59.0983 18.4685 59.0987 19.4554C59.0997 22.253 59.1002 25.0506 59.1002 27.8482C59.1001 28.0745 59.1001 28.0745 59.1001 28.3053C59.1001 28.4563 59.1001 28.6073 59.1001 28.7628C59.1001 31.2105 59.1012 33.6581 59.1028 36.1057C59.1045 38.6188 59.1053 41.1318 59.1052 43.6449C59.1052 45.0558 59.1055 46.4667 59.1068 47.8777C59.1078 49.0789 59.1081 50.2802 59.1073 51.4814C59.1069 52.0942 59.1069 52.707 59.1079 53.3198C59.1088 53.8811 59.1087 54.4423 59.1077 55.0036C59.1075 55.2064 59.1077 55.4091 59.1083 55.6119C59.1136 57.3669 58.972 58.8775 57.8799 60.3349C56.5481 61.6364 55.1863 62.0074 53.3585 61.9949C53.1846 61.9954 53.0108 61.9962 52.837 61.9971C52.3624 61.9991 51.8878 61.9981 51.4132 61.9966C50.9002 61.9956 50.3872 61.9972 49.8742 61.9985C48.8704 62.0006 47.8666 62.0001 46.8628 61.9988C46.0467 61.9977 45.2307 61.9976 44.4147 61.9981C44.2984 61.9982 44.1821 61.9982 44.0623 61.9983C43.826 61.9985 43.5897 61.9986 43.3535 61.9988C41.1398 62.0001 38.926 61.9986 36.7123 61.9961C34.8142 61.994 32.9161 61.9943 31.0179 61.9965C28.812 61.999 26.606 62 24.4 61.9985C24.1646 61.9984 23.9292 61.9982 23.6939 61.9981C23.5781 61.998 23.4623 61.9979 23.343 61.9979C22.5282 61.9975 21.7135 61.9981 20.8987 61.9992C19.9053 62.0006 18.912 62.0002 17.9186 61.9977C17.4121 61.9965 16.9057 61.996 16.3991 61.9976C15.9349 61.999 15.4707 61.9982 15.0065 61.9957C14.8391 61.9952 14.6717 61.9954 14.5044 61.9966C12.8631 62.0069 11.6784 61.616 10.4333 60.5323C9.35438 59.4374 9.01581 57.9767 9.01501 56.485C9.01481 56.3987 9.0146 56.3124 9.01439 56.2235C9.01385 55.9349 9.01413 55.6464 9.01442 55.3578C9.0142 55.1486 9.01393 54.9394 9.01362 54.7302C9.0129 54.1556 9.01292 53.5811 9.01305 53.0066C9.01308 52.3868 9.01243 51.7671 9.01188 51.1473C9.01091 49.9332 9.01059 48.7191 9.01052 47.5051C9.01047 46.5183 9.01022 45.5315 9.00985 44.5446C9.00882 41.747 9.00828 38.9494 9.00837 36.1518C9.00838 36.001 9.00838 35.8501 9.00839 35.6947C9.00839 35.5437 9.0084 35.3927 9.0084 35.2372C9.00845 32.7895 9.00733 30.3419 9.00568 27.8943C9.004 25.3812 9.00319 22.8682 9.00329 20.3551C9.00333 18.9442 9.00301 17.5332 9.00175 16.1223C9.00069 14.9211 9.00043 13.7198 9.00123 12.5186C9.00161 11.9058 9.00162 11.293 9.0006 10.6802C8.99968 10.1189 8.99985 9.55768 9.00087 8.99643C9.00105 8.79364 9.00084 8.59086 9.00018 8.38808C8.99492 6.63314 9.13653 5.12251 10.2286 3.66505C11.5604 2.36358 12.9222 1.99265 14.75 2.0051ZM11.8365 5.10482C11.2459 5.99485 11.1171 6.70868 11.1208 7.77113C11.1207 7.87452 11.1206 7.97791 11.1205 8.08444C11.1203 8.43193 11.121 8.77942 11.1216 9.12691C11.1217 9.37987 11.1216 9.63283 11.1216 9.8858C11.1216 10.5636 11.1222 11.2415 11.1231 11.9194C11.1237 12.5553 11.1237 13.1912 11.1238 13.8271C11.1244 15.6872 11.1261 17.5474 11.1276 19.4075C11.13 23.563 11.1324 27.7186 11.1349 32C20.319 32 29.5031 32 38.9656 32C38.9656 22.8159 38.9656 13.6318 38.9656 4.16934C34.7594 4.15969 30.5532 4.15004 26.2196 4.1401C24.8911 4.13585 23.5627 4.13159 22.194 4.1272C21.0039 4.12564 21.0039 4.12564 19.8138 4.1247C19.2834 4.12426 18.7531 4.12251 18.2227 4.11996C17.5461 4.11675 16.8695 4.11579 16.1929 4.11645C15.9447 4.11631 15.6964 4.11538 15.4482 4.11358C15.1125 4.11125 14.777 4.11181 14.4414 4.11309C14.3445 4.11173 14.2476 4.11037 14.1478 4.10896C13.2491 4.11815 12.4753 4.46604 11.8365 5.10482ZM41.0704 4.16934C41.0704 13.3535 41.0704 22.5376 41.0704 32C46.3185 32 51.5665 32 56.9736 32C56.9838 27.5365 56.9838 27.5365 56.9908 23.0729C56.9928 21.2529 56.9953 19.4328 57.0001 17.6127C57.0036 16.2872 57.0059 14.9617 57.0066 13.6362C57.0071 12.9344 57.0082 12.2327 57.0107 11.5309C57.0131 10.8701 57.0138 10.2093 57.0133 9.54845C57.0134 9.30621 57.0141 9.06397 57.0154 8.82173C57.0172 8.49025 57.0168 8.15885 57.0158 7.82737C57.0168 7.73216 57.0179 7.63695 57.0189 7.53885C57.0113 6.55284 56.7397 5.22178 55.8627 4.6371C52.2962 4.16934 46.0651 4.16934 41.0704 4.16934ZM11.1349 34.1048C11.1277 37.9034 11.1204 41.702 11.113 45.6157C11.1098 46.8149 11.1066 48.014 11.1033 49.2496C11.1021 50.325 11.1021 50.325 11.1014 51.4004C11.1011 51.8792 11.0998 52.358 11.0979 52.8368C11.0954 53.448 11.0947 54.0592 11.0952 54.6704C11.0951 54.8945 11.0944 55.1185 11.0931 55.3425C11.0913 55.6459 11.0918 55.9492 11.0927 56.2525C11.0917 56.3395 11.0907 56.4265 11.0896 56.5162C11.0977 57.4787 11.3884 58.4279 12.0704 59.129C12.7105 59.6126 13.2346 59.845 14.0437 59.8464C14.2602 59.8471 14.2602 59.8471 14.481 59.8479C14.642 59.8479 14.8031 59.8479 14.9641 59.8479C15.1345 59.8483 15.3048 59.8487 15.4752 59.8492C15.9446 59.8503 16.414 59.8508 16.8833 59.8511C17.3891 59.8515 17.8949 59.8527 18.4007 59.8537C19.6227 59.856 20.8448 59.8572 22.0668 59.8582C22.6421 59.8587 23.2174 59.8594 23.7926 59.86C25.7047 59.862 27.6167 59.8637 29.5288 59.8645C30.0251 59.8647 30.5214 59.8649 31.0177 59.8652C31.141 59.8652 31.2644 59.8653 31.3915 59.8653C33.3901 59.8663 35.3888 59.8693 37.3874 59.8731C39.4388 59.8769 41.4901 59.8791 43.5414 59.8794C44.6934 59.8797 45.8454 59.8807 46.9974 59.8837C47.9785 59.8862 48.9595 59.8872 49.9405 59.886C50.441 59.8855 50.9416 59.8857 51.4421 59.888C51.9005 59.89 52.3589 59.8899 52.8173 59.8881C52.9829 59.8878 53.1486 59.8884 53.3142 59.8897C54.2381 59.897 54.8989 59.8634 55.6873 59.3629C55.791 59.2978 55.8948 59.2327 56.0016 59.1656C56.7386 58.4286 56.9858 57.5993 56.9887 56.5765C56.9884 56.4882 56.988 56.3998 56.9877 56.3088C56.9878 56.214 56.9879 56.1191 56.988 56.0215C56.9882 55.7031 56.9875 55.3847 56.9869 55.0663C56.9869 54.8344 56.9869 54.6025 56.9869 54.3706C56.987 53.7495 56.9863 53.1283 56.9855 52.5072C56.9848 51.9244 56.9848 51.3416 56.9847 50.7587C56.9841 49.0541 56.9824 47.3495 56.9809 45.6449C56.9785 41.8367 56.9761 38.0285 56.9736 34.1048C41.8468 34.1048 26.7201 34.1048 11.1349 34.1048Z" fill="#0D0D0D"/>
<path d="M32.3001 8.31854C34.9594 10.4095 36.6843 13.302 37.0946 16.6815C37.2084 18.1892 37.1517 19.6646 36.7438 21.125C36.704 21.2685 36.6642 21.412 36.6232 21.5599C36.0702 23.3684 35.1602 24.8396 33.9373 26.2702C33.8706 26.349 33.8038 26.4279 33.735 26.5091C31.7645 28.6416 28.7623 29.9301 25.8916 30.0592C22.5365 30.1384 19.6722 29.2802 17.0986 27.0888C17.002 27.0149 16.9054 26.941 16.8058 26.8649C16.2792 26.4248 15.8815 25.8744 15.4615 25.3347C15.3899 25.2443 15.3183 25.1538 15.2446 25.0607C13.3489 22.5274 12.7352 19.3109 13.1228 16.2137C13.5914 13.1011 15.3415 10.1825 17.8637 8.29274C22.1209 5.2636 28.0662 5.17803 32.3001 8.31854ZM17.4933 11.5509C15.7571 13.7718 14.8588 16.4259 15.1838 19.2541C15.4494 21.234 16.2716 23.0039 17.5664 24.5162C17.6411 24.6132 17.7159 24.7103 17.7929 24.8103C19.2234 26.5333 21.5886 27.5862 23.764 27.9073C24.1836 27.94 24.6002 27.9465 25.021 27.9438C25.1899 27.9429 25.1899 27.9429 25.3623 27.9418C28.1982 27.8939 30.5825 26.6457 32.5341 24.6331C34.3411 22.5564 35.114 19.9261 35.0112 17.2101C34.8187 14.5665 33.4185 12.0929 31.4379 10.3779C27.2447 7.0334 21.0528 7.39412 17.4933 11.5509Z" fill="#0D0D0D"/>
<path d="M44.5807 5.97981C44.6873 5.97899 44.7938 5.97817 44.9035 5.97732C45.2556 5.97527 45.6076 5.97663 45.9597 5.97821C46.2044 5.97789 46.4491 5.97744 46.6937 5.97685C47.2064 5.97616 47.7192 5.97717 48.2319 5.97935C48.8894 5.98202 49.5468 5.98048 50.2043 5.97768C50.7095 5.97599 51.2146 5.97653 51.7198 5.97774C51.9623 5.97805 52.2047 5.97767 52.4471 5.97658C52.7859 5.97539 53.1245 5.9772 53.4633 5.97981C53.5636 5.97886 53.664 5.97791 53.7674 5.97694C54.1944 5.98303 54.4451 5.99389 54.8105 6.22683C55.1133 6.71284 55.1284 7.15123 55.0465 7.70938C54.9967 7.90832 54.9967 7.90832 54.946 8.11128C54.9085 8.26647 54.8711 8.42167 54.8336 8.57687C54.8133 8.65884 54.793 8.74082 54.7721 8.82527C54.6607 9.27949 54.5572 9.73551 54.4534 10.1915C54.4312 10.2888 54.4091 10.386 54.3863 10.4862C53.2318 15.5837 52.9837 20.5051 53.1113 25.7208C53.1624 28.0527 53.1624 28.0527 52.4131 28.9597C51.6624 29.7201 51.0603 30.0393 49.9689 30.0473C49.7357 30.0486 49.5025 30.0498 49.2693 30.049C49.0303 30.0487 48.7916 30.0514 48.5527 30.0544C47.3348 30.055 46.6312 29.9054 45.7241 29.0721C44.9928 28.2741 44.9058 27.3549 44.9349 26.3084C44.9387 26.1258 44.9423 25.9432 44.9459 25.7606C44.948 25.6638 44.9501 25.567 44.9522 25.4673C45.0535 20.2255 44.7564 15.3107 43.5906 10.1916C43.569 10.0966 43.5474 10.0016 43.5251 9.90368C43.4236 9.4605 43.3197 9.01817 43.2103 8.57686C43.1913 8.49789 43.1723 8.41892 43.1526 8.33756C43.102 8.12791 43.0498 7.91863 42.9975 7.70938C42.9156 7.15123 42.9307 6.71284 43.2335 6.22683C43.6733 5.94645 44.069 5.97498 44.5807 5.97981ZM45.397 8.14517C45.4894 9.09983 45.4894 9.09983 45.6434 10.034C45.6815 10.2258 45.6815 10.2258 45.7203 10.4216C45.7475 10.5555 45.7746 10.6894 45.8026 10.8274C45.8307 10.9679 45.8588 11.1085 45.8878 11.2533C45.9469 11.5481 46.0063 11.8429 46.0659 12.1377C46.1574 12.5905 46.248 13.0434 46.3384 13.4963C46.3961 13.7834 46.4538 14.0704 46.5115 14.3574C46.5387 14.4932 46.5659 14.629 46.5939 14.7689C46.6192 14.8939 46.6446 15.0188 46.6707 15.1476C46.693 15.2578 46.7152 15.368 46.7381 15.4816C46.7899 15.7479 46.7899 15.7479 46.9172 15.9799C48.3064 15.9799 49.6955 15.9799 51.1268 15.9799C51.3599 15.0474 51.5794 14.1223 51.7677 13.1812C51.8059 12.9916 51.8059 12.9916 51.8448 12.7981C51.898 12.5337 51.9509 12.2693 52.0037 12.0049C52.0846 11.6001 52.1665 11.1956 52.2485 10.7911C52.3002 10.5329 52.3519 10.2748 52.4035 10.0166C52.428 9.89613 52.4525 9.77565 52.4777 9.65153C52.5 9.53905 52.5223 9.42657 52.5452 9.31067C52.5649 9.21234 52.5847 9.114 52.605 9.01268C52.6613 8.68112 52.6613 8.68112 52.647 8.14517C51.798 8.14517 50.9491 8.14517 50.0744 8.14517C50.07 8.5196 50.0657 8.89403 50.0612 9.27981C50.0558 9.64245 50.0498 10.0051 50.0437 10.3677C50.0398 10.6197 50.0366 10.8717 50.0339 11.1238C50.03 11.4861 50.0239 11.8483 50.0173 12.2105C50.0162 12.3795 50.0162 12.3795 50.0151 12.552C50.0127 12.6573 50.0104 12.7626 50.008 12.8711C50.0067 12.9636 50.0054 13.056 50.0041 13.1513C49.945 13.4759 49.8329 13.6369 49.6067 13.875C49.142 14.0041 48.8945 14.0405 48.4519 13.8385C48.2034 13.6411 48.2034 13.6411 48.0865 13.4073C48.0728 13.2378 48.0658 13.0677 48.0625 12.8977C48.0602 12.7923 48.0578 12.687 48.0554 12.5785C48.0535 12.4646 48.0515 12.3507 48.0495 12.2333C48.0471 12.1169 48.0447 12.0004 48.0421 11.8804C48.0345 11.5075 48.0276 11.1345 48.0207 10.7616C48.0157 10.5092 48.0106 10.2567 48.0054 10.0043C47.9928 9.38458 47.9812 8.76488 47.9696 8.14517C47.1206 8.14517 46.2717 8.14517 45.397 8.14517ZM47.0341 18.0847C47.0273 19.65 47.0273 19.65 47.0227 21.2152C47.0213 21.8537 47.0196 22.4922 47.0165 23.1307C47.0139 23.6455 47.0125 24.1603 47.0119 24.6752C47.0115 24.8715 47.0106 25.0678 47.0094 25.2641C47.0077 25.5393 47.0074 25.8144 47.0075 26.0896C47.0067 26.1706 47.0059 26.2516 47.005 26.3351C47.0074 26.8915 47.0912 27.3113 47.4185 27.7653C47.859 28.0777 48.4955 27.9618 49.0147 27.9584C49.143 27.9608 49.2714 27.9631 49.4036 27.9655C49.5272 27.9654 49.6507 27.9654 49.778 27.9653C49.9473 27.9656 49.9473 27.9656 50.1201 27.9659C50.5145 27.8901 50.6496 27.7541 50.893 27.4395C51.0486 27.0055 51.0255 26.5579 51.0232 26.1029C51.0232 26.0161 51.0232 25.9294 51.0232 25.84C51.0231 25.554 51.0222 25.268 51.0213 24.9821C51.0211 24.7835 51.0209 24.5849 51.0208 24.3863C51.0204 23.8642 51.0192 23.3421 51.0179 22.82C51.0165 22.1932 51.016 21.5665 51.0153 20.9397C51.0142 19.988 51.0119 19.0364 51.0099 18.0847C49.6979 18.0847 48.3859 18.0847 47.0341 18.0847Z" fill="#0D0D0D"/>
<path d="M49.3728 49.0726C50.4536 50.0518 50.944 51.2033 51.109 52.6401C51.1724 54.0925 50.6769 55.358 49.7236 56.4396C48.8933 57.3173 47.8145 57.9098 46.5988 57.9876C44.9164 58.0305 43.6049 57.6438 42.342 56.4907C41.3972 55.5013 40.9728 54.2624 40.9461 52.9132C41.0044 51.3838 41.6134 50.1276 42.7148 49.0763C44.635 47.4578 47.4406 47.5233 49.3728 49.0726ZM43.5959 51.2369C43.1434 51.9428 42.9717 52.6673 43.1081 53.497C43.3843 54.5382 44.011 55.1909 44.9292 55.738C45.7172 55.9857 46.5458 55.9634 47.2972 55.621C48.0573 55.195 48.6381 54.588 48.9051 53.7501C49.0315 52.7341 48.9217 51.9009 48.3204 51.0605C47.7125 50.3486 46.9661 50.0751 46.0548 49.957C45.0159 50.0823 44.2568 50.4091 43.5959 51.2369Z" fill="#0D0D0D"/>
<path d="M25.1082 48.8378C26.213 49.7238 26.898 50.8654 27.1294 52.2696C27.2532 53.7752 26.8739 55.0886 25.9761 56.2966C25.2041 57.1912 24.0111 57.853 22.8309 57.9858C21.2694 58.0726 19.9705 57.8104 18.7356 56.7904C18.1205 56.2005 17.6531 55.5931 17.3324 54.8025C17.2637 54.6397 17.2637 54.6397 17.1936 54.4736C16.8186 53.0026 16.9971 51.6626 17.7198 50.3301C18.4416 49.1521 19.4442 48.3656 20.7966 48.0275C22.3398 47.7352 23.7937 47.9232 25.1082 48.8378ZM19.7881 51.0605C19.1853 51.9028 19.0664 52.7325 19.2034 53.7501C19.4525 54.6848 20.1882 55.2594 20.994 55.7306C21.8949 55.9902 22.708 55.9554 23.53 55.5041C23.6506 55.439 23.7712 55.3738 23.8954 55.3068C24.504 54.8173 24.8688 54.1724 25.0246 53.407C25.1108 52.5924 24.9384 51.8485 24.4655 51.1775C23.792 50.4171 23.0701 50.0716 22.0683 49.9643C21.1506 50.0626 20.3972 50.3471 19.7881 51.0605Z" fill="#0D0D0D"/>
<path d="M48.8685 36.7578C49.731 37.3715 50.3784 38.1528 50.776 39.1331C50.8218 39.2416 50.8676 39.3502 50.9149 39.462C51.2898 40.933 51.1113 42.2729 50.3886 43.6054C49.6668 44.7834 48.6642 45.5699 47.3118 45.908C45.9139 46.1728 44.561 46.0615 43.314 45.3161C42.0998 44.4712 41.38 43.3891 41.0265 41.9542C40.7883 40.5088 41.124 39.1419 41.9181 37.9272C43.5595 35.7189 46.5985 35.3742 48.8685 36.7578ZM44.5784 38.4315C44.3975 38.5292 44.3975 38.5292 44.213 38.6288C43.6044 39.1183 43.2396 39.7632 43.0838 40.5286C42.9976 41.3432 43.17 42.087 43.6429 42.7581C44.3164 43.5185 45.0383 43.864 46.0401 43.9713C46.9578 43.873 47.7112 43.5885 48.3203 42.875C48.9231 42.0327 49.042 41.2031 48.905 40.1855C48.6559 39.2508 47.9202 38.6762 47.1144 38.2049C46.2135 37.9453 45.4004 37.9802 44.5784 38.4315Z" fill="#0D0D0D"/>
<path d="M36.9512 36.7665C38.1309 37.6398 38.8072 38.7454 39.0825 40.1855C39.2387 41.8173 38.818 43.0006 37.9497 44.3514C36.9045 45.4248 35.5845 46.0049 34.0981 46.0615C32.7426 46.0412 31.5794 45.5865 30.5681 44.6875C30.4415 44.5428 30.4415 44.5428 30.3123 44.3952C30.2134 44.2867 30.1146 44.1781 30.0127 44.0663C29.0895 42.9312 28.9073 41.6106 29.026 40.1855C29.2776 38.7971 29.9355 37.7235 31.0505 36.8602C32.8839 35.6404 35.0727 35.5733 36.9512 36.7665ZM31.6201 39.2647C31.1629 39.9889 30.9934 40.7369 31.1309 41.5888C31.5089 42.6576 32.1206 43.3024 33.1188 43.8105C33.9105 44.117 34.6819 43.9262 35.4273 43.599C36.1848 43.1993 36.7105 42.3901 36.9777 41.5888C37.0675 40.616 36.9232 39.8361 36.3272 39.0527C35.7044 38.3855 34.9636 38.0508 34.0543 38.0076C33.055 38.0551 32.2286 38.4648 31.6201 39.2647Z" fill="#0D0D0D"/>
<path d="M25.0616 36.8579C26.2054 37.7339 26.934 38.8769 27.1331 40.3207C27.2347 41.8611 26.863 43.2001 25.8614 44.3915C24.8331 45.4697 23.6064 45.997 22.1195 46.0615C20.6949 46.0352 19.5222 45.5755 18.4685 44.6208C17.4587 43.5676 17.0447 42.3328 16.9817 40.8871C17.0724 39.3507 17.7068 38.1151 18.8161 37.0648C20.5974 35.5649 23.1744 35.5805 25.0616 36.8579ZM19.5981 39.3597C19.1092 40.0931 19.1079 40.8499 19.2034 41.7057C19.4479 42.5045 19.8883 43.1413 20.6067 43.5766C21.4624 43.9757 22.2057 44.0316 23.1135 43.7594C23.9313 43.4387 24.4604 42.9071 24.8387 42.1159C25.1346 41.264 25.1042 40.5072 24.7286 39.6885C24.3489 39.0001 23.727 38.3699 22.9614 38.1291C21.5575 37.857 20.5074 38.2755 19.5981 39.3597Z" fill="#0D0D0D"/>
<path d="M37.2116 48.9557C37.5404 49.248 37.5404 49.248 37.7962 49.5404C37.9446 49.7032 37.9446 49.7032 38.0959 49.8693C39.0074 50.9929 39.2092 52.3371 39.0825 53.7501C38.8255 55.1391 38.1752 56.2105 37.0581 57.0754C35.774 57.9297 34.5207 58.1468 33.0019 57.9597C31.5875 57.6353 30.4512 56.8081 29.666 55.5922C28.9868 54.322 28.7882 52.8903 29.1649 51.4917C29.6699 50.0436 30.5233 49.013 31.9102 48.3358C33.7251 47.5819 35.6145 47.7948 37.2116 48.9557ZM31.8325 51.0605C31.2621 51.8894 31.0494 52.5021 31.1309 53.5162C31.3046 54.3406 31.7556 54.9683 32.4396 55.4511C33.1946 55.8825 33.8977 55.9941 34.7559 55.8549C35.6587 55.5662 36.2928 55.0613 36.747 54.2324C37.0588 53.5198 37.1277 52.771 36.8667 52.033C36.4059 51.0549 35.7773 50.4299 34.7632 50.0373C33.6271 49.8996 32.5757 50.1262 31.8325 51.0605Z" fill="#0D0D0D"/>
<path d="M29.4937 12.0041C29.8372 12.2379 29.8372 12.2379 30.0784 12.5887C30.1447 13.1358 30.1633 13.4769 29.8208 13.9202C29.7044 14.051 29.5854 14.1796 29.4645 14.3062C29.4016 14.3757 29.3387 14.4451 29.2739 14.5166C29.0765 14.7336 28.876 14.9475 28.6752 15.1613C28.5494 15.298 28.4237 15.4349 28.2983 15.572C28.0617 15.83 27.824 16.0869 27.5853 16.343C27.2678 16.686 26.9588 17.0347 26.653 17.3881C26.4141 17.662 26.1708 17.9318 25.9272 18.2016C25.6126 18.5502 25.3 18.9 24.9917 19.2541C24.595 19.7095 24.1905 20.1577 23.7858 20.6061C23.5621 20.8554 23.3407 21.1063 23.1207 21.3589C22.7983 21.7282 22.4745 22.0962 22.1487 22.4625C22.0611 22.5612 21.9735 22.6599 21.8833 22.7617C21.6061 23.0513 21.4953 23.1051 21.0963 23.1495C20.6381 23.1046 20.4648 22.9618 20.1389 22.6452C19.9535 22.2746 19.9793 22.0029 20.0219 21.5928C20.1897 21.295 20.4096 21.0588 20.6431 20.8108C20.7379 20.7054 20.7379 20.7054 20.8346 20.5978C21.0296 20.382 21.2271 20.1687 21.4252 19.9557C21.5422 19.8274 21.6592 19.6991 21.776 19.5706C21.9911 19.3345 22.2071 19.0993 22.4241 18.8649C22.7308 18.5314 23.0295 18.1921 23.3263 17.8499C23.5668 17.5748 23.8113 17.3035 24.0562 17.0323C24.3707 16.6837 24.6833 16.3339 24.9917 15.9799C25.3884 15.5244 25.7929 15.0762 26.1976 14.6278C26.4213 14.3785 26.6427 14.1276 26.8627 13.875C27.1829 13.5084 27.5041 13.1427 27.8274 12.7787C27.9136 12.6814 27.9998 12.584 28.0887 12.4837C28.5432 12.0098 28.847 11.926 29.4937 12.0041Z" fill="#0D0D0D"/>
<path d="M14.2724 35.9105C14.6814 36.0159 14.8484 36.2357 15.1106 36.5605C15.1679 36.9031 15.1897 37.1774 15.1844 37.5193C15.1853 37.6142 15.1861 37.7092 15.187 37.807C15.1889 38.12 15.1867 38.4328 15.1842 38.7457C15.1843 38.9637 15.1846 39.1817 15.185 39.3997C15.1854 39.8562 15.1836 40.3127 15.1804 40.7692C15.1765 41.3539 15.1772 41.9385 15.1793 42.5232C15.1806 42.9733 15.1795 43.4233 15.1778 43.8733C15.1772 44.0889 15.1772 44.3045 15.178 44.52C15.1786 44.8215 15.1762 45.1228 15.173 45.4243C15.1738 45.5131 15.1745 45.602 15.1753 45.6935C15.1676 46.1228 15.122 46.3653 14.8891 46.7308C14.6429 46.9678 14.6429 46.9678 14.3834 47.0413C13.663 47.0203 13.663 47.0203 13.2981 46.7558C12.9685 46.2751 12.9878 45.8204 12.987 45.2599C12.9864 45.1696 12.9858 45.0792 12.9852 44.9861C12.9835 44.6871 12.9827 44.3881 12.982 44.0891C12.9814 43.8813 12.9807 43.6735 12.98 43.4656C12.9788 43.0298 12.9781 42.5939 12.9777 42.1581C12.9771 41.5998 12.9743 41.0416 12.9709 40.4834C12.9687 40.054 12.9681 39.6247 12.968 39.1953C12.9676 38.9895 12.9667 38.7837 12.9651 38.578C12.9631 38.2899 12.9634 38.002 12.9641 37.7139C12.963 37.6291 12.962 37.5443 12.9608 37.4569C12.9687 36.5062 13.3114 35.9681 14.2724 35.9105Z" fill="#0D0D0D"/>
<path d="M31.4817 15.9798C31.9198 16.2846 32.0462 16.4731 32.1613 16.9957C32.1111 17.7038 31.5824 18.1651 31.1308 18.6694C30.9724 18.8548 30.8154 19.0413 30.6585 19.2279C30.4939 19.4234 30.3285 19.6181 30.1629 19.8127C29.8774 20.1495 29.597 20.4902 29.3183 20.8327C28.724 21.5622 28.1166 22.2802 27.5058 22.996C27.4216 23.095 27.3373 23.194 27.2505 23.2961C27.1417 23.4225 27.1417 23.4225 27.0308 23.5514C26.9691 23.6232 26.9075 23.6949 26.844 23.7689C26.589 24.0335 26.4387 24.0501 26.0661 24.0923C25.6349 24.0484 25.6349 24.0484 25.2914 23.8072C24.9863 23.3727 24.9678 23.1668 25.0502 22.6452C25.3752 22.1025 25.7678 21.6352 26.183 21.1616C26.3089 21.0164 26.4347 20.8711 26.5603 20.7258C26.6218 20.6546 26.6834 20.5834 26.7468 20.5101C27.0743 20.1277 27.3899 19.7357 27.7073 19.3449C28.0598 18.915 28.4195 18.4913 28.7803 18.0683C29.0446 17.7577 29.3054 17.4453 29.5591 17.1259C29.6509 17.0106 29.7427 16.8953 29.8372 16.7765C29.9179 16.6735 29.9985 16.5706 30.0816 16.4645C30.4953 16.0148 30.8743 15.8931 31.4817 15.9798Z" fill="#0D0D0D"/>
<path d="M25.7518 11.1855C26.0615 11.4552 26.0978 11.6285 26.1757 12.0333C26.0997 12.4893 26.051 12.5745 25.7556 12.8991C25.6811 12.981 25.6066 13.0629 25.5299 13.1472C25.0989 13.6031 24.6588 14.0491 24.2147 14.4921C24.1152 14.5918 24.0157 14.6914 23.9132 14.794C23.7045 15.0028 23.4957 15.2114 23.2867 15.4199C22.9658 15.7402 22.6455 16.0611 22.3252 16.3821C22.1219 16.5853 21.9186 16.7885 21.7152 16.9916C21.6192 17.0879 21.5233 17.1841 21.4244 17.2832C21.3357 17.3715 21.2471 17.4598 21.1558 17.5507C21.0777 17.6286 20.9997 17.7066 20.9193 17.7869C20.6316 18.0528 20.5023 18.0835 20.1023 18.1212C19.5959 18.0783 19.4231 17.9932 19.0865 17.617C18.9374 17.1885 18.9361 16.994 19.1142 16.5753C19.318 16.2177 19.5229 15.9667 19.8124 15.6762C19.9112 15.5764 20.01 15.4765 20.1117 15.3736C20.218 15.268 20.3244 15.1624 20.434 15.0535C20.5448 14.9424 20.6557 14.8312 20.7665 14.72C20.9981 14.4879 21.2303 14.2564 21.463 14.0254C21.7605 13.7298 22.0564 13.4327 22.3519 13.1352C22.5802 12.9056 22.8093 12.6769 23.0387 12.4484C23.2012 12.2863 23.3629 12.1235 23.5247 11.9606C23.6739 11.8131 23.6739 11.8131 23.8262 11.6625C23.9131 11.5758 24.0001 11.4891 24.0897 11.3998C24.6696 10.9197 25.0569 10.9024 25.7518 11.1855Z" fill="#0D0D0D"/>
<path d="M54.0576 52.8657C54.518 52.9315 54.518 52.9315 54.803 53.1434C55.2378 53.7521 55.1287 54.4755 55.1308 55.1932C55.1319 55.4293 55.1355 55.6653 55.1392 55.9014C55.1398 56.051 55.1404 56.2005 55.1411 56.3546C55.1422 56.4913 55.1432 56.6281 55.1444 56.769C55.0857 57.2929 54.8855 57.5922 54.518 57.9597C53.8708 58.034 53.8708 58.034 53.5825 57.9597C53.1848 57.6432 53.0154 57.4702 52.9222 56.9637C52.9184 56.8073 52.9179 56.6508 52.9202 56.4943C52.9196 56.4109 52.9191 56.3275 52.9185 56.2415C52.9181 56.0658 52.9192 55.89 52.9216 55.7143C52.9248 55.4463 52.9216 55.1787 52.9179 54.9107C52.9183 54.7394 52.919 54.5681 52.9202 54.3968C52.919 54.3173 52.9178 54.2377 52.9166 54.1557C52.9276 53.7059 52.9902 53.5255 53.2797 53.1734C53.5778 52.9352 53.6857 52.8531 54.0576 52.8657Z" fill="#0D0D0D"/>
<path d="M54.401 45.9154C54.7637 46.2136 54.9536 46.4038 55.1026 46.8508C55.1334 47.3887 55.1297 47.9273 55.1319 48.466C55.1343 48.6147 55.1367 48.7634 55.1392 48.9166C55.1398 49.0605 55.1404 49.2044 55.141 49.3526C55.1421 49.4839 55.1432 49.6151 55.1443 49.7504C55.0962 50.1824 54.9831 50.4598 54.7518 50.8266C54.3246 51.0165 54.0685 51.0943 53.6117 50.9801C53.3383 50.8206 53.1847 50.731 52.9978 50.4758C52.9615 50.1706 52.9458 49.8937 52.9471 49.5883C52.9465 49.5017 52.9459 49.415 52.9452 49.3258C52.9445 49.1427 52.9446 48.9595 52.9456 48.7764C52.9466 48.4966 52.9433 48.2171 52.9395 47.9373C52.9394 47.7592 52.9394 47.5811 52.9398 47.4031C52.9385 47.3196 52.9371 47.2362 52.9358 47.1502C52.9414 46.7474 52.9681 46.5377 53.2207 46.217C53.6298 45.9083 53.887 45.8549 54.401 45.9154Z" fill="#0D0D0D"/>
<path d="M14.2725 48.8904C14.7106 49.0032 14.8511 49.1684 15.1107 49.5404C15.1948 50.0314 15.1869 50.5124 15.1765 51.0094C15.1777 51.1422 15.179 51.2751 15.1803 51.412C15.1717 52.3882 15.1717 52.3882 14.8937 52.7323C14.5655 52.993 14.3597 53.0401 13.9413 53.0484C13.5539 52.9143 13.3138 52.8257 13.105 52.4647C12.9618 51.9565 12.9674 51.469 12.9693 50.9436C12.9674 50.8396 12.9655 50.7356 12.9636 50.6284C12.9632 50.0516 12.9812 49.6573 13.3567 49.1895C13.6523 48.8939 13.8679 48.9146 14.2725 48.8904Z" fill="#0D0D0D"/>
</svg>
