<svg width="61" height="60" viewBox="0 0 61 60" fill="none" xmlns="http://www.w3.org/2000/svg">
<path d="M40.6283 7.37588C41.0735 7.51588 41.2687 7.93553 41.5039 8.31545C42.2702 9.78524 42.7011 11.3614 42.9073 13.001C43.0283 13.947 43.2539 14.7049 43.7839 15.5138C43.8314 15.5908 43.8788 15.6678 43.9277 15.7471C44.3794 16.3711 45.0669 16.6996 45.7311 17.0569C46.681 17.568 46.681 17.568 46.8227 17.8513C46.8881 18.5275 46.8881 18.5275 46.8227 18.7863C46.4393 19.1557 46.0241 19.3742 45.5443 19.5971C44.3914 20.1644 43.6304 20.9409 43.1995 22.1757C43.1662 22.4657 43.1662 22.4657 43.173 22.7678C43.173 22.8824 43.173 22.997 43.173 23.1151C43.1743 23.2373 43.1755 23.3596 43.1767 23.4855C43.177 23.6118 43.1774 23.7381 43.1777 23.8682C43.179 24.2707 43.1819 24.6732 43.1849 25.0757C43.1861 25.3489 43.1872 25.6222 43.1881 25.8954C43.1907 26.5645 43.1946 27.2335 43.1995 27.9026C43.3561 27.8442 43.3561 27.8442 43.5158 27.7846C43.9031 27.6403 44.2907 27.4967 44.6783 27.3533C44.846 27.2912 45.0137 27.2288 45.1813 27.1663C45.4222 27.0764 45.6633 26.9872 45.9046 26.8982C45.9794 26.8701 46.0543 26.842 46.1315 26.813C46.4584 26.6931 46.7048 26.617 47.0564 26.617C47.0078 26.5006 47.0078 26.5006 46.9583 26.3819C46.9159 26.2787 46.8736 26.1754 46.83 26.0691C46.7879 25.9674 46.7459 25.8657 46.7026 25.761C46.2515 24.52 46.277 22.793 46.8227 21.5913C47.6862 19.7674 48.8628 18.8063 50.7526 18.107C50.8677 18.0625 50.9828 18.0179 51.1014 17.9721C52.1138 17.5867 53.0238 17.3396 54.1128 17.3473C54.2108 17.3479 54.3088 17.3486 54.4098 17.3493C55.9271 17.3791 57.2957 17.9737 58.4116 19.0164C59.6289 20.3575 60.0226 21.8615 59.9575 23.6289C59.859 25.1325 59.1081 26.5037 58.0159 27.5255C56.9934 28.3472 55.6344 28.7887 54.4132 29.2206C54.2635 29.2744 54.1139 29.3283 53.9643 29.3822C53.5769 29.5216 53.189 29.6599 52.8011 29.7978C52.4027 29.9397 52.0048 30.0828 51.6068 30.2257C50.8306 30.5044 50.054 30.7817 49.2771 31.0582C50.2025 31.452 51.134 31.8178 52.0793 32.1608C52.3411 32.2568 52.6029 32.353 52.8646 32.4491C53.2703 32.5979 53.6762 32.7463 54.0824 32.8937C54.4792 33.0379 54.8754 33.1836 55.2715 33.3296C55.3914 33.3727 55.5114 33.4158 55.635 33.4602C57.6092 34.192 58.7874 35.2675 59.6908 37.1737C60.1249 38.3358 60.1178 40.0358 59.6831 41.1963C59.6432 41.2834 59.6032 41.3704 59.5621 41.4602C59.5137 41.5665 59.4654 41.6729 59.4155 41.7825C58.6343 43.3449 57.3906 44.2129 55.7582 44.7624C53.5555 45.4323 51.1836 44.4605 49.2168 43.4749C47.8649 42.6649 47.0205 41.4645 46.5725 39.9609C46.4554 39.4588 46.4273 38.9722 46.4282 38.4579C46.4281 38.3671 46.4281 38.2762 46.428 38.1826C46.4451 37.272 46.6465 36.4361 47.0564 35.6164C46.9892 35.5974 46.9219 35.5785 46.8526 35.5589C46.0231 35.3184 45.2189 35.0252 44.4121 34.7179C44.2836 34.6693 44.1551 34.6207 44.0227 34.5707C43.7092 34.4521 43.3959 34.3332 43.0827 34.2139C43.0837 34.3146 43.0847 34.4152 43.0858 34.519C43.0952 35.4698 43.1023 36.4207 43.1069 37.3716C43.1093 37.8604 43.1126 38.3492 43.1179 38.838C43.123 39.3101 43.1258 39.7822 43.127 40.2544C43.1279 40.4341 43.1295 40.6138 43.1321 40.7935C43.1559 42.5544 43.1559 42.5544 42.6152 43.2133C42.1059 43.5641 41.7054 43.6623 41.0958 43.5639C40.5975 43.3418 40.1478 43.045 39.6933 42.7458C39.5955 42.6818 39.4977 42.6178 39.3969 42.5519C37.7756 41.4852 36.2759 40.4868 35.1351 38.8889C34.682 39.0729 34.4109 39.3636 34.0759 39.7143C33.6476 40.1547 33.2112 40.5628 32.7319 40.9488C32.6273 41.0353 32.5227 41.1218 32.415 41.2109C32.0964 41.4602 32.0964 41.4602 31.7558 41.6729C31.38 41.9344 31.1638 42.1164 30.9276 42.512C30.7871 43.3208 30.8553 44.153 30.9276 44.9664C31.0719 45.0146 31.2163 45.0629 31.365 45.1125C34.328 46.1167 37.8171 47.481 39.7458 50.1058C40.323 50.869 40.8926 51.013 41.8116 51.1827C42.0744 51.2388 42.3371 51.2956 42.5996 51.353C42.7243 51.3798 42.849 51.4066 42.9775 51.4341C45.5166 52.0135 47.6568 53.8051 49.0506 55.96C49.6963 57.0425 50.299 58.1702 50.2121 59.459C50.0367 59.7512 50.0367 59.7512 49.7446 59.9265C49.4165 59.9971 49.1314 60.0277 48.8096 59.9265C48.4026 59.5165 48.2411 59.1134 48.0718 58.5678C47.3727 56.5323 45.8535 54.8626 43.9373 53.8928C42.7799 53.3531 41.5155 53.0876 40.2776 52.7971C40.268 52.8719 40.2584 52.9467 40.2485 53.0238C40.126 53.5233 39.9105 53.9649 39.6923 54.4292C39.6452 54.5309 39.598 54.6325 39.5494 54.7373C39.4493 54.9527 39.3488 55.1679 39.2481 55.383C39.0967 55.7066 38.9461 56.0306 38.7957 56.3547C38.3626 57.2861 37.926 58.2159 37.4735 59.138C37.4107 59.2663 37.3479 59.3946 37.2832 59.5268C37.122 59.8096 37.122 59.8096 36.8882 59.9265C36.0503 59.9797 36.0503 59.9797 35.7268 59.8023C35.5045 59.3969 35.4254 58.9748 35.551 58.523C35.6583 58.2613 35.7769 58.0085 35.9017 57.7547C35.9463 57.6597 35.9909 57.5647 36.0369 57.4668C36.18 57.1632 36.3258 56.8611 36.4719 56.559C36.566 56.361 36.66 56.163 36.7538 55.9648C36.8001 55.8671 36.8464 55.7694 36.894 55.6687C36.9402 55.5712 36.9863 55.4738 37.0339 55.3734C37.103 55.2277 37.103 55.2277 37.1735 55.0791C37.3125 54.7861 37.4511 54.4929 37.5895 54.1996C37.6364 54.1003 37.6834 54.0009 37.7318 53.8986C37.8674 53.6096 38.0011 53.3197 38.1342 53.0295C38.1754 52.9422 38.2167 52.8549 38.2592 52.7649C38.5145 52.2056 38.5145 52.2056 38.4076 51.6283C37.5732 50.5084 36.3962 49.7175 35.252 48.9402C34.9684 49.9983 34.7546 51.0638 34.5539 52.1398C34.4988 52.4342 34.443 52.7286 34.387 53.0228C34.2279 53.8584 34.0692 54.694 33.9133 55.5301C33.8173 56.0443 33.7197 56.5581 33.621 57.0718C33.5839 57.2666 33.5475 57.4615 33.5116 57.6565C33.4615 57.9287 33.4094 58.2003 33.3567 58.4719C33.3425 58.5518 33.3284 58.6316 33.3138 58.7139C33.2111 59.2276 33.0457 59.5506 32.6807 59.9265C32.3588 60.0277 32.0738 59.9971 31.7457 59.9265C31.4535 59.7512 31.4535 59.7512 31.2782 59.459C31.2069 58.5607 31.4125 57.6999 31.585 56.822C31.6165 56.6583 31.648 56.4945 31.6794 56.3307C31.7616 55.9025 31.8449 55.4745 31.9284 55.0465C32.0136 54.6086 32.0979 54.1706 32.1822 53.7326C32.3474 52.8751 32.5137 52.0179 32.6807 51.1608C32.4926 51.1355 32.3043 51.1119 32.1158 51.0892C32.011 51.0759 31.9061 51.0626 31.798 51.0489C31.4887 51.0161 31.4887 51.0161 31.2006 51.2553C31.0872 51.4074 31.0872 51.4074 30.9714 51.5626C30.8859 51.6702 30.8003 51.7777 30.7121 51.8886C30.5874 52.049 30.5874 52.049 30.4601 52.2127C29.865 52.8588 29.2405 53.5239 28.4075 53.849C28.0069 53.849 27.7587 53.7054 27.4213 53.4983C27.2272 53.1102 27.2402 52.8782 27.3045 52.4465C27.5844 52.0833 27.922 51.7951 28.2687 51.4968C28.4498 51.3362 28.6306 51.1752 28.8111 51.0138C28.8953 50.9389 28.9796 50.864 29.0665 50.7868C29.3276 50.5426 29.5493 50.2816 29.7588 49.9921C29.7096 49.9131 29.6603 49.8342 29.6096 49.7528C29.5135 49.5965 29.5135 49.5965 29.4155 49.4369C29.3518 49.3339 29.2881 49.2308 29.2224 49.1246C28.9229 48.5772 28.9179 48.0557 28.9037 47.4409C28.9013 47.3534 28.8989 47.2658 28.8964 47.1756C28.8888 46.897 28.8819 46.6184 28.875 46.3397C28.8699 46.1504 28.8648 45.9611 28.8597 45.7718C28.8472 45.3085 28.8353 44.8453 28.8238 44.3821C28.7387 44.4456 28.6535 44.5092 28.5657 44.5748C28.4523 44.6585 28.3389 44.7423 28.2221 44.8286C28.1104 44.9114 27.9987 44.9943 27.8836 45.0797C26.6817 45.9056 25.4319 46.1718 23.9968 46.1703C23.8849 46.1708 23.7729 46.1713 23.6576 46.1719C23.4222 46.1725 23.1868 46.1726 22.9513 46.1721C22.5951 46.1717 22.239 46.1745 21.8828 46.1774C20.4007 46.1824 19.056 46.1328 17.7353 45.3901C17.615 45.3241 17.4948 45.2581 17.371 45.1901C16.9881 44.9465 16.6643 44.675 16.3182 44.3821C16.3165 44.5534 16.3165 44.5534 16.3148 44.7283C16.3101 45.1575 16.3024 45.5865 16.2939 46.0156C16.2906 46.2004 16.2881 46.3851 16.2865 46.5699C16.2742 47.8641 16.2134 48.9343 15.3832 49.9921C16.9443 51.8893 18.9681 53.3156 21.4607 53.6152C21.8285 53.6308 22.1956 53.6316 22.5637 53.6298C22.7075 53.6305 22.7075 53.6305 22.8543 53.6312C23.4148 53.6303 23.9439 53.5795 24.4994 53.4983C24.8512 53.5863 25.0347 53.6879 25.303 53.9293C25.4971 54.3283 25.425 54.5955 25.3176 55.0177C24.9347 55.5126 24.3855 55.525 23.7982 55.6021C23.4005 55.6337 23.0064 55.6412 22.6075 55.6386C22.5007 55.638 22.3938 55.6373 22.2837 55.6366C19.2891 55.5836 16.7495 54.3275 14.6819 52.2127C14.4232 51.8932 14.1667 51.5755 13.9249 51.243C13.4567 50.927 12.9971 51.0638 12.4613 51.1608C12.5412 51.5992 12.6217 52.0374 12.7023 52.4757C12.7277 52.6137 12.753 52.7518 12.7791 52.894C12.9356 53.7406 13.098 54.5857 13.2666 55.43C13.3042 55.6192 13.3418 55.8084 13.3794 55.9976C13.4348 56.2768 13.4906 56.556 13.5474 56.8349C13.6008 57.0975 13.6532 57.3604 13.7054 57.6232C13.7294 57.739 13.7294 57.739 13.754 57.8572C14.0175 59.2027 14.0175 59.2027 13.6885 59.7512C13.3385 59.9612 13.096 59.9867 12.695 60C12.3235 59.8832 12.208 59.6628 11.9938 59.3421C11.8823 59.016 11.8213 58.6849 11.7602 58.3461C11.7409 58.2472 11.7216 58.1483 11.7018 58.0464C11.6388 57.7209 11.5782 57.395 11.5176 57.069C11.4741 56.8424 11.4305 56.6158 11.3868 56.3893C11.2722 55.7938 11.1596 55.198 11.0474 54.602C10.8887 53.7608 10.7274 52.92 10.5663 52.0792C10.4805 51.6315 10.3955 51.1837 10.3111 50.7357C10.2724 50.532 10.2338 50.3283 10.1951 50.1246C10.1777 50.0313 10.1603 49.938 10.1423 49.8418C10.0586 49.3777 10.0586 49.3777 9.89001 48.9402C9.17523 49.4079 8.50878 49.9207 7.85929 50.4742C7.78982 50.5329 7.72035 50.5916 7.64877 50.6521C7.07338 51.1457 7.07337 51.1457 6.61749 51.7452C6.65985 52.3183 6.86863 52.7888 7.11786 53.2979C7.1757 53.4189 7.1757 53.4189 7.2347 53.5423C7.31698 53.7143 7.39962 53.8862 7.48259 54.0578C7.69795 54.5041 7.9097 54.952 8.12181 55.3999C8.16362 55.488 8.20544 55.5762 8.24853 55.667C8.59197 56.3917 8.93058 57.1182 9.25449 57.852C9.29834 57.9476 9.34218 58.0433 9.38735 58.1419C9.61513 58.6665 9.71269 59.0057 9.53938 59.5759C9.4152 59.795 9.4152 59.795 9.18875 59.9265C8.5465 59.9979 8.5465 59.9979 8.25375 59.9265C7.83204 59.5706 7.63145 59.1914 7.40229 58.6938C7.36748 58.619 7.33266 58.5441 7.29679 58.467C7.18381 58.2235 7.0723 57.9793 6.96081 57.7351C6.8832 57.567 6.8055 57.399 6.72772 57.2311C6.53224 56.8083 6.33798 56.385 6.14415 55.9614C5.97405 55.59 5.80311 55.219 5.63227 54.8479C5.33611 54.2038 5.04119 53.5592 4.74748 52.914C3.05664 53.2415 3.05664 53.2415 1.42155 53.7746C1.04575 53.8686 0.795058 53.8351 0.423089 53.7321C0.16407 53.5498 0.0892561 53.4425 0.00534998 53.1377C-0.0090886 52.8459 0.00327423 52.614 0.0724621 52.3296C0.61493 51.802 1.36487 51.6072 2.08126 51.4384C2.22716 51.4008 2.22716 51.4008 2.37602 51.3624C2.80373 51.2537 3.21884 51.1621 3.6568 51.1038C4.75374 50.9501 5.21481 50.3991 5.90117 49.5926C6.38773 49.0215 6.95378 48.5709 7.5525 48.1221C7.68606 48.0188 7.68606 48.0188 7.82231 47.9134C9.72915 46.5018 11.9775 45.6943 14.2144 44.9664C14.3981 43.4909 14.3981 43.4909 13.9733 42.1258C13.6408 41.8301 13.3011 41.5868 12.9288 41.3433C12.6906 41.1533 12.4544 40.961 12.2202 40.7662C12.1152 40.6832 12.0102 40.6002 11.902 40.5147C11.5406 40.203 11.4177 40.0173 11.3656 39.539C11.4094 39.1227 11.4094 39.1227 11.5847 38.8378C11.9083 38.6355 12.1632 38.5531 12.5476 38.573C13.0215 38.7203 13.3253 39.0673 13.6739 39.4085C13.9706 39.6973 14.2774 39.9538 14.6016 40.2111C15.0949 40.6098 15.5632 41.027 16.026 41.4602C17.5841 42.9147 18.9926 44.2066 21.2151 44.199C21.3221 44.1996 21.4291 44.2002 21.5393 44.2008C21.7643 44.2016 21.9892 44.2014 22.2141 44.2004C22.5547 44.1994 22.8951 44.2028 23.2357 44.2065C25.5544 44.2155 26.8462 43.5259 28.5342 41.9436C28.9086 41.5929 29.2924 41.2625 29.6931 40.9415C30.3258 40.4323 30.9174 39.8861 31.5106 39.3322C31.7932 39.0686 32.081 38.8123 32.3739 38.5602C33.3273 37.7869 33.3273 37.7869 33.9664 36.7851C33.9232 36.3855 33.8373 36.0041 33.7326 35.6164C33.6645 35.6134 33.5964 35.6104 33.5263 35.6073C32.5879 35.5423 31.541 35.4028 30.8472 34.7252C30.6334 34.3383 30.5506 34.1015 30.5331 33.6587C30.5274 33.5605 30.5217 33.4623 30.5158 33.3611C30.6031 32.9099 30.8151 32.6309 31.1613 32.3439C31.512 32.1549 31.874 32.0215 32.2498 31.891C32.3475 31.8551 32.4452 31.8193 32.5458 31.7823C32.7849 31.6949 33.0249 31.6101 33.2651 31.5257C33.2674 31.4368 33.2697 31.3478 33.2721 31.2561C33.2833 30.8516 33.2961 30.4473 33.3089 30.0429C33.3126 29.9028 33.3162 29.7628 33.3199 29.6185C33.3244 29.4833 33.3289 29.3481 33.3336 29.2088C33.3373 29.0845 33.3409 28.9603 33.3447 28.8323C33.3831 28.4762 33.4511 28.22 33.6157 27.9026C34.0506 27.6127 34.27 27.6147 34.7845 27.6689C35.0971 27.9084 35.2357 28.0441 35.3051 28.4362C35.3014 28.6014 35.3014 28.6014 35.2976 28.77C35.2954 28.9497 35.2954 28.9497 35.2931 29.133C35.2872 29.3194 35.2872 29.3194 35.2812 29.5096C35.2791 29.6357 35.277 29.7618 35.2748 29.8918C35.2693 30.2028 35.2616 30.5136 35.252 30.8245C35.3798 30.7774 35.5076 30.7303 35.6393 30.6817C36.1191 30.5048 36.599 30.3279 37.0789 30.1511C37.2855 30.0749 37.4921 29.9988 37.6988 29.9226C38.1897 29.7416 38.6806 29.5607 39.1717 29.3802C39.4866 29.2644 39.8013 29.148 40.1157 29.031C40.2311 28.9882 40.3464 28.9455 40.4653 28.9015C40.5611 28.8658 40.657 28.83 40.7557 28.7932C40.9789 28.7207 40.9789 28.7207 41.2126 28.7207C41.2107 27.8266 41.2043 26.9326 41.1948 26.0385C41.1921 25.7347 41.1904 25.431 41.1898 25.1272C41.1887 24.689 41.1839 24.251 41.1784 23.8129C41.1791 23.611 41.1791 23.611 41.1798 23.4051C41.1578 22.1755 40.7251 21.2368 39.8951 20.3331C39.4012 19.9284 38.8446 19.6542 38.2692 19.3816C38.1429 19.3208 38.1429 19.3208 38.0141 19.2588C37.938 19.2239 37.862 19.189 37.7836 19.153C37.5347 18.9825 37.4592 18.8339 37.3558 18.5526C37.364 18.091 37.3837 17.832 37.6991 17.4861C38.0004 17.3016 38.2933 17.1537 38.6122 17.004C39.6689 16.4866 40.5385 15.6873 40.9789 14.5788C41.3372 12.837 40.4023 10.5787 39.6166 9.06282C39.4177 8.6478 39.4005 8.3718 39.4595 7.91689C39.7621 7.42512 40.0909 7.39372 40.6283 7.37588ZM42.0308 16.5657C41.862 16.7453 41.6971 16.9286 41.534 17.1135C41.165 17.5285 40.7935 17.9327 40.3945 18.3188C40.4721 18.388 40.5497 18.4571 40.6296 18.5284C41.1483 18.9925 41.6635 19.4548 42.1476 19.9551C42.2154 19.8761 42.2832 19.7972 42.3531 19.7158C42.833 19.1678 43.2635 18.6783 43.9008 18.3188C43.817 18.2555 43.7332 18.1923 43.6469 18.1271C43.2964 17.8346 43.0049 17.5212 42.7028 17.1793C42.52 16.9727 42.3356 16.7676 42.1476 16.5657C42.1091 16.5657 42.0705 16.5657 42.0308 16.5657ZM49.1163 21.3284C48.4219 22.374 48.1668 23.3743 48.342 24.6301C48.465 25.0676 48.6199 25.4916 48.7937 25.9114C49.027 26.4865 49.1068 26.9293 49.0433 27.552C48.7931 27.8801 48.5159 27.995 48.1341 28.1343C48.0194 28.1767 47.9047 28.2191 47.7865 28.2628C47.5984 28.3306 47.5984 28.3306 47.4066 28.3998C47.275 28.4481 47.1435 28.4964 47.0079 28.5461C46.6488 28.6777 46.2893 28.8084 45.9297 28.9387C45.5532 29.0753 45.1772 29.2131 44.8011 29.3507C42.595 30.1569 40.3856 30.9542 38.1739 31.7447C36.5706 32.3183 34.9748 32.9105 33.382 33.5126C33.382 33.5898 33.382 33.6669 33.382 33.7464C35.4023 34.0903 37.1344 33.497 39.0139 32.8114C39.2471 32.7273 39.4803 32.6433 39.7135 32.5594C40.4477 32.2948 41.1809 32.0275 41.9139 31.7595C42.0297 31.7171 42.1456 31.6748 42.2649 31.6312C43.3057 31.2504 44.346 30.8683 45.3857 30.4847C46.7383 29.9858 48.0923 29.4911 49.4483 29.0015C49.5246 28.9739 49.6009 28.9464 49.6796 28.918C50.5016 28.621 51.3238 28.3246 52.1463 28.0288C53.8039 27.4333 53.8039 27.4333 55.4514 26.8105C55.6415 26.737 55.6415 26.737 55.8354 26.6619C56.8825 26.1595 57.5131 25.3431 57.9258 24.2795C58.2403 23.3362 58.1465 22.1488 57.7213 21.2571C57.1097 20.2098 56.1686 19.5817 55.004 19.2538C53.1254 18.9644 50.3473 19.8248 49.1163 21.3284ZM45.3982 32.4023C45.2712 32.4566 45.1442 32.5108 45.0134 32.5667C44.9162 32.6089 44.819 32.651 44.7189 32.6945C45.1006 32.9489 45.4861 33.0946 45.9137 33.2497C46.0819 33.3117 46.2502 33.3738 46.4184 33.4359C46.6833 33.5331 46.9482 33.63 47.2133 33.7267C47.4694 33.8204 47.7252 33.9148 47.9809 34.0093C48.1002 34.0525 48.1002 34.0525 48.2218 34.0964C48.556 34.2202 48.7882 34.3094 49.0433 34.5645C49.1612 35.2997 48.9732 35.9041 48.6927 36.5733C48.2699 37.6783 48.1219 38.7261 48.532 39.8677C49.1102 41.0967 49.9409 41.8228 51.2073 42.3134C51.4302 42.3933 51.6536 42.4717 51.8775 42.5486C51.9905 42.589 52.1035 42.6295 52.2199 42.6712C53.4888 43.1194 54.5498 43.2705 55.8221 42.7458C56.8331 42.2085 57.5674 41.4872 57.9615 40.401C58.1943 39.4174 58.1829 38.3324 57.7446 37.4097C56.6351 35.6154 54.8251 35.1698 52.944 34.4988C52.4835 34.3334 52.0233 34.1675 51.563 34.0016C51.4486 33.9604 51.3341 33.9192 51.2163 33.8768C50.4936 33.6161 49.7732 33.3503 49.0547 33.0785C48.9672 33.0453 48.8796 33.0122 48.7894 32.9781C48.3832 32.8242 47.9773 32.6695 47.5718 32.5139C47.4305 32.4602 47.2892 32.4065 47.1436 32.3512C47.0215 32.3043 46.8994 32.2575 46.7736 32.2092C46.2251 32.029 45.9117 32.1815 45.3982 32.4023ZM40.2251 34.249C40.0688 34.3061 39.9124 34.3631 39.756 34.42C39.5115 34.5094 39.2672 34.5992 39.0231 34.69C37.8929 35.1096 36.7931 35.4158 35.6026 35.6164C36.4341 37.7571 37.6624 39.1371 39.5764 40.3645C39.7227 40.4603 39.869 40.5564 40.0151 40.6525C40.5842 41.1064 40.5842 41.1064 41.2126 41.3433C41.2126 38.9134 41.2126 36.4836 41.2126 33.9801C40.8539 33.9801 40.5607 34.1248 40.2251 34.249ZM30.8107 46.9533C30.7572 47.5555 30.7346 47.987 31.0372 48.5238C31.6537 49.0397 32.3599 49.1898 33.1482 49.2908C33.1868 49.1462 33.2254 49.0016 33.2651 48.8525C33.2868 48.7712 33.3085 48.6898 33.3309 48.606C33.3976 48.322 33.3976 48.322 33.382 47.8883C32.9755 47.7322 32.5688 47.5765 32.1621 47.4208C32.046 47.3762 31.9299 47.3316 31.8103 47.2857C31.7 47.2435 31.5896 47.2013 31.4759 47.1578C31.3737 47.1187 31.2715 47.0795 31.1662 47.0391C30.9515 46.9467 30.9515 46.9467 30.8107 46.9533ZM13.6661 47.1578C13.5557 47.2 13.4454 47.2422 13.3317 47.2857C13.2156 47.3303 13.0995 47.3749 12.9799 47.4208C12.8634 47.4654 12.7468 47.51 12.6268 47.556C12.3378 47.6666 12.0489 47.7774 11.76 47.8883C11.7766 48.0564 11.7937 48.2244 11.8111 48.3923C11.8206 48.4859 11.8301 48.5795 11.8399 48.6759C11.8714 48.959 11.8714 48.959 11.9938 49.2908C13.2329 49.0794 13.2329 49.0794 14.2144 48.3558C14.3619 48.0607 14.3428 47.8519 14.3386 47.5231C14.3375 47.4167 14.3365 47.3104 14.3354 47.2008C14.334 47.1191 14.3327 47.0374 14.3313 46.9533C14.1013 46.9533 13.8774 47.0769 13.6661 47.1578Z" fill="#0D0D0D"/>
<path d="M17.0778 0.0423977C17.1594 0.0423447 17.2411 0.0422917 17.3252 0.0422371C19.0079 0.0454322 20.574 0.253815 22.1551 0.843063C22.6113 0.959297 23.007 0.798943 23.4475 0.670604C23.7828 0.587 24.1192 0.508478 24.4556 0.429548C24.5393 0.409199 24.6231 0.388851 24.7094 0.367886C27.0633 -0.196437 29.6527 -0.0936477 31.9794 0.553728C32.0579 0.57499 32.1363 0.596252 32.2172 0.618158C34.6059 1.28474 37.0939 2.6737 38.7582 4.5275C38.8989 5.01095 38.9354 5.23469 38.6925 5.68164C38.3469 5.98289 38.1634 6.04688 37.7063 6.04688C37.3052 5.83799 36.9985 5.59418 36.6764 5.27988C33.9794 2.8508 30.4046 1.9447 26.8545 2.05062C25.6499 2.12418 24.4695 2.41206 23.3361 2.81782C22.4812 3.0802 21.7162 2.81943 20.8995 2.53536C18.009 1.54362 14.5074 1.84813 11.7495 3.13229C10.4184 3.73935 10.4184 3.73935 9.30559 4.64437C9.43817 4.71669 9.57075 4.789 9.70735 4.86351C10.1091 5.08265 10.1091 5.08265 10.2406 5.34562C10.3085 6.07899 10.3085 6.07899 10.0511 6.40024C9.72909 6.66781 9.4052 6.82998 9.02801 7.0111C7.94112 7.5843 7.55009 8.34063 7.00277 9.41024C6.8512 9.67002 6.8512 9.67002 6.61745 9.78689C5.74644 9.8422 5.74644 9.8422 5.47746 9.60976C5.4294 9.5525 5.38134 9.49525 5.33182 9.43627C4.12373 11.7732 4.00388 14.3328 4.00929 16.9114C4.00967 17.285 4.00689 17.6585 4.00396 18.0321C4.00369 18.2716 4.00361 18.5112 4.00373 18.7507C4.00265 18.8614 4.00158 18.972 4.00047 19.0861C4.00473 19.6949 4.04333 20.1368 4.39681 20.6563C4.61441 20.8612 4.61441 20.8612 4.87162 21.0088C4.96488 21.0667 5.05814 21.1246 5.15422 21.1843C5.29999 21.2701 5.29999 21.2701 5.44869 21.3576C5.58903 21.4406 5.58903 21.4406 5.73221 21.5254C6.02587 21.6961 6.32127 21.8633 6.61745 22.0296C7.71636 22.6492 8.80376 23.2874 9.88996 23.9288C9.88841 23.7955 9.88841 23.7955 9.88682 23.6595C9.87739 22.8155 9.8703 21.9715 9.86574 21.1274C9.86332 20.6937 9.86004 20.2599 9.8547 19.8262C9.84956 19.4063 9.84681 18.9865 9.84561 18.5667C9.84434 18.3313 9.8407 18.0958 9.837 17.8604C9.83653 15.8984 10.5297 14.2462 11.8768 12.8257C13.5065 11.4302 15.3471 10.7879 17.4919 10.934C18.4845 11.0279 19.3099 11.3232 20.1732 11.8035C21.6081 12.6639 21.6081 12.6639 23.2046 12.7033C23.7369 12.4954 24.2269 12.225 24.7132 11.9263C25.0506 11.7235 25.3908 11.5776 25.7558 11.4305C25.8631 11.3868 25.9704 11.3431 26.0809 11.2981C27.7148 10.6827 29.6544 10.7959 31.2453 11.4884C32.9479 12.2904 34.1932 13.5957 34.9073 15.3476C35.1594 16.0692 35.2666 16.7386 35.2708 17.5051C35.2714 17.5855 35.2719 17.666 35.2725 17.7489C35.2742 18.0134 35.275 18.278 35.2757 18.5425C35.2764 18.7269 35.277 18.9113 35.2777 19.0956C35.2789 19.4813 35.2796 19.867 35.28 20.2527C35.2807 20.7473 35.2835 21.2418 35.2868 21.7364C35.289 22.1168 35.2896 22.4971 35.2898 22.8776C35.2901 23.0599 35.2911 23.2423 35.2926 23.4247C35.2946 23.6793 35.2944 23.9338 35.2936 24.1884C35.294 24.3333 35.2945 24.4782 35.2949 24.6275C35.2519 24.9807 35.2519 24.9807 35.095 25.1992C34.7967 25.4027 34.5587 25.4339 34.2001 25.4482C33.874 25.3074 33.6797 25.1954 33.4842 24.8968C33.3512 24.55 33.3525 24.2626 33.3521 23.8912C33.3513 23.7413 33.3505 23.5914 33.3496 23.437C33.3498 23.3172 33.3498 23.3172 33.3499 23.195C33.35 22.9432 33.3485 22.6914 33.3465 22.4396C33.3411 21.7238 33.3382 21.008 33.3374 20.2921C33.3368 19.8535 33.334 19.415 33.3298 18.9764C33.3287 18.8106 33.3284 18.6447 33.329 18.4789C33.3347 16.9004 33.0804 15.6352 31.9794 14.4619C31.9097 14.3873 31.8399 14.3128 31.7681 14.2359C30.8901 13.3872 29.6928 12.9345 28.4805 12.906C28.3017 12.8995 28.3017 12.8995 28.1193 12.8928C26.7061 13.0442 25.4487 13.7087 24.1953 14.3368C22.812 15.0039 22.812 15.0039 22.045 14.8125C21.4217 14.5786 20.8253 14.2983 20.2261 14.009C19.9847 13.894 19.743 13.7796 19.5009 13.6661C19.3512 13.5958 19.202 13.5246 19.0532 13.4522C17.8327 12.8737 16.5368 12.7346 15.237 13.1325C13.8784 13.6426 12.8559 14.49 12.2325 15.8028C11.9684 16.4428 11.8423 16.9926 11.8433 17.6852C11.8425 17.771 11.8417 17.8568 11.8409 17.9452C11.8393 18.1303 11.8382 18.3155 11.8376 18.5007C11.8367 18.794 11.8343 19.0873 11.8315 19.3807C11.8249 20.1088 11.8208 20.837 11.8166 21.5651C11.8129 22.1814 11.8083 22.7976 11.8025 23.4138C11.8002 23.7024 11.7992 23.9909 11.7983 24.2795C11.7968 24.4568 11.7952 24.6341 11.7935 24.8114C11.7936 24.8912 11.7938 24.9711 11.7939 25.0534C11.7862 25.6426 11.7164 26.0761 11.2925 26.5001C11.0519 26.5311 11.0519 26.5311 10.7738 26.5293C10.6367 26.5302 10.6367 26.5302 10.4967 26.5311C10.2406 26.5001 10.2406 26.5001 9.88996 26.2663C9.8845 27.1087 9.88037 27.9511 9.87785 28.7934C9.87664 29.1847 9.87488 29.576 9.87233 29.9674C9.86947 30.4191 9.86816 30.8708 9.86714 31.3226C9.86593 31.4605 9.86472 31.5983 9.86348 31.7404C9.86329 33.1571 10.0576 34.395 10.5999 35.6995C10.7266 36.1496 10.6965 36.4493 10.5912 36.902C10.3148 37.2316 10.1438 37.2501 9.71465 37.3038C9.22623 37.2427 9.14487 37.1566 8.83808 36.7851C8.09547 35.2712 7.97588 33.7614 7.90308 32.1101C7.80259 32.0813 7.7021 32.0526 7.59856 32.0229C5.94002 31.4103 4.66466 29.9821 3.81244 28.487C3.73131 28.3505 3.73131 28.3505 3.64854 28.2112C2.82101 26.7121 2.40237 24.6567 2.861 22.9765C2.93071 22.7862 3.00054 22.596 3.07055 22.4058C3.14565 22.1338 3.14565 22.1338 2.86282 21.7959C2.75194 21.6898 2.64105 21.5837 2.52681 21.4744C2.18011 20.8677 2.0457 20.3375 2.04233 19.6427C2.04158 19.5376 2.04084 19.4325 2.04007 19.3242C2.03994 19.2115 2.03981 19.0988 2.03967 18.9826C2.03928 18.8642 2.03889 18.7458 2.03849 18.6238C2.0379 18.3725 2.03763 18.1212 2.03765 17.8699C2.03739 17.4931 2.03528 17.1164 2.03305 16.7396C2.02459 13.6813 2.32429 10.8179 3.73939 8.06298C3.95545 7.70165 3.95545 7.70165 3.92931 7.33251C3.8237 7.27887 3.71809 7.22524 3.60927 7.16998C3.47 7.0976 3.33075 7.02516 3.19154 6.95266C3.05459 6.88215 2.91764 6.81165 2.77654 6.739C2.43313 6.52859 2.25002 6.39663 2.0593 6.04688C2.0593 5.58884 2.08295 5.3313 2.39532 4.98769C2.72321 4.7844 3.05365 4.60957 3.39607 4.43253C4.378 3.9034 4.78531 3.23408 5.26288 2.24294C5.48175 1.90523 5.66945 1.77283 6.03307 1.60561C6.55056 1.62443 6.55056 1.62443 6.8512 1.83936C7.55245 2.8328 7.55245 2.8328 7.55245 3.35874C7.61784 3.31053 7.68323 3.26232 7.75059 3.21265C10.5556 1.19229 13.5954 0.033572 17.0778 0.0423977ZM6.03307 4.64437C5.82984 4.84526 5.82984 4.84526 5.62401 5.09726C5.41488 5.3445 5.21025 5.58407 4.98119 5.81313C5.12949 5.94487 5.27808 6.07629 5.42678 6.20758C5.55085 6.31741 5.55085 6.31741 5.67742 6.42946C5.92649 6.64769 5.92649 6.64769 6.26682 6.86501C6.31338 6.81002 6.35993 6.75502 6.4079 6.69837C6.46982 6.6256 6.53174 6.55283 6.59554 6.47786C6.65655 6.40599 6.71757 6.33413 6.78044 6.26008C6.95308 6.06391 7.13175 5.87871 7.3187 5.69625C7.26236 5.6497 7.20601 5.60314 7.14795 5.55518C7.07413 5.49326 7.00031 5.43134 6.92425 5.36754C6.85103 5.30652 6.77781 5.2455 6.70237 5.18264C6.50057 4.995 6.50057 4.995 6.26682 4.64437C6.18969 4.64437 6.11255 4.64437 6.03307 4.64437ZM4.74744 23.3445C4.35719 24.125 4.5976 25.3641 4.85382 26.1682C5.39461 27.5774 6.14078 29.0291 7.51479 29.791C7.64292 29.8621 7.77106 29.9332 7.90308 30.0064C8.35073 27.1779 8.35073 27.1779 7.63343 24.5821C6.87079 23.9155 5.78226 23.3445 4.74744 23.3445Z" fill="#0D0D0D"/>
<path d="M45.9242 42.7896C46.4098 42.8013 46.4098 42.8013 46.6465 43.0348C46.7976 43.2833 46.9272 43.5371 47.0564 43.7977C47.6982 44.8733 48.3474 45.4864 49.4948 45.9978C49.7446 46.1352 49.7446 46.1352 49.9783 46.4858C50.0424 47.1908 50.0424 47.1908 49.8423 47.5441C49.5751 47.8272 49.3203 47.9332 48.963 48.0855C47.8346 48.63 47.279 49.4595 46.7209 50.5545C46.5889 50.8102 46.5889 50.8102 46.4721 50.9271C46.1152 50.9778 45.7768 50.9799 45.4202 50.9271C45.119 50.6761 44.9906 50.4254 44.8285 50.0724C44.2911 48.9127 43.5736 48.3813 42.4303 47.8363C42.0949 47.6206 41.965 47.429 41.797 47.0702C41.797 46.6377 41.8428 46.4447 42.1404 46.1279C42.4472 45.9338 42.7394 45.7891 43.0681 45.6385C44.073 45.1464 44.544 44.3414 45.039 43.3676C45.2756 42.9324 45.44 42.8205 45.9242 42.7896ZM45.8877 45.7846C45.5406 46.1317 45.1934 46.4788 44.8358 46.8364C45.3618 47.4828 45.3618 47.4828 46.0046 48.0052C46.0696 47.9208 46.1347 47.8365 46.2018 47.7495C46.4696 47.4238 46.7543 47.1302 47.0564 46.8364C46.9721 46.7714 46.8877 46.7063 46.8008 46.6392C46.475 46.3714 46.1815 46.0867 45.8877 45.7846Z" fill="#0D0D0D"/>
<path d="M51.6146 35.2657C52.1294 35.4152 52.6308 35.5932 53.1318 35.7829C53.3665 35.8716 53.6021 35.9575 53.838 36.043C55.8908 36.7989 55.8908 36.7989 56.4576 37.6179C56.5129 37.6953 56.5682 37.7727 56.6252 37.8525C57.0059 38.4822 56.9328 39.2319 56.874 39.9408C56.6797 40.6664 56.2144 41.1786 55.5884 41.577C54.6297 42.0653 53.7178 41.9406 52.7199 41.6195C52.4995 41.541 52.2796 41.4611 52.0602 41.3798C51.9497 41.3416 51.8392 41.3034 51.7253 41.2641C50.9259 40.9727 50.3042 40.6204 49.7962 39.9252C49.2982 38.7965 49.4408 37.8027 49.8323 36.6682C49.8617 36.5829 49.8911 36.4976 49.9214 36.4096C50.2491 35.5319 50.6149 35.0864 51.6146 35.2657ZM51.7315 37.3695C51.4533 37.8563 51.2951 38.2084 51.3809 38.772C51.7768 39.3042 52.3431 39.4725 52.9441 39.6924C53.042 39.7313 53.1399 39.7701 53.2408 39.8102C53.7034 39.9818 53.9817 40.0731 54.4753 39.9855C54.8007 39.8368 54.8007 39.8368 55.004 39.4733C55.0722 39.1276 55.0722 39.1276 55.004 38.772C54.4908 38.2302 53.7918 38.0462 53.1048 37.8078C52.9262 37.7441 52.9262 37.7441 52.7441 37.679C52.2495 37.4692 52.2495 37.4692 51.7315 37.3695Z" fill="#0D0D0D"/>
<path d="M55.8806 20.8608C56.442 21.3382 56.8388 21.8708 56.9018 22.6263C56.923 23.5756 56.8642 24.21 56.2412 24.9408C55.5439 25.6196 54.7047 25.9121 53.8045 26.226C53.5426 26.3176 53.2824 26.413 53.0221 26.509C52.8537 26.5694 52.6853 26.6296 52.5167 26.6895C52.4401 26.7177 52.3635 26.7458 52.2846 26.7747C51.7223 26.9677 51.2658 27.0064 50.6796 26.9676C49.9459 26.4885 49.7179 25.32 49.5108 24.5132C49.3722 23.6608 49.4666 22.9475 49.9039 22.1962C50.7248 21.105 52.4131 20.6808 53.685 20.3367C54.4523 20.2475 55.2511 20.4109 55.8806 20.8608ZM53.4946 22.3565C53.3865 22.3975 53.2783 22.4384 53.1668 22.4807C53.0548 22.5247 52.9427 22.5686 52.8272 22.614C52.7142 22.6562 52.6012 22.6983 52.4848 22.7418C51.8345 22.9687 51.8345 22.9687 51.3808 23.4613C51.3647 23.7175 51.3647 23.7175 51.4028 23.9873C51.4116 24.0777 51.4205 24.1681 51.4297 24.2612C51.5094 24.5563 51.6287 24.6589 51.8483 24.8638C52.3091 24.6974 52.7691 24.5288 53.2289 24.3598C53.3598 24.3126 53.4906 24.2653 53.6255 24.2167C53.7509 24.1703 53.8763 24.124 54.0055 24.0763C54.1212 24.0341 54.2369 23.9918 54.3561 23.9483C54.6466 23.815 54.8108 23.7136 55.004 23.4613C55.0722 23.1157 55.0722 23.1157 55.004 22.7601C54.7976 22.4873 54.6425 22.3332 54.3222 22.2105C53.9954 22.1656 53.8022 22.2397 53.4946 22.3565Z" fill="#0D0D0D"/>
<path d="M20.4805 36.34C20.5846 36.3929 20.6887 36.4458 20.796 36.5002C21.9372 36.9833 23.1457 36.9884 24.2939 36.5273C24.5102 36.4321 24.723 36.3292 24.9355 36.2259C25.3689 36.0648 25.5811 36.0627 26.0189 36.2007C26.2832 36.385 26.3548 36.4848 26.4243 36.7993C26.4261 36.9333 26.4261 36.9333 26.4279 37.07C26.4316 37.159 26.4352 37.2481 26.4389 37.3398C26.3344 37.7364 26.1232 37.8496 25.7851 38.0708C25.4121 38.2401 25.4121 38.2401 25.0181 38.3849C24.8878 38.4335 24.7575 38.4822 24.6232 38.5323C23.1304 39.0452 21.2597 38.9542 19.8245 38.3045C18.9571 37.8554 18.9571 37.8554 18.7726 37.4864C18.7183 36.6315 18.7183 36.6315 18.926 36.3249C19.4622 35.9873 19.9264 36.0874 20.4805 36.34Z" fill="#0D0D0D"/>
<path d="M28.3709 20.3715C28.4782 20.3703 28.5855 20.3691 28.696 20.3679C29.6305 20.3797 30.553 20.546 31.3439 21.0727C31.4188 21.1211 31.4937 21.1694 31.5708 21.2193C31.8385 21.431 31.8613 21.5819 31.9064 21.9201C31.8626 22.2926 31.8626 22.2926 31.6142 22.6286C31.2782 22.877 31.2782 22.877 30.9641 22.9427C30.6075 22.8822 30.3453 22.7898 30.0145 22.6505C28.9663 22.2116 28.053 22.2524 26.9538 22.5264C26.7192 22.6415 26.4852 22.7579 26.2526 22.877C25.7939 22.9323 25.5457 22.9454 25.1495 22.7017C24.94 22.3664 24.8844 22.099 24.9094 21.7032C24.9903 21.3816 25.1575 21.2021 25.4289 21.0184C26.3941 20.5008 27.2881 20.3792 28.3709 20.3715Z" fill="#0D0D0D"/>
<path d="M19.713 21.0184C19.9845 21.202 20.1517 21.3816 20.2326 21.7032C20.2576 22.099 20.202 22.3664 19.9924 22.7016C19.5856 22.952 19.3643 22.9382 18.8894 22.877C18.6977 22.8062 18.5078 22.7303 18.3197 22.6505C17.2662 22.204 16.2207 22.1965 15.1444 22.6204C15.0761 22.652 15.0079 22.6837 14.9376 22.7163C14.5305 22.8918 14.3006 22.9529 13.8638 22.877C13.4754 22.5899 13.3056 22.4181 13.2064 21.942C13.3083 21.4529 13.4656 21.3096 13.8638 21.0069C15.6545 20.1449 17.9452 20.0703 19.713 21.0184Z" fill="#0D0D0D"/>
<path d="M21.4607 30.8245C21.6949 30.901 21.9287 30.9788 22.1619 31.0583C22.5954 31.0892 22.9112 31.0817 23.3234 30.9414C23.7964 30.7869 24.1186 30.7763 24.6163 30.8245C24.9085 31.0071 24.9085 31.0071 25.0838 31.292C25.1483 31.7433 25.1648 31.9936 24.9012 32.3731C23.9986 33.0211 23.0063 33.1274 21.9282 33.0451C21.2985 32.916 20.6965 32.7308 20.175 32.3439C19.9944 31.9825 20.0238 31.69 20.0582 31.292C20.3999 30.7368 20.8604 30.7429 21.4607 30.8245Z" fill="#0D0D0D"/>
<path d="M16.7856 23.98C16.8628 23.9774 16.9399 23.9748 17.0194 23.9722C17.4158 24.0969 17.5179 24.2677 17.7206 24.6301C17.7891 25.0793 17.7859 25.5206 17.7791 25.9742C17.7809 26.0948 17.7827 26.2155 17.7845 26.3399C17.7818 26.8766 17.7792 27.2197 17.501 27.6876C17.2087 27.9412 17.055 28.0101 16.6687 28.0195C16.2231 27.8951 16.1136 27.8295 15.8506 27.4351C15.7961 26.9523 15.8073 26.467 15.8068 25.9815C15.8039 25.8476 15.8011 25.7137 15.7981 25.5758C15.7977 25.4471 15.7972 25.3183 15.7967 25.1857C15.7958 25.068 15.7948 24.9502 15.7938 24.8289C15.8914 24.2862 16.233 23.9789 16.7856 23.98Z" fill="#0D0D0D"/>
<path d="M28.5778 23.9959C28.936 24.0684 29.063 24.2329 29.2914 24.5132C29.35 24.8271 29.35 24.8271 29.3494 25.1816C29.3495 25.3098 29.3495 25.438 29.3496 25.5701C29.3473 25.7034 29.345 25.8368 29.3425 25.9742C29.3434 26.1075 29.3442 26.2408 29.3451 26.3782C29.3365 27.4952 29.3365 27.4952 28.9408 27.9026C28.52 28.0398 28.3238 28.0578 27.9181 27.8734C27.6552 27.6689 27.6552 27.6689 27.4214 27.3182C27.3706 26.8963 27.3835 26.4719 27.3849 26.0472C27.383 25.931 27.3811 25.8149 27.3792 25.6952C27.3785 24.6388 27.3785 24.6388 27.772 24.1626C27.9883 23.9463 28.2892 24.0117 28.5778 23.9959Z" fill="#0D0D0D"/>
</svg>
