<svg width="64" height="64" viewBox="0 0 64 64" fill="none" xmlns="http://www.w3.org/2000/svg">
<path fill-rule="evenodd" clip-rule="evenodd" d="M33.8169 0.00880935C19.3279 -0.312781 5.54208 8.19148 1.20433 22.0783C-3.01516 35.5866 4.32708 49.3971 15.8358 57.5735C26.8596 65.4052 41.5702 66.5069 52.4661 58.4968C63.2505 50.5688 66.3511 36.2164 62.2754 23.4338C58.1401 10.4646 47.3741 0.309715 33.8169 0.00880935Z" fill="#F1E9D0"/>
<path d="M24.2452 2.50376C24.3402 2.52634 24.4351 2.54892 24.533 2.57218C27.4682 3.28818 30.1828 4.57248 32.5356 6.47383C32.6267 6.54715 32.6267 6.54715 32.7197 6.62195C34.2472 7.85881 35.5792 9.20554 36.7392 10.7942C36.7877 10.8602 36.8361 10.9261 36.8859 10.9941C39.6133 14.7625 41.4944 19.7631 41.4099 24.4559C41.4753 24.4347 41.5407 24.4134 41.608 24.3916C41.9043 24.2957 42.2008 24.2007 42.4973 24.1056C42.6002 24.0722 42.7031 24.0388 42.8091 24.0043C42.908 23.9727 43.007 23.9411 43.109 23.9086C43.2456 23.8645 43.2456 23.8645 43.3851 23.8196C43.6285 23.7553 43.6285 23.7553 43.9788 23.7553C43.9831 23.6429 43.9875 23.5304 43.992 23.4146C44.0517 22.0827 44.1802 20.7619 44.3272 19.4369C44.5434 18.2922 44.5434 18.2922 44.2876 17.2282C44.217 17.1713 44.1464 17.1144 44.0737 17.0558C43.2399 16.2996 42.7914 15.2419 42.661 14.1298C42.6177 12.9531 42.9229 11.8524 43.6285 10.911C43.7104 10.793 43.7922 10.6749 43.8766 10.5534C44.4823 9.85377 45.4113 9.32665 46.3141 9.15946C46.3913 9.14411 46.4685 9.12875 46.5481 9.11294C47.8532 8.90281 49.0698 9.27035 50.1674 9.97683C51.216 10.7934 51.7229 11.7711 51.97 13.0638C52.1357 14.4086 51.8116 15.5515 51.0395 16.6544C50.4651 17.3697 49.6807 17.9676 48.7662 18.1505C48.7698 18.3745 48.7698 18.3745 48.7735 18.603C48.7741 18.9971 48.7524 19.3792 48.7078 19.7706C48.6881 19.9701 48.6687 20.1696 48.6494 20.3691C48.6374 20.4714 48.6254 20.5738 48.613 20.6792C48.5535 21.5411 48.8189 22.0547 49.288 22.7705C49.4668 23.0547 49.4668 23.0547 49.4668 23.2882C49.5332 23.3095 49.5996 23.3307 49.668 23.3525C50.1059 23.4951 50.5132 23.6363 50.9264 23.8429C51.7763 24.1464 52.7574 23.8102 53.6193 23.6312C53.726 23.6095 53.8326 23.5877 53.9425 23.5653C54.2022 23.5123 54.4618 23.4588 54.7213 23.405C54.749 23.2867 54.749 23.2867 54.7773 23.1661C55.0751 21.9451 55.8684 21.0072 56.9285 20.3476C58.1459 19.6895 59.4779 19.6319 60.7932 20.0188C62.1229 20.5665 62.9532 21.346 63.581 22.6387C64.0073 23.7224 64.0417 25.1333 63.5924 26.2179C62.8617 27.6527 61.928 28.4329 60.4059 28.9925C59.2537 29.3108 57.9795 29.1085 56.9399 28.5427C56.5693 28.2973 56.2042 28.0406 55.889 27.7254C55.1589 27.7819 54.4664 27.9118 53.7557 28.0834C53.6572 28.1066 53.5587 28.1297 53.4573 28.1536C53.1462 28.2268 52.8354 28.3007 52.5246 28.3749C52.2118 28.4494 51.8988 28.5237 51.5858 28.5974C51.3919 28.643 51.1981 28.6891 51.0044 28.7358C50.5944 28.8324 50.2407 28.893 49.8171 28.893C49.8077 28.963 49.7983 29.033 49.7887 29.1052C49.7452 29.4262 49.7009 29.7471 49.6566 30.068C49.6344 30.2332 49.6344 30.2332 49.6119 30.4016C49.3907 31.9882 49.3907 31.9882 49.0289 32.3887C48.6709 32.5578 48.4575 32.5768 48.0656 32.5128C47.7226 32.3158 47.7226 32.3158 47.4818 31.929C47.4485 30.7139 47.7506 29.4844 47.9805 28.298C48.3595 26.233 48.1872 24.6948 47.1 22.9051C46.2912 21.5715 46.6835 19.8582 46.8979 18.384C46.7438 18.3455 46.5897 18.307 46.4309 18.2673C46.4211 18.3633 46.4113 18.4594 46.4012 18.5584C46.3014 19.5368 46.2015 20.5153 46.1016 21.4938C46.0451 22.0462 45.9888 22.5986 45.9324 23.151C45.6407 26.0118 45.3462 28.8722 45.0478 31.7323C44.986 32.3249 44.9243 32.9175 44.8627 33.5101C44.8496 33.6354 44.8496 33.6354 44.8363 33.7632C44.8013 34.1001 44.7663 34.4371 44.7312 34.774C44.6266 35.7806 44.5215 36.7873 44.4159 37.7938C44.3409 38.5086 44.2665 39.2235 44.1924 39.9384C44.1614 40.236 44.1302 40.5336 44.0988 40.8312C44.0557 41.2389 44.0135 41.6467 43.9714 42.0546C43.9585 42.1756 43.9455 42.2966 43.9321 42.4213C43.921 42.5304 43.91 42.6395 43.8985 42.7519C43.8886 42.8469 43.8787 42.942 43.8684 43.0399C43.8663 43.111 43.8642 43.1821 43.862 43.2553C43.9005 43.2939 43.9391 43.3324 43.9788 43.3721C44.223 42.9664 44.4659 42.56 44.7086 42.1533C44.7771 42.0396 44.8455 41.9259 44.9161 41.8087C45.1142 41.476 45.3069 41.1408 45.4967 40.8032C45.5427 40.7241 45.5887 40.6449 45.6361 40.5634C46.1605 39.5464 46.2378 38.314 46.4136 37.1973C46.461 36.8998 46.5112 36.6029 46.5618 36.3059C46.5752 36.2151 46.5886 36.1244 46.6024 36.0309C46.7061 35.433 46.8689 35.1191 47.365 34.7314C47.8225 34.636 48.0042 34.6961 48.4086 34.9284C48.7974 35.5528 48.6445 36.1334 48.5327 36.8332C48.5155 36.9418 48.4983 37.0504 48.4806 37.1623C48.1177 39.4146 48.1177 39.4146 47.9488 39.7523C48.0276 39.7818 48.1063 39.8113 48.1874 39.8417C48.5187 39.98 48.8348 40.1375 49.1532 40.3029C50.3344 40.9144 51.5383 41.4373 52.8293 41.7688C52.9233 41.7931 53.0172 41.8174 53.114 41.8424C53.2944 41.8877 53.4755 41.9308 53.6571 41.971C54.2878 42.1264 54.6833 42.3781 55.0716 42.905C55.2034 43.196 55.2034 43.196 55.2541 43.4743C55.2735 43.5655 55.2929 43.6567 55.3129 43.7507C55.291 44.6599 54.8115 45.2462 54.1813 45.8534C54.1048 45.9283 54.0284 46.0033 53.9497 46.0805C53.1744 46.8203 52.3257 47.4361 51.43 48.0212C51.2567 48.1344 51.0857 48.2512 50.9154 48.3689C47.8622 50.3739 44.121 50.6381 40.5925 50.7284C40.6615 50.8104 40.7305 50.8925 40.8016 50.977C41.8243 52.3058 42.1979 53.9332 42.6214 55.5231C42.684 55.7527 42.7468 55.9822 42.8097 56.2116C43.6686 59.3594 43.6686 59.3594 43.083 60.5245C42.6396 61.2274 42.0944 61.6926 41.2931 61.938C40.9069 61.987 40.5248 61.9871 40.1359 61.9852C40.0226 61.986 39.9094 61.9868 39.7927 61.9876C39.4203 61.9897 39.0479 61.9893 38.6755 61.9886C38.416 61.9892 38.1565 61.9898 37.8969 61.9905C37.3541 61.9915 36.8112 61.9912 36.2683 61.9901C35.5721 61.9887 34.876 61.9911 34.1798 61.9945C33.6444 61.9966 33.109 61.9966 32.5736 61.996C32.3169 61.9959 32.0601 61.9966 31.8033 61.9981C31.445 61.9998 31.0868 61.9986 30.7284 61.9966C30.6222 61.9977 30.516 61.9988 30.4065 62C29.6923 61.9916 29.6923 61.9916 29.3171 61.7263C29.07 61.3499 29.0866 61.0934 29.1494 60.6536C29.3231 60.3973 29.3231 60.3973 29.6165 60.1865C29.9702 60.1458 30.2801 60.1319 30.6327 60.1409C30.7305 60.1415 30.8284 60.1422 30.9292 60.1429C31.2409 60.1455 31.5525 60.1514 31.8642 60.1573C32.0759 60.1596 32.2875 60.1618 32.4992 60.1637C33.0174 60.1688 33.5355 60.1769 34.0536 60.1865C34.0524 60.051 34.0512 59.9155 34.0499 59.7759C34.0457 59.2728 34.043 58.7696 34.0408 58.2665C34.0396 58.0488 34.038 57.8311 34.036 57.6135C34.0332 57.3004 34.0318 56.9874 34.0308 56.6744C34.0296 56.5772 34.0284 56.48 34.0272 56.3798C34.027 55.5158 34.027 55.5158 34.2871 55.1655C34.6043 54.9855 34.8056 54.9288 35.1702 54.9466C35.5431 55.0805 35.6834 55.1953 35.9219 55.5158C35.9869 55.872 35.9762 56.2222 35.9675 56.5831C35.9668 56.6862 35.9662 56.7892 35.9655 56.8953C35.9629 57.2237 35.957 57.552 35.9511 57.8804C35.9487 58.1032 35.9466 58.3261 35.9447 58.549C35.9395 59.0949 35.9315 59.6407 35.9219 60.1865C36.5598 60.1755 37.1976 60.1632 37.8354 60.1494C38.0523 60.145 38.2692 60.1409 38.4861 60.1372C38.7983 60.1319 39.1104 60.1251 39.4226 60.1181C39.5192 60.1167 39.6158 60.1154 39.7153 60.114C40.3174 60.0987 40.7988 60.0535 41.2785 59.6537C41.607 58.9421 41.2203 57.9569 41.0213 57.2349C40.9943 57.1355 40.9674 57.0361 40.9396 56.9337C40.8827 56.7249 40.8254 56.5162 40.7676 56.3076C40.6806 55.9918 40.5957 55.6755 40.5109 55.3591C39.9795 53.406 39.3264 51.7881 37.4964 50.7088C34.6262 49.1997 31.5465 48.2111 28.4377 47.3231C27.9341 47.1781 27.4324 47.0271 26.9308 46.8751C26.9381 47.0244 26.9453 47.1737 26.9527 47.3276C26.9326 49.1799 25.6065 50.6379 24.362 51.8961C24.0606 52.1815 23.7469 52.448 23.4278 52.7134C23.261 52.8586 23.261 52.8586 23.0908 53.0067C22.0037 53.9461 21.1013 54.5156 19.6224 54.4959C18.4238 54.4026 17.6409 53.7231 16.7721 52.947C16.714 52.8958 16.6558 52.8447 16.5958 52.792C13.1604 49.769 13.1604 49.769 13.0078 47.8006C13.0066 47.4904 13.0144 47.1845 13.0356 46.8751C11.6885 47.2526 10.3454 47.6423 9.00716 48.0501C8.8848 48.0869 8.76245 48.1238 8.63639 48.1618C7.99578 48.3584 7.36796 48.5739 6.74321 48.8165C6.60887 48.8686 6.47454 48.9206 6.33613 48.9743C6.23498 49.0137 6.13383 49.0531 6.02961 49.0937C6.01608 50.4233 6.0057 51.753 5.99936 53.0827C5.99631 53.7001 5.99218 54.3175 5.98556 54.9349C5.97922 55.5308 5.97573 56.1266 5.97421 56.7224C5.97314 56.9498 5.97103 57.1771 5.96788 57.4044C5.96364 57.7229 5.96306 58.0411 5.96333 58.3596C5.96123 58.4536 5.95913 58.5476 5.95697 58.6444C5.96123 59.1085 6.00867 59.3411 6.28918 59.7168C6.82657 60.1082 7.34593 60.0845 7.99656 60.0858C8.07548 60.0862 8.15441 60.0865 8.23573 60.0868C8.49935 60.0878 8.76297 60.088 9.0266 60.0881C9.21593 60.0887 9.40526 60.0893 9.5946 60.0899C10.0019 60.0913 10.4091 60.0922 10.8164 60.093C11.46 60.0942 12.1037 60.0966 12.7474 60.0992C14.5775 60.1064 16.4077 60.1127 18.2379 60.1166C19.249 60.1187 20.2601 60.1221 21.2712 60.1269C21.8063 60.1293 22.3414 60.1311 22.8765 60.1314C23.3793 60.1316 23.8821 60.1335 24.3848 60.1366C24.5696 60.1374 24.7544 60.1377 24.9391 60.1373C25.1908 60.1368 25.4424 60.1385 25.6941 60.1407C25.8351 60.1411 25.9761 60.1415 26.1214 60.1419C26.4638 60.1865 26.4638 60.1865 26.6806 60.3435C26.886 60.641 26.9165 60.8786 26.9308 61.2374C26.798 61.5091 26.6776 61.7241 26.4638 61.938C26.2058 61.9504 25.9474 61.9543 25.6891 61.9552C25.6072 61.9556 25.5253 61.956 25.4408 61.9565C25.1642 61.9578 24.8876 61.9582 24.611 61.9587C24.4135 61.9594 24.2159 61.9602 24.0184 61.961C23.4802 61.963 22.9419 61.9643 22.4036 61.9652C22.0673 61.9658 21.7311 61.9665 21.3948 61.9673C20.3429 61.9695 19.291 61.9711 18.2391 61.9721C17.0247 61.9733 15.8103 61.9763 14.5958 61.9811C13.6575 61.9846 12.7192 61.9863 11.7809 61.9867C11.2204 61.987 10.6599 61.988 10.0994 61.991C9.57161 61.9937 9.04385 61.9942 8.51604 61.993C8.32268 61.9929 8.12931 61.9936 7.93595 61.9952C6.13653 62.0093 6.13653 62.0093 5.32901 61.4709C5.22545 61.4035 5.12189 61.3361 5.0152 61.2666C4.42518 60.6925 4.06302 60.06 4.02967 59.233C4.02952 59.0856 4.02938 58.9381 4.02923 58.7862C4.02899 58.7036 4.02875 58.621 4.0285 58.5359C4.02784 58.2577 4.02801 57.9796 4.02817 57.7014C4.02787 57.5005 4.02752 57.2996 4.02712 57.0987C4.02618 56.5455 4.02597 55.9923 4.02588 55.4392C4.02567 54.843 4.02479 54.2468 4.024 53.6506C4.02241 52.3464 4.02171 51.0421 4.0212 49.7379C4.02087 48.9237 4.02038 48.1094 4.01986 47.2952C4.01843 45.0412 4.01723 42.7873 4.01683 40.5333C4.01681 40.389 4.01678 40.2447 4.01676 40.096C4.01672 39.879 4.01672 39.879 4.01668 39.6577C4.01663 39.3646 4.01657 39.0715 4.01652 38.7783C4.0165 38.6329 4.01647 38.4875 4.01644 38.3377C4.01598 35.982 4.01394 33.6262 4.01122 31.2704C4.00846 28.8523 4.007 26.4342 4.00686 24.0161C4.00676 22.6583 4.00609 21.3004 4.00397 19.9425C4.00217 18.7862 4.00157 17.6298 4.00254 16.4735C4.00299 15.8835 4.00288 15.2936 4.00124 14.7037C3.99976 14.1633 3.9999 13.623 4.00131 13.0826C4.00154 12.8874 4.00118 12.6922 4.00016 12.497C3.99019 10.4537 4.43379 9.21343 5.87635 7.75096C7.57093 6.08166 7.57093 6.08166 8.26323 5.9648C8.56697 5.9927 8.79533 6.1003 9.05094 6.26219C9.24333 6.57214 9.28452 6.8105 9.29907 7.17443C9.06694 7.6549 8.77754 7.9252 8.35764 8.24722C7.89869 8.61426 7.45475 8.98723 7.02942 9.39299C6.93806 9.47969 6.84669 9.56639 6.75256 9.65572C5.93952 10.676 5.96683 11.724 5.98399 12.9694C5.98487 13.1564 5.98553 13.3434 5.986 13.5304C5.98777 14.0193 5.99235 14.5082 5.99754 14.9971C6.00234 15.4973 6.00445 15.9975 6.0068 16.4977C6.01179 17.4768 6.01975 18.4559 6.02961 19.4349C6.36327 19.3271 6.69664 19.2184 7.02988 19.1093C7.12334 19.0791 7.21679 19.049 7.31309 19.018C10.3098 18.0321 12.7394 15.6694 14.4104 13.0575C15.0198 12.1224 15.0198 12.1224 15.3924 11.9838C15.4792 11.9765 15.5661 11.9693 15.6556 11.9619C15.7421 11.9522 15.8287 11.9426 15.9178 11.9327C16.6459 12.0112 17.105 12.6306 17.5822 13.1295C18.33 13.894 19.1104 14.5677 19.9675 15.2056C20.1499 15.3417 20.3302 15.4806 20.5105 15.6195C23.1348 17.6298 26.0058 19.1693 29.0326 20.4858C29.1712 20.5467 29.1712 20.5467 29.3126 20.6088C31.6143 21.6065 34.158 22.3085 36.6278 22.7325C37.1148 22.8242 37.374 22.8772 37.7454 23.2198C37.9703 23.6404 37.9158 23.8866 37.7901 24.3391C37.6108 24.6081 37.486 24.6723 37.1844 24.7843C36.7286 24.8147 36.3634 24.6895 35.9219 24.5727C35.9224 24.6568 35.9229 24.7409 35.9234 24.8276C35.9282 25.6279 35.9317 26.4281 35.934 27.2284C35.9352 27.6396 35.9368 28.0508 35.9395 28.4621C35.9426 28.9369 35.9437 29.4116 35.9447 29.8865C35.9459 30.0313 35.9471 30.1761 35.9483 30.3253C35.9485 31.6646 35.7987 32.9757 35.4256 34.2643C35.4003 34.3527 35.375 34.4411 35.3489 34.5322C34.7611 36.5176 33.7759 38.3077 32.4189 39.8691C32.3361 39.966 32.2533 40.063 32.168 40.1628C30.7794 41.7513 29.0868 43.0653 27.1644 43.9559C27.0873 43.9559 27.0102 43.9559 26.9308 43.9559C26.9308 44.3027 26.9308 44.6495 26.9308 45.0068C27.0764 45.0187 27.2219 45.0306 27.3719 45.0429C28.0461 45.1185 28.6812 45.2939 29.3319 45.4812C29.459 45.5174 29.5862 45.5536 29.7172 45.5909C31.4238 46.0837 33.1061 46.6382 34.7603 47.2854C37.1041 48.1991 39.4157 48.6537 41.9281 48.6558C42.0534 48.6559 42.0534 48.6559 42.1813 48.656C43.4377 48.6541 44.6261 48.5992 45.847 48.2763C45.9214 48.2575 45.9957 48.2387 46.0723 48.2193C47.8602 47.758 49.6523 46.9764 51.1015 45.8242C51.1992 45.7498 51.2969 45.6755 51.3976 45.5989C52.0486 45.0941 52.6266 44.5431 53.2033 43.9559C53.1242 43.9337 53.0451 43.9116 52.9636 43.8887C51.2059 43.3893 49.5658 42.8077 47.9453 41.9597C47.7146 41.8538 47.4959 41.7905 47.2482 41.7374C47.2096 41.8036 47.171 41.8698 47.1311 41.938C46.4234 43.1482 45.7108 44.3556 44.9713 45.5469C44.9153 45.6387 44.8594 45.7304 44.8017 45.825C44.4167 46.4392 44.0788 46.8992 43.3512 47.1013C42.7598 47.1115 42.3336 46.9591 41.8916 46.5613C41.4423 45.6377 41.7022 44.5305 41.8108 43.5495C41.8294 43.3742 41.8479 43.199 41.8663 43.0237C41.9147 42.5644 41.9644 42.1053 42.0143 41.6463C42.0942 40.9104 42.1721 40.1744 42.2501 39.4384C42.2775 39.1821 42.3053 38.926 42.3332 38.6698C42.3501 38.5123 42.367 38.3548 42.3839 38.1973C42.3988 38.0604 42.4137 37.9234 42.429 37.7824C42.4919 37.0596 42.444 36.7434 42.0521 36.118C41.2057 34.6988 40.6212 33.2037 40.1985 31.6079C40.1706 31.5031 40.1427 31.3983 40.114 31.2904C39.7395 29.7913 39.6306 28.295 39.6073 26.7547C39.4952 21.799 38.5254 16.4746 35.4548 12.4289C35.3652 12.3067 35.2757 12.1845 35.1834 12.0586C32.125 7.93492 27.8142 5.12374 22.7254 4.24112C19.2855 3.74309 15.6605 4.17532 12.5111 5.67014C12.1587 5.79419 11.8888 5.80771 11.5176 5.77323C11.1297 5.48646 10.9599 5.31484 10.8608 4.83909C10.9589 4.36814 11.1573 4.21868 11.5176 3.90496C12.8151 3.22448 14.3082 2.86031 15.7212 2.50376C15.8435 2.47184 15.8435 2.47184 15.9682 2.43928C18.4938 1.80788 21.721 1.88158 24.2452 2.50376ZM45.2632 11.8451C44.7112 12.5245 44.4886 13.1903 44.5626 14.0637C44.7422 14.9131 45.1095 15.573 45.8242 16.082C46.5406 16.5109 47.2546 16.6531 48.0756 16.4578C49.1051 16.1088 49.5818 15.4684 50.0506 14.5307C50.1279 13.6369 50.1578 12.8081 49.5836 12.0786C48.2674 10.6937 46.7303 10.6297 45.2632 11.8451ZM15.9548 14.2972C15.7564 14.543 15.5629 14.7909 15.3709 15.0416C14.816 15.7564 14.2403 16.4405 13.6194 17.0996C13.5398 17.1867 13.4602 17.2739 13.3782 17.3637C11.5551 19.2875 9.06134 20.5686 6.52578 21.2542C6.3533 21.3009 6.3533 21.3009 6.17734 21.3486C6.09006 21.3722 6.00277 21.3957 5.91284 21.42C5.90468 22.7274 5.89847 24.0349 5.89469 25.3424C5.89287 25.9497 5.89041 26.557 5.88641 27.1643C5.88257 27.7519 5.8805 28.3394 5.8796 28.9269C5.87896 29.1496 5.87771 29.3722 5.8758 29.5949C5.86129 31.3594 5.99048 33.0234 6.63533 34.6876C6.67058 34.7802 6.70583 34.8729 6.74215 34.9684C8.09289 38.4053 10.8474 41.0704 14.2033 42.5547C17.8644 44.0505 21.953 44.0996 25.6172 42.5839C26.9502 42.0101 28.1542 41.2721 29.2662 40.3362C29.3595 40.2585 29.4528 40.1808 29.549 40.1008C32.0991 37.8992 33.6721 34.7944 34.0536 31.4619C34.0821 30.8757 34.081 30.2912 34.0764 29.7045C34.076 29.5417 34.0756 29.3789 34.0754 29.2162C34.0745 28.7933 34.0722 28.3704 34.0696 27.9476C34.0672 27.5138 34.0662 27.0801 34.065 26.6464C34.0625 25.7995 34.0586 24.9525 34.0536 24.1056C33.9611 24.0796 33.8687 24.0537 33.7734 24.0269C33.4241 23.9286 33.0748 23.8299 32.7257 23.7309C32.5028 23.6679 32.2797 23.6053 32.0567 23.5426C27.3726 22.2134 22.8078 19.889 18.9907 16.8661C18.8699 16.7711 18.8699 16.7711 18.7466 16.6743C17.8677 15.9821 17.0171 15.2875 16.2471 14.4737C16.1602 14.3863 16.1602 14.3863 16.0715 14.2972C16.033 14.2972 15.9945 14.2972 15.9548 14.2972ZM57.1419 22.5863C56.6003 23.216 56.3822 23.9151 56.4208 24.7419C56.5628 25.5552 56.9813 26.2695 57.64 26.7689C58.4331 27.2404 59.1429 27.3257 60.0374 27.1169C60.7764 26.8811 61.2941 26.3679 61.7273 25.7403C62.0679 25.0406 62.1024 24.222 61.8765 23.4771C61.5084 22.6933 60.905 22.0905 60.0926 21.7703C58.9356 21.4882 57.9988 21.7705 57.1419 22.5863ZM53.7603 25.4922C53.6664 25.5133 53.5726 25.5343 53.4759 25.5561C53.2818 25.6006 53.0877 25.6456 52.8939 25.6911C51.9323 25.9053 51.1052 25.9428 50.1674 25.6236C50.1674 26.0474 50.1674 26.4713 50.1674 26.908C51.1985 26.7328 52.2099 26.5006 53.2252 26.2512C53.3825 26.2128 53.5398 26.1745 53.6971 26.1362C54.0775 26.0435 54.4578 25.9505 54.8381 25.8571C54.7803 25.6259 54.7803 25.6259 54.7213 25.39C54.3559 25.39 54.1062 25.4114 53.7603 25.4922ZM43.1573 25.8936C43.0629 25.9252 42.9684 25.9568 42.8711 25.9894C42.7222 26.0395 42.7222 26.0395 42.5703 26.0906C42.4706 26.124 42.3708 26.1575 42.2681 26.1919C42.0209 26.2747 41.7738 26.3578 41.5267 26.4409C41.5235 26.7183 41.5212 26.9956 41.5194 27.2729C41.5184 27.3506 41.5174 27.4282 41.5164 27.5082C41.5141 27.983 41.5513 28.4274 41.6434 28.893C41.8455 28.8598 42.0474 28.8255 42.2492 28.7909C42.3616 28.7719 42.474 28.7529 42.5899 28.7334C42.9767 28.6585 42.9767 28.6585 43.5117 28.426C43.5888 27.5397 43.6658 26.6534 43.7452 25.7403C43.5395 25.7403 43.3509 25.8286 43.1573 25.8936ZM42.5703 30.5861C42.463 30.6187 42.3556 30.6512 42.2451 30.6847C42.1207 30.7226 42.1207 30.7226 41.9937 30.7613C42.1874 31.6973 42.4222 32.5725 42.8111 33.4469C43.0195 33.0836 43.0847 32.7883 43.1185 32.3723C43.1283 32.2579 43.1381 32.1435 43.1482 32.0257C43.162 31.8477 43.162 31.8477 43.176 31.6662C43.1861 31.5458 43.1962 31.4254 43.2066 31.3013C43.2313 31.0046 43.2551 30.7079 43.2782 30.411C43.0381 30.411 42.7975 30.5171 42.5703 30.5861ZM5.91284 37.6505C5.91284 40.7332 5.91284 43.8158 5.91284 46.9919C6.3519 46.904 6.7371 46.8038 7.15805 46.6625C7.35249 46.5982 7.35249 46.5982 7.55085 46.5325C7.68945 46.4866 7.82805 46.4407 7.97085 46.3934C9.28753 45.9621 10.6082 45.5883 11.9533 45.2544C12.1411 45.2077 12.1411 45.2077 12.3327 45.1601C12.4434 45.1331 12.554 45.1062 12.6681 45.0784C12.9146 45.03 12.9146 45.03 13.0356 44.8901C13.044 44.7321 13.0454 44.5738 13.0429 44.4157C13.0405 44.264 13.0381 44.1122 13.0356 43.9559C12.9086 43.8923 12.7815 43.8286 12.6506 43.763C10.0923 42.4594 7.95926 40.6422 6.40152 38.2139C6.27998 38.0246 6.15512 37.8373 6.02961 37.6505C5.99107 37.6505 5.95254 37.6505 5.91284 37.6505ZM14.9039 44.7733C14.8867 45.2549 14.8765 45.7365 14.8674 46.2183C14.8625 46.3533 14.8576 46.4883 14.8526 46.6274C14.8357 47.8216 15.1453 48.6721 15.9601 49.5482C16.0442 49.6339 16.0442 49.6339 16.1299 49.7213C16.19 49.7842 16.25 49.8471 16.3118 49.912C17.888 51.6599 17.888 51.6599 19.9102 52.6915C20.9006 52.6067 21.7531 51.7598 22.3943 51.0664C22.6105 50.8452 22.6105 50.8452 22.8965 50.6217C23.7584 49.9168 24.7058 48.7628 25.0626 47.6925C25.0722 47.4684 25.0751 47.244 25.074 47.0197C25.0736 46.8891 25.0732 46.7585 25.0728 46.624C25.0719 46.4877 25.0709 46.3514 25.0699 46.211C25.0693 46.0733 25.0688 45.9357 25.0683 45.7939C25.0669 45.4537 25.065 45.1135 25.0626 44.7733C24.8564 44.8198 24.8564 44.8198 24.6461 44.8673C21.3331 45.5889 18.2029 45.5833 14.9039 44.7733Z" fill="#0D0D0D"/>
<path d="M17.4024 35.2964C17.5256 35.2953 17.6487 35.2941 17.7757 35.293C17.9736 35.2922 17.9736 35.2922 18.1756 35.2915C18.3125 35.2908 18.4494 35.2901 18.5905 35.2895C18.8799 35.2884 19.1694 35.2876 19.4588 35.2871C19.9001 35.286 20.3413 35.2824 20.7825 35.2787C21.0642 35.2779 21.3459 35.2773 21.6275 35.2769C21.8244 35.2747 21.8244 35.2747 22.0253 35.2725C22.7706 35.2746 23.3378 35.3375 24.0116 35.6655C24.305 36.0251 24.4571 36.3689 24.4787 36.8332C24.2482 37.8045 23.6154 38.5407 22.8162 39.1265C22.5581 39.2787 22.3028 39.4031 22.0266 39.5188C21.9395 39.5558 21.8523 39.5929 21.7625 39.631C20.5657 40.0622 19.2201 40.0182 18.0388 39.5635C16.9854 39.052 16.1415 38.3541 15.6044 37.3002C15.4386 36.8131 15.4524 36.4613 15.6336 35.972C15.8667 35.6225 16.0538 35.4671 16.4627 35.3602C16.78 35.314 17.0818 35.2988 17.4024 35.2964ZM18.0565 37.1835C18.6775 37.8044 19.1159 38.0184 19.9759 38.0446C20.8567 38.018 21.389 37.8211 22.0266 37.1835C20.7165 37.1835 19.4064 37.1835 18.0565 37.1835Z" fill="#0D0D0D"/>
<path d="M28.3831 25.9739C29.0631 26.3642 29.438 26.8933 29.777 27.5867C29.9627 28.5337 29.9263 29.2986 29.4481 30.1506C28.9897 30.8066 28.4204 31.233 27.6323 31.3921C26.7558 31.5271 26.0065 31.4311 25.2669 30.9219C24.6048 30.3826 24.1903 29.7144 24.1006 28.8625C24.0729 27.957 24.3314 27.3549 24.7852 26.5869C25.7826 25.642 27.1214 25.4161 28.3831 25.9739ZM26.3032 27.7983C26.0685 28.1414 26.0052 28.3605 25.9967 28.7763C26.1566 29.1901 26.283 29.326 26.6754 29.5353C27.1524 29.6101 27.3499 29.5058 27.7482 29.2433C28.0214 28.9075 28.0214 28.9075 27.9671 28.4916C27.8547 28.034 27.7898 27.8664 27.3979 27.6086C26.9368 27.5427 26.6919 27.5324 26.3032 27.7983Z" fill="#0D0D0D"/>
<path d="M14.4628 26.0455C15.1858 26.6095 15.6955 27.2732 15.838 28.1925C15.8788 29.0732 15.7023 29.8381 15.1374 30.5278C14.4841 31.1077 13.7707 31.4543 12.8933 31.4651C11.9904 31.4048 11.3289 31.0891 10.7149 30.4256C10.1506 29.7238 10.0557 29.0933 10.0722 28.2048C10.1615 27.4728 10.4866 26.8277 11.036 26.3315C12.0527 25.6605 13.3499 25.3749 14.4628 26.0455ZM12.2256 27.8567C11.9628 28.173 11.9628 28.173 11.919 28.5428C12.0009 28.9792 12.1302 29.1726 12.4518 29.4769C12.8386 29.6397 13.0055 29.6031 13.4078 29.4769C13.767 29.2624 13.767 29.2624 13.9187 28.8493C14.0058 28.4315 14.0058 28.4315 13.8238 28.0976C13.5029 27.6791 13.5029 27.6791 12.9991 27.5575C12.557 27.5746 12.557 27.5746 12.2256 27.8567Z" fill="#0D0D0D"/>
<path d="M18.3946 29.1936C18.7589 29.2673 18.8876 29.4149 19.1075 29.7104C19.1663 30.0676 19.1663 30.0676 19.1732 30.4621C19.1841 31.0163 19.2269 31.3681 19.5746 31.8122C19.9401 31.8731 20.1594 31.8938 20.4686 31.6758C20.687 31.378 20.6728 31.1494 20.6838 30.7832C20.7166 30.2303 20.775 29.8301 21.0925 29.3601C21.4535 29.1796 21.7458 29.2091 22.1434 29.2434C22.3998 29.4117 22.3998 29.4117 22.6105 29.7104C22.6799 30.0717 22.6757 30.4237 22.6689 30.7905C22.6707 30.8864 22.6725 30.9823 22.6744 31.0811C22.6693 31.8803 22.4649 32.4906 21.9395 33.0994C21.8744 33.1515 21.8092 33.2035 21.742 33.2572C21.6772 33.3111 21.6123 33.365 21.5455 33.4205C20.8187 33.8949 20.0659 33.8777 19.2243 33.7973C18.4985 33.6011 17.9891 33.139 17.5895 32.5128C17.1791 31.7214 17.1236 30.8187 17.2392 29.944C17.5696 29.3044 17.6731 29.2329 18.3946 29.1936Z" fill="#0D0D0D"/>
<path d="M30.5506 23.9888C30.8516 24.343 30.9048 24.4741 30.8863 24.9376C30.7298 25.4517 30.7298 25.4517 30.4338 25.6236C29.7963 25.7242 29.4872 25.6441 28.9524 25.2879C28.1695 24.7832 27.3642 24.6239 26.4387 24.7341C25.7635 24.8823 25.2624 25.1146 24.6981 25.5045C24.2992 25.721 23.9891 25.6838 23.5446 25.6236C23.2248 25.4379 23.2002 25.2926 23.0921 24.9376C23.0736 24.4741 23.1268 24.343 23.4278 23.9888C25.49 22.2851 28.4878 22.2846 30.5506 23.9888Z" fill="#0D0D0D"/>
<path d="M16.6554 24.1056C16.7722 24.2224 16.7722 24.2224 16.8013 24.6675C16.7947 24.9749 16.771 25.1593 16.6554 25.4484C16.36 25.67 16.1159 25.6947 15.7509 25.6779C15.2596 25.5765 14.8592 25.3001 14.4368 25.0397C13.6598 24.6413 12.7385 24.6092 11.9012 24.8203C11.5865 24.9414 11.3264 25.105 11.0433 25.2879C10.4944 25.6362 10.1771 25.7347 9.53262 25.6236C9.2407 25.4338 9.2407 25.4338 9.06555 25.1565C8.99987 24.8208 8.99987 24.8208 9.06555 24.4559C9.75739 23.4919 10.8474 22.9874 11.9993 22.7628C13.7582 22.5529 15.2772 23.0048 16.6554 24.1056Z" fill="#0D0D0D"/>
<path d="M47.1315 25.2733C47.4745 25.5141 47.4745 25.5141 47.7153 25.8571C47.7299 26.2804 47.7299 26.2804 47.5986 26.6745C47.3504 26.908 47.3504 26.908 47.0147 27.0248C46.5841 27.0102 46.5841 27.0102 46.1974 26.908C45.9077 26.4736 45.9097 26.2543 45.9638 25.7403C46.2823 25.2626 46.5715 25.1704 47.1315 25.2733Z" fill="#0D0D0D"/>
</svg>
