<svg width="64" height="64" viewBox="0 0 64 64" fill="none" xmlns="http://www.w3.org/2000/svg">
<path fill-rule="evenodd" clip-rule="evenodd" d="M33.8169 0.00880935C19.3279 -0.312781 5.54208 8.19148 1.20433 22.0783C-3.01516 35.5866 4.32708 49.3971 15.8358 57.5735C26.8596 65.4052 41.5702 66.5069 52.4661 58.4968C63.2505 50.5688 66.3511 36.2164 62.2754 23.4338C58.1401 10.4646 47.3741 0.309715 33.8169 0.00880935Z" fill="#F1E9D0"/>
<path d="M25.2954 4.57493C26.5233 5.17478 27.7775 5.67726 29.0578 6.15331C29.3924 6.27782 29.7265 6.40383 30.0605 6.53007C32.9061 7.61588 32.9061 7.61588 35.843 8.40369C35.9495 8.42727 36.056 8.45085 36.1658 8.47514C36.7381 8.59963 37.3075 8.69864 37.8883 8.77623C38.3221 8.84382 38.4699 8.89623 38.8452 9.15606C39.0945 9.54788 39.1446 9.72336 39.0497 10.1787C38.8525 10.522 38.8525 10.522 38.4654 10.7631C37.9476 10.8096 37.4574 10.728 36.946 10.6462C36.8654 10.634 36.7848 10.6218 36.7018 10.6092C33.2222 10.0633 29.9406 8.66563 26.6917 7.36242C26.436 7.26032 26.18 7.15933 25.9238 7.05874C25.8451 7.02769 25.7664 6.99664 25.6853 6.96465C25.4764 6.88232 25.2675 6.8003 25.0585 6.71831C24.6403 6.54121 24.2443 6.34199 23.8416 6.13197C21.0927 4.72806 17.8724 4.62234 14.9396 5.47502C11.5617 6.61047 8.92744 8.73982 7.26115 11.9058C6.39956 13.6466 6.04604 15.4628 6.05498 17.3956C6.05547 17.54 6.05596 17.6844 6.05646 17.8332C6.06929 18.8698 6.15029 19.8149 6.44212 20.8142C6.47331 20.9297 6.50449 21.0453 6.53662 21.1643C7.51002 24.4219 9.81051 27.0163 12.7533 28.6447C15.7323 30.1947 19.0901 30.3919 22.2807 29.4774C23.0331 29.2342 23.7465 28.9266 24.4587 28.5843C25.6842 27.9957 26.9381 27.5024 28.2097 27.023C28.3175 26.9823 28.4253 26.9415 28.5363 26.8995C35.3855 24.3114 40.9979 23.4634 48.1658 25.2553C48.1658 20.1258 48.1658 14.9962 48.1658 9.71121C47.433 9.90405 46.7002 10.0969 45.9452 10.2956C45.4812 10.394 45.0242 10.4878 44.5574 10.5658C44.4447 10.5847 44.332 10.6036 44.216 10.6231C42.3476 10.9212 42.3476 10.9212 41.7378 10.7631C41.4648 10.4933 41.4648 10.4933 41.2703 10.1787C41.2773 9.77494 41.284 9.49061 41.5401 9.16793C41.7708 8.98358 41.9152 8.94282 42.2053 8.8931C42.3099 8.87442 42.4144 8.85574 42.5221 8.83649C42.8075 8.79176 43.0927 8.74933 43.3786 8.70866C45.033 8.46866 46.6941 8.13702 48.2827 7.60749C48.3916 7.44028 48.5002 7.27285 48.6064 7.10394C48.9809 6.58917 49.5282 6.11996 50.1527 5.97127C50.9386 5.87264 51.5875 6.00875 52.2564 6.43876C52.8069 6.9352 53.1603 7.45832 53.2214 8.2117C53.2218 8.35215 53.2222 8.49261 53.2226 8.63732C53.2232 8.71591 53.2237 8.79449 53.2242 8.87546C53.2257 9.13797 53.2255 9.40045 53.2253 9.66296C53.226 9.85152 53.2268 10.0401 53.2277 10.2286C53.2298 10.7403 53.2303 11.252 53.2305 11.7637C53.2306 12.0836 53.2311 12.4035 53.2318 12.7234C53.2339 13.8399 53.2349 14.9565 53.2347 16.073C53.2345 17.1129 53.237 18.1527 53.2407 19.1925C53.2438 20.086 53.245 20.9795 53.2449 21.8731C53.2448 22.4064 53.2455 22.9397 53.2479 23.473C53.2502 23.9748 53.2502 24.4766 53.2485 24.9784C53.2483 25.1621 53.2488 25.3459 53.2502 25.5296C53.258 26.6011 53.2521 27.4482 52.5198 28.2968C51.7475 28.9139 51.1473 29.095 50.1527 28.9953C49.5353 28.7998 49.096 28.5125 48.6333 28.0603C48.5828 27.943 48.5322 27.8256 48.4802 27.7047C48.3142 27.3387 48.3142 27.3387 47.9759 27.2099C47.854 27.1815 47.7321 27.1532 47.6066 27.1239C47.4707 27.091 47.3349 27.0581 47.1949 27.0242C47.0501 26.9925 46.9053 26.9608 46.756 26.9281C46.6085 26.8936 46.4609 26.8592 46.3089 26.8237C43.0374 26.0744 39.913 25.8378 36.5954 26.4241C36.4749 26.4447 36.4749 26.4447 36.3521 26.4658C33.5266 26.9751 30.7587 28.1523 28.1002 29.1998C27.9936 29.2416 27.8871 29.2834 27.7773 29.3264C27.4677 29.4482 27.1586 29.5712 26.8497 29.6947C26.7159 29.7474 26.7159 29.7474 26.5793 29.8012C25.996 30.0368 25.433 30.3058 24.8715 30.589C24.7584 30.6458 24.7584 30.6458 24.643 30.7038C24.4586 30.7964 24.2743 30.8892 24.09 30.9821C24.0898 31.0731 24.0896 31.1641 24.0894 31.2578C24.0851 33.4752 24.0782 35.6925 24.0685 37.9099C24.0638 38.9822 24.06 40.0546 24.0583 41.1269C24.0568 42.0619 24.0536 42.997 24.0485 43.932C24.0459 44.4267 24.044 44.9214 24.0442 45.4162C24.0443 45.8827 24.0421 46.3492 24.0384 46.8157C24.0374 46.9861 24.0372 47.1565 24.0379 47.3269C24.0437 49.0639 23.5729 50.5325 22.3661 51.8148C21.6501 52.486 20.9198 52.9241 19.9611 53.1492C19.8364 53.1789 19.7118 53.2086 19.5834 53.2392C19.4893 53.2609 19.3951 53.2826 19.2982 53.3049C19.3112 53.8041 19.3264 54.3032 19.342 54.8023C19.3474 55.0119 19.3474 55.0119 19.353 55.2258C19.3904 56.372 19.4475 57.4748 19.9921 58.5057C20.0805 58.6775 20.0805 58.6775 20.1706 58.8527C20.3291 59.114 20.485 59.288 20.7006 59.4992C20.7006 59.5763 20.7006 59.6534 20.7006 59.7329C20.7662 59.7642 20.8317 59.7956 20.8992 59.8279C21.287 60.028 21.6497 60.2659 22.0177 60.4999C23.0641 61.0508 24.4136 61.0914 25.55 60.7953C26.8741 60.2713 27.7976 59.4834 28.422 58.1889C28.7065 57.4715 28.7794 56.7808 28.7802 56.0153C28.7805 55.9382 28.7807 55.861 28.781 55.7815C28.7817 55.5245 28.7816 55.2675 28.7815 55.0105C28.7818 54.8256 28.7822 54.6406 28.7827 54.4557C28.7836 54.058 28.7842 53.6602 28.7846 53.2625C28.7853 52.6321 28.7872 52.0017 28.7894 51.3712C28.7902 51.155 28.7909 50.9387 28.7917 50.7224C28.792 50.6141 28.7924 50.5058 28.7928 50.3942C28.7977 48.9273 28.8015 47.4605 28.803 45.9937C28.804 45.0032 28.8066 44.0128 28.8111 43.0224C28.8134 42.4991 28.8149 41.9759 28.8143 41.4527C28.8137 40.9595 28.8154 40.4664 28.8186 39.9732C28.8194 39.7936 28.8194 39.614 28.8186 39.4343C28.8095 37.3162 29.2816 35.506 30.7736 33.9259C32.1126 32.6616 33.6604 32.0282 35.507 31.9828C37.3827 32.0452 39.0527 32.7469 40.4047 34.0592C42.3293 36.1962 42.2406 38.7212 42.2199 41.4277C42.2187 41.6961 42.2177 41.9645 42.2167 42.233C42.2142 42.8849 42.2103 43.5369 42.2053 44.1888C42.298 44.1937 42.3907 44.1985 42.4862 44.2036C43.7385 44.2855 44.7889 44.6402 45.6572 45.5913C46.2491 46.3994 46.5485 47.2021 46.541 48.1967C46.5408 48.3205 46.5408 48.3205 46.5405 48.4468C46.5399 48.7099 46.5384 48.9731 46.5369 49.2362C46.5363 49.4148 46.5358 49.5934 46.5353 49.772C46.534 50.2094 46.532 50.6469 46.5296 51.0843C46.6198 51.1189 46.7101 51.1536 46.8031 51.1893C47.4315 51.4495 47.8013 51.8286 48.0805 52.4393C48.2975 53.1544 48.2867 53.9441 47.9905 54.6343C47.6404 55.2354 47.0665 55.6582 46.4127 55.8761C46.2108 55.884 46.0085 55.886 45.8064 55.8834C45.7011 55.8823 45.5958 55.8813 45.4873 55.8802C45.3669 55.8782 45.3669 55.8782 45.244 55.8761C45.2477 55.9999 45.2477 55.9999 45.2514 56.1262C45.2611 56.5005 45.2672 56.8749 45.2732 57.2494C45.2791 57.4442 45.2791 57.4442 45.2851 57.6429C45.2866 57.7679 45.2881 57.893 45.2897 58.0218C45.2933 58.1944 45.2933 58.1944 45.2971 58.3705C45.2294 58.7665 45.0856 58.9009 44.7765 59.1485C44.5428 59.2147 44.5428 59.2147 44.309 59.2143C44.2319 59.2168 44.1547 59.2194 44.0753 59.222C43.6764 59.0966 43.576 58.9305 43.374 58.5642C43.3174 58.1022 43.3302 57.6482 43.3448 57.1836C43.3545 56.7521 43.3641 56.3207 43.374 55.8761C41.947 55.8761 40.52 55.8761 39.0497 55.8761C39.0682 56.7782 39.0682 56.7782 39.0918 57.6802C39.093 57.7929 39.0942 57.9057 39.0954 58.0218C39.099 58.1944 39.099 58.1944 39.1028 58.3705C39.0351 58.7665 38.8913 58.9009 38.5822 59.1485C38.3485 59.2147 38.3485 59.2147 38.1147 59.2143C38.0376 59.2168 37.9605 59.2194 37.881 59.222C37.4821 59.0966 37.3817 58.9305 37.1798 58.5642C37.1232 58.1025 37.1358 57.6478 37.1505 57.1836C37.1526 57.058 37.1548 56.9325 37.1569 56.8031C37.1624 56.494 37.1701 56.1851 37.1798 55.8761C37.0999 55.8777 37.02 55.8793 36.9377 55.881C36.8327 55.8822 36.7277 55.8835 36.6196 55.8848C36.5156 55.8864 36.4116 55.888 36.3045 55.8896C35.7496 55.864 35.4179 55.6156 35.003 55.2698C34.4339 54.5959 34.1768 54.0079 34.2219 53.1159C34.3287 52.2913 34.7146 51.8726 35.3285 51.3628C35.5435 51.2012 35.5435 51.2012 35.7773 51.0843C35.7789 50.9298 35.7789 50.9298 35.7806 50.7721C35.7858 50.3837 35.793 49.9954 35.8015 49.607C35.8048 49.4401 35.8073 49.2731 35.8089 49.1062C35.8241 47.6665 36.0007 46.3098 37.0629 45.2406C38.098 44.4195 39.0345 44.1808 40.3353 44.1888C40.3245 43.4134 40.3119 42.638 40.2982 41.8626C40.2938 41.5993 40.2897 41.336 40.286 41.0727C40.2806 40.6923 40.2739 40.3119 40.2668 39.9316C40.2648 39.7575 40.2648 39.7575 40.2628 39.5798C40.2305 38.021 39.8913 36.8112 39.0278 35.5036C38.0251 34.5455 36.8653 34.0388 35.4778 33.977C34.1191 34.0359 32.9179 34.593 31.9935 35.584C30.8976 36.9053 30.8339 38.3015 30.8369 39.9573C30.8364 40.1429 30.8358 40.3284 30.8351 40.514C30.8337 40.9119 30.8331 41.3098 30.833 41.7078C30.8327 42.3381 30.8306 42.9685 30.8282 43.5988C30.8225 45.1644 30.8188 46.7301 30.8164 48.2957C30.8144 49.5129 30.8117 50.7301 30.8067 51.9474C30.8041 52.5728 30.8032 53.1982 30.8034 53.8237C30.8032 54.2142 30.8016 54.6048 30.7995 54.9953C30.7989 55.1751 30.7988 55.3549 30.7994 55.5346C30.8057 57.6571 30.3228 59.5565 28.8083 61.1144C27.1673 62.6228 25.3732 62.9851 23.2209 62.9094C22.5681 62.8638 21.9976 62.6816 21.4019 62.421C21.2936 62.3755 21.1852 62.33 21.0736 62.2831C19.6264 61.5893 18.4311 60.2688 17.8715 58.771C17.4553 57.493 17.4023 56.2765 17.3625 54.9411C17.3574 54.7821 17.3523 54.6231 17.3472 54.464C17.3348 54.0777 17.3229 53.6913 17.3113 53.3049C17.1972 53.2733 17.1972 53.2733 17.0808 53.241C15.4164 52.7639 14.2717 51.9379 13.4107 50.4269C12.7334 49.1072 12.7361 47.8022 12.74 46.3516C12.74 46.1811 12.74 46.0105 12.74 45.84C12.7399 45.3793 12.7406 44.9186 12.7414 44.458C12.7422 43.9757 12.7422 43.4934 12.7424 43.0111C12.7427 42.0989 12.7437 41.1866 12.7449 40.2744C12.7462 39.2354 12.7468 38.1964 12.7474 37.1574C12.7486 35.021 12.7507 32.8847 12.7533 30.7484C12.589 30.6948 12.589 30.6948 12.4214 30.6402C9.41188 29.6171 6.86874 26.7172 5.47324 23.9407C3.86398 20.5942 3.52791 16.5265 4.68902 12.9837C5.34252 11.1432 6.22967 9.56499 7.49398 8.07499C7.58031 7.97149 7.66663 7.86798 7.75557 7.76135C12.1062 2.74144 19.4527 1.71095 25.2954 4.57493ZM50.2513 8.02813C49.9714 8.39257 49.977 8.60146 49.9764 9.05841C49.9757 9.13341 49.975 9.20841 49.9742 9.28568C49.9724 9.53675 49.9738 9.7877 49.9753 10.0388C49.9747 10.2189 49.9738 10.399 49.9728 10.579C49.9707 11.068 49.9715 11.557 49.973 12.046C49.9742 12.5575 49.9731 13.0691 49.9724 13.5806C49.9715 14.4397 49.9726 15.2988 49.9748 16.1579C49.9774 17.1513 49.9766 18.1447 49.974 19.1382C49.9719 19.9909 49.9716 20.8436 49.9728 21.6963C49.9735 22.2057 49.9736 22.7151 49.9721 23.2245C49.9707 23.7034 49.9717 24.1822 49.9744 24.6611C49.975 24.8369 49.9748 25.0128 49.9738 25.1886C49.9725 25.4285 49.9741 25.6682 49.9764 25.9081C49.9766 26.0424 49.9768 26.1767 49.977 26.315C50.0485 26.732 50.1675 26.8747 50.5033 27.1253C50.8997 27.1064 51.0389 27.0572 51.3214 26.7747C51.3578 26.4414 51.3578 26.4414 51.3527 26.0435C51.3532 25.9676 51.3537 25.8918 51.3543 25.8137C51.3557 25.5584 51.3555 25.3031 51.3554 25.0479C51.3561 24.8653 51.3568 24.6828 51.3577 24.5002C51.3598 24.0035 51.3604 23.5068 51.3605 23.0101C51.3607 22.5959 51.3616 22.1817 51.3624 21.7676C51.3643 20.7907 51.3649 19.8138 51.3647 18.8369C51.3646 17.828 51.367 16.8192 51.3707 15.8104C51.3738 14.9452 51.375 14.08 51.3749 13.2147C51.3748 12.6976 51.3755 12.1804 51.378 11.6632C51.3802 11.177 51.3803 10.6908 51.3786 10.2045C51.3783 10.0258 51.3789 9.84706 51.3803 9.66836C51.3821 9.42482 51.381 9.18146 51.3792 8.93793C51.3794 8.73331 51.3794 8.73331 51.3796 8.52456C51.3517 8.18147 51.3517 8.18147 51.106 7.96992C50.7428 7.78451 50.5805 7.78396 50.2513 8.02813ZM14.6232 31.4496C14.615 33.574 14.6089 35.6984 14.6051 37.8228C14.6033 38.8093 14.6008 39.7958 14.5968 40.7823C14.5933 41.6426 14.591 42.503 14.5903 43.3633C14.5898 43.8184 14.5887 44.2735 14.5862 44.7286C14.5838 45.158 14.5831 45.5873 14.5836 46.0167C14.5834 46.2473 14.5816 46.4779 14.5796 46.7084C14.5843 48.0636 14.7533 49.3343 15.6751 50.3831C16.449 51.1137 17.4038 51.5498 18.4801 51.5518C19.6244 51.4498 20.5621 50.9753 21.343 50.1347C21.7875 49.5805 21.9969 49.0749 22.0566 48.3656C22.0657 48.2616 22.0748 48.1575 22.0842 48.0503C22.0905 47.9716 22.0967 47.8929 22.1031 47.8119C22.0195 47.8101 21.9359 47.8084 21.8497 47.8067C21.4667 47.7979 21.0837 47.7866 20.7006 47.7753C20.5034 47.7714 20.5034 47.7714 20.3021 47.7673C18.6594 47.7145 18.6594 47.7145 18.0313 47.1517C17.9889 47.0851 17.9466 47.0185 17.903 46.9499C17.8363 46.8509 17.8363 46.8509 17.7683 46.7499C17.4848 46.1538 17.5263 45.5024 17.5254 44.8572C17.525 44.753 17.5247 44.6489 17.5243 44.5416C17.5237 44.3219 17.5234 44.1023 17.5234 43.8826C17.5232 43.5471 17.521 43.2117 17.5188 42.8762C17.5185 42.6624 17.5182 42.4486 17.5181 42.2348C17.5173 42.1348 17.5165 42.0349 17.5156 41.9319C17.5175 41.4297 17.5267 41.0157 17.7788 40.5657C18.1353 40.3875 18.4383 40.4213 18.8307 40.4488C19.0712 40.6267 19.1677 40.7309 19.2263 41.0264C19.2269 41.1121 19.2275 41.1978 19.2281 41.2862C19.2305 41.4324 19.2305 41.4324 19.2328 41.5816C19.2329 41.6864 19.2329 41.7913 19.2329 41.8993C19.2344 42.0072 19.236 42.1151 19.2376 42.2262C19.2423 42.5712 19.2449 42.9161 19.247 43.2611C19.2498 43.6065 19.2531 43.9519 19.2578 44.2972C19.2606 44.5122 19.2623 44.7272 19.2629 44.9422C19.264 45.0394 19.2652 45.1365 19.2665 45.2366C19.2672 45.365 19.2672 45.365 19.268 45.496C19.2807 45.7374 19.2807 45.7374 19.5319 45.9419C20.3804 45.9419 21.2289 45.9419 22.1031 45.9419C22.1031 42.5865 22.1031 39.231 22.1031 35.7739C21.1775 35.7739 20.2519 35.7739 19.2982 35.7739C19.2691 36.335 19.2691 36.335 19.2423 36.8962C19.2173 37.3179 19.1867 37.5189 18.9475 37.8776C18.5268 38.0085 18.3237 38.0289 17.9176 37.8484C17.6619 37.6439 17.6619 37.6439 17.5451 37.2933C17.4995 36.4496 17.468 35.6331 17.7788 34.8389C17.8102 34.7497 17.8415 34.6606 17.8738 34.5687C18.0692 34.2909 18.2784 34.2387 18.5969 34.1377C18.7126 34.0991 18.8283 34.0606 18.9475 34.0208C19.1887 34.0033 19.4304 33.9918 19.6721 33.9838C19.8133 33.9789 19.9545 33.974 20.1001 33.969C20.2476 33.9644 20.3952 33.9598 20.5472 33.9551C20.6962 33.95 20.8451 33.945 20.9985 33.9398C21.3667 33.9274 21.7349 33.9156 22.1031 33.9039C22.1031 33.1326 22.1031 32.3612 22.1031 31.5665C21.8385 31.6045 21.8385 31.6045 21.5685 31.6432C19.3874 31.9481 17.3412 32.0025 15.175 31.5619C15.0713 31.5408 14.9675 31.5198 14.8606 31.4981C14.7823 31.4821 14.7039 31.4661 14.6232 31.4496ZM38.3777 46.6796C37.2803 47.9905 37.7641 48.8406 37.7641 50.8506C40.0396 50.8506 42.3152 50.8506 44.6596 50.8506C44.9144 48.5846 44.9144 48.5846 44.1164 46.7801C44.0498 46.7252 43.9832 46.6704 43.9146 46.6139C43.8486 46.5579 43.7826 46.5018 43.7146 46.4441C42.9481 45.9247 42.1171 46.02 41.2265 46.0222C41.0743 46.0203 40.9222 46.0185 40.7654 46.0165C39.7959 46.016 39.1376 46.0406 38.3777 46.6796ZM36.2448 52.9543C36.1087 53.2936 36.1087 53.2936 36.1279 53.6555C36.2386 53.8691 36.2386 53.8691 36.4785 54.0061C36.7928 54.0407 37.08 54.054 37.3944 54.0515C37.4875 54.0521 37.5807 54.0527 37.6766 54.0534C37.9848 54.0549 38.2928 54.0539 38.6009 54.0527C38.8148 54.0529 39.0286 54.0533 39.2424 54.0537C39.6905 54.0542 40.1386 54.0535 40.5867 54.0518C41.162 54.0498 41.7372 54.051 42.3124 54.0531C42.7539 54.0544 43.1953 54.054 43.6368 54.053C43.8489 54.0528 44.0611 54.0531 44.2733 54.0539C44.5693 54.0548 44.8653 54.0535 45.1614 54.0515C45.2496 54.0522 45.3378 54.0529 45.4287 54.0536C45.6975 54.0545 45.6975 54.0545 46.0621 54.0061C46.3125 53.6306 46.3722 53.5074 46.2959 53.0711C45.8312 52.703 45.4108 52.6706 44.8391 52.677C44.7533 52.6766 44.6675 52.6762 44.5791 52.6757C44.2967 52.6748 44.0144 52.6764 43.732 52.6781C43.535 52.6781 43.3381 52.6781 43.1412 52.6779C42.729 52.6779 42.3168 52.6791 41.9046 52.6812C41.3768 52.6839 40.849 52.6839 40.3212 52.6832C39.9147 52.6828 39.5083 52.6835 39.1018 52.6847C38.9072 52.6851 38.7126 52.6853 38.518 52.6851C38.2459 52.685 37.9737 52.6865 37.7016 52.6884C37.6215 52.6881 37.5415 52.6878 37.459 52.6875C37.0067 52.6926 36.6433 52.7325 36.2448 52.9543Z" fill="#0D0D0D"/>
<path d="M23.9745 9.48338C24.2567 9.70595 24.5245 9.93791 24.7912 10.1787C24.9126 10.2754 24.9126 10.2754 25.0364 10.3741C26.7194 11.736 27.816 14.0035 28.0637 16.1392C28.2971 19.0399 27.6761 21.5973 25.7988 23.857C24.2496 25.6093 22.032 26.975 19.6498 27.1511C16.7291 27.2549 14.1515 26.8297 11.9352 24.7878C11.8442 24.7048 11.7532 24.6218 11.6594 24.5363C9.81126 22.7718 8.82569 20.4293 8.66274 17.8923C8.60365 15.064 9.68105 12.5162 11.5992 10.4563C14.9234 7.2689 20.1944 6.90938 23.9745 9.48338ZM18.9476 9.71119C19.6182 10.5308 20.3706 11.2681 21.1193 12.0153C21.2622 12.1583 21.405 12.3012 21.5478 12.4442C21.8456 12.7421 22.1435 13.0398 22.4416 13.3374C22.8246 13.7196 23.207 14.1024 23.5892 14.4854C23.8833 14.7799 24.1776 15.074 24.472 15.3682C24.6133 15.5093 24.7544 15.6506 24.8955 15.7919C25.0916 15.9883 25.288 16.1843 25.4846 16.3802C25.5725 16.4685 25.5725 16.4685 25.6622 16.5585C25.8887 16.8365 25.8887 16.8365 26.1937 16.9573C26.1525 15.0869 25.2736 13.296 23.9982 11.9423C22.7382 10.7533 20.9725 9.74681 19.1996 9.70298C19.1164 9.70569 19.0333 9.7084 18.9476 9.71119ZM15.3464 10.2663C15.2059 10.326 15.0653 10.3857 14.9205 10.4471C14.5145 10.6423 14.1721 10.8552 13.8052 11.1137C13.9767 11.5105 14.1972 11.7673 14.5035 12.0704C14.599 12.1655 14.6945 12.2607 14.793 12.3587C14.8962 12.4604 14.9995 12.5621 15.1058 12.6668C15.2116 12.7719 15.3173 12.8771 15.4263 12.9854C15.7069 13.2643 15.988 13.5428 16.2694 13.8209C16.6665 14.2136 17.063 14.6068 17.4592 15.0004C17.6701 15.2099 17.8813 15.4191 18.0929 15.6279C18.188 15.7223 18.2832 15.8167 18.3813 15.914C18.4654 15.9972 18.5496 16.0804 18.6363 16.1661C18.8971 16.4436 18.9441 16.5657 18.9768 16.95C18.9476 17.3079 18.9476 17.3079 18.8161 17.5198C18.4966 17.7221 18.2748 17.768 17.8957 17.7754C17.1907 17.3914 16.6631 16.8063 16.1034 16.2397C16.0006 16.1365 15.8978 16.0334 15.7919 15.9272C15.5206 15.6548 15.2498 15.3819 14.9792 15.1087C14.7023 14.8294 14.4247 14.5507 14.1471 14.272C13.604 13.7263 13.0615 13.1799 12.5196 12.633C12.0114 12.8532 11.8222 13.1842 11.5627 13.6557C11.5211 13.7268 11.4796 13.7979 11.4369 13.8711C11.183 14.322 10.9892 14.685 11.0002 15.2042C11.2417 15.5731 11.5526 15.8683 11.8663 16.1762C12.0065 16.3185 12.0065 16.3185 12.1495 16.4638C12.4597 16.7775 12.7728 17.0882 13.0861 17.3988C13.3022 17.6154 13.5182 17.8322 13.734 18.0491C14.187 18.5036 14.6417 18.9563 15.0974 19.408C15.6241 19.9303 16.1478 20.4555 16.6701 20.9823C17.1727 21.489 17.6775 21.9934 18.1833 22.4968C18.3983 22.7113 18.6127 22.9263 18.8265 23.142C19.1253 23.4429 19.4266 23.7411 19.7287 24.0386C19.8171 24.1286 19.9055 24.2187 19.9965 24.3114C20.4625 24.7908 20.4625 24.7908 21.0915 24.9097C21.881 24.5998 22.6379 24.1875 23.2719 23.6191C23.0875 23.1644 22.7769 22.8621 22.4314 22.5261C22.3723 22.4677 22.3133 22.4093 22.2524 22.349C22.0644 22.1631 21.8757 21.978 21.6868 21.793C21.4976 21.607 21.3086 21.4209 21.1199 21.2344C21.0026 21.1185 20.8851 21.003 20.7671 20.8879C20.2457 20.3739 20.2457 20.3739 20.204 19.8938C20.2332 19.5285 20.2332 19.5285 20.3574 19.251C20.5838 19.061 20.5838 19.061 20.9563 18.9807C22.0824 19.1838 23.0234 20.5613 23.7932 21.3503C23.9361 21.4951 23.9361 21.4951 24.0818 21.6428C24.1676 21.7306 24.2535 21.8184 24.3419 21.9089C24.5387 22.1256 24.5387 22.1256 24.7912 22.0997C25.3214 21.4014 25.7941 20.5106 25.96 19.6454C25.8168 19.2853 25.6216 19.0438 25.3499 18.7712C25.2724 18.6928 25.1949 18.6145 25.1151 18.5338C25.0301 18.4492 24.9452 18.3645 24.8577 18.2773C24.7234 18.1421 24.7234 18.1421 24.5864 18.0042C24.2902 17.7064 23.9931 17.4094 23.696 17.1125C23.4901 16.9062 23.2843 16.6999 23.0785 16.4935C22.6471 16.0613 22.2152 15.6294 21.7831 15.1979C21.2832 14.6987 20.7844 14.1985 20.2862 13.6978C19.8068 13.2161 19.3265 12.7354 18.8458 12.2551C18.6413 12.0505 18.437 11.8457 18.2331 11.6406C17.9485 11.3546 17.6629 11.0697 17.3769 10.7851C17.2922 10.6995 17.2075 10.6139 17.1202 10.5257C17.0424 10.4487 16.9645 10.3717 16.8843 10.2923C16.8169 10.2248 16.7494 10.1574 16.6799 10.0878C16.2469 9.75642 15.7862 10.0771 15.3464 10.2663ZM10.5327 17.4248C10.6107 19.8077 11.4951 21.7576 13.2208 23.3853C14.7602 24.6943 16.4815 25.271 18.4801 25.3722C18.0239 24.8266 17.5503 24.3086 17.0466 23.8068C16.9772 23.7371 16.9077 23.6674 16.8362 23.5957C16.6094 23.3684 16.3822 23.1415 16.1549 22.9147C15.9964 22.756 15.8378 22.5973 15.6793 22.4387C15.3485 22.1077 15.0175 21.777 14.6864 21.4464C14.261 21.0217 13.8362 20.5965 13.4115 20.1711C13.0849 19.8441 12.7581 19.5174 12.4312 19.1908C12.2743 19.034 12.1175 18.8771 11.9608 18.7201C11.7429 18.5019 11.5246 18.284 11.3062 18.0663C11.241 18.0009 11.1759 17.9355 11.1088 17.8682C10.862 17.5629 10.862 17.5629 10.5327 17.4248Z" fill="#0D0D0D"/>
<path d="M63.8195 19.3021C64.02 19.6676 64.0409 20.0646 63.9437 20.4635C63.6045 20.8695 63.3198 21.0164 62.8139 21.1557C62.6143 21.2118 62.6143 21.2118 62.4107 21.2691C62.2674 21.3075 62.1241 21.346 61.9765 21.3857C61.8286 21.4265 61.6808 21.4674 61.5284 21.5095C61.2158 21.5957 60.9029 21.6808 60.5897 21.7652C60.19 21.8729 59.7909 21.9829 59.392 22.0937C59.0096 22.1997 58.6267 22.304 58.2439 22.4083C58.03 22.4675 58.03 22.4675 57.8118 22.5278C56.5122 22.8759 56.5122 22.8759 55.8795 22.801C55.5288 22.5599 55.5288 22.5599 55.2951 22.2166C55.2951 21.8195 55.3073 21.5425 55.5451 21.2152C55.8586 20.9739 56.1758 20.8933 56.5547 20.7803C56.6766 20.7437 56.6766 20.7437 56.8009 20.7063C57.0777 20.6239 57.355 20.5435 57.6326 20.4635C57.7838 20.4196 57.7838 20.4196 57.938 20.3748C58.5994 20.1834 59.2621 19.997 59.9258 19.8138C60.157 19.7496 60.388 19.6848 60.6189 19.6193C60.9575 19.5233 61.2966 19.4293 61.6359 19.3358C61.7383 19.3064 61.8407 19.2769 61.9462 19.2466C62.5958 19.0709 63.1969 18.9606 63.8195 19.3021Z" fill="#0D0D0D"/>
<path d="M63.8195 10.5366C64.02 10.9021 64.0409 11.2991 63.9437 11.698C63.6045 12.1041 63.3198 12.251 62.8139 12.3902C62.6143 12.4463 62.6143 12.4463 62.4107 12.5036C62.2674 12.5421 62.1241 12.5805 61.9765 12.6202C61.8286 12.661 61.6808 12.7019 61.5284 12.744C61.2158 12.8302 60.9029 12.9154 60.5897 12.9997C60.19 13.1074 59.7909 13.2174 59.392 13.3282C59.0096 13.4342 58.6267 13.5385 58.2439 13.6428C58.03 13.702 58.03 13.702 57.8118 13.7624C56.5122 14.1104 56.5122 14.1104 55.8795 14.0355C55.5288 13.7944 55.5288 13.7944 55.2951 13.4511C55.2951 13.054 55.3073 12.777 55.5451 12.4497C55.8586 12.2085 56.1758 12.1278 56.5547 12.0148C56.6766 11.9782 56.6766 11.9782 56.8009 11.9408C57.0777 11.8584 57.355 11.778 57.6326 11.698C57.7838 11.6541 57.7838 11.6541 57.938 11.6093C58.5994 11.418 59.2621 11.2315 59.9258 11.0483C60.157 10.9841 60.388 10.9193 60.6189 10.8538C60.9575 10.7578 61.2966 10.6639 61.6359 10.5704C61.7383 10.5409 61.8407 10.5115 61.9462 10.4811C62.5958 10.3054 63.1969 10.1952 63.8195 10.5366Z" fill="#0D0D0D"/>
<path d="M63.7683 23.6775C64.0318 24.1165 64.0002 24.3958 63.9437 24.9047C63.6571 25.3487 63.137 25.4165 62.6562 25.5461C62.5627 25.5723 62.4692 25.5985 62.3729 25.6255C62.0689 25.7103 61.7646 25.7933 61.4601 25.8762C61.2519 25.9335 61.0437 25.9909 60.8356 26.0484C60.4242 26.1617 60.0126 26.2742 59.6009 26.3861C59.1196 26.5173 58.6396 26.6525 58.1598 26.7893C57.9232 26.8551 57.6866 26.9209 57.4499 26.9865C57.3454 27.0169 57.2408 27.0473 57.1332 27.0786C56.5605 27.2329 56.2014 27.2811 55.6457 27.0084C55.4192 26.8112 55.4192 26.8112 55.295 26.5409C55.2877 26.1319 55.2877 26.1319 55.4119 25.7228C56.0297 25.1874 56.7789 25.0342 57.5549 24.8262C57.6944 24.7879 57.8338 24.7497 57.9775 24.7102C58.347 24.6094 58.7167 24.5097 59.0866 24.4105C59.4609 24.3095 59.8345 24.2057 60.2083 24.1026C60.4949 24.0246 60.7816 23.9469 61.0684 23.8693C61.202 23.8324 61.3355 23.7955 61.4732 23.7575C63.1561 23.3102 63.1561 23.3102 63.7683 23.6775Z" fill="#0D0D0D"/>
<path d="M63.7683 14.912C64.0318 15.3511 64.0002 15.6303 63.9437 16.1392C63.6571 16.5832 63.137 16.651 62.6562 16.7806C62.5627 16.8068 62.4692 16.833 62.3729 16.86C62.0689 16.9448 61.7646 17.0278 61.4601 17.1107C61.2519 17.168 61.0437 17.2255 60.8356 17.2829C60.4242 17.3962 60.0126 17.5087 59.6009 17.6207C59.1196 17.7518 58.6396 17.887 58.1598 18.0238C57.9232 18.0896 57.6866 18.1554 57.4499 18.221C57.3454 18.2514 57.2408 18.2818 57.1332 18.3131C56.5605 18.4675 56.2014 18.5156 55.6457 18.2429C55.4192 18.0457 55.4192 18.0457 55.295 17.7754C55.2877 17.3664 55.2877 17.3664 55.4119 16.9573C56.0297 16.4219 56.7789 16.2687 57.5549 16.0607C57.6944 16.0224 57.8338 15.9842 57.9775 15.9448C58.347 15.8439 58.7167 15.7443 59.0866 15.645C59.4609 15.544 59.8345 15.4402 60.2083 15.3371C60.4949 15.2591 60.7816 15.1814 61.0684 15.1038C61.202 15.0669 61.3355 15.03 61.4732 14.992C63.1561 14.5447 63.1561 14.5447 63.7683 14.912Z" fill="#0D0D0D"/>
<path d="M63.7683 6.14655C64.0318 6.58558 64.0002 6.86482 63.9437 7.37371C63.6571 7.81774 63.137 7.88556 62.6562 8.01515C62.5627 8.04134 62.4692 8.06753 62.3729 8.09451C62.0689 8.1793 61.7646 8.26235 61.4601 8.34522C61.2519 8.40257 61.0437 8.45997 60.8356 8.51742C60.4242 8.63072 60.0126 8.74322 59.6009 8.85517C59.1196 8.98628 58.6396 9.12151 58.1598 9.25829C57.9232 9.32416 57.6866 9.38992 57.4499 9.45552C57.3454 9.48592 57.2408 9.51633 57.1332 9.54765C56.5605 9.70197 56.2014 9.75015 55.6457 9.47743C55.4192 9.28021 55.4192 9.28021 55.295 9.00994C55.2877 8.60088 55.2877 8.60088 55.4119 8.19183C56.0297 7.65645 56.7789 7.50319 57.5549 7.29519C57.6944 7.25694 57.8338 7.21869 57.9775 7.17928C58.347 7.07841 58.7167 6.97878 59.0866 6.87956C59.4609 6.77851 59.8345 6.67476 60.2083 6.57158C60.4949 6.49366 60.7816 6.41589 61.0684 6.33829C61.202 6.30141 61.3355 6.26453 61.4732 6.22653C63.1561 5.77918 63.1561 5.77918 63.7683 6.14655Z" fill="#0D0D0D"/>
</svg>
