<svg width="64" height="64" viewBox="0 0 64 64" fill="none" xmlns="http://www.w3.org/2000/svg">
<path fill-rule="evenodd" clip-rule="evenodd" d="M33.8169 0.00880935C19.3279 -0.312781 5.54208 8.19148 1.20433 22.0783C-3.01516 35.5866 4.32708 49.3971 15.8358 57.5735C26.8596 65.4052 41.5702 66.5069 52.4661 58.4968C63.2505 50.5688 66.3511 36.2164 62.2754 23.4338C58.1401 10.4646 47.3741 0.309715 33.8169 0.00880935Z" fill="#F1E9D0"/>
<path d="M6.02189 2.00564C6.10266 2.00496 6.18342 2.00428 6.26664 2.00358C6.53862 2.00186 6.81048 2.0035 7.08246 2.0051C7.27888 2.00457 7.47529 2.00382 7.67171 2.00289C8.21249 2.00093 8.75323 2.00191 9.29402 2.00335C9.87681 2.00441 10.4596 2.00278 11.0424 2.00149C12.1845 1.99941 13.3266 1.99986 14.4687 2.00122C15.3967 2.00227 16.3246 2.00242 17.2526 2.00191C17.3845 2.00184 17.5164 2.00176 17.6523 2.00169C17.9203 2.00154 18.1882 2.00139 18.4562 2.00124C20.9706 1.9999 23.485 2.00144 25.9995 2.00395C28.1585 2.00604 30.3174 2.00568 32.4764 2.00352C34.9817 2.00102 37.4869 2.00003 39.9922 2.00147C40.2592 2.00162 40.5261 2.00176 40.7931 2.00191C40.9902 2.00202 40.9902 2.00202 41.1912 2.00213C42.1184 2.00253 43.0456 2.00185 43.9728 2.00075C45.1022 1.99944 46.2316 1.99979 47.361 2.00228C47.9376 2.00352 48.5142 2.00399 49.0908 2.00245C49.6182 2.00106 50.1455 2.00181 50.6729 2.00431C50.8641 2.00483 51.0554 2.00456 51.2466 2.00343C51.5057 2.00202 51.7647 2.00346 52.0238 2.00564C52.168 2.00571 52.3121 2.00579 52.4607 2.00587C52.8952 2.07611 53.0287 2.18539 53.2913 2.53234C53.3949 2.82076 53.473 3.08383 53.5398 3.38027C53.5763 3.52802 53.6128 3.67577 53.6504 3.82799C53.9756 5.43094 54.0405 7.02049 54.0369 8.65062C54.0368 8.81177 54.0368 8.81177 54.0367 8.97618C54.0318 10.8016 53.9109 12.5552 53.5252 14.3449C53.4885 14.5166 53.4885 14.5166 53.4511 14.6917C52.7679 17.7745 51.5365 20.6543 49.8996 23.3506C49.9647 23.3721 50.0298 23.3937 50.0969 23.4159C50.9945 23.757 51.5918 24.3107 52.0418 25.1625C53.2119 27.9345 52.9433 31.5145 51.939 34.2942C51.5033 35.3337 50.934 36.1783 50.1581 36.9934C49.862 37.3083 49.5891 37.6361 49.3148 37.9701C49.4603 37.9661 49.6058 37.962 49.7557 37.9578C52.0097 37.9141 52.0097 37.9141 53.0574 38.4379C53.0913 38.3215 53.0913 38.3215 53.1259 38.2027C53.1716 38.0478 53.1716 38.0478 53.2182 37.8897C53.2494 37.7825 53.2806 37.6753 53.3128 37.5649C53.4083 37.2684 53.4083 37.2684 53.5764 36.9468C53.5981 36.8599 53.6198 36.7731 53.6422 36.6836C53.4368 36.3365 53.4368 36.3365 53.1743 35.9819C52.8141 35.0811 52.7954 34.0588 53.1232 33.1457C53.6109 32.0869 54.3179 31.4906 55.3965 31.0697C56.4255 30.7504 57.4888 30.9294 58.426 31.4201C59.1883 31.9022 59.6625 32.6874 59.9578 33.5258C60.0747 34.0829 60.0846 34.5636 59.9651 35.1193C59.9177 35.3801 59.9177 35.3801 59.9578 35.631C60.1601 35.8792 60.381 36.0526 60.6358 36.2459C61.4247 36.8698 61.8069 37.7136 62.0265 38.6719C62.1729 40.0775 61.9098 41.3012 61.0104 42.4145C60.2282 43.3235 59.2648 43.8546 58.0865 44.0519C57.7293 44.0751 57.3924 44.0695 57.0339 44.0519C57.038 44.1284 57.042 44.205 57.0462 44.2839C57.0961 45.9653 56.5788 47.5034 55.4623 48.774C55.2869 48.9567 55.1092 49.1372 54.9287 49.3149C54.8256 49.4178 54.8256 49.4178 54.7204 49.5228C53.5769 50.5826 52.0506 51.0215 50.5209 51.0108C50.409 51.0101 50.2971 51.0094 50.1818 51.0087C48.2158 50.9597 46.8145 50.1321 45.4447 48.7548C45.2147 48.4885 45.0476 48.2145 44.8704 47.9114C44.3996 47.9202 43.93 47.9404 43.4597 47.9626C43.3271 47.9649 43.1945 47.9673 43.0578 47.9697C42.3118 48.0035 42.3118 48.0035 41.687 48.3713C41.4809 48.6382 41.3028 48.91 41.1278 49.1979C40.7883 49.5986 40.4336 49.9836 40.0752 50.3675C39.9876 50.4628 39.9 50.5581 39.8098 50.6562C37.1764 53.4163 33.4831 54.9354 29.6903 55.0604C25.9571 55.1339 22.4022 54.0268 19.4909 51.654C18.54 52.8123 18.2607 54.5484 18.1532 56.0033C18.0874 56.4492 18.0874 56.4492 17.8608 56.7416C17.4497 57.0406 17.1938 57.084 16.684 57.034C16.3154 56.8024 16.1297 56.6682 16.0032 56.2455C15.9915 56.1246 15.9797 56.0036 15.9676 55.8791C15.7177 53.8295 15.2808 51.7774 13.697 50.33C12.5493 49.4337 11.3537 49.1631 9.92972 49.0444C9.49624 48.9527 9.34963 48.8423 9.08178 48.4962C8.95498 48.143 8.94922 47.966 9.05255 47.6044C9.19812 47.3278 9.31069 47.1737 9.54961 46.9758C9.7819 46.9149 9.7819 46.9149 10.0462 46.8894C10.1435 46.8784 10.2408 46.8673 10.341 46.8559C10.4441 46.8448 10.5472 46.8337 10.6534 46.8223C11.6437 46.6943 12.4467 46.4801 13.2922 45.9232C13.3815 45.8648 13.4707 45.8065 13.5627 45.7464C13.8777 45.5211 13.8777 45.5211 14.1109 45.2214C14.0867 44.6386 13.8444 44.1743 13.5846 43.6644C13.1551 42.7884 12.8045 41.8919 12.4735 40.9744C12.427 40.8468 12.3805 40.7191 12.3326 40.5876C12.2898 40.4672 12.2471 40.3469 12.2031 40.2229C12.1649 40.1155 12.1268 40.0081 12.0875 39.8975C12.0057 39.6075 12.0057 39.6075 12.0057 39.1397C11.8996 39.1325 11.7934 39.1252 11.6841 39.1178C10.525 38.9468 9.52098 38.3276 8.61396 37.6193C8.5336 37.5596 8.45324 37.4998 8.37045 37.4383C6.68653 36.0965 5.78397 33.874 5.49229 31.7879C5.41587 31.0114 5.40826 30.2338 5.40497 29.4542C5.40424 29.3727 5.4035 29.2912 5.40275 29.2072C5.39246 27.3957 5.62726 25.6022 6.77601 24.1377C7.10088 23.8099 7.47468 23.6093 7.91222 23.4675C8.02801 23.4675 8.14379 23.4675 8.26309 23.4675C8.22609 23.4054 8.18908 23.3432 8.15096 23.2792C5.51187 18.821 3.99414 14.0337 4.01611 8.82605C4.01625 8.72618 4.01638 8.62631 4.01652 8.52342C4.02058 7.00759 4.0965 5.54104 4.40353 4.05277C4.43201 3.89701 4.46034 3.74122 4.48851 3.5854C4.69262 2.56146 4.87236 2.00624 6.02189 2.00564ZM6.6257 4.16973C5.17697 9.96465 6.57216 16.4701 9.5913 21.5421C10.1295 22.4531 10.1295 22.4531 10.8361 23.2336C10.8874 23.1496 10.9387 23.0657 10.9915 22.9791C11.2504 22.5565 11.5108 22.1346 11.7718 21.7132C11.8256 21.6262 11.8795 21.5391 11.935 21.4495C12.6982 20.2195 13.483 19.0167 14.3448 17.8536C14.4009 17.7775 14.457 17.7014 14.5148 17.6229C15.251 16.6253 16.0017 15.6441 16.8009 14.6958C16.8521 14.6347 16.9032 14.5736 16.956 14.5107C18.3786 12.8146 19.8654 11.1131 21.5509 9.67262C21.7698 9.48451 21.9856 9.29412 22.2005 9.10154C23.6618 7.80114 25.2244 6.6463 26.8592 5.5732C26.4684 5.14521 26.0061 4.9599 25.4849 4.72527C25.393 4.68125 25.301 4.63722 25.2062 4.59187C24.6168 4.32555 24.2269 4.21253 23.5844 4.40364C23.2211 4.56815 22.8811 4.76181 22.5391 4.96649C22.442 5.02379 22.345 5.08109 22.245 5.14013C19.9338 6.53165 17.7663 8.32644 16.0969 10.4479C15.8563 10.7298 15.6687 10.9348 15.2878 10.9802C15.1684 10.9777 15.1684 10.9777 15.0466 10.9751C14.967 10.9744 14.8874 10.9736 14.8053 10.9728C14.5787 10.9532 14.5787 10.9532 14.2279 10.8362C14.0857 10.3143 14.0021 9.86888 14.2662 9.37794C14.5129 9.06916 14.7742 8.78348 15.0466 8.49711C15.1455 8.38479 15.2444 8.27247 15.3463 8.15675C16.5707 6.76752 17.9353 5.62159 19.4318 4.53861C19.6255 4.39624 19.6255 4.39624 19.8418 4.16973C15.4805 4.16973 11.1192 4.16973 6.6257 4.16973ZM29.0813 4.16973C29.4357 4.54411 29.8492 4.78936 30.2874 5.05421C33.6981 7.15397 36.9945 9.87038 39.6074 12.909C39.8308 13.1634 40.0605 13.4111 40.292 13.6582C40.9987 14.4154 41.6399 15.2116 42.2712 16.032C42.4656 16.2822 42.6667 16.5267 42.8676 16.7718C44.1214 18.3404 45.2229 20.0042 46.2739 21.7132C46.3724 21.8725 46.4709 22.0318 46.5695 22.1911C46.7838 22.538 46.9971 22.8855 47.2096 23.2336C47.7274 22.7651 48.0581 22.2601 48.4011 21.6547C48.4564 21.5575 48.5118 21.4603 48.5688 21.3602C50.7458 17.4821 51.9439 13.3445 51.9244 8.88453C51.9243 8.74789 51.9243 8.74789 51.9242 8.60848C52.0657 6.24382 52.0657 6.24382 51.42 4.16973C51.1315 4.1583 50.8464 4.15453 50.5579 4.15566C50.4665 4.15556 50.3752 4.15546 50.2811 4.15536C49.9728 4.15516 49.6644 4.15581 49.3561 4.15645C49.136 4.15648 48.9159 4.15646 48.6958 4.1564C48.0963 4.15636 47.4968 4.15705 46.8973 4.15787C46.2715 4.1586 45.6458 4.15867 45.02 4.15881C43.8341 4.15917 42.6482 4.16013 41.4623 4.1613C40.1126 4.16261 38.7629 4.16325 37.4132 4.16384C34.6359 4.16506 31.8586 4.16712 29.0813 4.16973ZM28.0653 7.23983C27.9882 7.29208 27.9111 7.34433 27.8316 7.39816C26.3886 8.38567 25.0198 9.45474 23.7013 10.6023C23.6017 10.6889 23.502 10.7754 23.3993 10.8646C23.1875 11.0493 22.9762 11.2347 22.7657 11.421C23.0909 11.9089 23.4628 11.9873 24.001 12.1812C24.1003 12.2173 24.1996 12.2533 24.3019 12.2905C26.234 12.9654 28.2434 13.0669 30.2756 13.0913C30.4881 13.0945 30.488 13.0945 30.7048 13.0978C31.1529 13.1046 31.601 13.1108 32.0491 13.1169C35.732 13.1668 35.732 13.1668 37.1513 13.2923C36.6764 12.7149 36.1733 12.1904 35.6236 11.6842C35.5466 11.613 35.4696 11.5418 35.3902 11.4685C31.9449 7.98557 31.9449 7.98557 28.0653 7.23983ZM20.535 13.6089C20.4751 13.6709 20.4152 13.7328 20.3535 13.7967C20.2909 13.8604 20.2283 13.9241 20.1639 13.9898C19.6868 14.4821 19.2467 14.9977 18.8202 15.5346C18.5845 15.8289 18.3421 16.1158 18.0957 16.4011C16.6271 18.1074 15.362 19.9523 14.1405 21.8402C13.8781 22.243 13.6028 22.6312 13.3132 23.0148C12.157 24.6064 12.1931 26.1063 12.3384 28.015C12.357 28.2684 12.3727 28.5218 12.3877 28.7753C12.6689 33.4745 13.4064 38.2263 15.3974 42.5314C15.4746 42.5314 15.5518 42.5314 15.6313 42.5314C15.8453 41.5802 16.0268 40.6543 16.1202 39.6829C16.2161 39.3736 16.2161 39.3736 16.4902 39.1548C16.9138 38.9747 17.179 39.0254 17.6196 39.1397C17.8578 39.3234 17.9559 39.4354 18.0332 39.728C18.0424 39.8179 18.0515 39.9078 18.0609 40.0004C18.0726 40.1011 18.0842 40.2019 18.0962 40.3057C18.1078 40.413 18.1194 40.5203 18.1313 40.6309C18.3749 42.5508 18.9185 44.3479 20.3809 45.7071C21.5868 46.6391 22.825 46.8959 24.3022 47.0469C24.52 47.0927 24.52 47.0927 24.8709 47.3266C24.9831 47.6747 25.0106 48.0148 24.9879 48.3792C24.7365 48.7384 24.5843 48.8257 24.1692 48.964C23.9597 48.976 23.7501 48.9854 23.5405 48.9933C22.6863 49.0578 21.6833 49.2762 21.0264 49.8604C20.9828 49.9119 20.9393 49.9635 20.8944 50.0166C23.3777 52.1452 26.6545 53.1131 29.9 52.9405C33.8749 52.6033 37.0533 50.7038 39.6293 47.7287C39.8646 47.4715 39.8646 47.4715 39.8413 47.2097C39.6093 47.0517 39.6093 47.0517 39.315 46.8954C37.6349 45.9119 36.8318 44.5506 36.2024 42.742C35.8586 41.2685 35.9688 39.5914 36.5665 38.204C36.6048 38.1044 36.6431 38.0047 36.6826 37.9021C37.2952 36.4823 38.6011 35.2631 39.998 34.6373C40.7678 34.3317 41.4667 34.0961 42.2997 34.095C42.4097 34.0949 42.5196 34.0947 42.633 34.0946C42.7466 34.095 42.8602 34.0955 42.9772 34.0959C43.0895 34.0955 43.2017 34.095 43.3173 34.0946C43.483 34.0948 43.483 34.0948 43.652 34.095C43.7512 34.0952 43.8503 34.0953 43.9525 34.0954C44.3801 34.1148 44.7971 34.1706 45.2213 34.2275C45.4626 32.8247 45.6453 31.4307 45.7486 30.011C45.7696 29.7246 45.7924 29.4384 45.8155 29.1523C45.8598 28.5832 45.8937 28.014 45.923 27.444C45.9287 27.3468 45.9343 27.2496 45.9401 27.1494C46.0059 25.8958 45.9791 24.9716 45.2652 23.8915C45.1971 23.7803 45.1291 23.6691 45.059 23.5546C44.8456 23.2099 44.6252 22.8707 44.4026 22.5319C44.2967 22.3674 44.2967 22.3674 44.1887 22.1996C43.727 21.4826 43.2512 20.7765 42.7652 20.0758C42.7108 19.997 42.6564 19.9182 42.6003 19.837C41.9212 18.8574 41.2047 17.9092 40.4537 16.9836C40.3231 16.8186 40.1998 16.6479 40.0775 16.4766C39.5584 15.7926 39.0883 15.5846 38.2422 15.4614C35.9182 15.1605 33.5998 15.1211 31.2597 15.1033C26.645 15.0674 26.645 15.0674 24.8051 14.5569C24.7142 14.5324 24.6233 14.508 24.5296 14.4828C23.4999 14.1919 22.5096 13.7732 21.5664 13.2681C21.0749 13.0449 20.8804 13.2641 20.535 13.6089ZM8.02918 26.0406C7.0533 28.2343 7.34801 31.3513 8.16075 33.5477C8.74338 34.8361 9.60517 35.8591 10.8361 36.5666C10.9912 36.609 11.1471 36.6487 11.304 36.6836C11.2841 36.5538 11.2642 36.424 11.2437 36.2902C10.7269 32.8431 10.4035 29.4051 10.2513 25.9236C10.0828 25.8466 9.91402 25.7701 9.74515 25.6938C9.65118 25.6512 9.55722 25.6085 9.46041 25.5646C8.77214 25.2785 8.47574 25.4647 8.02918 26.0406ZM48.4669 25.6312C48.3842 25.6638 48.3016 25.6964 48.2165 25.7299C48.1544 25.7552 48.0923 25.7806 48.0283 25.8067C48.0201 25.9506 48.0119 26.0946 48.0035 26.243C47.8443 29.01 47.6625 31.7567 47.2469 34.4985C47.2106 34.8035 47.1918 35.0903 47.2096 35.3971C47.3567 35.5898 47.3567 35.5898 47.5604 35.726C47.6762 35.8104 47.792 35.8949 47.9113 35.9819C49.0768 35.4753 49.6805 34.1754 50.1335 33.058C50.7712 30.9603 50.9914 28.1717 50.0768 26.1187C49.8914 25.7922 49.7599 25.6348 49.4317 25.4558C49.0165 25.4558 48.835 25.484 48.4669 25.6312ZM55.1699 33.7816C54.9873 34.265 55.0176 34.67 55.1626 35.1632C55.4562 35.5691 55.6857 35.7205 56.1421 35.9234C56.6772 35.9972 56.9214 35.902 57.3848 35.631C57.7446 35.2711 57.9573 34.9771 57.9696 34.4614C57.7934 33.9328 57.6176 33.4943 57.1509 33.1749C56.2856 32.9206 55.7726 33.1011 55.1699 33.7816ZM38.9984 38.0199C38.2104 39.1514 37.9852 40.3632 38.087 41.7127C38.3222 43 38.9213 44.1052 39.9583 44.9217C41.2359 45.7876 42.5463 46.1409 44.0837 45.851C45.4526 45.4836 46.4614 44.7509 47.2493 43.5731C47.9342 42.3741 48.1359 41.071 47.83 39.7149C47.3948 38.4074 46.5741 37.2838 45.352 36.6164C43.0546 35.5474 40.6516 36.0764 38.9984 38.0199ZM58.028 37.6119C57.2549 38.0156 56.3695 37.9933 55.5135 37.9701C55.0518 38.8622 55.0518 38.8622 55.0456 39.8414C55.2287 40.094 55.4287 40.3126 55.646 40.5363C55.863 40.7756 56.0082 41.007 56.164 41.2888C56.3551 41.6025 56.4361 41.7051 56.7634 41.8955C57.6928 42.0182 58.3886 41.8969 59.1492 41.3299C59.7404 40.7966 59.9218 40.2168 59.9683 39.4302C59.9383 38.6008 59.5672 38.0994 58.9893 37.5315C58.6209 37.2636 58.3787 37.4032 58.028 37.6119ZM50.0165 40.0753C50.014 40.2707 50.014 40.2707 50.0115 40.4701C49.9643 42.2981 49.6174 43.8466 48.4961 45.3384C48.4382 45.4162 48.3803 45.494 48.3207 45.5741C47.903 46.0962 47.4062 46.4794 46.8587 46.8588C47.2993 47.8268 48.1211 48.3411 49.0809 48.7301C50.0809 49.0663 51.4129 48.961 52.3515 48.5113C53.5866 47.8262 54.2796 46.9999 54.8117 45.6892C55.1218 44.462 54.9388 43.243 54.3064 42.1467C53.5723 41.1077 52.5709 40.319 51.303 40.0753C51.079 40.0675 50.8547 40.0654 50.6305 40.068C50.5154 40.0691 50.4002 40.0701 50.2815 40.0712C50.1503 40.0733 50.1503 40.0733 50.0165 40.0753ZM17.0348 44.7536C16.8925 44.9633 16.7545 45.1759 16.6182 45.3895C15.9476 46.4044 15.2375 47.2267 14.2279 47.9114C14.4913 48.1833 14.7487 48.445 15.0447 48.6817C15.9093 49.3838 16.4518 50.2514 17.0348 51.1862C17.3211 50.837 17.5801 50.4884 17.817 50.1043C18.3734 49.2605 19.0867 48.5427 19.9587 48.0284C19.8743 47.9632 19.7899 47.8981 19.7029 47.831C19.3739 47.5605 19.3739 47.5605 19.0596 47.2389C18.8241 46.9486 18.8241 46.9486 18.5553 46.9758C18.5249 46.9091 18.4946 46.8425 18.4634 46.7738C18.3086 46.4842 18.1268 46.2506 17.9193 45.9963C17.6014 45.5956 17.3557 45.2215 17.1518 44.7536C17.1132 44.7536 17.0746 44.7536 17.0348 44.7536Z" fill="#0D0D0D"/>
<path d="M61.0264 50.8929C62.0575 51.7273 62.6883 52.71 62.9986 53.9931C63.1349 55.7293 62.8259 57.0304 61.7761 58.4302C61.115 59.1781 60.0003 59.7531 59.0221 59.9579C57.321 60.0608 55.9424 59.9049 54.5778 58.7884C53.6075 57.8807 53.004 56.695 52.9148 55.3665C52.8728 53.747 53.3151 52.4788 54.417 51.2739C56.2457 49.5433 59.0097 49.4255 61.0264 50.8929ZM55.6857 53.0602C55.1183 53.8218 54.9221 54.5714 55.0456 55.5136C55.2259 56.3392 55.6668 56.9634 56.3545 57.4488C57.1096 57.8803 57.8129 57.992 58.6713 57.8527C59.6704 57.5333 60.2486 56.9587 60.7619 56.0691C61.0311 55.1717 60.993 54.3554 60.5649 53.5171C60.1527 52.8494 59.426 52.282 58.669 52.0492C57.522 51.8298 56.4667 52.1924 55.6857 53.0602Z" fill="#0D0D0D"/>
<path d="M32.9254 41.2166C33.3251 41.3751 33.7082 41.4614 34.1292 41.5382C34.469 41.6291 34.6846 41.819 34.9292 42.0636C35.1223 42.4499 35.1168 42.8173 35.0461 43.2332C34.5968 44.3327 33.5776 44.9418 32.5311 45.4014C30.1536 46.294 27.6458 46.3208 25.3054 45.2653C24.3801 44.7966 23.4776 44.189 22.9996 43.2332C22.9558 42.6529 22.9717 42.2843 23.3505 41.8297C23.7631 41.5546 24.1673 41.4505 24.6443 41.3472C25.4952 41.1498 26.2722 40.7958 27.0685 40.4422C27.1707 40.3968 27.2729 40.3514 27.3782 40.3047C27.4697 40.2634 27.5612 40.2222 27.6555 40.1797C29.495 39.4309 31.2638 40.4861 32.9254 41.2166ZM27.7437 42.451C27.593 42.5052 27.593 42.5052 27.4392 42.5604C27.342 42.5962 27.2448 42.6321 27.1447 42.6689C27.0563 42.7014 26.9679 42.7339 26.8768 42.7673C26.6048 42.8917 26.3899 43.0461 26.1575 43.2332C27.8351 44.0502 29.5088 44.1766 31.3035 43.584C31.502 43.4732 31.6983 43.3579 31.8883 43.2332C31.5712 42.978 31.2827 42.8091 30.901 42.6689C30.8039 42.6331 30.7067 42.5973 30.6066 42.5604C30.4559 42.5063 30.4559 42.5063 30.3021 42.451C30.2012 42.4136 30.1002 42.3761 29.9962 42.3375C29.0898 42.0072 28.6346 42.1203 27.7437 42.451Z" fill="#0D0D0D"/>
<path d="M41.4787 26.9762C41.723 27.1356 41.9404 27.3123 42.1631 27.5007C42.4484 27.702 42.6911 27.7756 43.0284 27.8607C43.418 27.9644 43.5765 28.0225 43.8909 28.292C44.102 28.7141 44.1267 28.9661 44.0517 29.4323C43.8324 29.7759 43.8324 29.7759 43.467 30.0171C42.709 30.17 42.0771 29.9761 41.3882 29.663C41.1459 29.5572 40.9178 29.4882 40.66 29.4323C40.9056 29.7052 41.0823 29.8824 41.4275 30.0171C41.7777 30.1607 41.8907 30.2655 42.0635 30.6019C42.1363 31.1028 42.1182 31.3348 41.8442 31.7641C41.4043 32.0545 41.1355 32.0971 40.6161 32.0693C39.7543 31.8898 39.0293 31.2069 38.5548 30.4849C38.5548 30.4077 38.5548 30.3305 38.5548 30.251C38.467 30.2679 38.3793 30.2848 38.2889 30.3022C36.6694 30.5959 34.9296 30.6176 33.4087 29.9001C33.1058 29.6459 33.0597 29.5564 32.9555 29.1545C32.939 28.6767 32.9833 28.5057 33.2917 28.1458C33.8664 27.7927 34.413 27.9672 35.0388 28.08C36.8163 28.364 38.4275 28.3037 39.9875 27.2979C40.5384 26.9529 40.8327 26.8512 41.4787 26.9762Z" fill="#0D0D0D"/>
<path d="M17.0568 26.8885C17.6375 27.0028 18.0425 27.2821 18.543 27.5898C20.0267 28.4278 21.7319 28.3095 23.3505 28.0289C24.2896 27.8749 24.2896 27.8749 24.754 28.1458C24.9733 28.3286 24.9733 28.3286 25.1049 28.6136C25.1214 28.9791 25.1051 29.3186 24.9879 29.6662C24.2914 30.3516 23.0025 30.4298 22.064 30.4849C21.983 30.4898 21.9021 30.4946 21.8187 30.4996C21.0301 30.5225 20.2658 30.3852 19.491 30.251C19.4588 30.3198 19.4267 30.3885 19.3936 30.4594C19.036 31.1388 18.4801 31.7609 17.7366 32.0054C17.2224 32.0753 16.765 32.1188 16.3048 31.8551C16.0302 31.5871 15.9983 31.3271 15.9722 30.9518C15.9884 30.5769 16.0795 30.4108 16.3331 30.1341C16.5722 29.9966 16.8118 29.8799 17.065 29.7709C17.2905 29.6805 17.2905 29.6805 17.3857 29.4323C17.0242 29.5107 16.7132 29.6377 16.377 29.7905C15.7721 30.0348 15.2263 30.1319 14.5788 30.0171C14.174 29.7703 14.1259 29.6039 14.0013 29.1472C13.9929 28.6667 14.0534 28.5203 14.3449 28.1458C14.6829 27.9813 14.6829 27.9813 15.0758 27.8534C15.5444 27.6898 15.9321 27.5452 16.3185 27.2321C16.684 26.9762 16.684 26.9762 17.0568 26.8885Z" fill="#0D0D0D"/>
<path d="M48.9347 52.4947C49.491 52.9216 49.89 53.535 50.0165 54.2271C50.1137 55.2522 50.0432 56.0669 49.4317 56.9171C48.8759 57.5402 48.252 57.9195 47.4197 58.0108C46.4859 58.0492 45.7441 57.9604 44.9874 57.3849C44.336 56.7363 43.9344 55.9302 43.8836 55.0092C43.9252 54.0805 44.2147 53.2939 44.8924 52.6482C46.1353 51.6539 47.6052 51.6411 48.9347 52.4947ZM46.2739 54.344C46.0052 54.6724 46.0052 54.6724 46.0546 55.0385C46.1733 55.4538 46.272 55.6166 46.6248 55.8645C46.9706 55.9522 46.9706 55.9522 47.3265 55.8645C47.7199 55.5737 47.888 55.4067 47.9771 54.9215C47.896 54.4979 47.7898 54.3628 47.4435 54.1101C46.9388 53.916 46.6962 54.0245 46.2739 54.344Z" fill="#0D0D0D"/>
<path d="M22.1809 21.7132C22.3129 21.7559 22.445 21.7986 22.5811 21.8426C22.9627 21.9663 23.3436 22.0924 23.724 22.2199C23.8786 22.2717 24.0332 22.3231 24.188 22.3742C24.408 22.4472 24.6273 22.5224 24.8466 22.5977C25.0394 22.663 25.0394 22.663 25.236 22.7297C25.5918 22.8915 25.7923 23.051 26.0404 23.3506C26.1566 23.8356 26.1156 24.2691 25.8723 24.7029C25.2822 25.0339 24.7089 24.9225 24.0819 24.7516C23.571 24.5907 23.066 24.4133 22.561 24.2351C22.2989 24.1441 22.0367 24.0536 21.7743 23.9634C21.6121 23.9074 21.45 23.851 21.2881 23.7939C20.0237 23.3529 18.9686 23.3408 17.7159 23.833C17.3494 23.9466 17.0655 23.9681 16.6839 23.9354C16.3681 23.7249 16.1527 23.5747 15.9822 23.2336C15.9362 22.8202 15.949 22.5925 16.1503 22.2249C17.7364 20.7549 20.3178 21.0981 22.1809 21.7132Z" fill="#0D0D0D"/>
<path d="M41.8296 22.064C42.121 22.5012 42.1171 22.7159 42.0635 23.2336C41.8535 23.5556 41.7065 23.763 41.3618 23.9353C40.7645 23.9909 40.3807 23.8296 39.8414 23.5845C38.2476 23.206 36.8331 23.7566 35.3408 24.2734C35.2323 24.3107 35.1238 24.3479 35.012 24.3862C34.801 24.4592 34.5903 24.5335 34.3803 24.6095C33.756 24.8268 33.2521 24.9312 32.5901 24.871C32.2399 24.6376 32.0476 24.4754 31.9536 24.0555C31.9319 23.6809 31.9567 23.4174 32.1794 23.1113C32.5862 22.7947 33.0085 22.6641 33.496 22.5086C33.5952 22.4758 33.6944 22.443 33.7966 22.4092C34.1128 22.305 34.4296 22.2028 34.7464 22.1006C34.9591 22.0306 35.1718 21.9605 35.3844 21.8902C35.5882 21.8233 35.7921 21.7565 35.996 21.6899C36.1389 21.6431 36.1389 21.6431 36.2847 21.5954C38.1373 20.9985 40.1269 21.055 41.8296 22.064Z" fill="#0D0D0D"/>
<path d="M26.3913 34.9293C26.6906 35.0634 26.9774 35.2154 27.2675 35.3683C28.2835 35.8731 29.3348 35.8785 30.4043 35.536C30.7581 35.4127 31.0606 35.2856 31.3811 35.091C31.732 34.8833 31.9541 34.8865 32.356 34.9293C32.747 35.0704 32.8177 35.1539 33.0578 35.5141C33.1487 36.3194 33.1487 36.3194 32.8385 36.764C31.4965 37.7571 29.9168 38.1148 28.2626 37.9701C27.1475 37.8027 25.8405 37.4943 25.1047 36.5667C24.9379 36.233 24.9515 36.0012 24.9878 35.631C25.3929 35.0234 25.6611 34.851 26.3913 34.9293Z" fill="#0D0D0D"/>
<path d="M43.7521 37.9336C43.8846 37.9292 44.0171 37.9249 44.1536 37.9203C44.5196 37.9701 44.5196 37.9701 44.7946 38.1812C45.065 38.5413 45.0965 38.8098 45.1044 39.2567C44.9127 39.7107 44.7326 39.8889 44.2857 40.0754C44.0965 40.1119 43.9063 40.1433 43.7155 40.1704C43.1179 40.2832 42.8286 40.4488 42.4144 40.8941C42.2495 41.1825 42.1875 41.4373 42.132 41.7635C42.1142 41.8673 42.0965 41.9712 42.0781 42.0782C42.064 42.1774 42.0498 42.2766 42.0352 42.3789C41.9217 42.7241 41.7922 42.8225 41.4787 42.9993C40.9172 43.0706 40.6769 43.0801 40.1922 42.7873C39.7887 42.1441 39.8748 41.5228 40.0277 40.7995C40.3286 39.8176 40.9215 39.0221 41.7949 38.4731C42.4542 38.1368 43.0071 37.9497 43.7521 37.9336Z" fill="#0D0D0D"/>
<path d="M12.0496 55.8352C12.1602 55.8328 12.2709 55.8304 12.3849 55.8279C13.4158 55.8221 13.4158 55.8221 13.877 56.2153C14.1694 56.654 14.1736 56.8654 14.1109 57.3849C13.9067 57.6992 13.9067 57.6992 13.5261 57.9697C13.0376 58.0572 12.5593 58.0513 12.0642 58.0428C11.8663 58.0462 11.8663 58.0462 11.6644 58.0496C10.7061 58.044 10.7061 58.044 10.2226 57.6983C9.95113 57.2836 9.93917 57.0532 10.0174 56.5662C10.5369 55.7422 11.1643 55.84 12.0496 55.8352Z" fill="#0D0D0D"/>
<path d="M9.43264 51.888C9.74841 52.0985 9.96384 52.2486 10.1344 52.5897C10.1658 53.0301 10.1615 53.4714 10.1636 53.9128C10.166 54.0351 10.1684 54.1575 10.1709 54.2835C10.1715 54.402 10.1721 54.5204 10.1728 54.6424C10.1744 54.8046 10.1744 54.8046 10.1761 54.9701C10.1259 55.3424 10.0022 55.5617 9.78351 55.8645C9.41416 56.0492 9.01081 56.0773 8.61394 55.9814C8.29505 55.774 8.29505 55.774 8.02916 55.3967C7.94536 54.9273 7.95287 54.4687 7.96337 53.9932C7.96209 53.8669 7.96081 53.7405 7.95949 53.6103C7.96799 52.6918 7.96799 52.6918 8.25257 52.2169C8.65148 51.8709 8.90721 51.8365 9.43264 51.888Z" fill="#0D0D0D"/>
<path d="M6.08482 55.8352C6.19548 55.8328 6.30614 55.8304 6.42016 55.8279C7.45107 55.8221 7.45107 55.8221 7.91226 56.2153C8.18584 56.6257 8.19447 56.785 8.14618 57.2679C7.8813 57.8097 7.8813 57.8097 7.56139 57.9697C7.08217 58.0075 6.60191 58.0076 6.12137 58.0135C5.92112 58.0201 5.92112 58.0201 5.71682 58.0268C4.7343 58.0371 4.7343 58.0371 4.25646 57.7042C3.94709 57.2194 3.9717 57.0163 4.0527 56.4492C4.58023 55.7398 5.27921 55.8396 6.08482 55.8352Z" fill="#0D0D0D"/>
<path d="M9.66655 57.9697C9.97858 58.2306 10.1176 58.4399 10.177 58.8451C10.1932 59.1977 10.1924 59.5465 10.1855 59.8994C10.1864 60.0202 10.1872 60.141 10.1881 60.2654C10.1788 61.3731 10.1788 61.3731 9.78351 61.8292C9.41416 62.0139 9.01081 62.042 8.61394 61.9462C8.29505 61.7388 8.29505 61.7388 8.02916 61.3614C7.94536 60.892 7.95287 60.4335 7.96337 59.9579C7.96209 59.8316 7.96081 59.7052 7.95949 59.5751C7.96796 58.66 7.96796 58.66 8.24526 58.1817C8.71684 57.7845 9.08808 57.8276 9.66655 57.9697Z" fill="#0D0D0D"/>
<path d="M29.0082 47.8895C29.1315 47.8881 29.2549 47.8867 29.3819 47.8852C29.5007 47.885 29.6195 47.8847 29.7419 47.8845C29.9051 47.8838 29.9051 47.8838 30.0715 47.883C30.3878 47.9134 30.5709 47.9719 30.8357 48.1454C31.0827 48.5159 31.1084 48.7456 31.1349 49.1824C31.0218 49.6145 30.8496 49.7589 30.4848 50.0167C30.0154 50.1005 29.5569 50.093 29.0813 50.0825C28.955 50.0837 28.8286 50.085 28.6985 50.0863C27.7799 50.0778 27.7799 50.0778 27.305 49.7933C27.0503 49.4995 26.9827 49.3741 26.9396 48.986C26.9845 48.5277 27.1273 48.3544 27.4439 48.0284C27.9088 47.796 28.4972 47.8898 29.0082 47.8895Z" fill="#0D0D0D"/>
<path d="M12.4735 12.0058C12.875 12.2327 13.0234 12.3733 13.1752 12.8099C13.1752 13.2629 13.0726 13.5005 12.8244 13.8771C12.5214 14.1353 12.2635 14.1237 11.8814 14.0964C11.5708 14.0449 11.4393 14.0085 11.187 13.8113C11.0178 13.3989 10.98 13.0235 11.07 12.5906C11.4648 12.0165 11.7896 11.8959 12.4735 12.0058Z" fill="#0D0D0D"/>
</svg>
