<svg width="65" height="64" viewBox="0 0 65 64" fill="none" xmlns="http://www.w3.org/2000/svg">
<path fill-rule="evenodd" clip-rule="evenodd" d="M33.8169 0.00880935C19.3279 -0.312781 5.54208 8.19148 1.20433 22.0783C-3.01516 35.5866 4.32708 49.3971 15.8358 57.5735C26.8596 65.4052 41.5702 66.5069 52.4661 58.4968C63.2505 50.5688 66.3511 36.2164 62.2754 23.4338C58.1401 10.4646 47.3741 0.309715 33.8169 0.00880935Z" fill="#F1E9D0"/>
<path d="M41.5209 4.04696C41.7141 4.15039 41.7141 4.15039 41.9113 4.2559C42.7767 4.73581 43.5223 5.30797 44.267 5.95727C44.3678 6.04346 44.4686 6.12965 44.5725 6.21845C48.2302 9.41396 50.4916 14.1311 50.8337 18.9713C50.9015 20.467 50.8914 21.9383 50.662 23.4187C50.5615 24.0372 50.5615 24.0372 50.7441 24.6224C50.9553 24.8335 50.9553 24.8335 51.1974 25.0002C51.613 25.3202 51.8024 25.7906 52.0276 26.2543C52.0769 26.3503 52.1261 26.4464 52.1768 26.5453C52.4822 27.5885 52.4661 28.6926 51.9922 29.6818C50.9826 31.4172 49.5243 32.3757 47.61 32.918C47.2696 33.0075 47.0083 33.0598 46.6549 33.0598C46.5097 33.7198 46.5577 34.0305 46.8936 34.6119C47.0018 34.9565 47.0276 35.2658 47.0266 35.6259C47.0266 35.7311 47.0266 35.8362 47.0266 35.9445C47.026 36.057 47.0253 36.1694 47.0247 36.2853C47.0244 36.4592 47.0244 36.4592 47.0242 36.6366C47.0235 37.0064 47.022 37.3762 47.0205 37.746C47.0199 37.9969 47.0194 38.2478 47.0189 38.4988C47.0176 39.1134 47.0155 39.7281 47.013 40.3428C47.1199 40.293 47.2267 40.2432 47.3368 40.1919C47.4768 40.1269 47.6169 40.0619 47.7611 39.9949C47.9 39.9303 48.0388 39.8657 48.1819 39.7992C49.0288 39.4175 49.8414 39.2196 50.7534 39.4614C51.5554 39.7696 52.101 40.3179 52.5224 41.0615C52.8475 41.814 52.7639 42.5725 52.5052 43.3277C52.0124 44.2585 51.3441 44.7158 50.3859 45.1037C48.778 45.7594 46.9284 47.0938 46.1782 48.7182C45.9362 49.3751 45.8612 50.0344 45.8191 50.7301C45.8804 50.7449 45.9416 50.7597 46.0047 50.7749C48.2126 51.3696 50.1582 52.4738 51.7888 54.0732C51.8648 54.1463 51.9409 54.2194 52.0192 54.2947C53.3633 55.6956 53.8398 57.543 53.8708 59.431C53.8734 59.539 53.8761 59.647 53.8789 59.7582C53.8764 60.4316 53.7927 60.8243 53.3409 61.3562C52.8177 61.8284 52.4556 61.968 51.7582 61.9689C51.6274 61.9694 51.4965 61.9698 51.3617 61.9703C51.2173 61.9702 51.073 61.9701 50.9243 61.97C50.6949 61.9705 50.6949 61.9705 50.461 61.9711C50.0357 61.972 49.6105 61.9722 49.1852 61.9723C48.7269 61.9725 48.2686 61.9734 47.8103 61.9742C46.8078 61.9759 45.8053 61.9766 44.8028 61.9771C44.177 61.9774 43.5512 61.9779 42.9254 61.9785C41.1934 61.9799 39.4613 61.9812 37.7293 61.9816C37.563 61.9816 37.563 61.9816 37.3933 61.9816C37.2265 61.9817 37.2266 61.9817 37.0565 61.9817C36.8312 61.9818 36.606 61.9818 36.3807 61.9819C36.269 61.9819 36.1573 61.9819 36.0422 61.982C34.2314 61.9824 32.4206 61.9845 30.6099 61.9873C28.7515 61.9901 26.8932 61.9916 25.0348 61.9918C23.9911 61.9919 22.9474 61.9926 21.9037 61.9947C21.0151 61.9966 20.1264 61.9972 19.2378 61.9962C18.7843 61.9957 18.3308 61.9958 17.8773 61.9975C17.3859 61.9993 16.8944 61.9983 16.403 61.9971C16.2594 61.998 16.1159 61.999 15.968 62C15.1868 61.9953 14.5825 61.9712 13.9833 61.4117C13.1857 60.3688 13.3626 58.9756 13.5141 57.7068C13.8501 56.1916 14.6264 54.9077 15.7317 53.8344C15.8124 53.7527 15.893 53.6709 15.9761 53.5867C17.3508 52.2715 19.5583 51.0055 21.4627 50.7301C21.278 48.8172 20.7311 47.7457 19.2458 46.5157C18.3881 45.8285 17.5232 45.3498 16.5076 44.9362C15.6715 44.5859 15.2207 44.1817 14.7915 43.3949C14.5296 42.5654 14.4601 41.8847 14.7766 41.0592C15.1596 40.3498 15.702 39.8161 16.4257 39.4623C17.8751 39.1781 18.9845 39.6964 20.2687 40.3428C20.2668 40.1887 20.265 40.0346 20.263 39.8758C20.2565 39.3008 20.2524 38.7258 20.249 38.1508C20.2472 37.9026 20.2448 37.6543 20.2417 37.406C20.2373 37.048 20.2353 36.69 20.2337 36.3319C20.2319 36.222 20.23 36.112 20.2281 35.9987C20.2279 35.2914 20.3451 34.7834 20.6269 34.1343C20.7415 33.7139 20.742 33.4747 20.6269 33.0598C20.5487 33.0495 20.4705 33.0392 20.39 33.0285C19.0411 32.8209 17.8996 32.3189 16.8063 31.5077C16.6832 31.4215 16.56 31.3353 16.4332 31.2465C15.5281 30.4678 15.0084 29.2733 14.9002 28.104C14.8875 27.2087 15.085 26.2733 15.6123 25.5379C15.7502 25.4149 15.7502 25.4149 15.8908 25.2894C16.2244 24.9885 16.4637 24.7354 16.6869 24.344C16.7063 23.8211 16.6269 23.3496 16.5404 22.8357C16.1779 20.607 16.0964 16.7771 17.3291 14.7621C17.5226 14.5537 17.5226 14.5537 17.9331 14.4492C18.5216 14.4285 18.5216 14.4285 18.836 14.6731C19.3363 15.4987 18.8716 16.6744 18.683 17.5572C18.4933 18.5715 18.4592 19.5596 18.4629 20.5905C18.4624 20.72 18.4619 20.8496 18.4615 20.983C18.4623 21.677 18.4924 22.3445 18.5972 23.0307C19.0848 23.0307 19.4477 22.9343 19.9105 22.7919C19.9242 22.7278 19.9379 22.6637 19.9521 22.5977C21.1862 16.9192 24.2344 12.8755 29.0838 9.71123C32.1619 7.74561 35.5521 6.18049 39.1675 5.54452C39.4799 5.51307 39.4799 5.51307 39.6106 5.3603C36.1296 3.82004 32.3556 3.5868 28.7457 4.88272C25.55 6.15827 23.0124 8.24278 21.1474 11.1374C20.3545 12.3617 20.3545 12.3617 20.0299 12.524C19.5461 12.5885 19.3688 12.5648 18.9703 12.2702C18.6637 11.8555 18.6601 11.716 18.7166 11.2106C18.8517 10.9153 18.9855 10.6622 19.1569 10.3898C19.2044 10.3128 19.2519 10.2358 19.3008 10.1564C21.7616 6.28056 25.5631 3.40539 30.059 2.37544C34.0043 1.54421 37.9915 2.08973 41.5209 4.04696ZM33.8573 9.27046C33.7595 9.31397 33.6617 9.35748 33.5609 9.4023C33.0545 9.6363 32.6289 9.88108 32.2081 10.2555C32.3734 10.2513 32.3734 10.2513 32.5421 10.2471C36.4508 10.193 40.1291 11.0154 43.0471 13.7557C43.808 14.4999 44.424 15.3185 44.9833 16.2252C45.0641 16.3557 45.1449 16.4862 45.2282 16.6207C46.249 18.3572 46.8612 20.3794 47.1954 22.3581C47.2359 22.6687 47.2359 22.6687 47.3712 22.9113C47.6786 23.0202 47.6786 23.0202 48.0354 23.1053C48.1562 23.1364 48.277 23.1675 48.4015 23.1995C48.4949 23.2226 48.5883 23.2457 48.6846 23.2694C48.8959 22.3923 48.9656 21.5586 48.9607 20.6577C48.9597 20.4621 48.9597 20.4621 48.9586 20.2626C48.8935 15.8393 47.2078 11.7358 44.1807 8.51725C43.9088 8.22576 43.9088 8.22576 43.6854 7.938C43.2805 7.47605 42.93 7.25742 42.3194 7.19505C39.4037 7.06012 36.4815 8.10256 33.8573 9.27046ZM25.252 15.5335C22.2314 18.7322 21.4162 23.5072 21.4539 27.7426C21.4664 28.1749 21.5001 28.601 21.5522 29.0302C21.5677 29.1587 21.5677 29.1587 21.5835 29.2898C21.835 31.387 21.835 31.387 22.776 33.1792C23.0098 33.2047 23.2436 33.2295 23.4779 33.2502C25.4536 33.4272 26.9843 33.9627 28.2975 35.52C29.1706 36.7119 29.3762 37.8784 29.4173 39.3205C29.4219 39.4534 29.4265 39.5863 29.4313 39.7232C29.4425 40.0491 29.4527 40.3751 29.4621 40.701C31.4835 41.6883 33.2688 42.4768 35.5213 41.7606C36.317 41.4655 37.0739 41.1051 37.8197 40.701C37.8214 40.5821 37.8214 40.5821 37.8231 40.4607C37.8612 38.3043 37.9549 36.5811 39.5033 34.9435C40.4437 34.0547 41.5838 33.4535 42.8916 33.376C43.0298 33.3674 43.0298 33.3674 43.1707 33.3587C43.3606 33.3484 43.5506 33.341 43.7407 33.3363C44.0235 33.3159 44.2437 33.2884 44.5058 33.1792C44.7467 32.8883 44.8639 32.5795 44.9833 32.224C45.0304 32.0964 45.0775 31.9688 45.1261 31.8374C45.6751 30.0219 45.8658 28.2682 45.7892 26.3737C45.7836 26.2333 45.7779 26.0928 45.7721 25.9481C45.5868 22.0082 44.6183 18.019 41.7597 15.1506C41.6281 15.0149 41.6281 15.0149 41.4939 14.8764C37.0187 10.536 29.4701 11.4174 25.252 15.5335ZM17.642 26.0752C17.1469 26.6142 16.8348 27.1852 16.8063 27.9258C16.9758 28.8522 17.3005 29.4986 18.0627 30.0567C18.6733 30.4641 19.2024 30.7315 19.9105 30.9107C19.9033 30.8359 19.8961 30.7611 19.8886 30.684C19.7076 28.7648 19.6395 26.8683 19.6717 24.941C18.9588 24.941 18.1374 25.599 17.642 26.0752ZM47.61 24.941C47.6113 25.0231 47.6125 25.1053 47.6138 25.1899C47.6345 26.7632 47.6227 28.3063 47.4235 29.8683C47.3819 30.2227 47.36 30.5549 47.3712 30.9107C48.4501 30.6277 49.3276 30.0921 50.0651 29.2466C50.3791 28.5775 50.5678 27.993 50.3635 27.2617C49.9367 26.1964 49.0989 25.5499 48.0876 25.0604C47.929 25.0182 47.7699 24.978 47.61 24.941ZM22.179 35.3283C22.1427 35.6186 22.1427 35.6186 22.1485 35.9597C22.1473 36.1575 22.1473 36.1575 22.146 36.3594C22.1461 36.5026 22.1463 36.6457 22.1464 36.7932C22.144 37.0944 22.1415 37.3956 22.1389 37.6968C22.1362 38.1732 22.1342 38.6495 22.1335 39.1258C22.1324 39.5846 22.1284 40.0432 22.124 40.5019C22.1246 40.6443 22.1252 40.7867 22.1258 40.9334C22.1141 41.9176 22.1141 41.9176 21.8434 42.3985C21.5442 42.6422 21.2919 42.7438 20.9049 42.7704C20.4308 42.7028 20.0631 42.4593 19.6563 42.2172C18.905 41.7726 18.0575 41.2801 17.1645 41.298C16.8217 41.4992 16.6306 41.6533 16.4481 42.0069C16.4481 42.3827 16.5807 42.5505 16.8063 42.8501C17.103 43.0224 17.3831 43.1662 17.6943 43.3053C19.7856 44.3004 22.1905 45.9446 23.0148 48.2229C23.2051 48.9946 23.2895 49.7347 23.2916 50.5278C23.2928 50.6316 23.294 50.7354 23.2953 50.8424C23.2989 51.1809 23.301 51.5194 23.303 51.8579C23.3052 52.0944 23.3076 52.3309 23.31 52.5675C23.3161 53.1865 23.3209 53.8056 23.3253 54.4246C23.3301 55.0578 23.3362 55.6908 23.3422 56.324C23.3537 57.5636 23.3637 58.8032 23.373 60.0429C24.752 60.0429 26.131 60.0429 27.5518 60.0429C27.5626 57.2147 27.5713 54.3866 27.5765 51.5584C27.579 50.2452 27.5823 48.932 27.5878 47.6188C27.5926 46.4739 27.5956 45.3291 27.5967 44.1842C27.5973 43.5783 27.5988 42.9723 27.6023 42.3663C27.6055 41.7954 27.6065 41.2245 27.6058 40.6536C27.6059 40.4446 27.6069 40.2356 27.6087 40.0266C27.6212 38.5369 27.5099 37.3684 26.4436 36.2457C25.361 35.1852 24.1948 35.0823 22.7252 35.062C22.3981 35.0581 22.3981 35.0581 22.179 35.3283ZM40.5065 36.5343C39.9754 37.2048 39.7161 37.9216 39.7135 38.7729C39.7129 38.8893 39.7122 39.0056 39.7115 39.1255C39.7114 39.2523 39.7113 39.3792 39.7112 39.5098C39.7106 39.644 39.7099 39.7782 39.7093 39.9165C39.708 40.208 39.707 40.4994 39.7062 40.7909C39.7048 41.252 39.7025 41.7131 39.6999 42.1742C39.6925 43.4853 39.686 44.7964 39.6821 46.1074C39.6796 46.9092 39.6754 47.711 39.67 48.5128C39.6683 48.8185 39.6673 49.1243 39.6669 49.43C39.6663 49.8574 39.6636 50.2846 39.6603 50.7119C39.6609 50.9018 39.6609 50.9018 39.6614 51.0956C39.6489 52.1931 39.6489 52.1931 39.2524 52.6404C38.8395 52.7841 38.6279 52.7951 38.2192 52.6381C37.9391 52.4017 37.9391 52.4017 37.8628 51.996C37.8589 51.8254 37.8583 51.6548 37.8603 51.4842C37.8591 51.391 37.8578 51.2978 37.8565 51.2017C37.8531 50.8935 37.8539 50.5855 37.8547 50.2773C37.8531 50.0636 37.8513 49.85 37.8492 49.6364C37.8444 49.074 37.8432 48.5117 37.8427 47.9493C37.8416 47.3755 37.8372 46.8017 37.833 46.2279C37.8253 45.102 37.8213 43.9761 37.8197 42.8501C37.7159 42.8872 37.7159 42.8872 37.61 42.9249C37.2945 43.0372 36.9788 43.1489 36.663 43.2605C36.5542 43.2994 36.4453 43.3383 36.3331 43.3783C36.2273 43.4156 36.1215 43.4529 36.0124 43.4914C35.8671 43.543 35.8671 43.543 35.7188 43.5956C33.5588 44.2751 31.4877 43.6097 29.4621 42.8501C29.4621 48.5237 29.4621 54.1974 29.4621 60.0429C32.2201 60.0429 34.9781 60.0429 37.8197 60.0429C37.8447 58.6052 37.8447 58.6052 37.866 57.1675C37.8699 56.9872 37.8738 56.8069 37.878 56.6266C37.8791 56.4863 37.8791 56.4863 37.8802 56.3431C37.8976 55.6886 37.8976 55.6886 38.0959 55.386C38.437 55.1847 38.7486 55.2328 39.133 55.2671C39.4912 55.5059 39.4912 55.5059 39.5709 55.7012C39.6278 56.106 39.639 56.5101 39.6484 56.9181C39.6506 56.9974 39.6528 57.0768 39.6551 57.1585C39.6632 57.4533 39.6704 57.7482 39.6778 58.043C39.7036 59.033 39.7036 59.033 39.73 60.0429C41.109 60.0429 42.488 60.0429 43.9088 60.0429C43.9105 59.7285 43.9123 59.4141 43.9141 59.0902C43.9201 58.047 43.9281 57.0039 43.9369 55.9607C43.9423 55.3288 43.9469 54.6968 43.9501 54.0648C43.9533 53.454 43.9581 52.8432 43.9641 52.2324C43.9661 52.0004 43.9675 51.7683 43.9682 51.5362C43.9775 48.9142 44.4573 47.3189 46.3382 45.4348C47.2076 44.612 48.1843 43.9803 49.2619 43.4615C49.3375 43.4252 49.413 43.3888 49.4908 43.3513C49.7026 43.2511 49.916 43.1543 50.1294 43.0577C50.5116 42.8285 50.6575 42.6591 50.8337 42.2531C50.7563 41.8921 50.6391 41.7054 50.3934 41.4323C49.9846 41.2334 49.7233 41.3243 49.2815 41.4174C48.9514 41.5505 48.6401 41.7124 48.3264 41.88C46.4785 42.8464 46.4785 42.8464 45.6997 42.6113C45.3717 42.3441 45.2377 42.1238 45.178 41.7036C45.1591 41.3023 45.1561 40.9035 45.1578 40.5019C45.1564 40.3549 45.1549 40.2079 45.1535 40.0564C45.1493 39.5873 45.1482 39.1181 45.1475 38.6489C45.1458 38.1785 45.1429 37.708 45.139 37.2376C45.1366 36.9449 45.1355 36.6521 45.1357 36.3594C45.1349 36.2275 45.1341 36.0956 45.1332 35.9597C45.1331 35.8432 45.1329 35.7268 45.1328 35.6068C45.1297 35.3053 45.1297 35.3053 44.8639 35.0895C43.1982 34.9103 41.6698 35.2982 40.5065 36.5343ZM45.8191 52.7598C45.8191 55.1633 45.8191 57.5667 45.8191 60.0429C47.8285 60.0429 49.8379 60.0429 51.9082 60.0429C51.9082 57.9 51.5724 56.6651 50.1621 55.1328C49.04 54.0624 47.3326 53.1382 45.8191 52.7598ZM17.0754 55.2293C15.6321 56.7127 15.3735 57.9486 15.3735 60.0429C17.383 60.0429 19.3924 60.0429 21.4627 60.0429C21.4627 57.6395 21.4627 55.2361 21.4627 52.7598C20.0621 52.7598 18.0141 54.3388 17.0754 55.2293Z" fill="#0D0D0D"/>
<path d="M12.9927 37.5996C13.575 38.1704 13.575 38.1704 13.6055 38.7413C13.5978 39.2861 13.4863 39.7763 13.3364 40.2981C13.2966 40.4375 13.2966 40.4375 13.2561 40.5797C12.8511 41.9331 12.3059 43.2968 11.0688 44.08C10.2854 44.4856 9.49128 44.5401 8.63757 44.3318C7.76164 44.0047 7.14468 43.3257 6.71746 42.5069C6.53575 41.3712 6.61694 40.4726 7.29438 39.5229C8.16896 38.5266 9.52227 38.077 10.7619 37.7236C10.8938 37.6857 10.8938 37.6857 11.0284 37.6471C11.6558 37.4809 12.3852 37.2976 12.9927 37.5996ZM8.69493 40.9174C8.49732 41.3243 8.56537 41.587 8.68747 42.0144C8.92509 42.3318 8.92509 42.3318 9.28444 42.4919C9.81563 42.5109 10.0381 42.4469 10.4336 42.089C10.9486 41.3831 11.3626 40.5016 11.4335 39.6265C10.4875 39.6265 9.37289 40.2832 8.69493 40.9174Z" fill="#0D0D0D"/>
<path d="M56.5197 37.7236C56.6127 37.7501 56.7056 37.7766 56.8013 37.8039C58.1548 38.2089 59.5185 38.7541 60.3016 39.9912C60.7073 40.7746 60.7617 41.5687 60.5535 42.4224C60.2263 43.2984 59.5474 43.9153 58.7285 44.3425C57.5928 44.5243 56.6942 44.4431 55.7446 43.7656C54.7482 42.891 54.2987 41.5377 53.9453 40.2981C53.92 40.2101 53.8948 40.1222 53.8688 40.0316C53.7026 39.4042 53.5193 38.6748 53.8212 38.0673C54.6387 37.2333 55.4747 37.4234 56.5197 37.7236ZM55.8481 39.6265C56.0178 40.6616 56.3926 41.551 57.0943 42.3427C57.531 42.5557 57.7762 42.5147 58.236 42.3725C58.5535 42.1349 58.5535 42.1349 58.7136 41.7756C58.7326 41.2444 58.6685 41.0219 58.3107 40.6264C57.6047 40.1115 56.7233 39.6974 55.8481 39.6265Z" fill="#0D0D0D"/>
<path d="M10.5977 23.2694C11.7445 24.2007 13.2155 26.0091 13.396 27.5303C13.3248 28.0696 13.1726 28.3634 12.7589 28.7159C12.1898 28.9696 11.6391 28.9339 11.023 28.9257C10.8948 28.9247 10.7665 28.9236 10.6343 28.9226C9.29193 28.8979 7.73283 28.8126 6.69267 27.8582C5.98626 27.0899 5.74898 26.3359 5.78136 25.2987C5.87126 24.506 6.16492 23.9534 6.73978 23.4037C7.88361 22.4963 9.3887 22.4062 10.5977 23.2694ZM7.97103 24.9409C7.69099 25.361 7.663 25.5209 7.73224 26.0155C8.12787 26.6021 8.62523 26.7524 9.2839 26.9119C9.8433 27.0035 10.3911 27.0001 10.9559 26.9706C10.6236 26.0453 9.96923 25.2616 9.16497 24.7022C8.64858 24.5006 8.40475 24.6127 7.97103 24.9409Z" fill="#0D0D0D"/>
<path d="M60.3852 23.2694C61.149 23.976 61.4589 24.5866 61.512 25.6275C61.4935 26.5602 61.167 27.3099 60.5046 27.9706C59.3536 28.8636 57.7086 28.9041 56.3184 28.9108C56.1257 28.9145 56.1257 28.9145 55.9292 28.9183C55.805 28.9189 55.6809 28.9195 55.553 28.9201C55.4407 28.9213 55.3283 28.9224 55.2125 28.9235C54.7381 28.8603 54.4253 28.643 54.0797 28.3213C53.8719 27.9166 53.8799 27.5317 53.9379 27.09C54.0599 26.7526 54.2298 26.456 54.4155 26.1498C54.4643 26.0668 54.5131 25.9838 54.5634 25.8982C55.2915 24.6842 56.2384 23.2684 57.6317 22.7844C58.6018 22.5528 59.5686 22.6793 60.3852 23.2694ZM57.4251 25.28C56.6806 26.0355 56.6806 26.0355 56.3258 26.9707C57.3989 27.0267 58.4379 26.9858 59.3331 26.3364C59.5984 25.943 59.6367 25.7645 59.5495 25.2991C59.3166 24.8962 59.1666 24.7372 58.7286 24.5753C58.1356 24.5872 57.8298 24.8647 57.4251 25.28Z" fill="#0D0D0D"/>
<path d="M10.3837 32.6591C10.8632 33.0605 11.0576 33.2401 11.1201 33.8657C11.1499 34.2644 11.0636 34.3901 10.8296 34.7289C10.4711 35.1307 10.0612 35.3809 9.59038 35.6342C9.50636 35.6799 9.42233 35.7256 9.33576 35.7727C7.91163 36.5284 6.44606 37.1014 4.80994 36.6859C4.09025 36.3761 3.52323 35.7425 3.1748 35.0503C2.93523 34.2773 2.92356 33.2779 3.25502 32.5299C3.66155 31.8572 4.33634 31.2325 5.10563 31.03C6.91776 30.6512 8.94743 31.5889 10.3837 32.6591ZM5.22503 33.1791C4.93688 33.4167 4.93688 33.4167 4.94146 33.8806C4.95381 34.22 4.98286 34.3669 5.1504 34.6716C5.65211 34.9583 6.09455 34.9418 6.65776 34.8507C7.29536 34.6407 7.88961 34.3876 8.44867 34.0149C8.36384 33.6241 8.36384 33.6241 7.98136 33.4692C7.83424 33.406 7.68652 33.3442 7.53829 33.2836C7.39393 33.2217 7.24956 33.1599 7.10082 33.0961C6.37029 32.8393 5.86507 32.6854 5.22503 33.1791Z" fill="#0D0D0D"/>
<path d="M63.2506 31.627C63.937 32.3216 64.2396 32.8743 64.2506 33.8731C64.2341 34.7475 64.1094 35.2862 63.5048 35.921C62.6789 36.6845 61.9833 36.8389 60.8665 36.8048C59.7126 36.7272 58.6895 36.1771 57.6913 35.6342C57.6117 35.5914 57.5321 35.5485 57.45 35.5044C56.8709 35.1738 56.3351 34.7849 56.1271 34.1194C56.1294 34.0086 56.1294 34.0086 56.1318 33.8955C56.1302 33.8217 56.1287 33.7478 56.1271 33.6717C56.4056 32.7806 57.2705 32.3855 58.0337 31.9726C59.6267 31.1447 61.6824 30.2776 63.2506 31.627ZM58.8331 33.7761C58.8331 33.8549 58.8331 33.9337 58.8331 34.0149C59.0642 34.1321 59.2956 34.249 59.527 34.3657C59.6559 34.4308 59.7847 34.4959 59.9174 34.5629C60.558 34.8725 61.1147 34.9301 61.8179 34.8507C62.1516 34.6961 62.1516 34.6961 62.2955 34.3731C62.3596 34.0404 62.3631 33.7503 62.2955 33.418C62.0717 33.0948 61.9234 32.9734 61.5497 32.8564C60.6222 32.7564 59.5959 33.2794 58.8331 33.7761Z" fill="#0D0D0D"/>
<path d="M30.6112 32.9926C31.1049 33.0749 31.5426 33.2374 32.0071 33.4212C33.3292 33.9004 34.7091 33.6914 35.9844 33.1703C36.3513 33.0271 36.593 33.0028 36.9839 33.0598C37.3806 33.353 37.5541 33.5285 37.6555 34.0149C37.5504 34.5192 37.3985 34.6611 36.9839 34.9701C36.556 35.166 36.1207 35.3118 35.6706 35.4477C35.5434 35.4885 35.5434 35.4885 35.4136 35.5302C33.7288 35.9926 31.8807 35.6909 30.3202 34.9626C29.9396 34.7313 29.9396 34.7313 29.7008 34.3731C29.6486 34.0299 29.6486 34.0299 29.7008 33.6567C29.9764 33.2839 30.1527 33.0909 30.6112 32.9926Z" fill="#0D0D0D"/>
<path d="M43.0535 21.2262C43.3119 21.4785 43.3119 21.4785 43.3869 21.7173C43.3733 22.1269 43.3473 22.3747 43.1328 22.7321C42.7144 22.9832 42.3482 22.9853 41.8791 22.9112C41.7256 22.8591 41.5737 22.8017 41.4239 22.7396C40.1335 22.2134 38.6069 22.3981 37.3421 22.9112C36.8775 22.9856 36.4978 22.9805 36.0885 22.7247C35.8397 22.3204 35.8428 22.0643 35.9094 21.5979C36.2687 21.0263 36.9587 20.8211 37.5809 20.6427C39.3613 20.293 41.4791 20.1788 43.0535 21.2262Z" fill="#0D0D0D"/>
<path d="M31.1336 21.2397C31.4297 21.6839 31.4277 21.9081 31.3724 22.4337C31.1933 22.7247 31.1933 22.7247 30.8948 22.9112C30.3391 22.9772 29.9476 22.9289 29.4248 22.7396C28.2521 22.3194 27.0845 22.4101 25.8802 22.6725C25.7202 22.7503 25.5608 22.8296 25.4027 22.9112C24.9261 22.9913 24.5627 22.9832 24.149 22.7247C23.8971 22.3153 23.8953 22.0704 23.9699 21.5979C24.4392 20.8506 25.3012 20.7107 26.119 20.5234C27.7225 20.2235 29.7175 20.3875 31.1336 21.2397Z" fill="#0D0D0D"/>
<path d="M42.4761 25.6573C42.7722 26.009 42.836 26.1668 42.8268 26.6274C42.7148 26.9707 42.7148 26.9707 42.5208 27.1945C42.1108 27.3888 41.8546 27.38 41.4015 27.3288C41.2083 27.2509 41.0168 27.1684 40.8269 27.0826C40.1264 26.7824 39.496 26.7839 38.7823 27.0602C38.7133 27.0922 38.6444 27.1242 38.5734 27.1572C38.1203 27.3538 37.8308 27.3934 37.3421 27.3288C37.0511 27.1423 37.0511 27.1423 36.8645 26.8513C36.7823 26.3486 36.7949 26.1153 37.0884 25.6946C38.6752 24.5204 40.869 24.519 42.4761 25.6573Z" fill="#0D0D0D"/>
<path d="M30.1276 25.6354C30.2978 25.7767 30.2978 25.7767 30.4172 26.0155C30.4596 26.4735 30.4825 26.7494 30.2306 27.1423C29.814 27.4094 29.5968 27.3915 29.1039 27.3289C28.8911 27.2502 28.6798 27.1678 28.4696 27.0826C27.8073 26.8261 27.2849 26.7956 26.5966 26.9707C26.3569 27.0882 26.1179 27.2074 25.8802 27.3289C25.4427 27.3741 25.1599 27.3835 24.7609 27.1946C24.4893 26.8812 24.4557 26.6664 24.4475 26.2543C24.6338 25.7652 24.923 25.5289 25.3845 25.2889C26.9948 24.605 28.6478 24.652 30.1276 25.6354Z" fill="#0D0D0D"/>
</svg>
