<svg width="73" height="73" viewBox="0 0 73 73" fill="none" xmlns="http://www.w3.org/2000/svg">
<path fill-rule="evenodd" clip-rule="evenodd" d="M38.5724 0.0100482C22.0458 -0.356766 6.32143 9.34341 1.3737 25.1831C-3.43916 40.591 4.93557 56.3436 18.0628 65.6697C30.6367 74.6028 47.416 75.8594 59.8441 66.723C72.1451 57.68 75.6817 41.3093 71.0328 26.7292C66.316 11.9361 54.036 0.353268 38.5724 0.0100482Z" fill="#F1E9D0"/>
<path d="M27.7948 3.01271C28.2009 3.10745 28.4185 3.26456 28.7094 3.56119C28.8139 3.66616 28.9184 3.77113 29.026 3.87928C29.1305 3.9911 29.235 4.10292 29.3426 4.21814C29.4471 4.32343 29.5516 4.42873 29.6592 4.53721C31.6723 6.63516 32.7136 9.06643 33.5218 11.8166C33.5912 11.772 33.6605 11.7274 33.732 11.6815C35.3483 10.6749 37.0005 10.0025 38.8407 9.53703C38.9613 9.50568 39.0819 9.47434 39.2062 9.44205C39.9401 9.28022 40.6722 9.25531 41.421 9.24417C41.568 9.24079 41.568 9.24079 41.718 9.23734C42.3008 9.23816 42.6704 9.29292 43.1464 9.66367C43.7557 10.3407 43.8175 10.8471 43.8058 11.7305C43.5882 15.598 41.9196 18.9859 39.3472 21.8211C39.4894 21.8931 39.6316 21.9651 39.7781 22.0393C40.8077 22.5679 41.7531 23.0959 42.6399 23.8474C43.114 24.1635 43.3634 24.1332 43.9304 24.135C44.0227 24.1357 44.115 24.1363 44.2101 24.137C44.4105 24.1383 44.611 24.139 44.8114 24.1393C45.1293 24.1397 45.4472 24.1419 45.7651 24.1444C46.669 24.1514 47.5729 24.1553 48.4768 24.1584C49.0299 24.1605 49.5829 24.1643 50.1359 24.1692C50.3461 24.1706 50.5563 24.1714 50.7665 24.1714C51.0617 24.1714 51.3568 24.1738 51.6519 24.1766C51.7377 24.176 51.8235 24.1754 51.9118 24.1748C52.8086 24.1882 53.6581 24.4635 54.2908 25.1138C54.9187 26.0577 54.8715 27.0117 54.8646 28.1061C54.8649 28.2985 54.8654 28.4908 54.8661 28.6832C54.8668 29.0848 54.8657 29.4864 54.8634 29.888C54.8605 30.401 54.8621 30.9138 54.8652 31.4268C54.867 31.8235 54.8664 32.2201 54.8651 32.6168C54.8648 32.8059 54.8652 32.995 54.8664 33.184C54.8718 34.2926 54.8734 35.115 54.0929 35.9677C53.5268 36.4031 53.1466 36.6752 52.4228 36.6539C52.3216 36.6516 52.2204 36.6493 52.1161 36.6469C52.0015 36.6425 52.0015 36.6425 51.8846 36.638C51.8859 36.793 51.8859 36.793 51.8872 36.9511C51.8948 37.9256 51.9006 38.9001 51.9043 39.8746C51.9063 40.3756 51.909 40.8765 51.9133 41.3775C51.9174 41.8611 51.9197 42.3447 51.9207 42.8284C51.9213 43.0128 51.9227 43.1971 51.9248 43.3814C51.9275 43.64 51.9279 43.8985 51.9277 44.1571C51.929 44.3778 51.929 44.3778 51.9303 44.6028C51.8792 45.0425 51.7658 45.2758 51.5047 45.6295C51.1553 45.9033 50.9328 46.0017 50.4916 46.0569C50.0546 46.0023 49.825 45.899 49.4784 45.6295C48.1375 42.9477 49.2252 39.6364 49.2252 36.638C34.849 36.638 20.4728 36.638 5.66092 36.638C5.66092 46.0829 5.66092 55.5277 5.66092 65.2587C6.91466 65.2587 8.1684 65.2587 9.46013 65.2587C9.45681 64.8612 9.4535 64.4637 9.45008 64.0542C9.43958 62.7394 9.43259 61.4247 9.42732 60.11C9.42402 59.313 9.41954 58.5161 9.41236 57.7191C9.40547 56.9497 9.40169 56.1804 9.40005 55.4109C9.39888 55.1177 9.3966 54.8244 9.39318 54.5312C9.38857 54.1198 9.38795 53.7086 9.38824 53.2972C9.38597 53.1765 9.38369 53.0558 9.38135 52.9314C9.38922 51.9067 9.74339 51.3142 10.4416 50.5843C11.4029 49.9557 12.5345 50.0244 13.6477 50.0283C13.8039 50.028 13.9601 50.0278 14.121 50.0275C14.4498 50.0274 14.7786 50.0278 15.1073 50.0289C15.6089 50.0302 16.1105 50.0289 16.6121 50.0273C16.9326 50.0274 17.253 50.0278 17.5735 50.0283C17.7226 50.0277 17.8717 50.0272 18.0253 50.0267C19.1279 50.033 20.1056 50.0797 20.9844 50.8217C23.7752 54.4196 21.7442 64.8089 21.7442 65.2587C30.8129 65.2587 39.8816 65.2587 49.2252 65.2587C49.2252 62.0408 49.2252 58.8229 49.2252 55.5074C49.7317 54.8742 49.7317 54.8742 49.985 54.7476C51.1261 54.6924 51.1261 54.6924 51.5047 55.0009C51.863 55.5889 51.94 56.0843 51.9358 56.7589C51.9371 56.9045 51.9371 56.9045 51.9384 57.0531C51.9407 57.3725 51.9402 57.6917 51.9395 58.011C51.9401 58.2344 51.9408 58.4577 51.9415 58.681C51.9427 59.1487 51.9423 59.6163 51.9411 60.0839C51.9396 60.6809 51.9422 61.2779 51.9459 61.8748C51.9482 62.3361 51.9482 62.7972 51.9475 63.2585C51.9474 63.4784 51.9482 63.6984 51.9498 63.9184C51.965 66.3983 51.965 66.3983 51.1948 67.2294C50.5959 67.7601 50.1358 67.9497 49.3441 67.9511C49.1858 67.952 49.0275 67.9529 48.8644 67.9538C48.6884 67.9535 48.5124 67.9532 48.3364 67.9529C48.1496 67.9535 47.9629 67.9541 47.7762 67.9549C47.2624 67.9567 46.7486 67.9569 46.2348 67.9568C45.6809 67.9571 45.127 67.9587 44.5731 67.9602C43.3616 67.9631 42.1502 67.9641 40.9387 67.9647C40.1824 67.9651 39.4261 67.9659 38.6698 67.9669C36.5761 67.9693 34.4825 67.9714 32.3888 67.9718C32.2548 67.9718 32.1208 67.9718 31.9827 67.9718C31.711 67.9719 31.4393 67.9719 31.1676 67.972C30.9653 67.972 30.9653 67.972 30.7589 67.9721C30.5564 67.9721 30.5564 67.9721 30.3497 67.9721C28.1615 67.9726 25.9732 67.976 23.785 67.9807C21.5388 67.9855 19.2926 67.988 17.0464 67.988C15.785 67.9881 14.5237 67.9892 13.2623 67.9929C12.1883 67.996 11.1143 67.9969 10.0403 67.995C9.4923 67.9941 8.94436 67.9942 8.39638 67.9971C7.89452 67.9997 7.39275 67.9993 6.89089 67.9967C6.70954 67.9962 6.52818 67.9969 6.34683 67.9987C5.32717 68.0082 4.54675 67.9844 3.76132 67.285C3.01404 66.518 2.9643 65.7066 2.97102 64.69C2.9708 64.5699 2.97059 64.4497 2.97036 64.326C2.96995 63.9241 2.97134 63.5222 2.97272 63.1202C2.9728 62.8319 2.97276 62.5436 2.97261 62.2553C2.97254 61.4727 2.97403 60.6902 2.9758 59.9077C2.97738 59.0898 2.97753 58.2719 2.97783 57.4541C2.97853 56.0814 2.98011 54.7087 2.98237 53.336C2.9847 51.9223 2.98649 50.5086 2.98757 49.0949C2.98763 49.0077 2.9877 48.9205 2.98777 48.8307C2.9881 48.3933 2.98842 47.956 2.98873 47.5186C2.99136 43.8917 2.99584 40.2649 3.00148 36.638C2.92281 36.6393 2.84413 36.6406 2.76308 36.642C2.6601 36.643 2.55712 36.644 2.45101 36.645C2.34883 36.6463 2.24665 36.6476 2.14138 36.649C1.52302 36.6248 1.0735 36.2281 0.649235 35.807C0.136653 35.2195 0.0722884 34.786 0.0623182 34.0263C0.0610792 33.9416 0.0598402 33.8569 0.0585636 33.7696C0.0547761 33.4894 0.052063 33.2091 0.0496727 32.9289C0.0488405 32.8328 0.0480085 32.7368 0.047151 32.6379C0.043025 32.1291 0.0399286 31.6203 0.0374601 31.1116C0.0352089 30.6919 0.0308068 30.2724 0.0244746 29.8528C0.0168194 29.3449 0.0129543 28.8371 0.0117305 28.3291C0.0106519 28.1364 0.00827987 27.9436 0.00454403 27.7509C-0.0141335 26.7321 -0.00493613 25.9069 0.640313 25.0691C1.21012 24.4984 1.85823 24.2387 2.65772 24.2149C2.90562 24.2171 2.90562 24.2171 3.15854 24.2194C3.34819 24.2206 3.53783 24.2217 3.72748 24.2229C3.8277 24.2237 3.92793 24.2245 4.03119 24.2253C4.5652 24.2287 5.0992 24.2274 5.63322 24.2268C6.31133 24.226 6.9893 24.2267 7.66738 24.2338C8.21655 24.2394 8.76548 24.2394 9.31467 24.2358C9.52267 24.2354 9.73069 24.237 9.93865 24.2407C11.4853 24.267 12.228 23.9918 13.386 22.9609C13.7661 22.724 14.1567 22.5194 14.5574 22.3198C14.6532 22.2706 14.7491 22.2213 14.8478 22.1706C15.0775 22.0529 15.3081 21.9368 15.5389 21.8211C15.4713 21.7517 15.4037 21.6824 15.3341 21.6109C12.6751 18.7817 10.9622 14.8067 11.0609 10.8855C11.1285 10.3878 11.2742 10.1582 11.613 9.79031C11.6783 9.71456 11.7436 9.63881 11.8109 9.56077C12.4761 9.01128 13.8347 9.22623 14.6524 9.28375C16.7064 9.53588 19.8502 10.3024 21.3643 11.8166C21.3859 11.7466 21.4074 11.6766 21.4296 11.6046C22.3462 8.66237 23.5401 6.34813 25.6701 4.10733C25.7632 4.00548 25.8563 3.90364 25.9522 3.7987C26.5367 3.20548 26.9458 2.93627 27.7948 3.01271ZM27.0824 6.58126C24.678 9.18923 23.7595 12.3074 23.8481 15.8062C23.9715 18.4903 25.0922 20.9233 26.8098 22.9609C26.9792 23.1716 27.1482 23.3825 27.3164 23.5941C28.5101 23.1534 29.3682 21.4031 29.8934 20.315C31.2364 17.386 31.5491 14.0834 30.4823 11.0091C29.8331 9.27639 28.951 7.63222 27.5697 6.37102C27.2954 6.34281 27.2954 6.34281 27.0824 6.58126ZM13.8925 11.9432C13.7872 14.5127 15.1765 17.253 16.8053 19.1617C16.8993 19.2732 16.9933 19.3847 17.0902 19.4996C18.8113 21.4746 21.243 23.3017 23.8971 23.7207C23.7113 23.2096 23.4607 22.7748 23.1768 22.3119C22.0292 20.3571 21.3943 18.1803 21.3327 15.9165C21.2963 15.2254 21.2963 15.2254 20.9052 14.6897C20.7246 14.5699 20.539 14.4576 20.3512 14.3494C20.2144 14.2601 20.0776 14.1708 19.9366 14.0788C18.1906 12.9558 16.0124 11.9432 13.8925 11.9432ZM34.5349 14.3494C34.3955 14.4375 34.2561 14.5257 34.1124 14.6165C33.6224 15.1482 33.6299 15.6343 33.5772 16.336C33.2891 19.0836 32.3416 21.3285 30.989 23.7207C31.7691 23.5756 32.4592 23.3608 33.1735 23.0163C33.2663 22.9718 33.3592 22.9273 33.4548 22.8814C36.7988 21.2318 39.2287 18.3442 40.487 14.8559C40.7869 13.8932 41.0276 12.9595 40.9935 11.9432C38.7031 11.9432 36.3884 13.0963 34.5349 14.3494ZM16.7182 24.3064C16.6282 24.3402 16.5383 24.3739 16.4456 24.4087C15.7405 24.6832 15.1233 25.0256 14.5257 25.4937C15.4813 26.5806 17.3661 27.1909 18.7705 27.2889C21.2644 27.455 21.2644 27.455 23.5033 26.5528C23.5497 26.4958 23.5961 26.4389 23.6438 26.3802C23.5211 26.3447 23.3983 26.3093 23.2718 26.2728C21.5669 25.7683 19.943 25.1695 18.4813 24.1368C17.8791 23.7904 17.3144 24.0808 16.7182 24.3064ZM35.9833 24.4173C34.5574 25.341 32.9029 26.0219 31.2422 26.3802C31.7703 27.0092 32.6152 27.1489 33.3951 27.2667C35.9789 27.4917 38.0059 27.0489 40.2337 25.747C40.2337 25.6216 40.2337 25.4962 40.2337 25.3671C39.1232 24.4305 37.2594 23.5521 35.9833 24.4173ZM2.7482 26.8867C2.7482 29.227 2.7482 31.5674 2.7482 33.9786C19.0468 33.9786 35.3454 33.9786 52.1379 33.9786C52.1379 31.6383 52.1379 29.298 52.1379 26.8867C50.5195 26.8609 50.5195 26.8609 48.9011 26.8435C48.2405 26.8382 47.5799 26.8319 46.9194 26.8199C46.3864 26.8102 45.8536 26.8049 45.3206 26.8026C45.1178 26.801 44.9151 26.7978 44.7124 26.793C43.4073 26.7328 43.4073 26.7328 42.2837 27.3158C42.1484 27.4676 42.0138 27.6201 41.88 27.7732C41.5729 27.9921 41.2526 28.1772 40.9223 28.3589C40.8357 28.407 40.7491 28.4551 40.6598 28.5046C38.1126 29.873 34.8136 30.3208 32.0021 29.5858C30.4602 29.1178 28.7854 28.4833 27.5697 27.3933C27.143 27.5503 26.797 27.7281 26.4299 27.9948C23.8485 29.7442 20.6027 30.1899 17.5572 29.7173C15.8255 29.3751 13.3262 28.5199 12.2183 27.0634C11.864 26.7856 11.5447 26.8413 11.1012 26.8436C10.9658 26.8435 10.9658 26.8435 10.8278 26.8434C10.5297 26.8437 10.2316 26.8467 9.93355 26.8496C9.72682 26.8503 9.52009 26.8509 9.31337 26.8513C8.76934 26.8527 8.22535 26.8564 7.68134 26.8606C7.02857 26.8652 6.3758 26.867 5.72302 26.8692C4.73139 26.8729 3.73984 26.8801 2.7482 26.8867ZM12.1196 52.7213C12.1196 56.8587 12.1196 60.996 12.1196 65.2587C14.4181 65.2587 16.7166 65.2587 19.0848 65.2587C19.0848 61.1214 19.0848 56.9841 19.0848 52.7213C16.7863 52.7213 14.4877 52.7213 12.1196 52.7213Z" fill="#D1AE62"/>
<path d="M28.2296 40.7994C28.3599 40.7986 28.4901 40.7979 28.6244 40.7972C28.766 40.797 28.9076 40.7969 29.0534 40.7967C29.2036 40.7961 29.3538 40.7955 29.5086 40.7948C29.9196 40.7933 30.3307 40.7924 30.7418 40.7918C30.9991 40.7914 31.2563 40.7909 31.5136 40.7903C32.3198 40.7886 33.126 40.7874 33.9322 40.7869C34.8605 40.7863 35.7888 40.7841 36.717 40.7804C37.4361 40.7777 38.1552 40.7764 38.8743 40.7762C39.3031 40.7761 39.7318 40.7754 40.1606 40.7731C40.6395 40.7709 41.1183 40.7712 41.5972 40.772C41.7378 40.7708 41.8784 40.7697 42.0232 40.7685C42.9502 40.7734 43.8072 40.8596 44.5826 41.4058C44.6493 41.478 44.7161 41.5501 44.7849 41.6245C44.8539 41.696 44.923 41.7675 44.9941 41.8411C45.3601 42.3379 45.4577 42.8022 45.4599 43.4111C45.4615 43.618 45.4615 43.618 45.4632 43.8291C45.463 44.0542 45.463 44.0542 45.4628 44.2838C45.4637 44.4429 45.4645 44.6019 45.4654 44.7658C45.4676 45.2012 45.4682 45.6366 45.4684 46.072C45.4686 46.3444 45.4691 46.6167 45.4698 46.8891C45.4721 47.8403 45.4731 48.7915 45.4729 49.7427C45.4728 50.6278 45.4755 51.5128 45.4795 52.3978C45.4828 53.1589 45.4841 53.9201 45.484 54.6813C45.4839 55.1353 45.4846 55.5893 45.4873 56.0433C45.4902 56.5501 45.4891 57.0569 45.4875 57.5637C45.489 57.713 45.4904 57.8623 45.4918 58.0162C45.4848 58.9358 45.3925 59.6976 44.7362 60.3851C44.1647 60.8852 43.7245 61.1108 42.9691 61.1134C42.7609 61.1151 42.7609 61.1151 42.5485 61.1167C42.3967 61.1166 42.245 61.1165 42.0887 61.1164C41.9285 61.1172 41.7682 61.1181 41.6031 61.1189C41.1637 61.1212 40.7244 61.1218 40.2851 61.1219C40.0103 61.1221 39.7355 61.1227 39.4608 61.1233C38.5014 61.1257 37.542 61.1267 36.5825 61.1265C35.6897 61.1264 34.7968 61.129 33.9039 61.133C33.1363 61.1363 32.3687 61.1377 31.6011 61.1375C31.1431 61.1375 30.6852 61.1382 30.2272 61.1409C29.7158 61.1438 29.2045 61.1426 28.6931 61.1411C28.5424 61.1425 28.3917 61.144 28.2364 61.1454C27.2288 61.1378 26.506 61.0166 25.7572 60.2881C25.1639 59.3212 25.1084 58.4854 25.1144 57.3746C25.1138 57.2217 25.1131 57.0688 25.1124 56.9112C25.111 56.4944 25.1113 56.0776 25.1125 55.6608C25.1135 55.223 25.1126 54.7852 25.112 54.3474C25.1113 53.6125 25.1122 52.8775 25.114 52.1426C25.1161 51.2949 25.1154 50.4472 25.1134 49.5995C25.1116 48.8695 25.1114 48.1396 25.1124 47.4096C25.113 46.9745 25.1131 46.5395 25.1118 46.1045C25.1108 45.6192 25.1123 45.134 25.1144 44.6488C25.1136 44.506 25.1129 44.3632 25.1121 44.2161C25.1215 43.0466 25.3312 42.1692 26.1767 41.3237C26.8467 40.9189 27.4556 40.8019 28.2296 40.7994ZM27.823 43.4766C27.823 48.408 27.823 53.3393 27.823 58.4201C32.7544 58.4201 37.6858 58.4201 42.7666 58.4201C42.7666 53.4888 42.7666 48.5574 42.7666 43.4766C37.8352 43.4766 32.9038 43.4766 27.823 43.4766Z" fill="#D1AE62"/>
<path d="M50.9981 49.0488C51.4113 49.2891 51.6804 49.4658 51.846 49.9273C51.9241 50.3655 51.9089 50.6345 51.7422 51.0513C51.369 51.4866 51.0646 51.6841 50.4916 51.7557C50.0547 51.7011 49.825 51.5978 49.4785 51.3283C49.182 50.9471 49.173 50.5333 49.1836 50.0579C49.2493 49.6638 49.4513 49.4476 49.7317 49.1754C50.1423 48.9701 50.5544 48.978 50.9981 49.0488Z" fill="#D1AE62"/>
<path d="M17.3118 58.0402C17.768 58.2668 18.0277 58.5544 18.2062 59.0375C18.1958 59.5573 18.0808 59.871 17.8184 60.3197C17.3869 60.6336 17.1408 60.6997 16.6074 60.6997C16.067 60.5424 15.8585 60.4047 15.5389 59.9398C15.4168 59.3487 15.4553 58.9337 15.7763 58.4201C16.2392 57.9845 16.6948 57.9395 17.3118 58.0402Z" fill="#D1AE62"/>
</svg>
