<svg width="75" height="73" viewBox="0 0 75 73" fill="none" xmlns="http://www.w3.org/2000/svg">
<path fill-rule="evenodd" clip-rule="evenodd" d="M40.5724 0.0100482C24.0458 -0.356766 8.32143 9.34341 3.3737 25.1831C-1.43916 40.591 6.93557 56.3436 20.0628 65.6697C32.6367 74.6028 49.416 75.8594 61.8441 66.723C74.1451 57.68 77.6817 41.3093 73.0328 26.7292C68.316 11.9361 56.036 0.353268 40.5724 0.0100482Z" fill="#F1E9D0"/>
<path d="M33.8186 4.878C34.5026 5.35386 35.1304 5.89287 35.7621 6.43455C37.5601 7.97578 39.5267 9.27878 41.5769 10.4602C41.6907 10.5261 41.8044 10.5921 41.9217 10.6601C45.9774 12.9932 50.368 14.5163 54.9608 15.393C56.7905 15.7464 58.4841 16.3982 59.6118 17.974C60.6531 19.5617 60.8479 20.8826 60.8464 22.7463C60.8472 22.9507 60.8481 23.1551 60.8491 23.3595C60.8515 23.9129 60.8522 24.4662 60.8523 25.0196C60.8525 25.3667 60.8531 25.7138 60.8538 26.0609C60.8563 27.2759 60.8574 28.4909 60.8572 29.7059C60.8571 30.8314 60.8599 31.9569 60.8642 33.0824C60.8678 34.0536 60.8692 35.0249 60.869 35.9961C60.8689 36.5739 60.8697 37.1517 60.8726 37.7295C60.9002 43.6494 59.6089 48.6964 55.6609 53.2651C55.5737 53.3703 55.4864 53.4754 55.3964 53.5837C54.7068 54.3944 53.9293 55.0461 53.0879 55.6957C52.9067 55.839 52.9067 55.839 52.7218 55.9853C51.6186 56.8379 50.4451 57.564 49.2616 58.2991C48.5871 58.7204 47.9177 59.1494 47.2477 59.5778C46.9582 59.7628 46.6687 59.9478 46.3791 60.1327C46.2344 60.2252 46.0896 60.3178 45.9405 60.4131C45.231 60.8664 44.5212 61.3192 43.8114 61.7721C43.5292 61.9521 43.2471 62.1322 42.965 62.3122C42.4007 62.6723 41.8364 63.0324 41.2722 63.3925C41.1324 63.4817 40.9926 63.5709 40.8486 63.6628C40.5678 63.842 40.287 64.0211 40.0061 64.2003C39.2803 64.6634 38.5547 65.1268 37.8295 65.5909C37.0029 66.1197 36.1756 66.6472 35.3474 67.1733C35.1996 67.2675 35.1996 67.2675 35.0488 67.3635C32.9763 68.6793 31.1462 69.3214 28.6656 68.8412C27.1444 68.32 25.7625 67.3032 24.4204 66.4391C24.1222 66.248 23.824 66.0569 23.5259 65.8658C23.3736 65.768 23.2214 65.6703 23.0691 65.5726C22.3552 65.1146 21.6399 64.6587 20.9248 64.2027C20.6426 64.0226 20.3605 63.8426 20.0784 63.6625C19.9387 63.5734 19.7991 63.4843 19.6552 63.3925C18.1034 62.4022 16.5517 61.412 15 60.4218C14.7903 60.288 14.7903 60.288 14.5764 60.1516C14.2954 59.9722 14.0145 59.7927 13.7337 59.6131C13.0117 59.1515 12.2882 58.6925 11.562 58.2375C10.0377 57.2797 8.55343 56.3199 7.17927 55.1556C7.06353 55.0589 6.94779 54.9623 6.82855 54.8628C6.15932 54.2888 5.56859 53.678 5.01249 52.9951C4.85564 52.8034 4.85564 52.8034 4.69562 52.6079C0.511692 47.397 -0.0393334 41.7026 0.00205379 35.2569C0.00395448 34.9556 0.0056591 34.6543 0.00730245 34.353C0.0130879 33.2982 0.0197432 32.2434 0.027144 31.1885C0.0339802 30.2104 0.038734 29.2323 0.0425738 28.2541C0.0459961 27.4083 0.0509548 26.5625 0.0570758 25.7167C0.0606833 25.2141 0.0636741 24.7114 0.0650687 24.2088C0.0666744 23.6495 0.0714712 23.0904 0.0765393 22.5312C0.0765577 22.3673 0.0765761 22.2034 0.0765951 22.0346C0.0984147 20.2646 0.604006 18.7516 1.79724 17.4074C3.15572 16.1117 4.70197 15.614 6.49891 15.2578C7.04132 15.1497 7.58185 15.0329 8.12248 14.9162C8.22893 14.8933 8.33538 14.8704 8.44506 14.8469C10.8729 14.319 13.169 13.4814 15.4401 12.4856C15.6044 12.4142 15.6044 12.4142 15.7721 12.3413C19.3505 10.7683 22.6657 8.58911 25.6217 6.04001C27.8871 4.0896 31.0946 3.21469 33.8186 4.878ZM28.2123 9.76814C22.2537 14.874 14.6946 18.4698 6.93544 19.728C6.16641 19.8611 5.47903 20.0817 4.94161 20.6835C4.41392 21.7117 4.45125 22.6967 4.45328 23.8253C4.45304 23.9877 4.4528 24.15 4.45256 24.3173C4.45206 24.7616 4.45218 25.2058 4.45261 25.6501C4.45295 26.1176 4.45263 26.585 4.45242 27.0525C4.45217 27.839 4.4525 28.6256 4.45314 29.4121C4.45388 30.3156 4.45364 31.2191 4.4529 32.1227C4.45228 32.9023 4.4522 33.6819 4.45255 34.4615C4.45276 34.9253 4.4528 35.3892 4.45234 35.853C4.38534 39.3516 4.38534 39.3516 4.83475 42.8086C4.85847 42.915 4.88219 43.0213 4.90663 43.1309C5.5205 45.7503 6.73513 48.151 8.53351 50.1594C8.64974 50.3052 8.76551 50.4515 8.88053 50.5982C10.3352 52.2347 12.2769 53.3733 14.1203 54.5182C14.7948 54.9395 15.4642 55.3686 16.1342 55.797C16.4237 55.9819 16.7132 56.1669 17.0028 56.3518C17.1475 56.4444 17.2923 56.5369 17.4414 56.6322C18.1509 57.0855 18.8608 57.5383 19.5705 57.9912C19.8527 58.1713 20.1348 58.3513 20.4169 58.5313C20.5566 58.6205 20.6962 58.7096 20.8401 58.8014C22.1097 59.6116 22.1097 59.6116 22.5333 59.8819C22.8141 60.0611 23.0949 60.2403 23.3758 60.4194C24.2515 60.9781 25.1267 61.5375 26.0015 62.0975C26.4298 62.3711 26.8589 62.6435 27.2881 62.9156C27.7265 63.194 28.1613 63.4758 28.5905 63.768C28.6691 63.8202 28.7477 63.8723 28.8287 63.926C29.0194 64.0528 29.2082 64.1824 29.3967 64.3124C30.068 64.5826 30.7593 64.6221 31.443 64.3602C31.7352 64.201 32.0081 64.0265 32.2834 63.8398C32.387 63.7731 32.4906 63.7065 32.5973 63.6379C32.929 63.4238 33.2579 63.2056 33.5869 62.9874C33.805 62.846 34.0233 62.705 34.2418 62.5643C34.6932 62.2735 35.1436 61.9811 35.5934 61.6877C36.3063 61.2236 37.0239 60.7671 37.7427 60.3121C38.8104 59.636 39.8769 58.9582 40.9421 58.2782C41.0833 58.188 41.2244 58.0979 41.3699 58.005C41.6568 57.8218 41.9436 57.6386 42.2305 57.4554C42.7973 57.0935 43.3643 56.7317 43.9312 56.37C44.2116 56.1911 44.4918 56.012 44.772 55.8329C45.423 55.4167 46.0745 55.0017 46.7291 54.5913C46.9578 54.4478 47.1862 54.3039 47.4146 54.16C47.6989 53.9809 47.9837 53.8025 48.269 53.6251C52.122 51.1915 54.9934 47.5947 56.0379 43.1303C56.0616 43.0241 56.0852 42.918 56.1095 42.8086C56.1311 42.7139 56.1528 42.6191 56.175 42.5215C56.6325 40.27 56.4957 37.877 56.4961 35.5935C56.4962 35.3159 56.4965 35.0383 56.4969 34.7608C56.4981 33.7893 56.4987 32.8178 56.4986 31.8463C56.4985 30.9451 56.4999 30.0439 56.5021 29.1427C56.5038 28.3638 56.5046 27.585 56.5045 26.8062C56.5044 26.3432 56.5048 25.8802 56.5063 25.4171C56.5076 24.9018 56.5072 24.3866 56.5064 23.8713C56.5071 23.7201 56.5079 23.569 56.5087 23.4133C56.5195 21.913 56.5195 21.913 55.8895 20.6044C55.3017 20.141 54.8103 19.8713 54.0718 19.7288C53.9204 19.6985 53.7689 19.6681 53.6129 19.6369C53.3698 19.5894 53.3698 19.5894 53.1217 19.541C45.5658 17.9853 38.8106 14.7432 32.871 9.84034C31.8141 8.89071 31.8141 8.89071 30.506 8.52754C30.3922 8.52249 30.2784 8.51744 30.1611 8.51224C29.3715 8.63625 28.7944 9.2582 28.2123 9.76814Z" fill="#D1AE62"/>
<path d="M19.8023 38.6131C19.9451 38.6119 19.9451 38.6119 20.0909 38.6106C20.4084 38.6084 20.7258 38.6101 21.0433 38.6118C21.2716 38.6111 21.4999 38.6101 21.7281 38.609C22.3471 38.6065 22.9659 38.6074 23.5849 38.6092C24.233 38.6105 24.8811 38.6093 25.5292 38.6084C26.6175 38.6074 27.7058 38.6087 28.7942 38.6113C30.0519 38.6142 31.3096 38.6133 32.5674 38.6103C33.6478 38.6079 34.7282 38.6075 35.8086 38.6089C36.4537 38.6098 37.0987 38.6099 37.7438 38.6081C38.3503 38.6065 38.9567 38.6076 39.5632 38.6107C39.7856 38.6115 40.008 38.6113 40.2304 38.6101C40.5343 38.6086 40.8381 38.6104 41.1421 38.6131C41.312 38.6133 41.482 38.6135 41.6571 38.6137C42.3593 38.7172 42.7727 39.0555 43.2528 39.5594C43.5775 40.2569 43.5749 40.8963 43.4728 41.6524C43.1803 42.2806 42.7643 42.7325 42.1186 43.0027C41.5701 43.0835 41.0261 43.0788 40.4724 43.0764C40.3072 43.0778 40.142 43.0792 39.9717 43.0807C39.5204 43.084 39.0692 43.0849 38.618 43.0848C38.1457 43.0852 37.6734 43.0886 37.2011 43.0918C36.3076 43.0972 35.4142 43.1 34.5207 43.1018C33.5031 43.1039 32.4855 43.1091 31.468 43.1145C29.3755 43.1256 27.2831 43.133 25.1906 43.1377C25.2477 43.2013 25.3048 43.2648 25.3636 43.3303C25.4378 43.4143 25.512 43.4984 25.5884 43.585C25.6623 43.6681 25.7361 43.7511 25.8122 43.8366C26.2627 44.4178 26.2132 45.1396 26.1386 45.8384C25.959 46.4102 25.6483 46.7437 25.1737 47.1127C24.5778 47.4092 23.9446 47.4349 23.2947 47.3237C22.489 47.0084 21.9721 46.4667 21.3755 45.8642C21.2721 45.7612 21.1687 45.6581 21.0621 45.552C20.8445 45.3346 20.6273 45.1168 20.4107 44.8985C20.0788 44.5645 19.7452 44.2322 19.4113 43.9002C19.1998 43.6885 18.9884 43.4768 18.7771 43.2649C18.6773 43.1655 18.5776 43.0662 18.4748 42.9639C18.3826 42.8706 18.2903 42.7774 18.1953 42.6813C18.1141 42.5997 18.033 42.5182 17.9494 42.4342C17.4114 41.8063 17.4135 41.2265 17.4292 40.4255C17.4868 39.8894 17.642 39.6114 18.0132 39.2218C18.6268 38.74 19.0247 38.6141 19.8023 38.6131Z" fill="#D1AE62"/>
<path d="M38.0081 25.859C38.6205 26.2162 39.0724 26.677 39.5688 27.1782C39.6722 27.2813 39.7756 27.3843 39.8822 27.4905C40.0998 27.7078 40.317 27.9256 40.5336 28.1439C40.8655 28.478 41.1991 28.8102 41.533 29.1422C41.7445 29.3539 41.9559 29.5657 42.1672 29.7776C42.267 29.8769 42.3667 29.9762 42.4695 30.0785C42.5617 30.1718 42.654 30.2651 42.749 30.3612C42.8302 30.4427 42.9113 30.5243 42.9949 30.6083C43.5329 31.2362 43.5308 31.8159 43.5151 32.6169C43.4575 33.153 43.3023 33.431 42.9311 33.8206C42.3175 34.3024 41.9196 34.4284 41.142 34.4293C40.9992 34.4306 40.9992 34.4306 40.8534 34.4319C40.5359 34.434 40.2185 34.4323 39.901 34.4306C39.6727 34.4313 39.4444 34.4323 39.2162 34.4335C38.5972 34.4359 37.9784 34.435 37.3594 34.4333C36.7113 34.4319 36.0632 34.4332 35.4151 34.434C34.3268 34.435 33.2385 34.4337 32.1501 34.4311C30.8924 34.4282 29.6347 34.4292 28.3769 34.4321C27.2965 34.4346 26.2161 34.4349 25.1357 34.4335C24.4906 34.4327 23.8456 34.4326 23.2005 34.4343C22.594 34.4359 21.9876 34.4348 21.3812 34.4317C21.1587 34.431 20.9363 34.4312 20.7139 34.4324C20.41 34.4339 20.1062 34.432 19.8022 34.4293C19.6323 34.4291 19.4623 34.4289 19.2872 34.4287C18.585 34.3253 18.1716 33.9869 17.6915 33.483C17.3668 32.7856 17.3694 32.1462 17.4715 31.39C17.764 30.7618 18.18 30.31 18.8257 30.0397C19.3742 29.959 19.9182 29.9636 20.4719 29.966C20.6371 29.9646 20.8023 29.9632 20.9726 29.9618C21.4239 29.9585 21.8751 29.9576 22.3263 29.9577C22.7986 29.9573 23.2709 29.9538 23.7432 29.9507C24.6367 29.9452 25.5301 29.9424 26.4237 29.9407C27.4412 29.9385 28.4588 29.9333 29.4763 29.9279C31.5688 29.9168 33.6612 29.9095 35.7537 29.9047C35.6966 29.8412 35.6395 29.7776 35.5807 29.7122C35.5065 29.6281 35.4323 29.544 35.3559 29.4574C35.282 29.3744 35.2082 29.2913 35.1321 29.2058C34.6816 28.6247 34.7311 27.9029 34.8057 27.2041C34.9853 26.6322 35.296 26.2988 35.7706 25.9297C36.4809 25.5764 37.2761 25.5725 38.0081 25.859Z" fill="#D1AE62"/>
</svg>
