<svg width="78" height="73" viewBox="0 0 78 73" fill="none" xmlns="http://www.w3.org/2000/svg">
<path fill-rule="evenodd" clip-rule="evenodd" d="M43.5724 0.0100482C27.0458 -0.356766 11.3214 9.34341 6.3737 25.1831C1.56084 40.591 9.93557 56.3436 23.0628 65.6697C35.6367 74.6028 52.416 75.8594 64.8441 66.723C77.1451 57.68 80.6817 41.3093 76.0328 26.7292C71.316 11.9361 59.036 0.353268 43.5724 0.0100482Z" fill="#F1E9D0"/>
<path d="M24.491 5.44406C25.4182 6.22873 26.2857 7.07916 27.1472 7.93445C27.2674 8.05331 27.3876 8.17217 27.5115 8.29463C27.9045 8.68356 28.2969 9.07302 28.6892 9.46271C28.7564 9.52953 28.8237 9.59634 28.893 9.66519C29.5297 10.2977 30.1661 10.9304 30.8019 11.5638C31.6083 12.3672 32.416 13.1692 33.2257 13.9693C33.7989 14.536 34.3704 15.1043 34.9409 15.6738C35.2799 16.0121 35.6195 16.3497 35.9609 16.6855C38.0244 18.7173 39.7958 20.5888 39.9922 23.6156C39.9944 24.3471 39.8486 24.7723 39.3759 25.3278C38.8973 25.6809 38.4364 25.7091 37.854 25.6767C37.2876 25.5636 37.0771 25.367 36.7008 24.9248C36.5327 24.4963 36.4479 24.0887 36.3696 23.6365C36.3383 23.4636 36.3383 23.4636 36.3063 23.2871C36.2897 23.1812 36.2731 23.0753 36.256 22.9661C35.9218 21.7657 35.2186 21.0308 34.3537 20.1724C34.2274 20.0449 34.1011 19.9174 33.9709 19.786C33.6264 19.4384 33.2801 19.0925 32.9334 18.747C32.6431 18.4574 32.3537 18.167 32.0642 17.8765C31.3808 17.1908 30.696 16.5065 30.0103 15.8231C29.3052 15.1203 28.6024 14.4154 27.9007 13.7092C27.2961 13.1009 26.6901 12.494 26.0831 11.8881C25.7215 11.5271 25.3604 11.1657 25.0005 10.803C24.5987 10.3982 24.1941 9.99622 23.7892 9.59444C23.6718 9.47548 23.5545 9.35652 23.4335 9.23396C22.5025 8.31734 21.4858 7.56915 20.1395 7.49331C18.2773 7.54433 17.1693 8.58806 15.9069 9.85485C15.7821 9.97855 15.6572 10.1022 15.5286 10.2297C15.1892 10.566 14.8511 10.9037 14.5134 11.2417C14.2301 11.525 13.9462 11.8077 13.6624 12.0904C12.9922 12.7579 12.3232 13.4265 11.6549 14.0958C10.9679 14.7837 10.2789 15.4695 9.58892 16.1544C8.99404 16.7451 8.40051 17.3371 7.808 17.9301C7.45521 18.2832 7.10194 18.6357 6.74733 18.987C6.35172 19.3789 5.95895 19.7736 5.56637 20.1686C5.45019 20.283 5.33402 20.3973 5.21432 20.5152C3.75269 21.9977 3.48022 23.3347 3.48191 25.364C3.48151 25.5177 3.4811 25.6714 3.48068 25.8298C3.47949 26.3443 3.47928 26.8588 3.47907 27.3734C3.47844 27.7425 3.47775 28.1117 3.47701 28.4809C3.47515 29.4834 3.47432 30.486 3.47372 31.4886C3.47334 32.1152 3.47276 32.7417 3.47214 33.3683C3.47047 35.1048 3.46905 36.8413 3.46859 38.5778C3.46856 38.6888 3.46853 38.7998 3.4685 38.9142C3.46847 39.0255 3.46844 39.1368 3.46841 39.2514C3.46835 39.4769 3.46828 39.7024 3.46822 39.9279C3.46819 40.0398 3.46816 40.1516 3.46813 40.2669C3.46759 42.0786 3.46519 43.8902 3.462 45.7019C3.45874 47.5641 3.45704 49.4263 3.45688 51.2885C3.45675 52.3332 3.45597 53.3778 3.45347 54.4225C3.45135 55.3122 3.45066 56.2018 3.45179 57.0915C3.45232 57.5449 3.45198 57.9982 3.45027 58.4516C3.44852 58.9445 3.44934 59.4374 3.45076 59.9303C3.44966 60.0717 3.44855 60.213 3.44741 60.3586C3.45669 61.7343 3.64849 63.09 4.56814 64.1639C5.72244 65.1904 7.03727 65.4171 8.53378 65.4137C8.6356 65.414 8.73741 65.4143 8.8423 65.4146C9.18117 65.4155 9.52003 65.4154 9.8589 65.4153C10.1028 65.4157 10.3467 65.4162 10.5906 65.4167C11.2516 65.4179 11.9126 65.4182 12.5737 65.4183C12.9871 65.4184 13.4005 65.4187 13.8139 65.419C15.2574 65.4203 16.7008 65.4209 18.1443 65.4208C19.4879 65.4207 20.8314 65.4221 22.175 65.4243C23.3302 65.4261 24.4854 65.4268 25.6406 65.4267C26.3298 65.4267 27.019 65.4271 27.7082 65.4286C28.3567 65.4299 29.0052 65.4299 29.6536 65.4289C29.8909 65.4287 30.1281 65.4291 30.3654 65.4299C32.9475 65.4537 32.9475 65.4537 35.1917 64.2978C35.5351 63.8839 35.8381 63.4696 36.1375 63.023C36.4391 62.6353 36.6702 62.4472 37.1123 62.24C37.7832 62.1655 38.072 62.1685 38.6728 62.4801C39.0797 62.8288 39.257 63.0889 39.3631 63.613C39.4158 64.805 38.7633 65.6266 38.0383 66.5186C36.5143 68.1726 34.5047 68.8593 32.3026 68.9774C31.562 69.0024 30.8213 68.9997 30.0803 68.9977C29.8345 68.9981 29.5886 68.9986 29.3428 68.9992C28.6806 69.0004 28.0185 69 27.3564 68.9991C26.6601 68.9984 25.9637 68.9991 25.2674 68.9995C24.0986 69 22.9297 68.9993 21.7609 68.998C20.4138 68.9965 19.0668 68.997 17.7197 68.9985C16.5585 68.9998 15.3973 68.9999 14.2362 68.9992C13.5447 68.9988 12.8532 68.9987 12.1617 68.9996C11.5112 69.0004 10.8608 68.9999 10.2104 68.9983C9.97318 68.9979 9.73595 68.998 9.49871 68.9986C6.66755 69.0052 4.10742 68.719 1.99211 66.63C0.866595 65.3542 0.0565441 63.8026 0.0530596 62.0791C0.052448 61.9382 0.051835 61.7974 0.0512049 61.6523C0.0512302 61.4984 0.0512563 61.3446 0.0512823 61.1862C0.0507779 61.022 0.0502739 60.8579 0.0497542 60.6888C0.0485045 60.2337 0.0478704 59.7785 0.047506 59.3234C0.0469695 58.8323 0.045655 58.3412 0.0444581 57.8502C0.0417496 56.6644 0.0403662 55.4787 0.0391452 54.2929C0.0385434 53.7341 0.037808 53.1753 0.0370896 52.6164C0.034756 50.7581 0.0327665 48.8997 0.0317725 47.0413C0.0315105 46.5592 0.0312475 46.0772 0.0309792 45.5952C0.0309128 45.4754 0.0308466 45.3556 0.0307782 45.2321C0.0296399 43.2923 0.0261644 41.3524 0.0217078 39.4125C0.0171665 37.4195 0.0146998 35.4264 0.0142618 33.4334C0.0139652 32.315 0.0127699 31.1965 0.00925879 30.0781C0.00627487 29.1254 0.00517913 28.1727 0.00651025 27.22C0.00713201 26.7344 0.00688473 26.2488 0.00421177 25.7632C0.001332 25.2355 0.00275675 24.7077 0.00455927 24.18C0.00230199 23.9525 0.00230288 23.9525 0 23.7204C0.0247893 20.7017 1.91991 18.8061 3.92768 16.7915C4.04587 16.6724 4.16405 16.5533 4.28581 16.4306C4.67231 16.0414 5.05932 15.6528 5.44647 15.2643C5.58102 15.1292 5.71557 14.9941 5.85011 14.8589C6.48198 14.2245 7.11417 13.5903 7.74676 12.9566C8.47226 12.2297 9.19661 11.5018 9.92001 10.7728C10.4829 10.2058 11.0468 9.63989 11.6115 9.07473C11.9472 8.7387 12.2825 8.40225 12.6166 8.06464C12.9895 7.68792 13.3646 7.31344 13.7399 6.9391C13.8479 6.82925 13.956 6.71941 14.0674 6.60623C16.902 3.79756 21.1288 3.02849 24.491 5.44406Z" fill="#D1AE62"/>
<path d="M37.9011 29.2719C37.9918 29.2723 38.0824 29.2726 38.1758 29.273C42.7884 29.2998 46.5262 31.1218 49.7442 34.3601C50.3737 35.0093 50.91 35.6738 51.3799 36.4486C51.4679 36.5871 51.556 36.7255 51.6467 36.8682C53.8115 40.4281 54.538 44.8957 53.5883 48.9729C52.4343 52.87 50.2804 56.5159 46.7155 58.6731C46.5722 58.7628 46.429 58.8524 46.2814 58.9448C42.8747 61.0221 38.644 61.7208 34.7201 60.9796C34.4182 60.9034 34.1179 60.8207 33.8198 60.7309C33.6542 60.6842 33.4887 60.6376 33.3182 60.5895C29.7872 59.5097 26.3994 57.2307 24.491 54.0087C24.4442 53.9347 24.3975 53.8606 24.3494 53.7844C23.6562 52.6844 23.1303 51.5723 22.7161 50.3389C22.658 50.1664 22.658 50.1664 22.5987 49.9904C22.0964 48.4105 21.9679 46.8639 21.9701 45.2115C21.9702 45.1182 21.9703 45.0248 21.9703 44.9287C21.9759 43.4106 22.0989 42.0102 22.5703 40.5643C22.6133 40.4265 22.6133 40.4265 22.6572 40.2859C23.7435 36.8773 26.0657 33.6469 29.1554 31.7842C29.2298 31.7371 29.3042 31.69 29.3809 31.6415C30.4804 30.9488 31.5924 30.4233 32.8251 30.0093C32.9401 29.9706 33.0552 29.9319 33.1736 29.892C34.7385 29.3945 36.2645 29.2646 37.9011 29.2719ZM29.7041 35.7627C29.6217 35.8253 29.5393 35.8879 29.4544 35.9524C27.2313 37.6791 25.8499 40.7173 25.4513 43.4452C25.2053 47.3549 26.0395 50.7398 28.66 53.7421C30.5345 55.822 33.349 57.37 36.152 57.7128C36.2917 57.731 36.4314 57.7492 36.5753 57.768C39.7587 58.0922 43.0077 57.2248 45.5322 55.2348C45.7443 55.0555 45.9559 54.8755 46.1667 54.6947C46.2491 54.632 46.3315 54.5694 46.4164 54.5049C48.6395 52.7782 50.021 49.74 50.4195 47.0121C50.6599 43.1906 49.8779 39.7984 47.3372 36.8322C45.122 34.3632 42.0153 32.8775 38.7178 32.6293C35.357 32.4663 32.2487 33.5803 29.7041 35.7627Z" fill="#D1AE62"/>
<path d="M39.153 34.6909C39.4445 35.0767 39.4445 35.0767 39.5528 35.4926C39.6791 35.9241 39.6791 35.9241 40.0576 36.0869C40.2634 36.1513 40.2634 36.1513 40.4734 36.2171C41.8505 36.7339 42.8901 37.7482 43.5602 39.0552C43.9555 39.9797 44.1147 40.9355 43.9717 41.9361C43.751 42.3854 43.5724 42.6418 43.1829 42.9479C42.5431 43.1256 41.9908 43.1288 41.3909 42.8621C40.8405 42.4218 40.6322 42.0087 40.4734 41.3274C40.2703 40.5481 40.1053 40.0832 39.4702 39.5611C38.645 39.13 37.5349 39.1703 36.6568 39.4201C36.0437 39.7267 35.6918 40.2092 35.466 40.8386C35.343 41.5906 35.5305 42.0494 35.9467 42.659C36.3661 43.1441 36.9139 43.3211 37.5239 43.4452C37.8238 43.4624 38.124 43.4763 38.4242 43.4881C39.8614 43.5866 40.9699 44.0016 42.0511 44.9543C42.1358 45.0262 42.2205 45.0982 42.3078 45.1724C43.2873 46.0676 43.8908 47.323 44.0066 48.6444C44.0593 50.0763 43.7727 51.3978 42.8394 52.5173C42.1162 53.2922 41.498 53.8507 40.4906 54.2231C39.9457 54.4109 39.9457 54.4109 39.542 54.7932C39.4507 55.0301 39.3782 55.274 39.3073 55.5178C38.9764 55.9835 38.799 56.0566 38.2355 56.1951C37.6373 56.2409 37.2212 56.0983 36.7007 55.7921C36.4488 55.4646 36.3044 55.2403 36.2576 54.8286C36.1736 54.5226 36.1736 54.5226 35.8267 54.3972C35.6879 54.3511 35.5491 54.3049 35.406 54.2574C34.0307 53.7226 32.9838 52.715 32.3107 51.4021C31.9153 50.4776 31.7562 49.5218 31.8992 48.5212C32.1198 48.0719 32.2984 47.8155 32.688 47.5094C33.3278 47.3317 33.8801 47.3285 34.48 47.5951C35.0025 48.0132 35.2309 48.4181 35.3975 49.0613C35.6707 50.0156 35.9606 50.4788 36.8379 50.9906C37.5877 51.2405 38.3526 51.2373 39.0844 50.9391C39.2032 50.8655 39.3221 50.792 39.4445 50.7162C39.5464 50.6766 39.6482 50.637 39.7532 50.5961C40.0915 50.3786 40.1459 50.1305 40.2676 49.7559C40.3129 49.6653 40.3582 49.5748 40.4048 49.4815C40.5045 48.7838 40.3041 48.3671 39.9241 47.8031C39.5084 47.3124 38.9582 47.1365 38.347 47.0121C38.0471 46.9949 37.7469 46.981 37.4467 46.9692C36.0095 46.8707 34.901 46.4557 33.8198 45.503C33.7351 45.431 33.6504 45.3591 33.5631 45.2849C32.5836 44.3897 31.9801 43.1343 31.8643 41.8129C31.8116 40.381 32.0982 39.0595 33.0315 37.94C33.7555 37.1641 34.3686 36.6082 35.3803 36.2428C35.9423 36.0488 35.9423 36.0488 36.3288 35.6287C36.4295 35.3379 36.4295 35.3379 36.4955 35.0494C36.5636 34.8023 36.5636 34.8023 36.8294 34.5365C37.6253 34.1265 38.4358 34.1452 39.153 34.6909Z" fill="#D1AE62"/>
<path d="M24.731 16.7878C26.0155 17.9942 26.881 19.6977 26.993 21.4607C27.0511 23.6838 26.4993 25.4916 24.9625 27.1455C23.2965 28.7412 21.4822 29.1277 19.2681 29.0833C17.4481 29.0003 15.8644 28.0877 14.6278 26.7832C13.2502 25.1168 12.8046 23.3453 12.9381 21.2293C13.1141 19.5118 14.0383 17.8576 15.2993 16.6935C18.1804 14.4955 21.9082 14.4609 24.731 16.7878ZM17.0827 19.8488C16.4152 20.787 16.2518 21.7354 16.3968 22.8669C16.7892 24.114 17.4439 24.863 18.5918 25.4735C19.4942 25.7743 20.6844 25.7934 21.5499 25.3706C21.71 25.2722 21.8676 25.1697 22.0215 25.0619C22.1432 24.9855 22.2649 24.9091 22.3902 24.8304C23.11 24.1107 23.546 23.1802 23.5735 22.1638C23.5602 21.0482 23.1414 20.1874 22.3934 19.3692C21.6473 18.7133 20.712 18.4224 19.7274 18.4389C18.6954 18.5645 17.7709 19.0783 17.0827 19.8488Z" fill="#D1AE62"/>
</svg>
