<svg width="79" height="73" viewBox="0 0 79 73" fill="none" xmlns="http://www.w3.org/2000/svg">
<path fill-rule="evenodd" clip-rule="evenodd" d="M43.5861 0.0100482C27.0595 -0.356766 11.3351 9.34341 6.38737 25.1831C1.57451 40.591 9.94924 56.3436 23.0764 65.6697C35.6503 74.6028 52.4296 75.8594 64.8578 66.723C77.1587 57.68 80.6954 41.3093 76.0465 26.7292C71.3297 11.9361 59.0497 0.353268 43.5861 0.0100482Z" fill="#F1E9D0"/>
<path d="M8.77182 10.0031C8.98473 10.0026 9.19764 10.0019 9.41055 10.0009C9.99266 9.99908 10.5747 10.0004 11.1568 10.0022C11.7858 10.0036 12.4147 10.0021 13.0436 10.0009C14.2744 9.99917 15.5052 10.0001 16.7361 10.002C18.17 10.0042 19.6039 10.0038 21.0378 10.0033C23.5964 10.0025 26.155 10.0043 28.7137 10.0075C31.1955 10.0105 33.6774 10.0114 36.1592 10.0101C38.8631 10.0086 41.5669 10.0084 44.2708 10.0102C44.5592 10.0104 44.8475 10.0106 45.1359 10.0108C45.2778 10.0109 45.4197 10.011 45.5659 10.0111C46.565 10.0117 47.5641 10.0114 48.5633 10.0109C49.781 10.0103 50.9988 10.011 52.2165 10.0135C52.8377 10.0148 53.4588 10.0154 54.0799 10.0144C54.6489 10.0135 55.2178 10.0144 55.7867 10.0167C55.9922 10.0172 56.1976 10.0171 56.4031 10.0162C58.3042 10.0092 59.6409 10.3139 61.0737 11.6021C61.8854 12.4479 62.3958 13.6038 62.3953 14.7729C62.3955 14.9058 62.3958 15.0387 62.396 15.1757C62.3957 15.3215 62.3953 15.4674 62.3949 15.6177C62.3951 15.8503 62.3951 15.8503 62.3953 16.0876C62.3954 16.5182 62.395 16.9487 62.3944 17.3793C62.3938 17.8436 62.394 18.3079 62.3941 18.7722C62.3942 19.5766 62.3938 20.3811 62.3931 21.1855C62.3921 22.3486 62.3917 23.5117 62.3916 24.6748C62.3913 26.5618 62.3904 28.4488 62.3892 30.3358C62.3881 32.169 62.3872 34.0022 62.3867 35.8354C62.3866 36.0048 62.3866 36.0048 62.3866 36.1777C62.3864 36.7445 62.3862 37.3112 62.3861 37.878C62.3848 42.5806 62.3825 47.2833 62.3797 51.986C62.4912 51.9816 62.6027 51.9771 62.7176 51.9726C62.8647 51.9692 63.0118 51.9658 63.1633 51.9622C63.3088 51.9578 63.4542 51.9534 63.6041 51.9489C64.0682 51.9897 64.2916 52.0857 64.6593 52.3659C65.1779 53.1439 64.9908 54.381 64.8344 55.2852C64.263 58.0389 62.622 60.4297 60.2861 61.9726C58.7641 62.9384 57.0298 63.5248 55.2219 63.5276C55.0571 63.5282 54.8922 63.5288 54.7224 63.5294C54.5404 63.5293 54.3584 63.5293 54.1764 63.5293C53.9823 63.5297 53.7882 63.5302 53.5942 63.5307C53.0612 63.532 52.5282 63.5324 51.9953 63.5328C51.4203 63.5333 50.8453 63.5345 50.2703 63.5356C48.8818 63.5381 47.4933 63.5394 46.1048 63.5405C45.4504 63.541 44.796 63.5417 44.1416 63.5424C41.9653 63.5445 39.7889 63.5464 37.6126 63.5473C37.0481 63.5475 36.4835 63.5478 35.919 63.548C35.7085 63.5481 35.7085 63.5481 35.4938 63.5482C33.2222 63.5493 30.9506 63.5525 28.679 63.5566C26.3452 63.5608 24.0113 63.5631 21.6774 63.5635C20.3677 63.5637 19.058 63.5648 17.7483 63.5681C16.6327 63.5708 15.517 63.5718 14.4013 63.5706C13.8326 63.57 13.264 63.5703 12.6954 63.5727C12.1735 63.575 11.6516 63.5748 11.1297 63.5729C10.9422 63.5726 10.7547 63.5731 10.5672 63.5746C8.89261 63.5873 7.22093 63.3362 5.7299 62.5291C5.64673 62.4857 5.56355 62.4423 5.47785 62.3976C3.05459 61.0995 1.26879 59.065 0.408844 56.4368C0.145157 55.5437 0.0231498 54.666 0.00714232 53.7352C0.00478535 53.6457 0.00242839 53.5562 0 53.464C0.00558619 53.0139 0.062363 52.7587 0.303966 52.3753C0.768712 51.9282 1.18629 51.9719 1.80392 51.9781C1.95329 51.9792 2.10267 51.9803 2.25657 51.9815C2.37101 51.983 2.48545 51.9845 2.60336 51.986C2.60312 51.9062 2.60288 51.8263 2.60263 51.7441C2.58845 47.0105 2.57759 42.2768 2.57102 37.5432C2.57023 36.9744 2.56941 36.4057 2.56858 35.8369C2.56841 35.7237 2.56824 35.6105 2.56807 35.4938C2.56532 33.662 2.56033 31.8302 2.55451 29.9984C2.54858 28.118 2.54506 26.2375 2.54378 24.357C2.54291 23.1972 2.54018 22.0375 2.53503 20.8777C2.53167 20.0818 2.53067 19.2858 2.53149 18.4898C2.53189 18.031 2.53129 17.5723 2.52788 17.1134C2.5242 16.6148 2.52549 16.1163 2.52721 15.6177C2.52537 15.4743 2.52352 15.3309 2.52162 15.1831C2.53453 13.7975 3.01069 12.4605 3.99645 11.4596C5.45037 10.2131 6.92407 9.99116 8.77182 10.0031ZM5.79323 13.6126C5.71927 13.6988 5.64532 13.785 5.56912 13.8738C4.32264 15.577 5.2629 18.0875 5.2629 20.1981C23.2338 20.1981 41.2047 20.1981 59.7202 20.1981C60.2236 15.1054 60.2236 15.1054 59.0869 13.486C58.4378 12.8843 57.976 12.6945 57.0918 12.6939C57.0055 12.6934 56.9192 12.693 56.8303 12.6926C56.5397 12.6916 56.2491 12.6923 55.9585 12.6931C55.7486 12.6927 55.5387 12.6922 55.3289 12.6916C54.751 12.6903 54.1731 12.6906 53.5953 12.6911C52.9725 12.6914 52.3497 12.6903 51.7269 12.6893C50.5064 12.6877 49.2858 12.6875 48.0653 12.6878C47.0734 12.688 46.0816 12.6878 45.0898 12.6873C44.9488 12.6872 44.8077 12.6871 44.6625 12.687C44.376 12.6869 44.0896 12.6867 43.8032 12.6866C41.1152 12.6852 38.4271 12.6855 35.7391 12.6862C33.2787 12.6869 30.8183 12.6855 28.3579 12.6831C25.8331 12.6806 23.3084 12.6796 20.7836 12.68C19.3655 12.6803 17.9474 12.68 16.5293 12.6782C15.3221 12.6767 14.1148 12.6765 12.9075 12.678C12.2913 12.6788 11.6752 12.6789 11.059 12.6774C10.4951 12.676 9.93126 12.6764 9.36739 12.6782C9.1632 12.6785 8.959 12.6782 8.7548 12.6772C8.47754 12.6759 8.20037 12.677 7.92311 12.6786C7.76902 12.6786 7.61493 12.6786 7.45616 12.6786C6.7331 12.7603 6.25455 13.0628 5.79323 13.6126ZM5.2629 22.8577C5.2629 32.47 5.2629 42.0823 5.2629 51.986C9.40038 51.986 13.5379 51.986 17.8007 51.986C17.8007 48.2664 17.8007 44.5469 17.8007 40.7146C17.4246 40.5892 17.0485 40.4638 16.6609 40.3346C16.3691 40.1625 16.3691 40.1625 16.1702 39.9864C16.1026 39.9296 16.035 39.8727 15.9654 39.8142C15.4023 39.1082 15.3364 38.398 15.3396 37.5292C15.3389 37.4204 15.3382 37.3116 15.3376 37.1995C15.3367 36.9706 15.3369 36.7416 15.338 36.5127C15.3391 36.1647 15.3354 35.8169 15.3314 35.469C15.3312 35.2454 15.3313 35.0219 15.3317 34.7984C15.3302 34.6956 15.3288 34.5928 15.3273 34.4869C15.337 33.6883 15.5365 33.0252 16.0709 32.4156C16.9869 31.5781 18.132 31.6809 19.2962 31.6704C19.4653 31.668 19.6344 31.6655 19.8035 31.6629C20.2459 31.6565 20.6883 31.6514 21.1308 31.6467C21.5833 31.6416 22.0358 31.6351 22.4883 31.6288C23.3742 31.6166 24.2602 31.6059 25.1461 31.5962C25.1194 31.4689 25.1194 31.4689 25.0921 31.3392C25.0574 31.1706 25.0574 31.1706 25.022 30.9986C24.9989 30.8876 24.9759 30.7767 24.9521 30.6624C24.7278 29.4035 24.9975 28.2092 25.7155 27.1483C26.4306 26.2549 27.2898 25.748 28.3756 25.4222C29.9133 25.2685 31.1281 25.5867 32.3649 26.5304C32.655 26.3863 32.9435 26.2397 33.2311 26.0906C33.3606 26.0241 33.49 25.9577 33.6234 25.8892C33.7525 25.8225 33.8817 25.7557 34.0147 25.6869C35.0466 25.2218 36.1895 25.2836 37.2471 25.6389C38.3872 26.1226 39.2471 26.8837 39.7499 28.0184C40.0991 28.9858 40.1446 29.8715 39.9646 30.8808C39.9409 31.0154 39.9173 31.1501 39.8929 31.2888C39.8652 31.4409 39.8652 31.4409 39.8369 31.5962C39.928 31.5969 40.0191 31.5976 40.1129 31.5984C40.9755 31.6058 41.838 31.6149 42.7006 31.626C43.1439 31.6316 43.5872 31.6366 44.0306 31.64C44.5415 31.644 45.0523 31.6509 45.5631 31.658C45.7207 31.6588 45.8783 31.6596 46.0406 31.6604C47.0699 31.6777 48.021 31.7591 48.8762 32.3798C49.553 33.105 49.6466 33.9156 49.639 34.8652C49.6394 34.9682 49.6398 35.0711 49.6401 35.1772C49.6404 35.3935 49.6397 35.6098 49.6381 35.826C49.6361 36.1545 49.6381 36.4828 49.6405 36.8113C49.6403 37.0228 49.6398 37.2342 49.639 37.4456C49.6398 37.5424 49.6406 37.6393 49.6414 37.7391C49.6315 38.5024 49.4906 39.203 49.0177 39.8266C48.3912 40.3396 48.0179 40.436 47.1823 40.7146C47.1823 44.4341 47.1823 48.1537 47.1823 51.986C51.3198 51.986 55.4573 51.986 59.7202 51.986C59.7202 42.3736 59.7202 32.7613 59.7202 22.8577C41.7493 22.8577 23.7784 22.8577 5.2629 22.8577ZM27.8294 28.6437C27.5034 29.1374 27.3705 29.4863 27.4257 30.0764C27.5906 30.6362 27.8132 30.9854 28.2534 31.3706C28.8367 31.6705 29.2985 31.653 29.9428 31.6278C30.0541 31.6255 30.1655 31.6232 30.2802 31.6209C30.553 31.615 30.8257 31.6059 31.0984 31.5962C31.1122 31.2108 31.1222 30.826 31.1301 30.4405C31.1343 30.3321 31.1386 30.2237 31.143 30.112C31.1539 29.4017 31.0808 28.9849 30.5919 28.43C30.1851 28.1276 29.7451 27.9512 29.2463 27.868C28.646 27.9786 28.2681 28.2246 27.8294 28.6437ZM34.2329 28.6042C33.787 29.273 33.7237 29.8294 33.7421 30.6226C33.7433 30.7164 33.7444 30.8102 33.7456 30.9068C33.7486 31.1366 33.7531 31.3664 33.758 31.5962C34.1643 31.611 34.5705 31.6199 34.9769 31.6278C35.0914 31.6321 35.2058 31.6363 35.3237 31.6407C36.0525 31.6513 36.4765 31.5856 37.0507 31.0896C37.4269 30.6096 37.547 30.1785 37.5573 29.5698C37.3503 28.9158 37.0262 28.3883 36.4175 28.0501C35.5231 27.8116 34.8897 27.9108 34.2329 28.6042ZM17.9274 34.2557C17.9274 35.5095 17.9274 36.7633 17.9274 38.055C27.5397 38.055 37.1521 38.055 47.0557 38.055C47.0557 36.8013 47.0557 35.5475 47.0557 34.2557C37.4433 34.2557 27.831 34.2557 17.9274 34.2557ZM20.4603 40.7146C20.4603 44.4341 20.4603 48.1537 20.4603 51.986C22.926 51.986 25.3918 51.986 27.9323 51.986C27.9323 48.2664 27.9323 44.5469 27.9323 40.7146C25.4665 40.7146 23.0008 40.7146 20.4603 40.7146ZM30.5919 40.7146C30.5919 44.4341 30.5919 48.1537 30.5919 51.986C31.8456 51.986 33.0994 51.986 34.3912 51.986C34.3912 48.2664 34.3912 44.5469 34.3912 40.7146C33.1374 40.7146 31.8836 40.7146 30.5919 40.7146ZM36.9241 40.7146C36.9241 44.4341 36.9241 48.1537 36.9241 51.986C39.4317 51.986 41.9392 51.986 44.5228 51.986C44.5228 48.2664 44.5228 44.5469 44.5228 40.7146C42.0152 40.7146 39.5076 40.7146 36.9241 40.7146ZM2.85665 54.6455C2.96233 55.491 3.0483 55.9294 3.41072 56.6402C3.45516 56.7275 3.49959 56.8148 3.54537 56.9048C4.60747 58.8909 6.30474 60.0427 8.42902 60.7245C8.91493 60.8415 9.36643 60.8672 9.86575 60.8677C10.1104 60.8685 10.1104 60.8685 10.36 60.8692C10.5408 60.8691 10.7215 60.869 10.9023 60.8689C11.0945 60.8692 11.2867 60.8696 11.479 60.87C12.0074 60.8711 12.5359 60.8713 13.0643 60.8714C13.6342 60.8716 14.2041 60.8726 14.774 60.8734C16.0203 60.8751 17.2666 60.8759 18.5129 60.8765C19.2913 60.8768 20.0697 60.8773 20.8481 60.8779C23.0037 60.8795 25.1592 60.8808 27.3148 60.8812C27.4527 60.8812 27.5907 60.8812 27.7328 60.8813C27.8711 60.8813 28.0094 60.8813 28.1519 60.8814C28.4321 60.8814 28.7123 60.8815 28.9926 60.8815C29.1316 60.8816 29.2706 60.8816 29.4138 60.8816C31.6652 60.8821 33.9167 60.8843 36.1682 60.8873C38.4803 60.8903 40.7924 60.8919 43.1045 60.892C44.4024 60.8921 45.7003 60.8928 46.9983 60.8951C48.1037 60.8971 49.2091 60.8977 50.3145 60.8967C50.8782 60.8962 51.4419 60.8963 52.0056 60.8981C52.5224 60.8997 53.0392 60.8996 53.556 60.898C53.7422 60.8978 53.9284 60.8982 54.1147 60.8993C56.4301 60.9122 58.3918 60.3141 60.1001 58.6981C61.0938 57.6476 62.1264 56.1387 62.1264 54.6455C42.5674 54.6455 23.0084 54.6455 2.85665 54.6455Z" fill="#D1AE62"/>
<path d="M25.0806 15.0536C25.2142 15.0528 25.3479 15.052 25.4855 15.0512C25.9333 15.0492 26.3809 15.0518 26.8287 15.0544C27.1497 15.054 27.4707 15.0533 27.7916 15.0523C28.573 15.0507 29.3542 15.052 30.1355 15.0547C31.0454 15.0577 31.9553 15.0575 32.8652 15.0572C34.4887 15.0567 36.1121 15.0594 37.7356 15.0637C39.3108 15.0679 40.8861 15.0697 42.4614 15.0689C44.177 15.068 45.8926 15.0683 47.6082 15.0708C47.699 15.071 47.7897 15.0711 47.8831 15.0712C48.0654 15.0715 48.2476 15.0718 48.4298 15.072C49.064 15.0729 49.6983 15.073 50.3325 15.0728C51.186 15.0726 52.0395 15.0745 52.8931 15.0778C53.2067 15.0787 53.5203 15.0789 53.8339 15.0785C54.2613 15.0781 54.6886 15.0799 55.1159 15.0824C55.2407 15.0817 55.3655 15.081 55.494 15.0803C56.1182 15.0866 56.5568 15.0996 57.0606 15.5123C57.3863 15.9466 57.3775 16.3784 57.3139 16.9054C57.0879 17.2818 56.8261 17.5925 56.4274 17.7919C56.2485 17.804 56.069 17.8082 55.8897 17.8085C55.7762 17.809 55.6627 17.8095 55.5458 17.81C55.3576 17.8098 55.3576 17.8098 55.1656 17.8097C55.0329 17.81 54.9002 17.8104 54.7635 17.8108C54.316 17.8119 53.8684 17.8121 53.4209 17.8123C53.1012 17.8129 52.7816 17.8135 52.4619 17.8142C51.5913 17.8158 50.7208 17.8167 49.8502 17.8172C49.3068 17.8176 48.7635 17.8181 48.2201 17.8187C46.7162 17.8202 45.2122 17.8215 43.7083 17.822C43.5639 17.822 43.5639 17.822 43.4165 17.822C43.32 17.8221 43.2235 17.8221 43.124 17.8221C42.9284 17.8222 42.7328 17.8222 42.5372 17.8223C42.3916 17.8223 42.3916 17.8223 42.2432 17.8224C40.6708 17.8229 39.0985 17.8251 37.5261 17.828C35.9125 17.831 34.299 17.8326 32.6854 17.8328C31.7791 17.8329 30.8729 17.8336 29.9666 17.8359C29.1143 17.8381 28.2621 17.8383 27.4098 17.8372C27.0966 17.8371 26.7834 17.8376 26.4702 17.8389C26.0433 17.8405 25.6166 17.8397 25.1898 17.8384C25.0028 17.8399 25.0028 17.8399 24.8121 17.8415C24.1872 17.8369 23.7507 17.8248 23.2465 17.4119C22.9248 17.0367 22.834 16.7562 22.8586 16.2721C22.8906 15.8659 23.0133 15.7438 23.2973 15.4375C23.8434 14.9987 24.4061 15.045 25.0806 15.0536Z" fill="#D1AE62"/>
<path d="M9.44217 15.1324C9.84729 15.3724 10.1212 15.5561 10.295 16.0065C10.3913 16.5079 10.3481 16.7399 10.115 17.2062C9.72492 17.6489 9.52617 17.7695 8.94351 17.8315C8.50075 17.7863 8.27638 17.6774 7.92243 17.412C7.58276 16.9025 7.58196 16.491 7.66914 15.8922C8.11685 15.1512 8.60131 15.0468 9.44217 15.1324Z" fill="#D1AE62"/>
<path d="M19.93 15.2907C20.3747 15.6464 20.4428 15.8838 20.5157 16.4463C20.4422 17.0555 20.2559 17.2364 19.8271 17.6652C19.3788 17.8894 18.9057 17.7962 18.434 17.6652C18.1014 17.4387 18.0107 17.2711 17.8007 16.9054C17.7307 16.4067 17.7549 16.1221 17.959 15.6627C18.4744 15.0185 19.1834 14.9588 19.93 15.2907Z" fill="#D1AE62"/>
<path d="M14.508 15.1323C14.8844 15.3584 15.1951 15.6202 15.3945 16.0189C15.3996 16.5507 15.3535 17.0159 15.0779 17.4753C14.6093 17.7564 14.1645 17.8171 13.6215 17.7919C13.2432 17.639 13.0644 17.5135 12.822 17.1903C12.6549 16.6435 12.6608 16.1856 12.8932 15.6627C13.3448 15.0983 13.7992 15.0468 14.508 15.1323Z" fill="#D1AE62"/>
</svg>
