<svg width="24" height="25" viewBox="0 0 24 25" fill="none" xmlns="http://www.w3.org/2000/svg">
<g clip-path="url(#clip0_531_13959)">
<path d="M1 6.60009H23C23.2652 6.60009 23.5196 6.49474 23.7071 6.3072C23.8946 6.11967 24 5.86531 24 5.6001C24 5.33488 23.8946 5.08053 23.7071 4.89299C23.5196 4.70545 23.2652 4.6001 23 4.6001H1C0.734784 4.6001 0.48043 4.70545 0.292893 4.89299C0.105357 5.08053 0 5.33488 0 5.6001C0 5.86531 0.105357 6.11967 0.292893 6.3072C0.48043 6.49474 0.734784 6.60009 1 6.60009Z" fill="#374957"/>
<path d="M23 9.6001H1C0.734784 9.6001 0.48043 9.70545 0.292893 9.89299C0.105357 10.0805 0 10.3349 0 10.6001C0 10.8653 0.105357 11.1197 0.292893 11.3072C0.48043 11.4947 0.734784 11.6001 1 11.6001H23C23.2652 11.6001 23.5196 11.4947 23.7071 11.3072C23.8946 11.1197 24 10.8653 24 10.6001C24 10.3349 23.8946 10.0805 23.7071 9.89299C23.5196 9.70545 23.2652 9.6001 23 9.6001Z" fill="#374957"/>
<path d="M23 19.6001H1C0.734784 19.6001 0.48043 19.7055 0.292893 19.893C0.105357 20.0805 0 20.3349 0 20.6001C0 20.8653 0.105357 21.1197 0.292893 21.3072C0.48043 21.4948 0.734784 21.6001 1 21.6001H23C23.2652 21.6001 23.5196 21.4948 23.7071 21.3072C23.8946 21.1197 24 20.8653 24 20.6001C24 20.3349 23.8946 20.0805 23.7071 19.893C23.5196 19.7055 23.2652 19.6001 23 19.6001Z" fill="#374957"/>
<path d="M23 14.6001H1C0.734784 14.6001 0.48043 14.7055 0.292893 14.893C0.105357 15.0805 0 15.3349 0 15.6001C0 15.8653 0.105357 16.1197 0.292893 16.3072C0.48043 16.4948 0.734784 16.6001 1 16.6001H23C23.2652 16.6001 23.5196 16.4948 23.7071 16.3072C23.8946 16.1197 24 15.8653 24 15.6001C24 15.3349 23.8946 15.0805 23.7071 14.893C23.5196 14.7055 23.2652 14.6001 23 14.6001Z" fill="#374957"/>
</g>
<defs>
<clipPath id="clip0_531_13959">
<rect width="24" height="24" fill="white" transform="translate(0 0.600098)"/>
</clipPath>
</defs>
</svg>
