<svg width="68" height="68" viewBox="0 0 68 68" fill="none" xmlns="http://www.w3.org/2000/svg">
<circle cx="34" cy="34" r="34" fill="#D1AE62"/>
<path d="M36.6582 28.6764H39.3273V31.347C39.3273 32.0814 39.9278 32.6823 40.6618 32.6823C41.3958 32.6823 41.9964 32.0814 41.9964 31.347V28.6764H44.6655C45.3995 28.6764 46 28.0756 46 27.3411C46 26.6067 45.3995 26.0059 44.6655 26.0059H41.9964V23.3353C41.9964 22.6009 41.3958 22 40.6618 22C39.9278 22 39.3273 22.6009 39.3273 23.3353V26.0059H36.6582C35.9242 26.0059 35.3236 26.6067 35.3236 27.3411C35.3236 28.0756 35.9242 28.6764 36.6582 28.6764ZM43.6112 38.384L40.2214 37.9967C39.8228 37.9499 39.4188 37.994 39.0398 38.1259C38.6607 38.2577 38.3164 38.4738 38.0328 38.7578L35.5772 41.2148C31.789 39.2865 28.7097 36.2056 26.7826 32.4152L29.2515 29.945C29.8253 29.3708 30.1056 28.5563 30.0122 27.7551L29.6251 24.3902C29.5531 23.7385 29.244 23.1362 28.7567 22.6979C28.2694 22.2596 27.638 22.0159 26.9828 22.0134H24.674C23.166 22.0134 21.9115 23.2685 22.0049 24.7774C22.7122 36.1807 31.8271 45.2874 43.2108 45.9951C44.7188 46.0886 45.9733 44.8334 45.9733 43.3245V41.0145C45.9867 39.6792 44.9591 38.5308 43.6112 38.384Z" fill="white"/>
</svg>
