<svg width="24" height="25" viewBox="0 0 24 25" fill="none" xmlns="http://www.w3.org/2000/svg">
<path d="M16.0962 20.9753H12.4166C12.745 21.6603 12.8052 22.349 12.5342 23.0509C12.3112 23.6276 11.931 24.0764 11.3955 24.3897C10.3782 24.9853 9.07952 24.8093 8.27867 23.9578C7.49381 23.1224 7.18137 21.8023 8.04434 20.6112C7.33006 20.1756 6.91881 19.5349 6.80777 18.7116C6.69578 17.8799 6.95551 17.1639 7.54745 16.5524C7.5211 16.5232 7.49663 16.4893 7.46464 16.4639C6.83882 15.9606 6.4511 15.317 6.26477 14.5342C5.97491 13.313 5.65871 12.0974 5.35381 10.879C4.91526 9.12805 4.47955 7.37617 4.03818 5.62523C3.9149 5.13787 3.80762 4.64298 3.63917 4.17161C3.28532 3.17995 2.57575 2.54393 1.5641 2.26073C1.29966 2.18734 1.02016 2.15912 0.744422 2.13748C0.361404 2.10643 0.0819051 1.89379 0.0122656 1.54568C-0.0592561 1.18815 0.189188 0.806162 0.570323 0.758179C0.836647 0.725249 1.11803 0.740302 1.38529 0.7817C2.41671 0.938823 3.29756 1.40549 4.00901 2.16288C4.60659 2.79702 4.99055 3.5497 5.17971 4.40871C5.34628 5.1661 5.55237 5.91502 5.73776 6.66865C5.75753 6.7505 5.80176 6.75803 5.8714 6.75803C10.5156 6.75615 15.1598 6.75615 19.8049 6.75615C20.9578 6.75615 22.1115 6.75426 23.2643 6.75426C23.6427 6.75426 23.9306 6.96502 23.9918 7.31972C24.0153 7.4552 23.9843 7.60762 23.9494 7.74499C23.4074 9.92495 22.8616 12.104 22.3157 14.283C22.2085 14.7102 22.1143 15.1439 21.881 15.5259C21.3474 16.399 20.5804 16.9447 19.5725 17.1376C19.3513 17.1799 19.1227 17.2025 18.8978 17.2034C15.8016 17.2072 12.7055 17.2053 9.60934 17.2062C9.44936 17.2062 9.2875 17.2062 9.13128 17.2326C8.57322 17.3267 8.1855 17.7933 8.18268 18.3597C8.17985 18.945 8.57134 19.4333 9.13034 19.5302C9.2715 19.5546 9.41737 19.5622 9.56135 19.5622C12.4429 19.5631 15.3235 19.5622 18.2051 19.5622C18.7952 19.5622 19.3579 19.6788 19.8567 20.0044C20.4665 20.4023 20.8025 20.9913 20.9342 21.6941C21.0707 22.4177 20.9022 23.0923 20.4882 23.6869C20.1249 24.2091 19.5951 24.5139 18.9759 24.6625C17.4212 25.0351 16.0915 23.9334 15.8543 22.5531C15.764 22.0281 15.8298 21.5182 16.0783 21.0393C16.0849 21.0261 16.0877 21.0101 16.0981 20.9753H16.0962ZM22.4136 8.1552H6.11608C6.12172 8.19095 6.12266 8.21447 6.12831 8.23611C6.23277 8.65197 6.33817 9.06783 6.44169 9.48369C6.83223 11.0455 7.22184 12.6083 7.61144 14.1701C7.72061 14.6067 7.90129 15.0018 8.24102 15.3104C8.6438 15.6755 9.12751 15.7959 9.65734 15.7959C12.6594 15.794 15.6614 15.7959 18.6634 15.794C18.8356 15.794 19.0079 15.7921 19.1791 15.7818C19.9518 15.7376 20.6547 15.1561 20.8439 14.4025C21.3069 12.5575 21.7671 10.7115 22.2292 8.86649C22.2875 8.63316 22.3506 8.39982 22.4145 8.1552H22.4136ZM18.4517 20.964C17.775 20.9659 17.2189 21.4862 17.2198 22.1175C17.2198 22.81 17.7346 23.3209 18.4319 23.3209C19.085 23.3209 19.6111 22.7884 19.5885 22.1175C19.564 21.3968 19.0276 20.9819 18.4526 20.965L18.4517 20.964ZM11.2958 22.1439C11.3061 21.5257 10.7753 20.9744 10.1693 20.9631C9.36843 20.949 8.92518 21.5982 8.93271 22.1062C8.94401 22.8683 9.44654 23.3134 10.1279 23.3171C10.7283 23.3209 11.2995 22.8759 11.2958 22.1429V22.1439Z" fill="white"/>
</svg>
