<svg width="21" height="18" viewBox="0 0 21 18" fill="none" xmlns="http://www.w3.org/2000/svg">
<path fill-rule="evenodd" clip-rule="evenodd" d="M0.499268 6.9448C0.499268 4.51412 0.499268 3.29878 0.972382 2.36991C1.38851 1.55323 2.0525 0.889246 2.86918 0.473114C3.79805 -1.29357e-07 5.01338 0 7.44406 0H13.0867C15.5174 0 16.7327 -1.29357e-07 17.6616 0.473114C18.4783 0.889246 19.1423 1.55323 19.5584 2.36991C20.0315 3.29878 20.0315 4.51412 20.0315 6.9448V8.24695C20.0315 10.6776 20.0315 11.893 19.5584 12.8218C19.1423 13.6385 18.4783 14.3025 17.6616 14.7186C16.7327 15.1917 15.5174 15.1917 13.0867 15.1917H5.28901C5.00124 15.1918 4.72528 15.3062 4.52182 15.5097L2.35157 17.6799C1.66795 18.3636 0.499268 17.8796 0.499268 16.9128V6.9448ZM7.01001 4.3405C6.72222 4.3405 6.44622 4.45482 6.24272 4.65832C6.03922 4.86182 5.92489 5.13783 5.92489 5.42562C5.92489 5.71342 6.03922 5.98942 6.24272 6.19292C6.44622 6.39642 6.72222 6.51075 7.01001 6.51075H13.5208C13.8086 6.51075 14.0846 6.39642 14.2881 6.19292C14.4916 5.98942 14.6059 5.71342 14.6059 5.42562C14.6059 5.13783 14.4916 4.86182 14.2881 4.65832C14.0846 4.45482 13.8086 4.3405 13.5208 4.3405H7.01001ZM7.01001 8.681C6.72222 8.681 6.44622 8.79532 6.24272 8.99882C6.03922 9.20232 5.92489 9.47833 5.92489 9.76612C5.92489 10.0539 6.03922 10.3299 6.24272 10.5334C6.44622 10.7369 6.72222 10.8512 7.01001 10.8512H10.2654C10.5532 10.8512 10.8292 10.7369 11.0327 10.5334C11.2362 10.3299 11.3505 10.0539 11.3505 9.76612C11.3505 9.47833 11.2362 9.20232 11.0327 8.99882C10.8292 8.79532 10.5532 8.681 10.2654 8.681H7.01001Z" fill="#6A6A6A"/>
</svg>
