<svg width="20" height="20" viewBox="0 0 20 20" fill="none" xmlns="http://www.w3.org/2000/svg">
<path d="M10.75 7.75C12.683 7.75 14.25 6.183 14.25 4.25C14.25 2.317 12.683 0.75 10.75 0.75C8.817 0.75 7.25 2.317 7.25 4.25C7.25 6.183 8.817 7.75 10.75 7.75Z" fill="white"/>
<path fill-rule="evenodd" clip-rule="evenodd" d="M10.75 1.5C9.23122 1.5 8 2.73122 8 4.25C8 5.76878 9.23122 7 10.75 7C12.2688 7 13.5 5.76878 13.5 4.25C13.5 2.73122 12.2688 1.5 10.75 1.5ZM6.5 4.25C6.5 1.90279 8.40279 0 10.75 0C13.0972 0 15 1.90279 15 4.25C15 6.59721 13.0972 8.5 10.75 8.5C8.40279 8.5 6.5 6.59721 6.5 4.25Z" fill="white"/>
<path fill-rule="evenodd" clip-rule="evenodd" d="M9.75 12C5.10821 12 1.5 15.3263 1.5 19.25C1.5 19.6642 1.16421 20 0.75 20C0.335786 20 0 19.6642 0 19.25C0 14.3367 4.45079 10.5 9.75 10.5C10.1642 10.5 10.5 10.8358 10.5 11.25C10.5 11.6642 10.1642 12 9.75 12Z" fill="white"/>
<path d="M12.25 14.25H19.25V19.25H12.25V14.25Z" fill="white"/>
<path fill-rule="evenodd" clip-rule="evenodd" d="M11.5 14.25C11.5 13.8358 11.8358 13.5 12.25 13.5H19.25C19.6642 13.5 20 13.8358 20 14.25V19.25C20 19.6642 19.6642 20 19.25 20H12.25C11.8358 20 11.5 19.6642 11.5 19.25V14.25ZM13 15V18.5H18.5V15H13Z" fill="white"/>
<path fill-rule="evenodd" clip-rule="evenodd" d="M14.159 11.159C14.581 10.7371 15.1533 10.5 15.75 10.5C16.3467 10.5 16.919 10.7371 17.341 11.159C17.7629 11.581 18 12.1533 18 12.75V14.25C18 14.6642 17.6642 15 17.25 15C16.8358 15 16.5 14.6642 16.5 14.25V12.75C16.5 12.5511 16.421 12.3603 16.2803 12.2197C16.1397 12.079 15.9489 12 15.75 12C15.5511 12 15.3603 12.079 15.2197 12.2197C15.079 12.3603 15 12.5511 15 12.75V14.25C15 14.6642 14.6642 15 14.25 15C13.8358 15 13.5 14.6642 13.5 14.25V12.75C13.5 12.1533 13.7371 11.581 14.159 11.159Z" fill="white"/>
</svg>
