<svg width="14" height="24" viewBox="0 0 14 24" fill="none" xmlns="http://www.w3.org/2000/svg">
<path d="M0.756483 11.2523L12.2668 0.285218C12.4588 0.102134 12.714 1.15993e-08 12.9793 0C13.2447 -1.15974e-08 13.4998 0.102134 13.6919 0.285218L13.7043 0.29761C13.7977 0.386366 13.8721 0.4932 13.9229 0.611614C13.9738 0.730028 14 0.857546 14 0.986411C14 1.11528 13.9738 1.24279 13.9229 1.36121C13.8721 1.47962 13.7977 1.58646 13.7043 1.67521L2.86523 12.0021L13.7043 22.3248C13.7977 22.4135 13.8721 22.5204 13.9229 22.6388C13.9738 22.7572 14 22.8847 14 23.0136C14 23.1425 13.9738 23.27 13.9229 23.3884C13.8721 23.5068 13.7977 23.6136 13.7043 23.7024L13.6919 23.7148C13.4998 23.8979 13.2447 24 12.9793 24C12.714 24 12.4588 23.8979 12.2668 23.7148L0.756484 12.7477C0.655255 12.6512 0.574666 12.5352 0.519602 12.4067C0.464538 12.2782 0.436144 12.1398 0.436144 12C0.436144 11.8602 0.464537 11.7218 0.519601 11.5933C0.574665 11.4648 0.655254 11.3488 0.756483 11.2523Z" fill="white" fill-opacity="0.5"/>
</svg>
