<svg width="14" height="24" viewBox="0 0 14 24" fill="none" xmlns="http://www.w3.org/2000/svg">
<path d="M13.2435 11.2523L1.73321 0.285218C1.54115 0.102134 1.28599 1.15993e-08 1.02066 0C0.755316 -1.15974e-08 0.500159 0.102134 0.308104 0.285218L0.295711 0.29761C0.202283 0.386366 0.12789 0.4932 0.0770533 0.611614C0.0262168 0.730028 9.68471e-07 0.857546 9.62838e-07 0.986411C9.57206e-07 1.11528 0.0262168 1.24279 0.0770533 1.36121C0.12789 1.47962 0.202283 1.58646 0.295711 1.67521L11.1348 12.0021L0.29571 22.3248C0.202283 22.4135 0.127889 22.5204 0.0770523 22.6388C0.0262158 22.7572 5.63287e-09 22.8847 0 23.0136C-5.63287e-09 23.1425 0.0262158 23.27 0.0770523 23.3884C0.127889 23.5068 0.202282 23.6136 0.29571 23.7024L0.308103 23.7148C0.500158 23.8979 0.755315 24 1.02065 24C1.28599 24 1.54115 23.8979 1.73321 23.7148L13.2435 12.7477C13.3447 12.6512 13.4253 12.5352 13.4804 12.4067C13.5355 12.2782 13.5639 12.1398 13.5639 12C13.5639 11.8602 13.5355 11.7218 13.4804 11.5933C13.4253 11.4648 13.3447 11.3488 13.2435 11.2523Z" fill="white" fill-opacity="0.5"/>
</svg>
