<svg width="90" height="95" viewBox="0 0 90 95" fill="none" xmlns="http://www.w3.org/2000/svg">
<path d="M44.5357 0.00421395C45.0028 0.00772514 45.4694 0.00423289 45.9365 5.67652e-05C48.2709 -0.00384424 50.0892 0.189294 51.8304 1.83007C53.2888 3.54255 53.3369 5.58758 53.2988 7.73028C53.5343 7.81512 53.5343 7.81512 53.7746 7.90168C57.7678 9.62181 60.4935 13.6284 62.1875 17.473C64.2897 23.0044 63.9057 28.5618 61.594 33.9269C61.4596 34.2194 61.3251 34.5119 61.1907 34.8044C60.7992 35.6784 60.4644 36.5691 60.141 37.4701C60.0905 37.6107 60.04 37.7513 59.9879 37.8962C59.7785 38.481 59.57 39.066 59.3634 39.6518C59.2103 40.0849 59.055 40.5172 58.8994 40.9493C58.7637 41.3319 58.7637 41.3319 58.6253 41.7221C58.1429 42.8563 57.573 43.7493 56.5596 44.4601C56.413 44.5648 56.2664 44.6695 56.1153 44.7774C55.7601 45.0195 55.4029 45.2586 55.0452 45.4971C54.7925 47.2314 54.8794 48.8602 55.9184 50.2998C56.0059 50.4287 56.0934 50.5576 56.1835 50.6904C57.1006 51.8972 58.3281 52.6149 59.6294 53.3561C59.8171 53.4636 60.0047 53.5711 60.1981 53.6818C61.8286 54.5524 63.5401 55.1609 65.2848 55.7621C68.0168 56.7158 70.307 57.9834 72.2905 60.1235C72.4191 60.2586 72.5477 60.3937 72.6801 60.5329C72.8172 60.6814 72.9542 60.83 73.0954 60.9831C73.2223 61.1202 73.3492 61.2572 73.48 61.3984C73.8859 61.9638 74.063 62.5145 74.2551 63.1798C74.4524 63.1747 74.6496 63.1697 74.8529 63.1645C75.1103 63.1605 75.3678 63.1566 75.6331 63.1525C75.8889 63.1475 76.1447 63.1424 76.4082 63.1372C77.0929 63.1798 77.0929 63.1798 77.7478 63.6164C78.1378 64.9179 77.9432 66.3243 77.7342 67.6414C77.7055 67.8281 77.6768 68.0149 77.6473 68.2072C77.2748 70.426 76.6459 72.7637 75.5649 74.75C75.938 74.7783 75.938 74.7783 76.3187 74.8071C80.4141 75.1553 86.0728 75.9079 89.3174 78.6795C89.5479 79.3998 89.5703 79.533 89.3174 80.2076C85.3252 86.9938 77.532 91.47 70.1237 93.4791C64.2877 94.9469 58.6011 95.162 52.6542 94.3045C51.4715 94.1502 50.489 94.2537 49.3218 94.4964C45.9989 95.1498 42.6676 94.7935 39.3527 94.3045C38.1154 94.1391 37.0536 94.2674 35.8284 94.4964C27.0638 96.111 16.7654 93.7424 9.37425 88.837C1.40558 83.2755 1.40558 83.2755 0.498779 79.389C0.751647 78.4497 1.12796 78.3302 1.934 77.8548C2.72362 77.4352 3.53273 77.112 4.37351 76.8102C4.55301 76.7453 4.7325 76.6804 4.91744 76.6135C7.94948 75.5505 11.0357 75.0567 14.2241 74.75C14.134 74.4843 14.044 74.2187 13.9512 73.945C13.0669 71.2794 12.306 68.7425 12.0957 65.9359C12.0833 65.7851 12.0708 65.6343 12.058 65.479C12.0075 64.6684 11.9934 64.0715 12.4777 63.3981C13.1073 63.0833 13.6603 63.1593 14.3605 63.1662C14.6199 63.1681 14.8794 63.1701 15.1467 63.1721C15.3465 63.1747 15.5463 63.1772 15.7521 63.1798C15.834 62.8915 15.834 62.8915 15.9176 62.5974C16.9827 59.74 19.9808 57.7711 22.625 56.5113C23.5773 56.1176 24.545 55.7873 25.5208 55.4573C29.118 54.238 32.8613 52.7302 34.7438 49.2083C34.996 48.4514 35.0337 47.7802 35.0849 46.9843C35.1031 46.7065 35.1214 46.4288 35.1403 46.1426C35.1535 45.9296 35.1667 45.7166 35.1804 45.4971C35.0186 45.4374 34.8568 45.3778 34.69 45.3163C34.1273 45.0768 33.6919 44.8224 33.2021 44.4601C33.06 44.3577 32.9178 44.2553 32.7714 44.1497C31.6613 43.1168 31.2201 41.8774 30.7616 40.4701C30.6981 40.281 30.6346 40.092 30.5692 39.8972C30.3671 39.2949 30.1677 38.6917 29.9686 38.0883C29.7066 37.2991 29.4434 36.5104 29.179 35.722C29.1148 35.5303 29.0507 35.3386 28.9847 35.1411C28.5882 33.9687 28.1576 32.8175 27.6867 31.6731C25.8059 27.0741 25.9988 21.9118 27.8948 17.3408C29.4369 13.9497 31.778 10.5801 35.194 8.91731C36.1218 8.40335 36.1218 8.40335 36.6428 7.5189C36.803 6.67326 36.8347 5.84632 36.8457 4.98782C36.8896 3.72211 37.4008 2.7555 38.1981 1.79084C38.3323 1.67518 38.4666 1.55952 38.6049 1.44036C38.802 1.26265 38.802 1.26265 39.0031 1.08135C40.74 0.00421235 42.5401 -0.0136293 44.5357 0.00421395ZM40.4194 4.01909C39.9824 4.57534 39.9471 5.11045 39.8652 5.79623C39.832 6.07426 39.7988 6.3523 39.7645 6.63875C39.9818 6.59148 40.199 6.5442 40.4228 6.49549C43.6097 5.84472 46.7975 5.77187 50.0244 6.20214C50.0952 5.18771 50.0174 4.59992 49.3695 3.80078C47.9415 2.94942 46.637 3.0412 45.0173 3.05036C44.7444 3.046 44.4716 3.04164 44.1906 3.03714C42.6749 3.03795 41.638 3.08183 40.4194 4.01909ZM33.0341 14.7527C30.445 18.135 29.2347 22.0279 29.5047 26.2862C29.6169 27.0952 29.7624 27.8908 29.9413 28.6876C30.5921 28.1264 30.8984 27.4864 31.2783 26.7228C33.4337 22.6729 36.7035 20.5933 40.856 18.8911C44.0012 17.556 46.807 15.4731 48.278 12.3147C48.8911 10.7019 48.8911 10.7019 48.7146 9.04011C42.7563 7.8985 36.9688 10.2189 33.0341 14.7527ZM51.7708 10.3499C51.7028 10.6551 51.7028 10.6551 51.6335 10.9665C51.1412 13.0034 50.4496 14.6633 49.3695 16.4625C50.5361 17.3363 51.7051 18.1786 52.9443 18.9454C56.593 21.2144 57.9016 24.1616 59.3616 28.0727C59.5619 28.7122 59.5619 28.7122 60.066 28.9059C60.7628 24.9359 60.6072 21.2106 58.7562 17.554C58.6487 17.3393 58.5412 17.1246 58.4304 16.9034C56.8833 14.0421 54.7463 12.0195 51.989 10.3499C51.917 10.3499 51.845 10.3499 51.7708 10.3499ZM46.0678 19.3005C44.2732 20.5846 42.2525 21.5175 40.2284 22.384C36.8224 23.8835 34.4376 26.3319 33.039 29.7779C32.2866 31.7806 31.6592 33.4918 32.3562 35.5847C32.4311 35.8171 32.4311 35.8171 32.5076 36.0542C32.6141 36.3805 32.722 36.7063 32.8314 37.0317C32.9963 37.5258 33.1527 38.022 33.3086 38.519C34.0543 40.8557 34.0543 40.8557 35.8352 42.4408C36.1579 42.6373 36.1579 42.6373 36.487 42.8377C37.2588 43.2965 38.0388 43.7368 38.8231 44.1736C39.2206 44.397 39.6177 44.6209 40.0148 44.845C40.2761 44.992 40.5376 45.1384 40.7996 45.2841C41.4387 45.6407 42.0653 46.0066 42.6882 46.3917C42.9179 46.5335 43.1476 46.6753 43.3843 46.8214C43.5866 46.9499 43.7889 47.0784 43.9973 47.2107C44.6875 47.5149 44.9526 47.4877 45.6585 47.2435C46.2172 46.9751 46.2172 46.9751 46.7807 46.6304C46.9947 46.5043 47.2088 46.3782 47.4294 46.2483C47.6554 46.1129 47.8814 45.9776 48.1143 45.8382C48.585 45.5593 49.0557 45.2805 49.5264 45.0016C49.7583 44.8636 49.9902 44.7255 50.229 44.5833C50.8292 44.2277 51.4319 43.8773 52.0368 43.5298C52.2056 43.4324 52.3743 43.335 52.5482 43.2347C52.8577 43.0563 53.1676 42.8788 53.4781 42.7022C54.9259 41.861 55.5822 41.0916 56.1477 39.5235C56.2052 39.3685 56.2626 39.2135 56.3218 39.0537C56.442 38.7266 56.561 38.3991 56.6788 38.0711C56.8589 37.5722 57.0451 37.0759 57.232 36.5794C57.3484 36.2602 57.4646 35.9408 57.5803 35.6213C57.636 35.4744 57.6917 35.3274 57.749 35.176C58.4593 33.1545 57.5709 31.4062 56.8597 29.5062C56.7676 29.2521 56.6754 28.998 56.5805 28.7362C55.1835 24.9727 53.637 22.7441 50.2222 20.6998C49.3417 20.1683 48.5428 19.5636 47.7545 18.9031C47.0403 18.377 46.689 18.8288 46.0678 19.3005ZM50.4635 47.8567C50.1307 48.0472 50.1307 48.0472 49.7912 48.2417C49.3214 48.5118 48.8518 48.7824 48.3825 49.0535C48.1598 49.1808 47.937 49.3082 47.7076 49.4394C47.5032 49.5571 47.2988 49.6749 47.0882 49.7962C46.092 50.3069 45.2494 50.3744 44.1304 50.2998C42.7865 49.8646 41.6466 49.2503 40.4467 48.5124C40.1204 48.3129 39.7935 48.1141 39.4661 47.9163C39.253 47.7854 39.253 47.7854 39.0356 47.6518C38.6768 47.4281 38.6768 47.4281 38.2365 47.4618C38.2202 47.6231 38.2038 47.7843 38.187 47.9505C37.8304 50.702 36.6629 52.6852 34.5255 54.4476C31.9192 56.4108 28.9703 57.569 25.9202 58.668C23.2259 59.6428 20.3339 60.8974 19.0265 63.6164C19.1966 63.6656 19.3666 63.7149 19.5418 63.7656C24.2401 65.1389 28.498 66.7291 32.5608 69.5107C32.9517 69.7702 33.3428 70.0295 33.7341 70.2884C33.998 70.4656 34.2618 70.6429 34.5255 70.8205C34.5916 70.5515 34.6577 70.2824 34.7259 70.0053C36.2242 64.0323 39.045 58.9718 43.8124 54.9712C44.4932 54.5837 44.8855 54.5589 45.6585 54.6659C49.876 57.0129 53.1673 62.5865 54.5071 67.0957C54.6979 67.772 54.8735 68.4511 55.0435 69.1329C55.2135 69.7622 55.3751 70.2627 55.7001 70.8205C55.8801 70.6857 56.0602 70.5509 56.2458 70.412C60.7992 67.0521 65.5689 65.1784 70.9807 63.6164C68.8865 60.3452 65.5666 59.1136 62.0499 57.8624C58.3211 56.5172 54.6041 54.583 52.5621 51.0093C52.021 49.8313 51.9185 48.5188 51.7708 47.2435C51.3137 47.2435 50.8426 47.6379 50.4635 47.8567ZM43.5847 59.264C40.4445 62.4157 38.5473 66.2926 37.5816 70.6022C37.5434 70.7719 37.5052 70.9417 37.4658 71.1166C36.5065 76.5189 37.8638 82.2656 40.9515 86.7568C42.1026 88.3321 43.4014 89.7513 44.7853 91.1229C47.9007 89.7229 50.1058 85.4365 51.3342 82.3907C53.2781 76.9445 53.2801 71.051 50.8791 65.749C49.7079 63.3078 48.2045 61.1929 46.3134 59.2503C46.1977 59.1262 46.0821 59.0021 45.9629 58.8743C45.7265 58.6253 45.476 58.3898 45.2219 58.1588C44.4897 58.1588 44.0782 58.7723 43.5847 59.264ZM15.3155 66.2361C15.4678 71.9933 18.945 77.4262 22.7376 81.5174C22.9196 81.715 23.1017 81.9126 23.2893 82.1161C27.5358 86.5349 33.5272 89.8814 39.5462 91.1229C40.0207 91.0356 40.0207 91.0356 40.4194 90.9046C40.2172 90.6619 40.2172 90.6619 40.011 90.4142C36.5822 86.1937 34.5122 81.116 34.4172 75.636C34.1822 74.2099 32.9735 73.4503 31.8786 72.6352C31.7263 72.5217 31.5739 72.4083 31.417 72.2914C28.7454 70.3483 25.8484 68.8636 22.7376 67.7642C22.5054 67.6818 22.2733 67.5993 22.0341 67.5144C19.9128 66.8125 17.5599 66.2361 15.3155 66.2361ZM57.2281 73.4402C57.0285 73.5997 57.0285 73.5997 56.8248 73.7625C56.1652 74.2824 56.1652 74.2824 55.7001 74.9683C55.6578 75.4317 55.6165 75.8953 55.5814 76.3593C55.1815 81.449 53.4689 85.7137 50.461 89.813C50.1654 90.2468 49.8763 90.6843 49.5878 91.1229C50.9397 91.007 52.1396 90.7844 53.4216 90.3452C53.5902 90.288 53.7588 90.2309 53.9325 90.172C55.6949 89.5529 57.3373 88.7421 58.9745 87.8483C59.208 87.7222 59.4416 87.5962 59.6822 87.4663C66.3831 83.7066 71.7027 77.5131 74.0368 70.1656C74.3722 68.8577 74.6917 67.5901 74.6917 66.2361C68.4806 66.2361 61.9131 69.5751 57.2281 73.4402ZM73.2702 78.4075C73.1066 78.6815 72.9485 78.9589 72.7953 79.2389C72.6119 79.5414 72.4265 79.8427 72.2393 80.1428C72.1424 80.2983 72.0454 80.4538 71.9455 80.614C68.6595 85.5636 63.5562 88.9774 58.3196 91.5595C58.3196 91.6315 58.3196 91.7036 58.3196 91.7778C67.7343 92.0278 76.6939 88.8228 83.6281 82.4154C84.2934 81.7337 84.8584 80.998 85.3881 80.2076C82.2858 78.6646 78.9807 78.1404 75.5649 77.8063C75.4008 77.7841 75.2367 77.762 75.0677 77.7393C74.1641 77.661 73.8902 77.7277 73.2702 78.4075ZM13.9238 77.8578C13.3626 77.9213 12.8047 77.9976 12.2458 78.0791C12.0453 78.1083 11.8449 78.1374 11.6384 78.1675C9.18687 78.5418 6.85552 79.109 4.61909 80.2076C8.59444 86.293 16.535 89.6399 23.3609 91.1229C26.1271 91.6833 28.8704 91.8526 31.6876 91.7778C31.0742 91.2788 30.4336 90.9121 29.729 90.5556C24.6856 87.9995 18.8948 83.549 16.5631 78.2616C16.2037 77.7164 16.2037 77.7164 15.4119 77.721C14.914 77.7532 14.4202 77.8085 13.9238 77.8578Z" fill="#D1AE62"/>
<path d="M72.727 15.5893C73.3819 16.0259 73.3819 16.0259 73.6002 16.5853C73.6002 17.689 73.0732 18.3785 72.5087 19.3005C71.029 22.0001 70.6955 24.5961 71.4173 27.5961C71.9598 29.2546 72.9124 30.6196 73.8901 32.0433C75.9509 35.0907 76.7482 38.6028 76.0697 42.2439C75.5666 44.5749 74.7354 47.1158 72.9453 48.7717C72.2268 49.0063 71.8438 49.0632 71.1307 48.8126C70.7624 48.5534 70.7624 48.5534 70.5441 48.1168C70.3537 46.7841 70.7601 46.1924 71.5051 45.162C72.8502 43.0866 73.2414 40.4967 72.837 38.0833C72.3538 35.9593 71.4843 34.305 70.2166 32.5489C68.0676 29.5457 67.3582 26.0361 67.8563 22.4113C68.3215 19.8578 69.5482 15.3055 72.727 15.5893Z" fill="#D1AE62"/>
<path d="M18.0715 15.4802C18.8083 15.5893 18.8083 15.5893 19.2312 15.8213C19.5972 16.4888 19.5235 17.021 19.4631 17.7724C19.1041 18.4904 19.1041 18.4904 18.6309 19.2186C17.1174 21.6822 16.7514 24.2094 17.3075 27.0231C17.7492 28.8002 18.5451 30.2879 19.6814 31.7166C21.8601 34.5416 22.5764 38.1161 22.2072 41.6069C21.8314 44.1239 20.9111 47.154 18.8083 48.7717C18.0976 49.056 17.8322 49.0346 17.1165 48.7581C16.6253 48.3351 16.6253 48.3351 16.3934 47.7348C16.4081 46.9689 16.6003 46.5692 17.0073 45.9303C18.6681 43.2938 19.3311 40.5961 18.7903 37.5145C18.2443 35.4721 17.1197 33.7452 15.8903 32.0526C13.9371 29.1647 13.3231 25.5341 13.9307 22.1274C14.3979 19.8856 15.4871 15.8367 18.0715 15.4802Z" fill="#D1AE62"/>
<path d="M82.3729 15.4392C83.2052 15.5893 83.2052 15.5893 83.6554 15.9304C83.9459 16.6858 83.9017 17.2434 83.6418 17.9907C83.3362 18.558 83.0031 19.0997 82.6586 19.6442C81.2628 21.9074 81.0949 24.6788 81.608 27.2533C82.1306 28.9229 82.9784 30.3618 83.9786 31.7874C86.1745 34.9319 86.9603 38.4603 86.4131 42.2461C85.9623 44.6077 84.9773 47.0881 83.2052 48.7717C82.5503 49.0173 82.5503 49.0173 81.8954 48.99C81.2678 48.6626 81.2678 48.6626 80.8039 48.1168C80.5837 47.2174 80.6665 46.8296 81.1254 46.025C81.3969 45.6128 81.6716 45.2026 81.9491 44.7945C83.3633 42.5519 83.5214 39.7261 82.9596 37.1879C82.459 35.3936 81.5479 33.8977 80.4628 32.3988C78.177 29.2126 77.6877 25.4968 78.2544 21.665C78.4322 20.8376 78.7172 20.0732 79.0576 19.3005C79.1417 19.1021 79.2258 18.9037 79.3125 18.6993C80.7719 15.5301 80.7719 15.5301 82.3729 15.4392Z" fill="#D1AE62"/>
<path d="M7.2676 15.4384C7.89173 15.4788 8.42779 15.5252 8.98497 15.8213C9.33833 16.5059 9.39382 17.0394 9.20326 17.7724C8.85133 18.3937 8.45949 18.9762 8.05807 19.5666C6.72931 21.6737 6.47262 24.3832 6.94357 26.792C7.54295 28.9206 8.61781 30.7006 9.88543 32.4943C11.9586 35.5348 12.3518 39.5615 11.6813 43.1256C11.1605 45.1129 10.2621 47.1799 8.75303 48.6216C8.11179 48.99 8.11179 48.99 7.41598 49.0037C6.80202 48.7717 6.80202 48.7717 6.37908 48.417C6.02591 47.6275 6.13337 47.2031 6.36543 46.3704C6.56082 46.0641 6.76655 45.7643 6.97939 45.4698C8.56341 43.2025 8.85172 40.5468 8.54838 37.8564C8.17142 35.9359 7.24444 34.4287 6.14714 32.8354C3.80542 29.4354 3.10326 25.9155 3.62055 21.8434C4.03 19.9794 5.23811 16.0963 7.2676 15.4384Z" fill="#D1AE62"/>
<path d="M37.7999 30.2158C38.091 30.5068 38.382 30.7979 38.6731 31.089C39.328 31.2345 39.328 31.2345 39.9828 31.089C40.1269 30.9449 40.271 30.8008 40.4194 30.6524C40.856 30.2158 40.856 30.2158 41.5109 30.1203C42.2565 30.229 42.5614 30.2829 43.039 30.8707C43.251 31.9308 43.251 31.9308 43.039 32.6171C42.3673 33.4285 41.6394 34.0297 40.6377 34.3636C38.7726 34.5035 37.5895 34.3791 36.0808 33.2311C35.6159 32.6157 35.533 32.4471 35.4942 31.7166C35.6169 30.8707 35.6169 30.8707 35.9717 30.4341C36.6437 30.1511 37.0771 30.1103 37.7999 30.2158Z" fill="#D1AE62"/>
<path d="M49.3695 30.4341C49.5878 30.6524 49.8061 30.8707 50.0244 31.089C50.67 31.2164 50.67 31.2164 51.3342 31.089C51.4782 30.9449 51.6223 30.8008 51.7708 30.6524C52.2073 30.2158 52.2073 30.2158 52.8622 30.1203C53.6079 30.229 53.9128 30.2829 54.3903 30.8707C54.6023 31.9308 54.6023 31.9308 54.3903 32.6171C53.7186 33.4285 52.9907 34.0297 51.989 34.3636C50.124 34.5035 48.9408 34.3791 47.4321 33.2311C46.9672 32.6157 46.8843 32.4471 46.8455 31.7166C46.9683 30.8707 46.9683 30.8707 47.3094 30.4204C48.0725 30.1269 48.5859 30.2346 49.3695 30.4341Z" fill="#D1AE62"/>
</svg>
