<svg width="28" height="29" viewBox="0 0 28 29" fill="none" xmlns="http://www.w3.org/2000/svg">
<path d="M3.88057 26.7402H2C2.03667 24.1932 2.75693 21.8767 4.23223 19.7973C5.70942 17.7151 7.67931 16.2906 10.0761 15.3976C8.11654 13.927 7.04838 12 7.08035 9.55556C7.10573 7.63047 7.85326 5.97165 9.25898 4.64968C11.9482 2.11959 16.0591 2.07725 18.7831 4.68167C20.3571 6.18712 21.0755 8.06893 20.9128 10.2424C20.7502 12.4206 19.6726 14.1029 17.9303 15.3976C21.1329 16.5869 23.4751 18.7011 24.9297 21.7892C25.7478 23.5252 26.0383 25.6159 25.996 26.7402H24.1493C24.0581 23.2043 22.58 20.3948 19.6867 18.3624C17.8701 17.0866 15.8165 16.554 13.605 16.6265C11.8476 16.6838 10.2171 17.1797 8.72114 18.1009C7.22233 19.0248 6.02911 20.2546 5.16969 21.792C4.31404 23.3229 3.87963 24.9713 3.88057 26.7402ZM19.068 9.75974C19.1404 7.03676 16.9364 4.63087 14.0328 4.61111C11.2627 4.59229 9.01451 6.81471 8.94023 9.54239C8.865 12.2917 11.0521 14.7606 14.0685 14.7428C16.7794 14.7268 19.0454 12.5062 19.068 9.76068V9.75974Z" fill="white"/>
</svg>
