<svg width="80" height="80" viewBox="0 0 80 80" fill="none" xmlns="http://www.w3.org/2000/svg">
<rect width="80" height="80" rx="10" fill="white"/>
<path d="M46.968 60C46.2134 60 45.4701 59.8156 44.8029 59.4658C38.855 56.3523 33.8599 51.6877 30.345 45.968C26.8475 40.2026 24.9981 33.588 25 26.8434C24.9981 25.2562 25.8307 23.7849 27.1917 22.9676L30.9687 20.6676C33.1205 19.356 35.9263 20.0365 37.2378 22.1882L39.61 26.085V26.0831C40.9197 28.2349 40.2392 31.0407 38.0894 32.3522L36.1315 33.5421C35.5479 33.8919 35.2704 34.5895 35.4529 35.2453C36.7512 39.4481 39.0702 43.2613 42.2047 46.346C42.699 46.8174 43.4498 46.8954 44.0296 46.5342L45.9874 45.3424C48.1392 44.0327 50.9451 44.7132 52.2565 46.8631L54.6269 50.7598C55.9366 52.9097 55.2561 55.7155 53.1062 57.027L49.3292 59.327C48.6183 59.7642 47.8025 59.9981 46.968 60ZM33.3369 23.0472C33.0574 23.0491 32.7818 23.1251 32.5442 23.2715L28.7729 25.5639C28.3205 25.83 28.043 26.3166 28.0411 26.8413C28.0392 33.0286 29.7348 39.0982 32.9433 44.3863C36.1671 49.6325 40.7481 53.9094 46.2017 56.7663C46.6864 57.0306 47.2757 57.0211 47.7509 56.7397L51.5241 54.4454C52.2407 54.0082 52.4688 53.073 52.0316 52.3564L49.6612 48.4596C49.4522 48.1156 49.1138 47.8685 48.7222 47.7734C48.3306 47.6765 47.9163 47.7411 47.5722 47.9502L45.6143 49.1401V49.142C43.8428 50.2331 41.5541 49.9784 40.0679 48.5223C36.5741 45.0837 33.989 40.8333 32.5442 36.1515C31.9379 34.1633 32.7628 32.0191 34.5459 30.9506L36.498 29.7606C36.8421 29.5496 37.0892 29.2132 37.1861 28.8216C37.2812 28.4281 37.2166 28.0157 37.0075 27.6697L34.639 23.7729C34.4318 23.427 34.0934 23.1798 33.7 23.0848C33.5802 23.0563 33.4586 23.0411 33.3369 23.0411L33.3369 23.0472Z" fill="#D1AE62"/>
</svg>
