<svg width="80" height="80" viewBox="0 0 80 80" fill="none" xmlns="http://www.w3.org/2000/svg">
<rect width="80" height="80" rx="10" fill="white"/>
<path fill-rule="evenodd" clip-rule="evenodd" d="M47.8724 20.0015C47.5387 20.043 47.233 20.209 47.0165 20.4662C46.7999 20.7235 46.6886 21.0531 46.7047 21.3889C46.7209 21.7248 46.8633 22.0422 47.1035 22.2775C47.3436 22.5128 47.6638 22.6487 48 22.658C53.1709 22.658 57.3419 26.8292 57.342 32C57.3254 32.1845 57.3475 32.3703 57.4067 32.5458C57.4659 32.7212 57.561 32.8824 57.686 33.0191C57.8109 33.1558 57.963 33.2649 58.1324 33.3396C58.3019 33.4143 58.485 33.4529 58.6702 33.4529C58.8554 33.4529 59.0386 33.4143 59.208 33.3396C59.3775 33.2649 59.5295 33.1558 59.6545 33.0191C59.7794 32.8824 59.8745 32.7212 59.9338 32.5458C59.993 32.3703 60.015 32.1845 59.9985 32C59.9984 25.3879 54.6122 20.0015 48 20.0015C47.9575 19.9995 47.9149 19.9995 47.8724 20.0015ZM48 25.3249C47.646 25.3249 47.3065 25.4656 47.0562 25.7159C46.8058 25.9662 46.6652 26.3057 46.6652 26.6597C46.6652 27.0137 46.8058 27.3532 47.0562 27.6035C47.3065 27.8538 47.646 27.9945 48 27.9945C50.2251 27.9945 52.0056 29.7748 52.0056 32C52.0056 32.354 52.1462 32.6935 52.3965 32.9438C52.6468 33.1942 52.9863 33.3348 53.3403 33.3348C53.6943 33.3348 54.0338 33.1942 54.2841 32.9438C54.5344 32.6935 54.6751 32.354 54.6751 32C54.6751 28.3335 51.6664 25.325 48 25.3249ZM36.0015 27.9971C33.3799 27.9971 30.907 28.6422 28.7274 29.7576C28.4124 29.9186 28.1743 30.198 28.0653 30.5346C27.9564 30.8711 27.9856 31.2371 28.1466 31.5521C28.3075 31.867 28.587 32.1052 28.9235 32.2141C29.26 32.323 29.626 32.2938 29.941 32.1329C31.7651 31.1994 33.8166 30.664 36.0015 30.664C43.3817 30.664 49.336 36.6183 49.336 43.9985C49.336 51.3788 43.381 57.3365 36.0015 57.3331C33.8897 57.3321 31.8065 56.8226 29.9254 55.8538C29.7675 55.7723 29.595 55.7232 29.4179 55.7093C29.2408 55.6955 29.0627 55.7171 28.894 55.773L24.4275 57.2628C23.2973 57.6397 22.3603 56.7027 22.7372 55.5725L24.2217 51.1216C24.2777 50.953 24.2993 50.7749 24.2855 50.5978C24.2716 50.4207 24.2225 50.2481 24.141 50.0902C23.1722 48.2053 22.6671 46.1172 22.6669 43.9985C22.6667 40.7674 23.8106 37.8206 25.7167 35.5134C25.8292 35.3784 25.9139 35.2225 25.9659 35.0547C26.018 34.8869 26.0364 34.7105 26.0201 34.5355C26.0038 34.3606 25.953 34.1906 25.8708 34.0353C25.7886 33.88 25.6765 33.7425 25.541 33.6307C25.4055 33.5188 25.2493 33.4349 25.0812 33.3836C24.9131 33.3323 24.7366 33.3148 24.5617 33.3319C24.3869 33.3491 24.2171 33.4006 24.0622 33.4836C23.9074 33.5665 23.7704 33.6793 23.6592 33.8153C21.3746 36.5808 19.9997 40.1361 20 43.9985C20.0002 46.3263 20.5695 48.6011 21.547 50.7075L20.2057 54.7287C19.1881 57.78 22.22 60.8119 25.2713 59.7943L29.3081 58.4478C31.4082 59.4247 33.677 59.9989 36.0015 60C44.8238 60.0041 52.0029 52.8201 52.0029 43.9985C52.0029 35.177 44.823 27.9971 36.0015 27.9971ZM36.0015 35.9978C33.0715 35.9978 30.665 38.4016 30.665 41.3316C30.665 42.3283 30.9612 43.2546 31.4438 44.0558C29.5124 44.3332 27.9981 45.9944 27.9981 47.9963C27.9981 50.1894 29.8106 52.0019 32.0037 52.0019H39.9966C42.1897 52.0019 44.0048 50.1894 44.0048 47.9963C44.0048 45.9944 42.4879 44.3332 40.5566 44.0558C41.0394 43.2545 41.3353 42.3286 41.3353 41.3316C41.3353 38.4016 38.9315 35.9978 36.0015 35.9978ZM36.0015 38.6647C37.4902 38.6647 38.6684 39.8429 38.6684 41.3316C38.6684 42.8203 37.4902 43.9985 36.0015 43.9985C34.5128 43.9985 33.332 42.8203 33.332 41.3316C33.332 39.8429 34.5128 38.6647 36.0015 38.6647ZM32.0037 46.668H39.9966C40.7584 46.668 41.3353 47.2345 41.3353 47.9963C41.3353 48.7581 40.7585 49.335 39.9966 49.335H32.0037C31.2419 49.335 30.665 48.7581 30.665 47.9963C30.665 47.2345 31.2419 46.668 32.0037 46.668Z" fill="#D1AE62"/>
</svg>
