<svg width="80" height="80" viewBox="0 0 80 80" fill="none" xmlns="http://www.w3.org/2000/svg">
<rect width="80" height="80" rx="10" fill="white"/>
<path d="M56.4775 44.65C59.2056 41.4101 60.4321 37.1905 59.8549 32.9289C58.9724 26.3822 53.7915 21.1322 47.2478 20.1623C39.815 19.0751 32.807 23.5481 30.6357 30.6266C25.1207 32.2893 20.9278 37.0793 20.1392 42.9117C19.5637 47.17 20.7885 51.3848 23.5166 54.6294L21.8137 57.183C21.4412 57.7417 21.4076 58.4547 21.7248 59.0453C22.0402 59.6325 22.6509 60 23.3186 60H34.5634C41.2493 60 46.9958 55.8558 49.1301 50.027H56.6835C57.3563 50.027 57.9688 49.6546 58.2842 49.0573C58.5979 48.4583 58.556 47.7436 58.1869 47.2083L56.4775 44.65ZM47.5784 45.7892C47.1723 52.4046 41.456 57.5876 34.5618 57.5876H24.4514L26.047 55.195C26.3591 54.7236 26.3054 54.0994 25.9145 53.69C23.2468 50.8982 22.0136 47.0897 22.5354 43.2408C23.2786 37.7425 27.6226 33.3451 33.0955 32.5415C36.9175 31.9811 40.7211 33.1388 43.528 35.7192C46.3367 38.298 47.8133 41.969 47.5784 45.7892ZM49.7796 47.6146C49.8786 47.0643 49.9558 46.5056 49.991 45.9351C50.2696 41.3865 48.5095 37.014 45.1624 33.9387C41.9779 31.0109 37.7197 29.6401 33.3958 30.0898C35.6138 24.8785 41.097 21.7044 46.8955 22.5548C52.3753 23.3652 56.7207 27.7661 57.459 33.2541C57.9808 37.1097 56.751 40.9184 54.08 43.7051C53.6873 44.1145 53.6336 44.7403 53.9474 45.2118L55.5497 47.6161L49.7796 47.6127L49.7796 47.6146Z" fill="#D1AE62"/>
<path d="M35.9264 38.2944C34.0641 37.885 32.1665 38.7826 31.316 40.4705C31.0257 41.0443 30.873 41.6886 30.873 42.3328C30.873 43.0006 31.4133 43.5409 32.0811 43.5409C32.7488 43.5409 33.2891 43.0006 33.2891 42.3328C33.2891 42.061 33.3512 41.801 33.4736 41.5594C33.774 40.9654 34.4887 40.4604 35.4132 40.6567C36.0339 40.7926 36.544 41.2976 36.6849 41.915C36.8947 42.8429 36.3863 43.5643 35.7923 43.868C34.5659 44.4922 33.8042 45.7052 33.8042 47.034C33.8042 47.7018 34.3444 48.2421 35.0122 48.2421C35.6799 48.2421 36.2202 47.7018 36.2202 47.034C36.2202 46.6179 36.4769 46.2287 36.8896 46.019C38.5792 45.1566 39.4634 43.2506 39.0422 41.3815C38.6933 39.8412 37.47 38.63 35.9264 38.2944Z" fill="#D1AE62"/>
<path d="M35.8641 49.732C35.4078 49.2757 34.6024 49.2757 34.1595 49.732C34.0387 49.8394 33.9581 49.9736 33.891 50.1213C33.8373 50.2672 33.7971 50.4283 33.7971 50.5776C33.7971 50.7387 33.8373 50.8998 33.891 51.0474C33.9581 51.1951 34.0387 51.3293 34.1595 51.4367C34.2668 51.5441 34.4011 51.638 34.5487 51.7051C34.6964 51.7588 34.8574 51.7873 35.0051 51.7873C35.1661 51.7873 35.3272 51.7588 35.4749 51.7051C35.6225 51.638 35.7568 51.5441 35.8641 51.4367C36.0923 51.2085 36.2131 50.9015 36.2131 50.5777C36.2131 50.43 36.1863 50.2689 36.1326 50.1213C36.0655 49.9736 35.9849 49.8394 35.8641 49.732Z" fill="#D1AE62"/>
</svg>
