<svg width="80" height="80" viewBox="0 0 80 80" fill="none" xmlns="http://www.w3.org/2000/svg">
<rect width="80" height="80" rx="10" fill="white"/>
<path fill-rule="evenodd" clip-rule="evenodd" d="M28.1873 50.9678C29.0218 50.3554 30.2446 49.7767 31.7997 49.3099L38.9499 54.3802C39.4671 54.748 40.1616 54.748 40.6787 54.3802L47.827 49.3099C49.3821 49.7767 50.6049 50.3554 51.4376 50.9678C52.4102 51.6828 52.638 52.269 52.638 52.6274C52.638 52.9112 52.5054 53.3219 51.9659 53.8447C51.4227 54.3712 50.5602 54.9144 49.3709 55.4035C47 56.3762 43.621 57.0128 39.8125 57.0128C36.0039 57.0128 32.6269 56.3762 30.2559 55.4035C29.0667 54.9144 28.2023 54.3711 27.659 53.8447C27.1214 53.3219 26.987 52.9112 26.987 52.6274C26.987 52.269 27.2146 51.6828 28.1873 50.9678ZM46.5745 46.5358C46.6398 46.4816 46.707 46.4331 46.7798 46.3902L47.1812 46.1064C57.3036 38.9265 52.2238 22.9868 39.8145 22.9868C27.4052 22.9868 22.3253 38.9265 32.4478 46.1064L32.8641 46.4014C32.9238 46.4387 32.9817 46.4779 33.0358 46.5227L39.8147 51.3316L46.5745 46.5358ZM39.8142 20C54.3723 20 60.7588 37.7711 50.6368 47.1447C51.6095 47.5535 52.4776 48.0259 53.2075 48.5616C54.5405 49.5417 55.6251 50.9083 55.6251 52.6277C55.6251 53.9681 54.9568 55.1032 54.0476 55.9881C53.1403 56.8674 51.9081 57.5899 50.5061 58.1667C47.6927 59.3205 43.9122 60 39.8125 60C35.7129 60 31.9325 59.3204 29.1209 58.1667C27.7189 57.5899 26.4849 56.8674 25.5794 55.9881C24.6684 55.1031 24 53.9681 24 52.6277C24 50.9083 25.0865 49.5417 26.4195 48.5616C27.1476 48.0258 28.0176 47.5516 28.9921 47.1427C18.8696 37.7692 25.256 20 39.8142 20ZM36.5248 34.8453C36.5248 33.0288 37.9977 31.5558 39.8142 31.5558C41.6307 31.5558 43.1037 33.0288 43.1037 34.8453C43.1037 36.6618 41.6307 38.1347 39.8142 38.1347C37.9977 38.1347 36.5248 36.6618 36.5248 34.8453ZM39.8142 28.5687C36.3474 28.5687 33.5376 31.3784 33.5376 34.8453C33.5376 38.3121 36.3473 41.1219 39.8142 41.1219C43.2811 41.1219 46.0908 38.3122 46.0908 34.8453C46.0908 31.3785 43.2811 28.5687 39.8142 28.5687Z" fill="#D1AE62"/>
</svg>
