<svg width="175" height="34" viewBox="0 0 175 34" fill="none" xmlns="http://www.w3.org/2000/svg">
<path fill-rule="evenodd" clip-rule="evenodd" d="M61.9283 1.30351L60.9004 5.54556H68.0748V32.9361H72.7124V5.54556H79.9093V1.30351H61.9283ZM117.621 5.81003L116.505 1.32618L102.113 1.30351V14.9553H86.7348V1.30351H82.0747L82.0532 32.9361H86.8218V19.4401H102.113V32.9805L115.434 32.9361L117.556 28.5628H106.903V19.4836H117.577V15.0885H106.903V5.81003H117.621ZM20.6506 21.7808L20.4541 21.1404L20.2792 20.5661L20.0164 19.9927L19.776 19.4184L19.4477 18.8441L19.0099 18.2481L18.6161 17.6738L18.1129 17.0995L17.6096 16.5479L17.3692 16.3703L17.4347 16.2381L17.8725 15.8621L18.3102 15.4645L18.704 15.0224L19.0754 14.5586L19.3158 14.1166L19.6441 13.6084L19.9069 13.1002L20.0819 12.592L20.2783 12.0839L20.4092 11.5096L20.5402 10.9126L20.5842 10.361L20.6496 9.76494V9.21331L20.5842 8.61729L20.5402 8.06472L20.4532 7.53293L20.3438 6.95863L20.1464 6.38433L19.95 5.81003L19.7741 5.30186L19.4458 4.79368L19.2054 4.2855L18.8771 3.77732L18.5057 3.31354L18.1119 2.87148L17.6751 2.42943L17.2373 2.03176L16.7341 1.65678L16.2309 1.32523L15.6621 1.01636L15.028 0.773601L14.3938 0.508179L13.7596 0.309821L13.059 0.176638L12.3593 0.0661266L11.5932 0H0V32.9125H11.1115L11.7242 32.8247L12.3584 32.7585L12.9925 32.7141L13.5603 32.581L14.129 32.3826L14.6978 32.1833L15.2665 32.0067L15.8352 31.7412L16.3384 31.4324L16.7977 31.1008L17.3009 30.7919L17.7387 30.4604L18.1101 30.0845L18.5693 29.6424L18.8761 29.1796L19.2699 28.7366L19.5758 28.2955L19.8387 27.8307L20.0791 27.3235L20.2755 26.8153L20.4504 26.3071L20.6468 25.7338L20.7123 25.1595L20.8442 24.6513V22.9294L20.7787 22.356L20.6506 21.7808ZM15.969 24.3434L15.838 25.0065L15.6406 25.5137L15.3123 26.1551L14.9185 26.685L14.5247 27.0609L13.956 27.502L13.2778 27.877L12.6212 28.1424L12.118 28.2973L10.3894 28.4069L9.5578 28.4513H4.76955V18.4899H9.23229L10.3912 18.5116L11.4847 18.5334L12.0104 18.6221L12.6006 18.7761L13.0823 18.9754L13.7165 19.3287L14.3068 19.7925L14.8315 20.345L15.2908 20.9854L15.6406 21.7137L15.882 22.442L16.0129 23.1277L16.0344 23.6586L15.969 24.3434ZM16.0569 10.0521L15.9259 10.7152L15.7295 11.2233L15.3797 11.8638L14.9859 12.3937L14.6145 12.7696L14.0233 13.2117L13.3443 13.5857L12.7091 13.8502L12.1844 14.0051L10.3912 14.1156L9.69063 14.1591H4.9005V4.24111H11.5726L12.0759 4.3299L12.6661 4.48481L13.1693 4.68316L13.782 5.03738L14.3722 5.50116L14.9185 6.05279L15.3563 6.69321L15.7061 7.42147L15.969 8.15067L16.0999 8.83548L16.1214 9.36633L16.0569 10.0521ZM171.171 1.28178L158.506 24.0789L145.84 1.28178L142.033 32.9361H146.781L148.51 15.9717L158.506 32.9361L168.502 15.9717L170.23 32.9361H175L171.171 1.28178ZM23.5812 32.9134L28.4592 32.9361V1.30351H23.5812V32.9134ZM63.2182 14.8231L63.1088 14.0948L62.9563 13.4091L62.7805 12.7243L62.584 12.0395L62.3427 11.3764L62.1463 10.8682L62.0808 10.7133L61.774 10.0719L61.4681 9.4315L61.1174 8.81281L60.746 8.21679L60.3522 7.61982L59.9369 7.04553L59.4776 6.51563L58.9959 5.96306L58.5151 5.45488L58.0119 4.96937L57.4647 4.50559L56.9184 4.06353L56.3721 3.66776L55.7595 3.2701L55.1477 2.8951L54.535 2.56356L53.9214 2.25374L53.2872 1.98926L52.6315 1.72384L51.9524 1.50281L51.2743 1.32523L50.5961 1.1486L49.8955 1.01541L49.2173 0.904895L47.7956 0.794384H46.3953L44.995 0.926623L44.2944 1.03714L43.5947 1.17032L42.9381 1.34695L42.2599 1.54626L41.5818 1.78901L40.9251 2.03176L40.2909 2.31891L39.6567 2.62779L39.0441 2.98106L38.4314 3.33433L37.5128 3.99741L36.9441 4.43947L36.4194 4.88058L35.9161 5.38876L35.4353 5.89694L34.9536 6.40511L34.5158 6.95674L34.1005 7.53104L33.7077 8.128L33.3354 8.72497L33.0071 9.34272L32.6787 9.96141L32.3944 10.6018L32.1325 11.2649L31.8921 11.928L31.6956 12.6128L31.4553 13.5848L31.3243 14.2696L31.2364 14.9988L31.1054 16.3901V17.8041L31.2364 19.2172L31.3243 19.9238L31.4777 20.6312L31.6311 21.316L31.85 22.0018L32.0689 22.6639L32.3317 23.3488L32.6161 23.9901L32.9004 24.6305L33.4252 25.5581L33.6441 25.9331L34.0154 26.5301L34.4307 27.0817L34.8685 27.656L35.3062 28.1868L35.787 28.6941L36.2903 29.2022L36.815 29.666L37.3622 30.1298L37.9309 30.5492L38.4772 30.9478L39.0674 31.3218L39.6801 31.6761L40.3143 31.9849L40.9485 32.2938L41.6052 32.5366L42.2618 32.7803L42.94 32.9786L43.5966 33.1779L44.2963 33.3111L44.9744 33.4207L46.3747 33.5756H47.774L49.1743 33.4868L49.8525 33.398L50.5531 33.244L51.2312 33.0891L51.9094 32.9116L52.566 32.7132L53.2217 32.4487L53.8569 32.1606L54.5126 31.8517L55.1253 31.5448L55.737 31.1915L56.3057 30.7938L56.896 30.3744L57.4422 29.9551L57.9679 29.4913L58.4711 29.0048L58.9744 28.5184L59.4337 27.9658L59.8929 27.4359L60.3083 26.8616L60.702 26.2873L61.0743 25.6696L61.4242 25.0726L61.731 24.4322L62.0368 23.7908L62.1463 23.5037L62.2782 23.1504L62.5186 22.4883L62.715 21.8025L63.0003 20.6539L63.1528 19.9691L63.2622 19.2616L63.3716 17.8485V16.921L63.3062 15.507L63.2182 14.8231ZM58.603 18.2471L58.4272 19.3957L58.1653 20.5443L57.8145 21.6939L57.5741 22.2455L57.3113 22.7764L57.0269 23.3072L56.6986 23.8144L56.3703 24.3009L55.9765 24.7647L55.5836 25.2067L55.1683 25.6261L54.752 26.0238L54.2713 26.3988L53.812 26.7738L53.3087 27.0826L52.8055 27.3924L52.2583 27.6796L51.1648 28.099L50.0489 28.4315L48.89 28.6742L47.7301 28.8065H47.2933L46.5272 28.7847L45.3682 28.6525L44.7771 28.542L43.924 28.2992L42.8305 27.9006L42.2842 27.6361L41.781 27.349L41.2778 27.0618L40.7745 26.7303L40.3153 26.3544L39.8775 25.9794L39.4397 25.56L39.0244 25.1406L38.6531 24.6985L38.2808 24.2348L37.9525 23.7483L37.6241 23.2411L37.2088 22.4684L36.859 21.6958L36.4876 20.5689L36.2033 19.3986L35.9844 18.2056L35.9629 17.1666L36.0069 16.3268L36.1387 15.2226L36.3791 14.074L36.7299 12.9255L36.9479 12.3738L37.2107 11.8213L37.4951 11.3131L37.8019 10.7822L38.1517 10.2967L38.5015 9.81028L38.8953 9.36822L39.3106 8.90444L39.726 8.50677L40.1852 8.10911L40.6445 7.75585L41.1253 7.40163L41.6285 7.07008L42.1533 6.78294L42.679 6.51846L43.794 6.05468L44.9314 5.7458L46.0473 5.56823L47.2063 5.52383H47.2942L48.3877 5.58995L49.5251 5.76658L50.641 6.07641L51.7345 6.45139L52.2592 6.71682L52.784 7.00397L53.2657 7.29111L53.7689 7.62266L54.2067 7.99765L54.666 8.37265L55.0813 8.77031L55.4751 9.1897L55.8464 9.65348L56.5246 10.5149L56.8529 11.0231L57.1597 11.5313L57.4441 12.0612L57.6845 12.6138L58.0783 13.7397L58.3842 14.91L58.603 16.103L58.647 17.2072L58.603 18.2471ZM139.758 8.39437L139.582 7.75396L139.387 7.13526L139.124 6.53924L138.817 5.98667L138.424 5.41237L138.052 4.86075L137.615 4.35257L137.111 3.86612L136.586 3.40234L136.04 3.00467L135.448 2.60701L134.792 2.27547L134.114 1.96565L133.393 1.70117L132.628 1.52359L131.796 1.36868L130.987 1.28084L130.375 1.30256H120.094V32.9342H124.84V19.4836L130.375 26.7294L135.122 32.9352L139.977 31.3672L130.374 19.1955L130.287 19.0859H130.374L131.291 18.9083L132.276 18.709L133.173 18.489L134.026 18.1801L134.835 17.8712L135.557 17.4953L136.258 17.0976L136.848 16.7009L137.395 16.2144L137.919 15.7063L138.358 15.1754L138.728 14.6238L139.079 14.0495L139.386 13.4525L139.582 12.8565L139.757 12.1934L139.889 11.5974L139.977 10.956V9.65348L139.889 9.01307L139.758 8.39437ZM135.844 10.9126L135.668 11.6201L135.405 12.3275L135.035 12.968L134.532 13.5423L133.896 14.0504L133.131 14.5142L132.256 14.757L131.227 15.0224L130.375 15.0885L130.178 15.1102H124.818L124.84 5.3028H130.178L130.375 5.32453L131.185 5.36892L132.189 5.56728L132.998 5.8771L133.765 6.31821L134.399 6.82639L134.902 7.40069L135.34 8.0411L135.601 8.74858L135.799 9.45606L135.931 10.1626L135.844 10.9126Z" fill="white"/>
</svg>
