<svg width="175" height="43" viewBox="0 0 175 43" fill="none" xmlns="http://www.w3.org/2000/svg">
<path fill-rule="evenodd" clip-rule="evenodd" d="M57.2852 4.8796H63.0744L76.4811 33.9997L90.0412 4.8796H95.9818L78.615 41.774H74.5006L57.2852 4.8796ZM111.881 26.1856L104.971 11.4352L98.268 26.2225L111.881 26.1856ZM114.029 30.7981H95.9828L90.9553 41.775H85.3173L102.535 4.8796H107.562L124.778 41.775H119.142L114.029 30.7981ZM22.2429 1.82948V0H54.5429V1.82948H22.2429ZM9.90267 4.8796V30.7981C9.90267 34.761 6.8557 38.5734 0 38.4209V42.3838C3.19933 43.2985 15.2349 41.775 15.2349 32.6276V4.8796H9.90267ZM126.148 4.8796V41.774H131.481V11.8926L156.466 41.774H162.864V4.8796H157.534V34.6085L132.7 4.8796H126.148ZM39.079 3.92201C27.7155 3.92201 18.5019 12.61 18.5019 23.3268C18.5019 34.0446 27.7145 42.7326 39.079 42.7326C50.4434 42.7326 59.656 34.0446 59.656 23.3268C59.655 12.61 50.4424 3.92201 39.079 3.92201ZM39.079 8.23363C47.5876 8.23363 54.4851 14.9905 54.4851 23.3258C54.4851 31.6611 47.5876 38.4179 39.079 38.4179C30.5713 38.4179 23.6738 31.6611 23.6738 23.3258C23.6738 14.9905 30.5703 8.23363 39.079 8.23363ZM171.229 35.6279C171.801 35.6279 172.437 35.8441 172.437 36.5775C172.437 37.4085 171.649 37.4823 170.927 37.4823H169.914V37.838H171.152L172.585 40.0372H173.038L171.617 37.85C172.296 37.7414 172.843 37.3657 172.843 36.5885C172.843 35.7266 172.368 35.2732 171.291 35.2732H169.504V40.0372H169.912V35.6279H171.229Z" fill="#0D0D0D"/>
<path fill-rule="evenodd" clip-rule="evenodd" d="M170.97 33.6241C173.201 33.6241 175 35.4246 175 37.6567C175 39.8887 173.201 41.6893 170.97 41.6893C168.74 41.6893 166.94 39.8887 166.94 37.6567C166.94 35.4246 168.74 33.6241 170.97 33.6241L170.982 33.9798C168.901 33.9798 167.352 35.5761 167.352 37.6557C167.352 39.6934 168.923 41.3316 170.982 41.3316C173.039 41.3316 174.59 39.6834 174.59 37.6457C174.59 35.5871 173.049 33.9798 170.982 33.9798L170.97 33.6241Z" fill="#0D0D0D"/>
</svg>
