<svg width="175" height="41" viewBox="0 0 175 41" fill="none" xmlns="http://www.w3.org/2000/svg">
<path d="M109.097 14.2065C109.131 14.2227 109.165 14.2389 109.2 14.2555C109.306 14.3133 109.399 14.3745 109.491 14.4532C109.491 14.485 109.491 14.5168 109.491 14.5496C109.518 14.5612 109.546 14.5729 109.573 14.5849C109.8 14.7091 109.981 14.9043 110.169 15.0795C110.216 15.1238 110.216 15.1238 110.265 15.1689C110.332 15.2332 110.396 15.3006 110.459 15.3686C110.459 15.4004 110.459 15.4322 110.459 15.4649C110.488 15.4765 110.517 15.488 110.547 15.4999C110.676 15.5749 110.716 15.6432 110.789 15.7721C110.825 15.836 110.825 15.836 110.862 15.9012C110.889 15.948 110.915 15.9948 110.943 16.0431C111.005 16.1475 111.068 16.2518 111.13 16.3562C111.281 16.6091 111.281 16.6091 111.281 16.7176C111.313 16.7176 111.345 16.7176 111.378 16.7176C111.427 16.8105 111.477 16.9035 111.526 16.9965C111.569 17.0786 111.612 17.1606 111.656 17.2426C111.767 17.4528 111.878 17.6632 111.988 17.8738C112.247 18.3678 112.516 18.8542 112.799 19.3351C112.847 19.4164 112.895 19.4977 112.942 19.5791C112.989 19.6586 113.036 19.7381 113.083 19.8174C113.191 20.0015 113.286 20.1819 113.368 20.3797C113.47 20.6101 113.598 20.8293 113.719 21.0505C113.746 21.1009 113.773 21.1513 113.801 21.2032C113.936 21.4503 114.075 21.6919 114.227 21.9289C114.317 22.0756 114.391 22.2296 114.466 22.3844C114.647 22.7531 114.847 23.1075 115.055 23.4624C115.122 23.5787 115.188 23.6952 115.255 23.8117C115.387 24.0442 115.525 24.2735 115.668 24.4993C115.723 24.6015 115.762 24.696 115.801 24.8046C115.871 24.9954 115.966 25.1639 116.074 25.3353C116.427 25.9071 116.75 26.4928 117.048 27.0949C117.163 27.3261 117.288 27.5488 117.421 27.7707C117.77 28.3574 118.109 28.9511 118.41 29.5641C118.522 29.7918 118.645 30.0099 118.775 30.2277C119.125 30.8142 119.463 31.4076 119.764 32.0206C119.879 32.2535 120.005 32.4763 120.139 32.6991C120.257 32.8997 120.372 33.1024 120.486 33.3056C120.506 33.3419 120.527 33.3782 120.548 33.4156C120.666 33.6266 120.766 33.839 120.861 34.0614C120.921 34.1717 120.982 34.2811 121.045 34.3896C121.062 34.4186 121.079 34.4476 121.096 34.4775C121.223 34.6961 121.354 34.9122 121.488 35.1266C121.538 35.2177 121.538 35.2177 121.538 35.314C121.57 35.314 121.602 35.314 121.635 35.314C121.712 35.4126 121.712 35.4126 121.798 35.5429C121.989 35.8333 121.989 35.8333 122.264 36.0367C122.585 36.0522 122.793 35.9497 123.045 35.761C123.135 35.6994 123.135 35.6994 123.232 35.6994C123.243 35.6716 123.254 35.6437 123.266 35.6149C123.342 35.4822 123.433 35.413 123.552 35.317C123.84 35.0659 124.011 34.7756 124.199 34.4468C124.261 34.3511 124.324 34.256 124.388 34.1613C124.449 34.0514 124.449 34.0514 124.505 33.8839C124.588 33.6583 124.704 33.4599 124.828 33.2544C124.876 33.1739 124.923 33.0933 124.971 33.0126C124.995 32.9713 125.019 32.9299 125.045 32.8873C125.308 32.4345 125.566 31.9759 125.796 31.505C125.979 31.1321 126.195 30.7774 126.406 30.4191C126.51 30.2407 126.613 30.0616 126.715 29.882C126.741 29.8364 126.741 29.8364 126.768 29.7899C126.846 29.6519 126.916 29.5148 126.979 29.3688C127.068 29.1614 127.175 28.9676 127.286 28.7709C127.308 28.7325 127.33 28.6942 127.352 28.6546C127.532 28.3343 127.722 28.0197 127.914 27.7061C128.046 27.4854 128.171 27.2724 128.26 27.0305C128.356 26.7768 128.495 26.5595 128.64 26.331C128.911 25.903 129.152 25.4576 129.376 25.0041C129.571 24.6099 129.785 24.2284 130.005 23.8478C130.039 23.7889 130.039 23.7889 130.074 23.7287C130.485 23.0177 130.485 23.0177 130.621 22.7945C130.688 22.6874 130.688 22.6874 130.743 22.547C130.895 22.186 131.097 21.8465 131.293 21.5082C131.574 21.0253 131.842 20.5385 132.097 20.0418C132.294 19.6592 132.494 19.2859 132.726 18.9237C132.824 18.7684 132.914 18.61 133.001 18.4489C133.029 18.3987 133.056 18.3484 133.084 18.2967C133.139 18.1853 133.272 18.091 133.295 17.9702C133.262 17.9702 133.327 17.9702 133.295 17.9702C133.306 17.9318 133.317 17.8934 133.328 17.8539C133.409 17.6328 133.519 17.4347 133.633 17.2294C133.657 17.1872 133.68 17.145 133.704 17.1015C133.909 16.7361 134.129 16.381 134.357 16.0295C134.405 15.9505 134.448 15.8679 134.49 15.7852C134.631 15.5359 134.847 15.347 135.052 15.1488C135.092 15.1091 135.132 15.0693 135.173 15.0284C135.513 14.694 135.827 14.4019 136.255 14.1852C136.291 14.1666 136.328 14.1481 136.365 14.1289C136.47 14.0757 136.576 14.0234 136.681 13.9714C136.731 13.9468 136.781 13.9223 136.832 13.8969C137.803 13.4547 138.925 13.4049 139.932 13.7456C140.203 13.8469 140.451 13.9646 140.697 14.116C140.746 14.1441 140.746 14.1441 140.796 14.1728C141.626 14.662 142.116 15.47 142.36 16.3803C142.452 16.7416 142.494 17.0881 142.493 17.4605C142.493 17.5002 142.493 17.54 142.493 17.5809C142.493 17.7141 142.493 17.8474 142.493 17.9806C142.493 18.0771 142.493 18.1735 142.493 18.27C142.493 18.5351 142.493 18.8002 142.493 19.0653C142.493 19.3512 142.493 19.637 142.493 19.9229C142.493 20.4505 142.492 20.9781 142.492 21.5056C142.492 21.9928 142.492 22.48 142.492 22.9671C142.492 22.9994 142.492 23.0317 142.492 23.065C142.492 23.2291 142.492 23.3931 142.492 23.5572C142.492 24.719 142.491 25.8809 142.491 27.0427C142.49 28.1714 142.49 29.3 142.49 30.4287C142.49 30.4809 142.49 30.4809 142.49 30.5341C142.49 30.8836 142.49 31.233 142.49 31.5824C142.489 32.2942 142.489 33.006 142.489 33.7178C142.489 33.7505 142.489 33.7832 142.489 33.8169C142.489 36.0022 142.488 38.1874 142.487 40.3727C142.381 40.3807 142.275 40.3885 142.169 40.3964C142.081 40.4029 142.081 40.403 141.991 40.4097C141.703 40.4274 141.415 40.4277 141.126 40.4272C141.033 40.4273 141.033 40.4273 140.938 40.4274C140.809 40.4274 140.679 40.4273 140.55 40.4271C140.384 40.4268 140.218 40.427 140.053 40.4273C139.893 40.4275 139.734 40.4273 139.575 40.4272C139.486 40.4274 139.486 40.4274 139.395 40.4275C139.34 40.4274 139.285 40.4272 139.229 40.4271C139.18 40.427 139.132 40.427 139.082 40.4269C138.955 40.4208 138.955 40.4208 138.762 40.3727C138.746 32.7255 138.73 25.0783 138.713 17.1993C138.198 17.2635 137.888 17.4865 137.556 17.8783C137.24 18.319 137.002 18.8165 136.764 19.3014C136.57 19.6821 136.358 20.0539 136.149 20.4272C136.117 20.4272 136.159 20.4272 136.126 20.4272C136.114 20.4679 136.029 20.5087 136.016 20.5507C135.961 20.7012 135.893 20.8279 135.81 20.9649C135.762 21.054 135.729 21.1403 135.696 21.2361C135.624 21.4317 135.529 21.6004 135.417 21.7762C135.379 21.8394 135.34 21.9027 135.301 21.9661C135.281 21.9983 135.261 22.0305 135.241 22.0638C134.996 22.4671 134.769 22.8795 134.562 23.3028C134.344 23.7458 134.095 24.1707 133.847 24.5972C133.75 24.7645 133.654 24.9324 133.558 25.1004C133.401 25.3739 133.401 25.3739 133.318 25.5069C133.248 25.6268 133.195 25.7487 133.142 25.8762C133.066 26.0461 132.972 26.2064 132.88 26.3681C132.838 26.4443 132.795 26.5205 132.752 26.5967C132.73 26.6357 132.708 26.6747 132.685 26.7149C132.617 26.8354 132.55 26.9563 132.483 27.0774C132.462 27.1165 132.44 27.1555 132.418 27.1958C132.376 27.2707 132.335 27.3457 132.294 27.4207C132.148 27.6845 132.148 27.6845 132.056 27.7987C131.974 27.9151 131.935 28.0383 131.887 28.1716C131.804 28.3774 131.687 28.565 131.574 28.7559C131.522 28.8455 131.47 28.9351 131.418 29.0248C131.392 29.0695 131.366 29.1142 131.339 29.1602C131.095 29.5805 130.853 30.0025 130.64 30.4391C130.385 30.9578 130.081 31.4529 129.79 31.9521C129.772 31.9823 129.755 32.0125 129.737 32.0435C129.691 32.1219 129.645 32.2002 129.599 32.2785C129.518 32.4237 129.518 32.4237 129.453 32.5839C129.362 32.7924 129.255 32.9874 129.143 33.1852C129.122 33.2236 129.1 33.262 129.078 33.3015C128.897 33.6218 128.708 33.9364 128.516 34.25C128.383 34.4708 128.259 34.6837 128.169 34.9256C128.074 35.1789 127.935 35.3958 127.79 35.6236C127.672 35.8107 127.564 36.003 127.456 36.1963C127.312 36.453 127.165 36.7047 127.005 36.9521C126.974 37.0079 126.974 37.0079 126.942 37.0648C126.845 37.2162 126.731 37.3452 126.609 37.476C126.574 37.5139 126.574 37.5139 126.538 37.5527C126.375 37.7266 126.205 37.8883 126.021 38.0408C125.939 38.1077 125.939 38.1077 125.864 38.1894C125.796 38.2528 125.796 38.2528 125.699 38.2528C125.688 38.2803 125.678 38.3077 125.667 38.336C125.438 38.7226 124.877 38.9724 124.489 39.1682C124.452 39.1889 124.414 39.2096 124.376 39.2309C123.397 39.7564 122.288 39.8615 121.221 39.5717C120.918 39.4731 120.658 39.3265 120.386 39.1635C120.235 39.0706 120.235 39.0706 120.081 38.9996C119.62 38.7608 119.267 38.2984 118.926 37.9156C118.898 37.8854 118.87 37.8552 118.841 37.8241C118.528 37.478 118.285 37.0908 118.103 36.663C118.045 36.5567 117.986 36.4513 117.925 36.3468C117.89 36.2877 117.856 36.2285 117.822 36.1694C117.795 36.1245 117.795 36.1245 117.769 36.0787C117.685 35.9347 117.602 35.7899 117.52 35.6452C117.371 35.3856 117.219 35.128 117.065 34.8716C116.996 34.747 116.941 34.621 116.886 34.4899C116.808 34.3161 116.712 34.1518 116.618 33.9861C116.597 33.9484 116.576 33.9106 116.554 33.8717C116.49 33.7582 116.426 33.6448 116.361 33.5315C116.334 33.4822 116.334 33.4822 116.305 33.4319C116.082 33.0369 116.082 33.0369 115.841 32.6522C115.758 32.5224 115.701 32.3964 115.648 32.2517C115.553 32.0042 115.421 31.7853 115.283 31.5605C114.951 31.0211 114.649 30.4664 114.369 29.899C114.254 29.6677 114.129 29.445 113.996 29.2232C113.646 28.6366 113.308 28.0431 113.007 27.4301C112.893 27.1992 112.768 26.9784 112.636 26.7576C112.509 26.5424 112.388 26.3245 112.267 26.1061C112.245 26.0665 112.223 26.0268 112.2 25.9859C112.092 25.7892 111.987 25.5916 111.887 25.3902C111.764 25.1413 111.627 24.9011 111.487 24.6608C111.436 24.5722 111.385 24.4837 111.334 24.3951C111.309 24.3516 111.284 24.3082 111.258 24.2634C111.151 24.079 111.045 23.8943 110.94 23.7093C110.914 23.6643 110.914 23.6643 110.887 23.6184C110.809 23.4809 110.74 23.3444 110.678 23.1991C110.596 23.0107 110.501 22.8361 110.399 22.6584C110.379 22.6248 110.36 22.5912 110.34 22.5566C110.144 22.2121 109.944 21.8688 109.739 21.5293C109.709 21.4796 109.679 21.4299 109.649 21.3787C109.622 21.3347 109.595 21.2908 109.568 21.2455C109.508 21.133 109.464 21.0316 109.421 20.9127C109.351 20.7191 109.257 20.5528 109.147 20.379C109.108 20.3158 109.069 20.2525 109.03 20.1891C109.01 20.1569 108.99 20.1247 108.97 20.0914C108.719 19.6773 108.487 19.2532 108.273 18.8193C107.966 18.2016 107.628 17.5606 106.976 17.2475C106.842 17.2142 106.727 17.2044 106.589 17.1993C106.529 17.3757 106.533 17.5377 106.533 17.7213C106.533 17.7603 106.533 17.7994 106.533 17.8396C106.533 17.9716 106.533 18.1035 106.532 18.2355C106.532 18.3306 106.532 18.4257 106.532 18.5208C106.531 18.7831 106.531 19.0453 106.53 19.3076C106.53 19.59 106.529 19.8725 106.529 20.1549C106.528 20.6446 106.527 21.1343 106.526 21.624C106.525 22.1377 106.524 22.6513 106.523 23.165C106.523 23.1969 106.523 23.2288 106.523 23.2617C106.523 23.4238 106.522 23.5859 106.522 23.748C106.52 24.8966 106.518 26.0451 106.516 27.1937C106.514 28.3097 106.512 29.4257 106.51 30.5416C106.51 30.576 106.51 30.6104 106.51 30.6458C106.509 30.9912 106.508 31.3365 106.508 31.6818C106.506 32.3853 106.505 33.0888 106.504 33.7923C106.503 33.8246 106.503 33.857 106.503 33.8903C106.499 36.0511 106.495 38.2119 106.492 40.3727C106.415 40.3806 106.338 40.3885 106.26 40.3964C106.217 40.4008 106.174 40.4052 106.13 40.4097C105.982 40.4232 105.835 40.427 105.686 40.4271C105.599 40.4273 105.599 40.4273 105.509 40.4275C105.448 40.4274 105.387 40.4273 105.324 40.4272C105.259 40.4273 105.194 40.4273 105.129 40.4274C104.994 40.4274 104.859 40.4273 104.724 40.4271C104.551 40.4268 104.379 40.427 104.206 40.4273C104.072 40.4275 103.939 40.4274 103.805 40.4273C103.711 40.4272 103.616 40.4274 103.522 40.4275C103.464 40.4274 103.407 40.4272 103.347 40.4271C103.272 40.427 103.272 40.427 103.195 40.4269C103.063 40.4211 102.944 40.3998 102.815 40.3727C102.811 38.1527 102.808 35.9327 102.807 33.7127C102.807 33.6798 102.807 33.6469 102.807 33.613C102.806 32.8981 102.805 32.1833 102.805 31.4684C102.805 31.1178 102.804 30.7673 102.804 30.4167C102.804 30.3818 102.804 30.3469 102.804 30.3109C102.803 29.1814 102.802 28.0518 102.8 26.9222C102.798 25.7609 102.797 24.5995 102.797 23.4381C102.797 23.2739 102.797 23.1096 102.796 22.9454C102.796 22.913 102.796 22.8807 102.796 22.8474C102.796 22.3604 102.795 21.8734 102.794 21.3863C102.793 20.8316 102.793 20.2769 102.793 19.7221C102.793 19.4392 102.793 19.1564 102.792 18.8735C102.791 18.614 102.791 18.3546 102.791 18.0951C102.791 18.0017 102.791 17.9083 102.791 17.8149C102.783 16.5763 103.068 15.4675 103.957 14.5658C104.174 14.3642 104.388 14.1977 104.653 14.0678C104.695 14.0451 104.736 14.0225 104.779 13.9991C106.25 13.2193 107.674 13.53 109.097 14.2065Z" fill="#D1AE62"/>
<path d="M154.078 13.5204C154.169 13.5204 154.26 13.5202 154.352 13.5201C154.599 13.5197 154.846 13.5203 155.093 13.521C155.361 13.5217 155.628 13.5214 155.896 13.5213C156.359 13.5213 156.821 13.5217 157.284 13.5225C157.953 13.5237 158.622 13.5241 159.291 13.5243C160.377 13.5246 161.462 13.5255 162.548 13.5269C163.602 13.5282 164.656 13.5293 165.71 13.5299C165.759 13.5299 165.759 13.5299 165.809 13.5299C166.136 13.5301 166.462 13.5303 166.789 13.5305C169.526 13.532 172.263 13.5346 175 13.5378C175 14.7302 175 15.9226 175 17.1511C174.73 17.1513 174.46 17.1515 174.182 17.1516C171.707 17.1533 169.231 17.156 166.756 17.1597C166.431 17.1602 166.107 17.1606 165.782 17.1611C165.75 17.1612 165.718 17.1612 165.684 17.1613C164.638 17.1628 163.593 17.1637 162.547 17.1642C161.441 17.1648 160.335 17.1661 159.229 17.1682C158.567 17.1694 157.905 17.1701 157.243 17.17C156.789 17.17 156.335 17.1707 155.88 17.1719C155.619 17.1726 155.357 17.173 155.095 17.1726C154.855 17.1722 154.614 17.1727 154.374 17.1739C154.288 17.1741 154.201 17.1741 154.115 17.1737C153.4 17.1706 152.766 17.263 152.118 17.587C152.019 17.6329 151.96 17.7049 151.922 17.7049C151.922 17.7367 151.922 17.6965 151.922 17.7292C151.843 17.7903 151.761 17.8479 151.677 17.9039C151.296 18.1766 151.066 18.4426 150.864 18.8614C150.842 18.906 150.842 18.906 150.82 18.9515C149.964 20.8344 150.634 23.0818 150.616 25.1486C158.088 25.1486 165.56 25.1486 173.258 25.1486C173.258 26.3569 173.258 27.5651 173.258 28.81C173.176 28.8924 173.071 28.8642 172.961 28.8645C172.924 28.8644 172.888 28.8643 172.851 28.8642C172.813 28.8642 172.775 28.8643 172.735 28.8643C172.606 28.8644 172.476 28.8642 172.346 28.864C172.253 28.864 172.16 28.8641 172.067 28.8641C171.809 28.8642 171.552 28.8641 171.294 28.8638C171.017 28.8636 170.74 28.8637 170.463 28.8637C169.982 28.8637 169.501 28.8636 169.02 28.8633C168.325 28.8629 167.63 28.8628 166.935 28.8627C165.808 28.8626 164.681 28.8623 163.553 28.8619C162.458 28.8614 161.362 28.8611 160.267 28.8609C160.233 28.8609 160.199 28.8609 160.164 28.8608C159.825 28.8608 159.486 28.8607 159.147 28.8607C156.304 28.8602 153.46 28.8593 150.616 28.8582C150.62 29.5652 150.625 30.2721 150.63 30.9791C150.632 31.3073 150.635 31.6356 150.636 31.9639C150.638 32.281 150.64 32.5981 150.643 32.9151C150.644 33.0358 150.645 33.1566 150.645 33.2773C150.646 33.4469 150.647 33.6165 150.649 33.7861C150.649 33.8356 150.649 33.885 150.649 33.936C150.659 34.7961 150.923 35.3222 151.52 35.9373C151.644 36.0579 151.805 36.2537 151.956 36.34C151.956 36.3718 151.922 36.293 151.922 36.3257C152.158 36.4274 152.401 36.4973 152.648 36.5666C152.692 36.5792 152.735 36.5919 152.78 36.6049C153.249 36.7278 153.697 36.7318 154.177 36.7304C154.267 36.7306 154.358 36.7309 154.448 36.7313C154.694 36.7322 154.94 36.7322 155.187 36.732C155.453 36.732 155.719 36.7328 155.985 36.7335C156.445 36.7346 156.906 36.7351 157.366 36.7353C158.032 36.7357 158.698 36.7368 159.364 36.7381C160.445 36.7401 161.525 36.7416 162.605 36.7426C163.655 36.7436 164.704 36.745 165.753 36.7467C165.786 36.7467 165.818 36.7468 165.852 36.7468C166.177 36.7474 166.502 36.7479 166.827 36.7484C169.551 36.753 172.276 36.7565 175 36.7593C175 37.9517 175 39.1441 175 40.3726C172.231 40.3748 169.461 40.3765 166.692 40.3775C166.365 40.3777 166.037 40.3778 165.71 40.3779C165.677 40.3779 165.645 40.3779 165.611 40.378C164.557 40.3784 163.504 40.3791 162.45 40.38C161.335 40.3809 160.221 40.3815 159.106 40.3817C158.439 40.3818 157.772 40.3822 157.105 40.383C156.647 40.3835 156.189 40.3837 155.731 40.3836C155.467 40.3835 155.203 40.3836 154.939 40.3841C154.697 40.3846 154.455 40.3846 154.213 40.3843C154.125 40.3842 154.038 40.3844 153.951 40.3847C153.196 40.3872 152.393 40.3876 151.668 40.1498C151.629 40.1374 151.589 40.1249 151.548 40.1121C151.152 39.9822 150.786 39.804 150.423 39.6018C150.392 39.5847 150.361 39.5677 150.329 39.5501C150.133 39.4411 149.939 39.3291 149.745 39.2164C149.703 39.1938 149.703 39.1938 149.659 39.1707C149.459 39.0636 149.319 38.9473 149.165 38.7828C149.099 38.7173 149.034 38.652 148.968 38.5869C148.759 38.3792 148.551 38.1715 148.342 37.9638C148.307 37.9299 148.273 37.896 148.237 37.8612C148.15 37.772 148.097 37.6944 148.04 37.5844C147.951 37.418 147.859 37.2537 147.764 37.0906C147.456 36.5606 147.214 36.0446 147.036 35.4585C147.024 35.4215 147.013 35.3845 147.001 35.3464C146.791 34.5616 146.884 33.6541 146.884 32.8512C146.884 32.6768 146.884 32.5023 146.884 32.3278C146.884 31.9872 146.884 31.6466 146.884 31.306C146.884 31.0289 146.884 30.7518 146.884 30.4747C146.884 30.4152 146.884 30.4152 146.884 30.3546C146.884 30.2741 146.884 30.1935 146.884 30.113C146.884 29.3601 146.884 28.6073 146.884 27.8544C146.885 27.21 146.885 26.5657 146.884 25.9213C146.884 25.1709 146.884 24.4204 146.884 23.6699C146.884 23.5897 146.884 23.5095 146.884 23.4293C146.884 23.3899 146.884 23.3504 146.884 23.3098C146.884 23.0334 146.884 22.757 146.884 22.4805C146.884 22.1432 146.884 21.8058 146.884 21.4685C146.884 21.2967 146.884 21.125 146.884 20.9533C146.883 19.0336 146.883 19.0336 147.042 18.4459C147.052 18.4058 147.063 18.3657 147.074 18.3244C147.179 17.9424 147.335 17.5971 147.52 17.2475C147.545 17.1984 147.57 17.1493 147.596 17.0988C147.723 16.8565 147.861 16.635 148.033 16.4213C148.104 16.3301 148.104 16.3301 148.169 16.215C148.42 15.8082 148.804 15.4837 149.165 15.1758C149.206 15.1396 149.248 15.1033 149.291 15.0659C150.639 13.9285 152.346 13.5113 154.078 13.5204Z" fill="#D1AE62"/>
<path d="M67.4488 13.5377C68.6622 13.5377 69.8756 13.5377 71.1257 13.5377C71.1257 17.4488 71.1257 21.3598 71.1257 25.3894C71.9099 24.9483 71.9099 24.9483 72.6927 24.5049C73.0813 24.2843 73.4713 24.072 73.8732 23.8765C74.0782 23.7764 74.2726 23.6667 74.4667 23.5472C74.9227 23.2755 75.392 23.0188 75.8701 22.7878C76.2446 22.6053 76.6007 22.3898 76.9605 22.1806C77.1397 22.0767 77.3196 21.9742 77.4999 21.8724C77.5304 21.855 77.5609 21.8376 77.5924 21.8197C77.7321 21.7411 77.871 21.6711 78.0187 21.6082C78.2078 21.5273 78.3829 21.4322 78.5613 21.3304C78.595 21.3113 78.6288 21.2923 78.6636 21.2726C79.0095 21.0765 79.3542 20.8782 79.6952 20.6736C80.1166 20.4229 80.1166 20.4229 80.3151 20.3579C80.5509 20.2781 80.7497 20.1399 80.9593 20.0084C81.4604 19.6972 81.985 19.4252 82.5145 19.1657C82.7467 19.0512 82.9704 18.9263 83.1932 18.7944C83.7821 18.4462 84.3781 18.109 84.9936 17.8097C85.2288 17.6949 85.4539 17.5677 85.6789 17.4345C86.2091 17.1234 86.7528 16.8357 87.2959 16.5478C87.7752 16.2936 88.2507 16.0352 88.7161 15.7564C88.9594 15.611 89.1961 15.474 89.459 15.3657C89.6945 15.2586 89.9174 15.1251 90.1424 14.9981C90.1962 14.968 90.25 14.9378 90.3054 14.9068C90.5329 14.7791 90.7601 14.651 90.9863 14.5209C91.0167 14.5034 91.0471 14.4859 91.0784 14.4679C91.1547 14.4239 91.2309 14.3795 91.307 14.3351C91.5531 14.2026 91.8079 14.1038 92.0747 14.0195C92.0747 13.9877 92.0747 13.9559 92.0747 13.9232C92.5796 13.6042 92.9871 13.4817 93.5889 13.494C93.6648 13.4941 93.7407 13.494 93.8166 13.4938C94.0202 13.4937 94.2237 13.496 94.4273 13.4987C94.641 13.5011 94.8546 13.5013 95.0683 13.5018C95.4718 13.503 95.8753 13.5061 96.2788 13.51C96.7386 13.5143 97.1984 13.5164 97.6583 13.5183C98.6032 13.5224 99.548 13.5291 100.493 13.5377C100.392 13.6414 100.3 13.7164 100.173 13.7862C100.139 13.8046 100.106 13.823 100.072 13.8421C100.037 13.8609 100.002 13.8797 99.9668 13.8991C99.8984 13.9367 99.8299 13.9743 99.7615 14.012C99.7289 14.0299 99.6962 14.0478 99.6626 14.0662C99.5904 14.1065 99.5196 14.1492 99.4493 14.1927C99.3318 14.2604 99.3318 14.2604 99.1685 14.33C98.9898 14.4064 98.8227 14.4953 98.6544 14.5916C98.6057 14.6192 98.6057 14.6192 98.5559 14.6473C98.3994 14.7358 98.2433 14.8247 98.0871 14.9137C97.5938 15.1945 97.1019 15.4734 96.5912 15.7217C96.3594 15.8349 96.1377 15.9601 95.916 16.0917C95.6999 16.2176 95.4811 16.3382 95.2617 16.4585C95.2219 16.4804 95.1821 16.5024 95.141 16.525C94.9435 16.6331 94.745 16.7376 94.5428 16.8368C94.2929 16.9601 94.0516 17.0962 93.8103 17.2354C93.7214 17.2863 93.6324 17.3371 93.5435 17.388C93.4998 17.413 93.4562 17.438 93.4113 17.4637C93.2261 17.5697 93.0406 17.6754 92.8548 17.7804C92.8247 17.7976 92.7945 17.8148 92.7635 17.8325C92.6008 17.9242 92.437 18.001 92.2645 18.0723C92.0659 18.1626 91.8792 18.2764 91.6906 18.3856C91.5998 18.4377 91.509 18.4897 91.4181 18.5418C91.3512 18.5802 91.3512 18.5802 91.2829 18.6195C90.8202 18.8853 90.3565 19.1418 89.877 19.3766C89.6622 19.4824 89.4564 19.5973 89.2523 19.7227C88.836 19.975 88.4092 20.2082 87.9714 20.4211C87.5581 20.6225 87.1636 20.8534 86.767 21.0851C86.3107 21.3509 85.8502 21.6039 85.3757 21.8361C85.1627 21.9404 84.9547 22.0508 84.7499 22.1705C84.6724 22.2097 84.6724 22.2097 84.5756 22.2097C84.5756 22.2415 84.5756 22.2733 84.5756 22.306C84.4822 22.355 84.3889 22.4039 84.2955 22.4528C84.2131 22.496 84.1307 22.5392 84.0483 22.5825C83.8372 22.6932 83.626 22.8037 83.4145 22.9135C82.9864 23.1361 82.5636 23.3646 82.1456 23.6057C81.7159 23.8528 81.2851 24.0927 80.839 24.3093C80.6587 24.4014 80.4875 24.506 80.3162 24.6137C80.2213 24.6667 80.2213 24.6667 80.1246 24.6667C80.3094 24.8622 80.52 25.0055 80.7407 25.1579C80.7768 25.1866 80.813 25.2153 80.8503 25.2449C80.8503 25.2766 80.8503 25.3084 80.8503 25.3412C80.89 25.3511 80.9297 25.3611 80.9707 25.3713C81.1896 25.4567 81.3526 25.5833 81.5367 25.7266C81.6049 25.7788 81.6731 25.831 81.7414 25.8832C81.7712 25.9063 81.801 25.9294 81.8317 25.9532C81.9057 26.0089 81.9826 26.0608 82.0598 26.112C82.0598 26.1438 82.0598 26.1756 82.0598 26.2084C82.1019 26.2279 82.1019 26.2279 82.1449 26.2477C82.2542 26.3052 82.3439 26.3701 82.4408 26.4463C82.5553 26.5336 82.6558 26.6015 82.7855 26.6661C82.9791 26.7625 83.1574 26.882 83.3177 27.0274C83.3177 27.0592 83.3177 27.091 83.3177 27.1238C83.343 27.1349 83.3682 27.1461 83.3943 27.1576C83.5509 27.2413 83.6915 27.3449 83.8348 27.449C84.024 27.5852 84.2132 27.7201 84.4093 27.8464C84.6457 28.0012 84.8672 28.1746 85.0902 28.3474C85.2957 28.5065 85.5051 28.6603 85.7145 28.8143C85.8335 28.9063 85.8335 28.9063 85.9042 28.9818C85.981 29.0598 85.981 29.0598 86.1085 29.1139C86.3114 29.2169 86.4802 29.348 86.659 29.4875C86.695 29.5151 86.7309 29.5428 86.7679 29.5713C86.9368 29.7013 87.1049 29.8322 87.273 29.9632C87.3008 29.9847 87.3285 30.0062 87.357 30.0283C87.4311 30.0858 87.5049 30.1435 87.5786 30.2013C87.6832 30.2767 87.7809 30.3395 87.8929 30.4013C88.0424 30.4867 88.162 30.5742 88.2919 30.6859C88.5218 30.8771 88.7589 31.0542 89.0025 31.2279C89.0392 31.2541 89.076 31.2803 89.1138 31.3073C89.1514 31.3341 89.1889 31.3608 89.2275 31.3884C89.4694 31.5609 89.7094 31.7358 89.9489 31.9114C90.0041 31.9518 90.0041 31.9518 90.0604 31.9929C90.3601 32.2128 90.6577 32.4358 90.9437 32.6732C91.0612 32.7667 91.0612 32.7667 91.2136 32.8475C91.398 32.9513 91.57 33.0682 91.742 33.1911C91.7708 33.2112 91.7995 33.2313 91.8292 33.252C92.009 33.3799 92.1609 33.5189 92.3166 33.6759C92.5243 33.8359 92.7402 33.9845 92.9727 34.1065C93.1114 34.1822 93.2193 34.2739 93.3356 34.3805C93.5941 34.6161 93.8774 34.8126 94.1641 35.0119C94.3885 35.1683 94.6107 35.3279 94.8334 35.4867C94.9021 35.5356 94.9709 35.5844 95.0398 35.6331C95.1573 35.7162 95.2745 35.7996 95.3918 35.883C95.4286 35.909 95.4655 35.935 95.5035 35.9617C95.7009 36.1027 95.8707 36.2495 96.0419 36.422C96.1512 36.4964 96.1512 36.4964 96.2656 36.5575C96.5424 36.7173 96.8131 36.8907 97.0579 37.0965C97.0579 37.1283 97.0579 37.1601 97.0579 37.1928C97.0836 37.2045 97.1093 37.2161 97.1357 37.228C97.2835 37.3062 97.4175 37.4009 97.5538 37.497C97.7585 37.6402 97.964 37.7788 98.1812 37.9027C98.2674 37.9637 98.2674 37.9637 98.3782 38.0758C98.523 38.2181 98.6753 38.3303 98.8419 38.4455C98.8993 38.4856 98.9566 38.5258 99.0139 38.5659C99.1034 38.6286 99.193 38.6907 99.2836 38.7517C99.3659 38.8078 99.4458 38.8673 99.5253 38.9272C99.5253 38.959 99.5253 38.9908 99.5253 39.0236C99.5531 39.0287 99.5808 39.0339 99.6094 39.0391C99.7353 39.0767 99.8156 39.1309 99.9214 39.2084C99.9592 39.2358 99.997 39.2633 100.036 39.2916C100.075 39.3204 100.114 39.3492 100.154 39.3789C100.193 39.4073 100.232 39.4358 100.273 39.4651C100.379 39.5424 100.484 39.62 100.59 39.6981C100.626 39.723 100.662 39.748 100.699 39.7737C100.727 39.7964 100.755 39.8192 100.783 39.8426C100.783 39.8744 100.783 39.9062 100.783 39.939C100.81 39.9518 100.837 39.9647 100.864 39.9779C100.989 40.0417 101.11 40.1112 101.231 40.1829C101.274 40.2083 101.317 40.2337 101.362 40.2598C101.394 40.2811 101.427 40.3024 101.461 40.3244C101.461 40.3403 101.461 40.3562 101.461 40.3726C100.629 40.3793 99.7977 40.3844 98.9662 40.3875C98.5801 40.389 98.194 40.391 97.8079 40.3944C97.4713 40.3973 97.1346 40.3991 96.798 40.3998C96.6198 40.4001 96.4417 40.401 96.2636 40.4031C96.0644 40.4055 95.8652 40.4055 95.666 40.4054C95.5781 40.4069 95.5781 40.4069 95.4884 40.4085C95.1072 40.4058 94.8806 40.3305 94.5905 40.0835C94.5601 40.0581 94.5296 40.0327 94.4983 40.0065C94.4442 39.9604 94.3905 39.9139 94.3372 39.8669C94.1805 39.7339 94.0114 39.6178 93.8436 39.4993C93.5182 39.2676 93.1961 39.0322 92.877 38.7919C92.7327 38.6834 92.5879 38.5758 92.4403 38.4716C92.3915 38.4372 92.3427 38.4027 92.2924 38.3672C92.25 38.3377 92.2076 38.3083 92.1639 38.278C92.1344 38.2537 92.105 38.2295 92.0747 38.2046C92.0747 38.1728 92.0747 38.141 92.0747 38.1082C92.0397 38.0963 92.0048 38.0844 91.9688 38.0721C91.8194 38.006 91.7182 37.9209 91.5908 37.8192C91.5029 37.7618 91.4142 37.7056 91.3247 37.6505C91.1455 37.5402 90.9749 37.4285 90.8167 37.2892C90.8167 37.2574 90.8167 37.2256 90.8167 37.1928C90.7899 37.1806 90.763 37.1684 90.7353 37.1558C90.6061 37.0875 90.4953 37.0062 90.3783 36.9188C90.145 36.747 89.9052 36.5924 89.6565 36.4435C89.6243 36.4205 89.5921 36.3975 89.5588 36.3738C89.5588 36.342 89.5588 36.3102 89.5588 36.2775C89.5311 36.2645 89.5033 36.2515 89.4747 36.2381C89.3627 36.1797 89.265 36.1139 89.1627 36.0398C89.1249 36.0125 89.0871 35.9852 89.0482 35.9571C89.0092 35.9287 88.9701 35.9003 88.9299 35.871C88.8909 35.8428 88.8518 35.8145 88.8116 35.7854C88.7057 35.7088 88.5999 35.632 88.4945 35.5548C88.4584 35.5299 88.4222 35.505 88.385 35.4793C88.3573 35.4566 88.3295 35.4338 88.3009 35.4103C88.3009 35.3785 88.3009 35.3467 88.3009 35.3139C88.2731 35.3088 88.2453 35.3036 88.2167 35.2983C88.0915 35.261 88.0127 35.2078 87.9078 35.1304C87.851 35.0887 87.851 35.0887 87.793 35.0461C87.7531 35.0163 87.7131 34.9864 87.672 34.9556C87.6309 34.9252 87.5897 34.8948 87.5474 34.8635C87.3145 34.6901 87.0886 34.5115 86.8677 34.3233C86.7146 34.193 86.5724 34.0829 86.3929 33.9921C86.1621 33.8749 85.9768 33.7104 85.7826 33.5424C85.5072 33.305 85.2185 33.0886 84.9137 32.8897C84.6445 32.714 84.3896 32.5256 84.1372 32.3269C83.7707 32.04 83.4044 31.7564 83.0184 31.4959C82.5968 31.2082 82.1957 30.896 81.7998 30.5745C81.6708 30.4709 81.5458 30.3769 81.4006 30.2975C81.2048 30.1892 81.0165 30.0685 80.8503 29.9181C80.8503 29.8863 80.8503 29.8545 80.8503 29.8217C80.8238 29.8097 80.7973 29.7976 80.77 29.7852C80.635 29.7138 80.5168 29.6288 80.3937 29.5387C80.3488 29.506 80.304 29.4733 80.2578 29.4397C80.1695 29.3736 80.0825 29.3058 79.9968 29.2364C79.8695 29.1369 79.7388 29.0705 79.5924 29.0027C79.5924 28.9709 79.5924 28.9391 79.5924 28.9063C79.5646 28.8933 79.5368 28.8802 79.5082 28.8668C79.3146 28.7662 79.143 28.6331 78.9665 28.5059C78.9278 28.4784 78.8892 28.451 78.8494 28.4228C78.6871 28.3062 78.5386 28.1944 78.3978 28.0521C78.272 27.929 78.1536 27.876 77.9958 27.7983C77.8508 27.6968 77.7118 27.5881 77.5725 27.4791C77.4992 27.4222 77.4259 27.3653 77.3525 27.3086C77.3204 27.2835 77.2883 27.2584 77.2552 27.2326C77.1741 27.1688 77.1741 27.1688 77.0766 27.1238C77.0766 27.092 77.0766 27.0602 77.0766 27.0274C77.0392 27.011 77.0392 27.011 77.001 26.9943C76.8934 26.9366 76.8116 26.8743 76.7167 26.7986C76.5872 26.7007 76.5872 26.7007 76.4295 26.7082C76.3876 26.7341 76.3457 26.7599 76.3025 26.7865C76.2363 26.8238 76.1698 26.8607 76.1033 26.8974C76.0646 26.9187 76.0258 26.9401 75.9859 26.9621C75.8761 27.0225 75.7661 27.0827 75.6561 27.1428C75.3162 27.329 74.9795 27.5166 74.6515 27.723C74.4631 27.8406 74.29 27.9306 74.0798 27.9998C73.8963 28.0723 73.7315 28.1794 73.5623 28.2798C73.0186 28.6025 72.4613 28.8985 71.8989 29.1876C71.8537 29.2109 71.8086 29.2341 71.7621 29.2581C71.7022 29.2887 71.7022 29.2887 71.6411 29.32C71.5776 29.3537 71.5776 29.3537 71.5128 29.3881C71.4263 29.4245 71.4263 29.4245 71.3381 29.4617C71.2325 29.5227 71.1838 29.5536 71.1427 29.6694C71.1304 29.7853 71.1293 29.8971 71.1315 30.0137C71.1308 30.08 71.1308 30.08 71.1301 30.1477C71.1288 30.2963 71.13 30.4448 71.1312 30.5933C71.1308 30.6997 71.1303 30.806 71.1296 30.9124C71.1283 31.2014 71.1289 31.4905 71.13 31.7795C71.1308 32.0815 71.1296 32.3834 71.1286 32.6854C71.1273 33.1923 71.1271 33.6992 71.1279 34.2061C71.1286 34.7282 71.1287 35.2503 71.1278 35.7724C71.1277 35.8046 71.1277 35.8368 71.1276 35.8699C71.1273 36.0314 71.1271 36.1929 71.1267 36.3543C71.1243 37.6937 71.1245 39.0331 71.1257 40.3726C69.9123 40.3726 68.6989 40.3726 67.4488 40.3726C67.4488 31.5171 67.4488 22.6616 67.4488 13.5377Z" fill="#D1AE62"/>
<path d="M48.8009 14.0731C48.9105 14.1574 49.0216 14.2282 49.14 14.2996C49.8754 14.7822 50.4541 15.7025 50.8424 16.4736C51.1725 17.1164 51.5347 17.7377 51.909 18.3558C52.0263 18.5495 52.1399 18.7392 52.2273 18.9488C52.303 19.1304 52.4028 19.2932 52.5058 19.4606C52.6816 19.7477 52.851 20.0386 53.0218 20.3287C53.0746 20.4182 53.1279 20.5074 53.1813 20.5966C53.327 20.8414 53.4512 21.0809 53.5638 21.3426C53.6138 21.4312 53.6649 21.5192 53.7167 21.6068C53.7622 21.6839 53.7622 21.6839 53.8087 21.7626C53.8958 21.9094 53.9829 22.0562 54.0701 22.203C54.3415 22.6608 54.6077 23.117 54.8403 23.5957C54.9481 23.816 55.0716 24.0183 55.2067 24.2227C55.5461 24.7551 55.8523 25.3089 56.1276 25.8766C56.2694 26.1639 56.4376 26.4323 56.6081 26.7034C56.7762 26.9733 56.9222 27.2491 57.0616 27.5346C57.1652 27.7463 57.2769 27.9484 57.4012 28.1486C57.7954 28.7852 58.1929 29.434 58.5198 30.1078C58.6804 30.4352 58.8736 30.7447 59.0603 31.0578C59.3633 31.5665 59.6641 32.0732 59.9195 32.6076C59.9976 32.7589 60.0841 32.9002 60.1756 33.0436C60.2882 33.2217 60.3943 33.4036 60.5004 33.5857C60.5238 33.6257 60.5471 33.6657 60.5712 33.707C60.7048 33.9383 60.8305 34.1708 60.9479 34.4107C61.0752 34.6705 61.2169 34.918 61.3679 35.1645C61.7163 35.734 62.054 36.3107 62.3464 36.9108C62.4635 37.1375 62.5985 37.3534 62.7314 37.571C62.8691 37.7969 63.0036 38.0246 63.1372 38.2528C63.1596 38.2908 63.1821 38.3289 63.2052 38.368C63.3301 38.5819 63.4325 38.7959 63.5303 39.0237C63.601 39.1545 63.6772 39.2817 63.754 39.4091C63.7854 39.4618 63.7854 39.4618 63.8175 39.5156C63.9248 39.6955 64.0334 39.8746 64.1426 40.0533C64.1627 40.0863 64.1828 40.1193 64.2035 40.1533C64.2419 40.2162 64.2804 40.2789 64.3192 40.3415C64.4495 40.5547 64.4495 40.5547 64.4495 40.6617C63.904 40.6684 63.3586 40.6735 62.8131 40.6767C62.5598 40.6782 62.3066 40.6802 62.0533 40.6835C61.8089 40.6867 61.5646 40.6884 61.3202 40.6891C61.2269 40.6897 61.1336 40.6907 61.0403 40.6923C60.9098 40.6944 60.7793 40.6947 60.6487 40.6945C60.6101 40.6956 60.5714 40.6966 60.5316 40.6977C60.4234 40.6965 60.4234 40.6965 60.2404 40.6617C60.0468 40.4393 60.0468 40.4393 60.0468 40.2763C60.0149 40.2763 59.983 40.2763 59.9501 40.2763C59.6809 39.7965 59.6809 39.7965 59.5902 39.5807C59.5224 39.4268 59.4471 39.2893 59.3616 39.1447C59.3312 39.0933 59.3009 39.0419 59.2697 38.9889C59.1826 38.8422 59.0955 38.6954 59.0083 38.5487C58.7383 38.0932 58.4731 37.6393 58.2417 37.1629C58.1199 36.9142 57.9792 36.682 57.8311 36.4481C57.5423 35.9901 57.2654 35.521 57.0291 35.034C56.7918 34.5484 56.5032 34.0907 56.2247 33.6278C56.1569 33.5146 56.0894 33.4011 56.0221 33.2876C55.9975 33.2463 55.9729 33.205 55.9475 33.1624C55.8861 33.0497 55.8861 33.0497 55.843 32.9386C55.7858 32.8003 55.7174 32.6757 55.6423 32.5463C55.6142 32.4975 55.5862 32.4487 55.5572 32.3984C55.4979 32.296 55.4386 32.1937 55.3792 32.0913C55.3513 32.0427 55.3233 31.9941 55.2945 31.944C55.2688 31.8997 55.2431 31.8553 55.2166 31.8095C55.1604 31.7007 55.1604 31.7007 55.1604 31.6044C55.1284 31.6044 55.0965 31.6044 55.0636 31.6044C54.9938 31.483 54.9243 31.3616 54.855 31.24C54.8354 31.2061 54.8159 31.1721 54.7957 31.1372C54.7765 31.1035 54.7574 31.0698 54.7376 31.0351C54.7201 31.0045 54.7026 30.974 54.6846 30.9426C54.6096 30.7976 54.5476 30.6462 54.483 30.4963C49.0547 30.4963 43.6264 30.4963 38.0335 30.4963C37.7222 31.0448 37.7222 31.0448 37.4046 31.6044C37.3567 31.668 37.3088 31.7315 37.2594 31.7971C37.2101 31.9091 37.1618 32.0215 37.1143 32.1343C37.0626 32.2306 37.0091 32.3259 36.954 32.4204C36.9379 32.4482 36.9218 32.476 36.9052 32.5047C36.7939 32.6963 36.6811 32.8869 36.5683 33.0775C36.3026 33.5275 36.0389 33.9766 35.7989 34.4408C35.5663 34.8906 35.303 35.3188 35.0339 35.7476C34.9772 35.8388 34.9207 35.9301 34.8646 36.0216C34.8441 36.0546 34.8237 36.0876 34.8026 36.1216C34.7379 36.2355 34.7379 36.2355 34.6775 36.3869C34.5937 36.5858 34.4861 36.7674 34.3747 36.952C34.3534 36.9878 34.3321 37.0235 34.3102 37.0604C34.2089 37.2301 34.1067 37.3991 34.0032 37.5674C33.7807 37.9303 33.5762 38.2988 33.3799 38.6763C33.1873 39.0444 32.9763 39.4003 32.7628 39.7565C32.6612 39.9277 32.5653 40.1018 32.4697 40.2763C32.4378 40.2763 32.4059 40.2763 32.373 40.2763C32.358 40.322 32.343 40.3677 32.3276 40.4148C32.2762 40.5654 32.2762 40.5654 32.2278 40.6617C30.8228 40.6617 29.4179 40.6617 27.9703 40.6617C28.1847 40.2348 28.1847 40.2348 28.2878 40.0806C28.3772 39.9415 28.4439 39.8042 28.5061 39.6507C28.5642 39.5248 28.6337 39.4078 28.7043 39.2885C28.7346 39.2371 28.7649 39.1858 28.7962 39.1329C28.8424 39.055 28.8424 39.055 28.8895 38.9755C29.2421 38.3796 29.5929 37.7846 29.9131 37.1707C30.0196 36.9671 30.131 36.7666 30.2442 36.5666C30.2761 36.5666 30.3081 36.5666 30.341 36.5666C30.3522 36.5271 30.3634 36.4875 30.375 36.4468C30.4507 36.2426 30.5543 36.0685 30.6675 35.8831C30.7117 35.8096 30.7558 35.7361 30.7998 35.6626C30.821 35.6272 30.8422 35.5919 30.864 35.5556C30.9581 35.3969 31.0458 35.2351 31.1336 35.0729C31.4046 34.573 31.6777 34.0759 31.9867 33.5981C32.0708 33.4553 32.1449 33.3123 32.2182 33.1639C32.369 32.86 32.5359 32.5678 32.7086 32.2758C32.7368 32.2277 32.7649 32.1796 32.7939 32.1301C32.9626 31.8435 33.1372 31.5619 33.3192 31.2835C33.4082 31.1397 33.4702 30.9897 33.5341 30.8335C33.7953 30.3242 34.1036 29.8326 34.405 29.346C34.5425 29.1196 34.6635 28.8852 34.786 28.6505C34.9531 28.3307 35.1282 28.0217 35.321 27.7165C35.625 27.2329 35.9086 26.7432 36.1593 26.2301C36.3045 25.9433 36.4676 25.6666 36.6305 25.3895C36.6624 25.3895 36.6943 25.3895 36.7272 25.3895C36.7399 25.3475 36.7526 25.3055 36.7656 25.2623C36.8238 25.101 36.8949 24.9695 36.9843 24.8234C37.0897 24.6506 37.1863 24.4768 37.2755 24.2953C37.4083 24.0277 37.5589 23.7725 37.713 23.5166C37.769 23.4229 37.8249 23.3291 37.8808 23.2354C37.9505 23.1191 38.0202 23.0028 38.09 22.8866C38.2703 22.5867 38.4336 22.2823 38.5877 21.9684C38.6839 21.7748 38.7925 21.6004 38.9169 21.4241C39.0623 21.2003 39.1874 20.9647 39.3149 20.7304C39.4713 20.4449 39.4713 20.4449 39.563 20.3258C39.6599 20.194 39.7118 20.0474 39.7752 19.8972C39.831 19.7939 39.8885 19.6916 39.9476 19.5901C39.9643 19.5612 39.9811 19.5323 39.9983 19.5026C40.0888 19.3469 40.1805 19.192 40.273 19.0376C40.5111 18.6395 40.7379 18.2372 40.9576 17.8286C41.2063 17.3664 41.4712 16.9176 41.7497 16.4727C41.9524 16.1471 42.152 15.8232 42.291 15.4649C42.323 15.4649 42.3549 15.4649 42.3878 15.4649C42.4003 15.4377 42.4128 15.4105 42.4256 15.3825C42.9293 14.4404 44.0472 13.6846 45.0603 13.3749C46.3353 13.0302 47.7539 13.2577 48.8009 14.0731ZM45.6687 17.2099C45.525 17.3503 45.423 17.5111 45.3179 17.6811C45.2953 17.7168 45.2727 17.7526 45.2495 17.7894C45.1818 17.8974 45.1151 18.0059 45.0488 18.1147C45.0292 18.1466 45.0096 18.1785 44.9894 18.2114C44.7907 18.5375 44.619 18.8531 44.5166 19.2228C44.4846 19.2228 44.4527 19.2228 44.4198 19.2228C44.4008 19.2567 44.3818 19.2907 44.3622 19.3257C44.2747 19.4821 44.187 19.6385 44.0993 19.7949C44.0694 19.8483 44.0395 19.9017 44.0088 19.9567C43.8711 20.2021 43.7322 20.4461 43.5856 20.6863C43.4738 20.8702 43.3758 21.0552 43.2829 21.2492C43.1726 21.4745 43.0521 21.6823 42.9075 21.8874C42.7621 22.1112 42.637 22.3468 42.5095 22.581C42.3531 22.8665 42.3531 22.8665 42.2614 22.9857C42.1645 23.1174 42.1128 23.2641 42.0491 23.4142C41.9893 23.5245 41.9278 23.6339 41.8647 23.7424C41.8476 23.772 41.8304 23.8015 41.8128 23.8319C41.718 23.9949 41.6213 24.1566 41.523 24.3175C41.3721 24.5661 41.2314 24.8199 41.0906 25.0742C40.9676 25.2959 40.8431 25.5167 40.717 25.7367C40.6882 25.787 40.6594 25.8373 40.6297 25.8892C40.5727 25.9886 40.5155 26.088 40.4581 26.1873C40.4193 26.2552 40.4193 26.2551 40.3796 26.3244C40.3564 26.3648 40.3331 26.4052 40.3091 26.4468C40.2518 26.5416 40.2518 26.5416 40.2591 26.6421C40.2271 26.6421 40.1952 26.6421 40.1623 26.6421C40.1144 26.7613 40.1144 26.7613 40.0655 26.883C44.1527 26.883 48.24 26.883 52.451 26.883C52.1723 26.3278 51.8879 25.7884 51.5688 25.2575C51.2534 24.7312 50.9604 24.1942 50.6706 23.6536C50.5409 23.4117 50.4087 23.1715 50.2739 22.9324C50.242 22.9324 50.21 22.9324 50.1771 22.9324C50.1592 22.8714 50.1592 22.8714 50.1408 22.8092C50.0746 22.6277 49.9859 22.4681 49.8868 22.3031C49.7052 21.9987 49.7052 21.9987 49.6459 21.8499C49.5771 21.6798 49.4823 21.5265 49.3879 21.3697C49.3671 21.3348 49.3464 21.2999 49.325 21.2639C49.2273 21.0999 49.1291 20.9363 49.0309 20.7727C48.9742 20.6782 48.9176 20.5838 48.8611 20.4893C48.8061 20.3974 48.751 20.3057 48.6957 20.2141C48.5584 19.9845 48.4383 19.7599 48.3387 19.5118C48.291 19.4151 48.2428 19.3186 48.1935 19.2228C48.1616 19.2228 48.1297 19.2228 48.0968 19.2228C48.0804 19.1646 48.0804 19.1646 48.0637 19.1053C47.9832 18.8884 47.8729 18.6988 47.7551 18.5001C47.7194 18.4398 47.7194 18.4398 47.6831 18.3783C47.6346 18.2967 47.586 18.2153 47.5372 18.134C47.4936 18.0613 47.4503 17.9885 47.4073 17.9155C47.1491 17.4776 46.8877 17.0712 46.3671 16.9313C46.056 16.8836 45.8949 17.0148 45.6687 17.2099Z" fill="#D1AE62"/>
<path d="M0.00597392 13.5378C1.21937 13.5378 2.43276 13.5378 3.68292 13.5378C3.68331 13.7886 3.6837 14.0393 3.68411 14.2977C3.68774 16.5984 3.69185 18.8991 3.69647 21.1998C3.69708 21.5014 3.69768 21.803 3.69828 22.1047C3.6984 22.1647 3.69851 22.2247 3.69864 22.2866C3.70056 23.2585 3.70214 24.2303 3.7036 25.2022C3.70511 26.1997 3.70698 27.1971 3.70918 28.1946C3.71053 28.8099 3.7116 29.4253 3.7123 30.0406C3.71281 30.4627 3.71367 30.8849 3.71481 31.307C3.71546 31.5505 3.71595 31.7939 3.71602 32.0373C3.71609 32.2605 3.71661 32.4837 3.71747 32.7069C3.7177 32.7873 3.71778 32.8678 3.71767 32.9482C3.71632 34.1665 3.97424 35.0721 4.82857 35.9783C5.50524 36.6052 6.3563 36.6852 7.23688 36.6821C7.31454 36.6824 7.39219 36.6827 7.46985 36.6831C7.68114 36.6839 7.89242 36.6839 8.1037 36.6838C8.33234 36.6837 8.56098 36.6845 8.78961 36.6852C9.18504 36.6863 9.58047 36.6869 9.9759 36.6871C10.5476 36.6874 11.1193 36.6885 11.691 36.6898C12.6188 36.6919 13.5465 36.6933 14.4742 36.6944C15.375 36.6954 16.2759 36.6967 17.1767 36.6984C17.2601 36.6986 17.2601 36.6986 17.3451 36.6988C17.6241 36.6993 17.903 36.6998 18.1819 36.7004C20.4931 36.7049 22.8044 36.7082 25.1157 36.7111C25.1157 37.9194 25.1157 39.1277 25.1157 40.3726C22.7276 40.3747 20.3395 40.3765 17.9514 40.3775C17.6691 40.3776 17.3869 40.3777 17.1046 40.3779C17.0204 40.3779 17.0204 40.3779 16.9344 40.3779C16.0258 40.3784 15.1173 40.3791 14.2088 40.38C13.2758 40.3809 12.3428 40.3814 11.4099 40.3816C10.8347 40.3818 10.2594 40.3822 9.68424 40.383C9.28924 40.3835 8.89425 40.3836 8.49925 40.3835C8.27172 40.3834 8.04418 40.3835 7.81665 40.384C5.48312 40.3891 5.48312 40.3891 4.55378 40.0353C4.52206 40.0233 4.49033 40.0114 4.45765 39.999C3.93509 39.7969 3.47222 39.5232 3.00559 39.2163C2.961 39.1877 2.91641 39.1592 2.87046 39.1297C2.54673 38.9202 2.27768 38.6918 2.02739 38.3988C1.94675 38.3072 1.86292 38.2228 1.7749 38.1383C1.38739 37.7585 1.07545 37.3185 0.834496 36.8345C0.817798 36.801 0.8011 36.7676 0.783895 36.733C0.213064 35.5705 -0.00222967 34.4567 0.000155901 33.1721C0.000134777 33.0872 9.23684e-05 33.0023 3.06349e-05 32.9174C-7.71233e-05 32.6851 0.000115402 32.4528 0.000358564 32.2206C0.00056804 31.9697 0.000496753 31.7189 0.000460053 31.468C0.000434719 31.0337 0.000586155 30.5994 0.000858607 30.1652C0.00125227 29.5373 0.00137785 28.9094 0.0014386 28.2815C0.00154441 27.2627 0.00186618 26.2439 0.00232409 25.2251C0.00276837 24.2357 0.00311074 23.2462 0.00331628 22.2567C0.00332899 22.1957 0.0033417 22.1346 0.0033548 22.0718C0.00341794 21.7656 0.00347908 21.4595 0.00353922 21.1534C0.00404054 18.6148 0.00490582 16.0763 0.00597392 13.5378Z" fill="#D1AE62"/>
<path d="M171.564 0C171.602 0.0953007 171.639 0.190665 171.676 0.286053C171.707 0.365701 171.707 0.365701 171.739 0.446958C171.786 0.5728 171.83 0.69743 171.871 0.825038C171.968 1.11827 172.086 1.40313 172.202 1.68922C172.225 1.74471 172.247 1.8002 172.27 1.85737C172.325 1.99307 172.38 2.12873 172.435 2.26434C172.113 2.43245 171.78 2.57274 171.443 2.71065C171.35 2.74901 171.256 2.78768 171.163 2.82638C170.881 2.94295 170.598 3.05473 170.307 3.14747C170.136 3.20401 169.971 3.27321 169.804 3.34231C169.769 3.35708 169.733 3.37186 169.696 3.38709C169.458 3.48566 169.224 3.59004 168.991 3.6978C168.795 3.78419 168.597 3.8615 168.398 3.93924C168.214 4.01144 168.035 4.08908 167.857 4.17337C167.675 4.25768 167.497 4.3202 167.304 4.37511C167.061 4.44673 166.832 4.53547 166.602 4.64009C166.182 4.83118 165.757 5.01068 165.33 5.18794C165.254 5.21973 165.178 5.25159 165.101 5.28352C164.684 5.45782 164.267 5.62218 163.84 5.77078C163.56 5.87214 163.289 5.99103 163.016 6.1095C162.927 6.14772 162.838 6.18595 162.749 6.22415C162.607 6.28517 162.465 6.34641 162.323 6.40759C162.152 6.48128 161.981 6.55455 161.809 6.6274C161.758 6.64979 161.758 6.64979 161.705 6.67263C161.528 6.74738 161.353 6.80963 161.169 6.86227C160.907 6.93796 160.662 7.0416 160.412 7.15133C160.327 7.18847 160.242 7.22554 160.157 7.26255C160.115 7.28064 160.074 7.29872 160.031 7.31735C159.864 7.38855 159.694 7.45507 159.525 7.52178C159.409 7.56873 159.295 7.62072 159.182 7.67526C158.948 7.78259 158.71 7.87154 158.468 7.9583C157.906 8.16048 157.358 8.39188 156.808 8.62375C156.694 8.67163 156.58 8.71949 156.466 8.76735C156.25 8.8583 156.034 8.94936 155.818 9.0406C155.771 9.06034 155.724 9.08008 155.675 9.10042C155.575 9.14323 155.475 9.18748 155.375 9.23218C155.245 9.28471 155.122 9.3251 154.988 9.36298C154.68 9.45211 154.392 9.57992 154.099 9.70775C154.01 9.74605 153.921 9.78436 153.831 9.82264C153.588 9.92742 153.345 10.0332 153.102 10.1397C152.96 10.2019 152.817 10.2634 152.675 10.325C152.622 10.3484 152.569 10.3718 152.515 10.396C152.466 10.4171 152.417 10.4382 152.366 10.46C152.323 10.4787 152.281 10.4975 152.237 10.5168C152.09 10.5579 152.015 10.5602 151.873 10.5027C151.802 10.3908 151.802 10.3908 151.745 10.2422C151.724 10.1878 151.702 10.1334 151.68 10.0774C151.658 10.019 151.636 9.9606 151.613 9.90046C151.567 9.78151 151.52 9.66257 151.474 9.54364C151.451 9.48533 151.429 9.42701 151.405 9.36693C151.308 9.11598 151.202 8.86829 151.096 8.62084C151.038 8.48435 151.002 8.38808 151.002 8.23833C151.074 8.20906 151.145 8.17999 151.217 8.15101C151.257 8.1348 151.297 8.1186 151.338 8.1019C151.453 8.05819 151.567 8.01926 151.685 7.98183C151.963 7.89041 152.23 7.77524 152.499 7.66021C152.554 7.63712 152.608 7.61404 152.664 7.59026C152.892 7.49367 153.12 7.39668 153.347 7.29932C154.417 6.84152 154.417 6.84152 154.843 6.69967C155.393 6.51599 155.921 6.27391 156.453 6.0437C156.678 5.94647 156.903 5.84986 157.129 5.75419C157.18 5.7318 157.18 5.7318 157.233 5.70895C157.411 5.63379 157.587 5.57121 157.772 5.51801C158.016 5.44733 158.245 5.35364 158.477 5.25134C158.567 5.21254 158.657 5.17378 158.746 5.13503C158.817 5.10455 158.817 5.10455 158.888 5.07345C159.646 4.74515 160.406 4.43407 161.18 4.14623C161.688 3.95613 162.184 3.74427 162.679 3.52514C162.888 3.43343 163.097 3.34381 163.306 3.25499C163.342 3.23967 163.377 3.22434 163.414 3.20856C163.595 3.13204 163.774 3.06758 163.964 3.01372C164.223 2.93881 164.464 2.83511 164.709 2.72503C165.153 2.52994 165.598 2.34044 166.046 2.15594C166.076 2.1434 166.107 2.13086 166.138 2.11795C166.459 1.98575 166.781 1.856 167.107 1.7374C167.493 1.59674 167.871 1.43815 168.25 1.27971C168.283 1.26588 168.316 1.25205 168.35 1.2378C168.716 1.08486 169.08 0.929497 169.442 0.767827C169.702 0.65294 169.96 0.567947 170.233 0.490054C170.561 0.381044 170.874 0.231022 171.188 0.0859689C171.32 0.0278846 171.418 0 171.564 0Z" fill="#D1AE62"/>
</svg>
