<svg width="175" height="35" viewBox="0 0 175 35" fill="none" xmlns="http://www.w3.org/2000/svg">
<path d="M109.097 12.2176C109.131 12.2315 109.165 12.2454 109.2 12.2598C109.306 12.3095 109.399 12.3621 109.491 12.4298C109.491 12.4571 109.491 12.4845 109.491 12.5126C109.518 12.5227 109.546 12.5327 109.573 12.5431C109.8 12.6498 109.981 12.8177 110.169 12.9684C110.216 13.0064 110.216 13.0064 110.265 13.0453C110.332 13.1006 110.396 13.1585 110.459 13.217C110.459 13.2443 110.459 13.2717 110.459 13.2998C110.488 13.3098 110.517 13.3197 110.547 13.3299C110.676 13.3944 110.716 13.4532 110.789 13.564C110.825 13.6189 110.825 13.6189 110.862 13.675C110.889 13.7153 110.915 13.7555 110.943 13.797C111.005 13.8868 111.068 13.9766 111.13 14.0663C111.281 14.2838 111.281 14.2838 111.281 14.3771C111.313 14.3771 111.345 14.3771 111.378 14.3771C111.427 14.4571 111.477 14.537 111.526 14.617C111.569 14.6876 111.612 14.7581 111.656 14.8287C111.767 15.0094 111.878 15.1903 111.988 15.3715C112.247 15.7963 112.516 16.2146 112.799 16.6282C112.847 16.6981 112.895 16.7681 112.942 16.838C112.989 16.9064 113.036 16.9747 113.083 17.0429C113.191 17.2013 113.286 17.3565 113.368 17.5266C113.47 17.7247 113.598 17.9132 113.719 18.1034C113.746 18.1468 113.773 18.1901 113.801 18.2348C113.936 18.4473 114.075 18.655 114.227 18.8588C114.317 18.985 114.391 19.1175 114.466 19.2506C114.647 19.5677 114.847 19.8724 115.055 20.1777C115.122 20.2777 115.188 20.3779 115.255 20.478C115.387 20.6781 115.525 20.8752 115.668 21.0694C115.723 21.1573 115.762 21.2385 115.801 21.3319C115.871 21.4961 115.966 21.641 116.074 21.7883C116.427 22.2801 116.75 22.7838 117.048 23.3016C117.163 23.5005 117.288 23.692 117.421 23.8828C117.77 24.3874 118.109 24.8979 118.41 25.4251C118.522 25.6209 118.645 25.8085 118.775 25.9959C119.125 26.5002 119.463 27.0106 119.764 27.5377C119.879 27.738 120.005 27.9297 120.139 28.1212C120.257 28.2938 120.372 28.468 120.486 28.6428C120.506 28.6741 120.527 28.7053 120.548 28.7374C120.666 28.9189 120.766 29.1015 120.861 29.2928C120.921 29.3877 120.982 29.4818 121.045 29.5751C121.062 29.6 121.079 29.6249 121.096 29.6506C121.223 29.8387 121.354 30.0245 121.488 30.2089C121.538 30.2872 121.538 30.2872 121.538 30.3701C121.57 30.3701 121.602 30.3701 121.635 30.3701C121.712 30.4549 121.712 30.4549 121.798 30.5669C121.989 30.8166 121.989 30.8166 122.264 30.9915C122.585 31.0049 122.793 30.9167 123.045 30.7544C123.135 30.7015 123.135 30.7015 123.232 30.7015C123.243 30.6775 123.254 30.6536 123.266 30.6289C123.342 30.5147 123.433 30.4552 123.552 30.3727C123.84 30.1567 124.011 29.907 124.199 29.6243C124.261 29.5419 124.324 29.4601 124.388 29.3788C124.449 29.2842 124.449 29.2842 124.505 29.1402C124.588 28.9462 124.704 28.7755 124.828 28.5988C124.876 28.5295 124.923 28.4602 124.971 28.3908C124.995 28.3553 125.019 28.3197 125.045 28.2831C125.308 27.8937 125.566 27.4993 125.796 27.0943C125.979 26.7736 126.195 26.4686 126.406 26.1604C126.51 26.007 126.613 25.853 126.715 25.6985C126.741 25.6593 126.741 25.6593 126.768 25.6194C126.846 25.5006 126.916 25.3827 126.979 25.2572C127.068 25.0788 127.175 24.9121 127.286 24.743C127.308 24.71 127.33 24.677 127.352 24.643C127.532 24.3675 127.722 24.097 127.914 23.8273C128.046 23.6374 128.171 23.4543 128.26 23.2463C128.356 23.028 128.495 22.8412 128.64 22.6447C128.911 22.2766 129.152 21.8935 129.376 21.5035C129.571 21.1645 129.785 20.8364 130.005 20.5091C130.039 20.4584 130.039 20.4584 130.074 20.4067C130.485 19.7952 130.485 19.7952 130.621 19.6033C130.688 19.5112 130.688 19.5112 130.743 19.3904C130.895 19.08 131.097 18.788 131.293 18.497C131.574 18.0818 131.842 17.6631 132.097 17.2359C132.294 16.9069 132.494 16.5859 132.726 16.2744C132.824 16.1408 132.914 16.0046 133.001 15.8661C133.029 15.8229 133.056 15.7797 133.084 15.7351C133.139 15.6394 133.272 15.5582 133.295 15.4543C133.262 15.4543 133.327 15.4543 133.295 15.4543C133.306 15.4213 133.317 15.3883 133.328 15.3543C133.409 15.1642 133.519 14.9938 133.633 14.8173C133.657 14.781 133.68 14.7447 133.704 14.7073C133.909 14.3931 134.129 14.0877 134.357 13.7854C134.405 13.7174 134.448 13.6464 134.49 13.5753C134.631 13.3609 134.847 13.1985 135.052 13.0279C135.092 12.9938 135.132 12.9596 135.173 12.9244C135.513 12.6368 135.827 12.3857 136.255 12.1993C136.291 12.1833 136.328 12.1673 136.365 12.1509C136.47 12.1051 136.576 12.0601 136.681 12.0154C136.731 11.9943 136.781 11.9731 136.832 11.9513C137.803 11.571 138.925 11.5282 139.932 11.8212C140.203 11.9084 140.451 12.0096 140.697 12.1397C140.746 12.1639 140.746 12.1639 140.796 12.1886C141.626 12.6093 142.116 13.3042 142.36 14.0871C142.452 14.3978 142.494 14.6957 142.493 15.016C142.493 15.0502 142.493 15.0844 142.493 15.1196C142.493 15.2342 142.493 15.3487 142.493 15.4633C142.493 15.5463 142.493 15.6292 142.493 15.7122C142.493 15.9402 142.493 16.1682 142.493 16.3962C142.493 16.642 142.493 16.8879 142.493 17.1337C142.493 17.5874 142.492 18.0411 142.492 18.4948C142.492 18.9138 142.492 19.3328 142.492 19.7517C142.492 19.7795 142.492 19.8073 142.492 19.8359C142.492 19.977 142.492 20.1181 142.492 20.2592C142.492 21.2584 142.491 22.2575 142.491 23.2567C142.49 24.2274 142.49 25.198 142.49 26.1687C142.49 26.2136 142.49 26.2136 142.49 26.2594C142.49 26.5599 142.49 26.8604 142.49 27.1609C142.489 27.773 142.489 28.3851 142.489 28.9973C142.489 29.0254 142.489 29.0536 142.489 29.0826C142.489 30.9619 142.488 32.8412 142.487 34.7205C142.381 34.7274 142.275 34.7341 142.169 34.7409C142.081 34.7465 142.081 34.7465 141.991 34.7523C141.703 34.7676 141.415 34.7678 141.126 34.7674C141.033 34.7675 141.033 34.7675 140.938 34.7675C140.809 34.7676 140.679 34.7675 140.55 34.7673C140.384 34.7671 140.218 34.7672 140.053 34.7675C139.893 34.7677 139.734 34.7675 139.575 34.7674C139.486 34.7675 139.486 34.7675 139.395 34.7677C139.34 34.7675 139.285 34.7674 139.229 34.7673C139.18 34.7672 139.132 34.7672 139.082 34.7672C138.955 34.7619 138.955 34.7619 138.762 34.7205C138.746 28.1439 138.73 21.5673 138.713 14.7914C138.198 14.8466 137.888 15.0384 137.556 15.3754C137.24 15.7543 137.002 16.1822 136.764 16.5992C136.57 16.9266 136.358 17.2463 136.149 17.5674C136.117 17.5674 136.159 17.5674 136.126 17.5674C136.114 17.6024 136.029 17.6375 136.016 17.6736C135.961 17.803 135.893 17.912 135.81 18.0299C135.762 18.1064 135.729 18.1807 135.696 18.263C135.624 18.4312 135.529 18.5763 135.417 18.7275C135.379 18.7819 135.34 18.8363 135.301 18.8908C135.281 18.9185 135.261 18.9463 135.241 18.9748C134.996 19.3217 134.769 19.6764 134.562 20.0404C134.344 20.4214 134.095 20.7868 133.847 21.1536C133.75 21.2975 133.654 21.4419 133.558 21.5864C133.401 21.8215 133.401 21.8215 133.318 21.9359C133.248 22.0391 133.195 22.1439 133.142 22.2535C133.066 22.3997 132.972 22.5375 132.88 22.6766C132.838 22.7421 132.795 22.8076 132.752 22.8732C132.73 22.9067 132.708 22.9403 132.685 22.9748C132.617 23.0785 132.55 23.1824 132.483 23.2866C132.462 23.3202 132.44 23.3538 132.418 23.3884C132.376 23.4528 132.335 23.5173 132.294 23.5818C132.148 23.8086 132.148 23.8086 132.056 23.9069C131.974 24.007 131.935 24.1129 131.887 24.2276C131.804 24.4046 131.687 24.5659 131.574 24.7301C131.522 24.8071 131.47 24.8842 131.418 24.9613C131.392 24.9998 131.366 25.0382 131.339 25.0778C131.095 25.4392 130.853 25.8022 130.64 26.1776C130.385 26.6237 130.081 27.0495 129.79 27.4788C129.772 27.5048 129.755 27.5307 129.737 27.5574C129.691 27.6249 129.645 27.6922 129.599 27.7595C129.518 27.8844 129.518 27.8844 129.453 28.0222C129.362 28.2015 129.255 28.3692 129.143 28.5393C129.122 28.5723 129.1 28.6053 129.078 28.6393C128.897 28.9148 128.708 29.1853 128.516 29.455C128.383 29.6449 128.259 29.828 128.169 30.036C128.074 30.2538 127.935 30.4404 127.79 30.6363C127.672 30.7972 127.564 30.9626 127.456 31.1288C127.312 31.3496 127.165 31.566 127.005 31.7788C126.974 31.8268 126.974 31.8268 126.942 31.8757C126.845 32.0059 126.731 32.1169 126.609 32.2294C126.574 32.262 126.574 32.262 126.538 32.2953C126.375 32.4449 126.205 32.5839 126.021 32.715C125.939 32.7726 125.939 32.7726 125.864 32.8429C125.796 32.8974 125.796 32.8974 125.699 32.8974C125.688 32.9211 125.678 32.9447 125.667 32.969C125.438 33.3014 124.877 33.5163 124.489 33.6847C124.452 33.7025 124.414 33.7202 124.376 33.7386C123.397 34.1905 122.288 34.2809 121.221 34.0317C120.918 33.9469 120.658 33.8208 120.386 33.6806C120.235 33.6007 120.235 33.6007 120.081 33.5397C119.62 33.3343 119.267 32.9366 118.926 32.6074C118.898 32.5815 118.87 32.5555 118.841 32.5288C118.528 32.2311 118.285 31.8981 118.103 31.5302C118.045 31.4388 117.986 31.3481 117.925 31.2583C117.89 31.2074 117.856 31.1565 117.822 31.1057C117.795 31.067 117.795 31.067 117.769 31.0277C117.685 30.9038 117.602 30.7793 117.52 30.6549C117.371 30.4316 117.219 30.2101 117.065 29.9896C116.996 29.8824 116.941 29.774 116.886 29.6613C116.808 29.5119 116.712 29.3706 116.618 29.2281C116.597 29.1956 116.576 29.1631 116.554 29.1297C116.49 29.032 116.426 28.9345 116.361 28.8371C116.334 28.7947 116.334 28.7947 116.305 28.7514C116.082 28.4117 116.082 28.4117 115.841 28.0809C115.758 27.9693 115.701 27.8609 115.648 27.7365C115.553 27.5236 115.421 27.3353 115.283 27.142C114.951 26.6782 114.649 26.2011 114.369 25.7131C114.254 25.5142 114.129 25.3227 113.996 25.1319C113.646 24.6275 113.308 24.1171 113.007 23.5899C112.893 23.3913 112.768 23.2015 112.636 23.0116C112.509 22.8265 112.388 22.6391 112.267 22.4513C112.245 22.4172 112.223 22.383 112.2 22.3479C112.092 22.1787 111.987 22.0088 111.887 21.8356C111.764 21.6216 111.627 21.415 111.487 21.2083C111.436 21.1321 111.385 21.0559 111.334 20.9798C111.309 20.9424 111.284 20.905 111.258 20.8665C111.151 20.7079 111.045 20.5491 110.94 20.39C110.914 20.3513 110.914 20.3513 110.887 20.3118C110.809 20.1936 110.74 20.0762 110.678 19.9512C110.596 19.7892 110.501 19.6391 110.399 19.4862C110.379 19.4573 110.36 19.4284 110.34 19.3986C110.144 19.1024 109.944 18.8072 109.739 18.5152C109.709 18.4724 109.679 18.4297 109.649 18.3857C109.622 18.3479 109.595 18.3101 109.568 18.2711C109.508 18.1743 109.464 18.0872 109.421 17.985C109.351 17.8184 109.257 17.6754 109.147 17.526C109.108 17.4716 109.069 17.4171 109.03 17.3627C109.01 17.3349 108.99 17.3072 108.97 17.2786C108.719 16.9225 108.487 16.5578 108.273 16.1846C107.966 15.6533 107.628 15.1021 106.976 14.8329C106.842 14.8042 106.727 14.7957 106.589 14.7914C106.529 14.9431 106.533 15.0824 106.533 15.2403C106.533 15.2739 106.533 15.3075 106.533 15.3421C106.533 15.4556 106.533 15.569 106.532 15.6825C106.532 15.7643 106.532 15.8461 106.532 15.9279C106.531 16.1534 106.531 16.379 106.53 16.6045C106.53 16.8474 106.529 17.0903 106.529 17.3333C106.528 17.7544 106.527 18.1755 106.526 18.5966C106.525 19.0384 106.524 19.4802 106.523 19.9219C106.523 19.9494 106.523 19.9768 106.523 20.0051C106.523 20.1445 106.522 20.2839 106.522 20.4233C106.52 21.411 106.518 22.3988 106.516 23.3866C106.514 24.3463 106.512 25.3061 106.51 26.2658C106.51 26.2954 106.51 26.3249 106.51 26.3554C106.509 26.6524 106.508 26.9494 106.508 27.2464C106.506 27.8514 106.505 28.4564 106.504 29.0614C106.503 29.0892 106.503 29.117 106.503 29.1457C106.499 31.0039 106.495 32.8622 106.492 34.7205C106.415 34.7273 106.338 34.7341 106.26 34.7409C106.217 34.7447 106.174 34.7484 106.13 34.7523C105.982 34.764 105.835 34.7672 105.686 34.7673C105.599 34.7675 105.599 34.7675 105.509 34.7677C105.448 34.7676 105.387 34.7675 105.324 34.7674C105.259 34.7674 105.194 34.7675 105.129 34.7675C104.994 34.7676 104.859 34.7675 104.724 34.7673C104.551 34.7671 104.379 34.7672 104.206 34.7675C104.072 34.7676 103.939 34.7676 103.805 34.7675C103.711 34.7674 103.616 34.7675 103.522 34.7677C103.464 34.7675 103.407 34.7674 103.347 34.7673C103.272 34.7672 103.272 34.7672 103.195 34.7672C103.063 34.7621 102.944 34.7439 102.815 34.7205C102.811 32.8113 102.808 30.9021 102.807 28.9929C102.807 28.9646 102.807 28.9363 102.807 28.9072C102.806 28.2924 102.805 27.6776 102.805 27.0629C102.805 26.7613 102.804 26.4598 102.804 26.1583C102.804 26.1283 102.804 26.0983 102.804 26.0674C102.803 25.096 102.802 24.1245 102.8 23.1531C102.798 22.1543 102.797 21.1556 102.797 20.1568C102.797 20.0155 102.797 19.8743 102.796 19.733C102.796 19.7052 102.796 19.6774 102.796 19.6488C102.796 19.2299 102.795 18.8111 102.794 18.3923C102.793 17.9152 102.793 17.4381 102.793 16.961C102.793 16.7177 102.793 16.4745 102.792 16.2312C102.791 16.0081 102.791 15.7849 102.791 15.5618C102.791 15.4815 102.791 15.4012 102.791 15.3208C102.783 14.2556 103.068 13.302 103.957 12.5265C104.174 12.3532 104.388 12.21 104.653 12.0983C104.695 12.0788 104.736 12.0593 104.779 12.0392C106.25 11.3686 107.674 11.6358 109.097 12.2176Z" fill="#0D0D0D"/>
<path d="M154.078 11.6276C154.169 11.6275 154.26 11.6274 154.352 11.6272C154.599 11.627 154.846 11.6275 155.093 11.6281C155.361 11.6286 155.628 11.6284 155.896 11.6284C156.359 11.6283 156.821 11.6287 157.284 11.6294C157.953 11.6304 158.622 11.6307 159.291 11.6309C160.377 11.6311 161.462 11.632 162.548 11.6331C163.602 11.6343 164.656 11.6352 165.71 11.6357C165.759 11.6357 165.759 11.6357 165.809 11.6357C166.136 11.6359 166.462 11.6361 166.789 11.6362C169.526 11.6375 172.263 11.6397 175 11.6425C175 12.668 175 13.6934 175 14.75C174.73 14.7501 174.46 14.7503 174.182 14.7504C171.707 14.7519 169.231 14.7542 166.756 14.7573C166.431 14.7577 166.107 14.7582 165.782 14.7586C165.75 14.7586 165.718 14.7586 165.684 14.7587C164.638 14.76 163.593 14.7607 162.547 14.7612C161.441 14.7618 160.335 14.7629 159.229 14.7647C158.567 14.7657 157.905 14.7662 157.243 14.7662C156.789 14.7662 156.335 14.7668 155.88 14.7679C155.619 14.7685 155.357 14.7688 155.095 14.7684C154.855 14.7681 154.614 14.7685 154.374 14.7695C154.288 14.7698 154.201 14.7697 154.115 14.7694C153.4 14.7667 152.766 14.8462 152.118 15.1248C152.019 15.1643 151.96 15.2262 151.922 15.2262C151.922 15.2536 151.922 15.219 151.922 15.2472C151.843 15.2996 151.761 15.3492 151.677 15.3973C151.296 15.6319 151.066 15.8606 150.864 16.2208C150.842 16.2592 150.842 16.2592 150.82 16.2983C149.964 17.9176 150.634 19.8504 150.616 21.6278C158.088 21.6278 165.56 21.6278 173.258 21.6278C173.258 22.6669 173.258 23.706 173.258 24.7766C173.176 24.8475 173.071 24.8232 172.961 24.8235C172.924 24.8234 172.888 24.8233 172.851 24.8232C172.813 24.8232 172.775 24.8233 172.735 24.8233C172.606 24.8234 172.476 24.8232 172.346 24.8231C172.253 24.8231 172.16 24.8231 172.067 24.8232C171.809 24.8233 171.552 24.8231 171.294 24.8229C171.017 24.8227 170.74 24.8228 170.463 24.8228C169.982 24.8228 169.501 24.8227 169.02 24.8225C168.325 24.8221 167.63 24.822 166.935 24.822C165.808 24.8219 164.681 24.8216 163.553 24.8212C162.458 24.8208 161.362 24.8205 160.267 24.8203C160.233 24.8203 160.199 24.8203 160.164 24.8203C159.825 24.8203 159.486 24.8202 159.147 24.8202C156.304 24.8197 153.46 24.819 150.616 24.8181C150.62 25.4261 150.625 26.034 150.63 26.642C150.632 26.9243 150.635 27.2067 150.636 27.489C150.638 27.7617 150.64 28.0343 150.643 28.307C150.644 28.4108 150.645 28.5146 150.645 28.6185C150.646 28.7643 150.647 28.9102 150.649 29.0561C150.649 29.0986 150.649 29.1411 150.649 29.1849C150.659 29.9246 150.923 30.3771 151.52 30.9061C151.644 31.0098 151.805 31.1782 151.956 31.2524C151.956 31.2798 151.922 31.2119 151.922 31.2401C152.158 31.3276 152.401 31.3877 152.648 31.4473C152.692 31.4582 152.735 31.469 152.78 31.4802C153.249 31.5859 153.697 31.5893 154.177 31.5881C154.267 31.5883 154.358 31.5886 154.448 31.5889C154.694 31.5897 154.94 31.5897 155.187 31.5895C155.453 31.5895 155.719 31.5902 155.985 31.5908C156.445 31.5917 156.906 31.5922 157.366 31.5924C158.032 31.5927 158.698 31.5936 159.364 31.5947C160.445 31.5965 161.525 31.5978 162.605 31.5987C163.655 31.5995 164.704 31.6007 165.753 31.6021C165.786 31.6022 165.818 31.6022 165.852 31.6023C166.177 31.6027 166.502 31.6032 166.827 31.6037C169.551 31.6076 172.276 31.6106 175 31.613C175 32.6385 175 33.6639 175 34.7205C172.231 34.7223 169.461 34.7238 166.692 34.7247C166.365 34.7248 166.037 34.7249 165.71 34.725C165.677 34.725 165.645 34.725 165.611 34.725C164.557 34.7254 163.504 34.726 162.45 34.7268C161.335 34.7276 160.221 34.7281 159.106 34.7283C158.439 34.7284 157.772 34.7287 157.105 34.7294C156.647 34.7298 156.189 34.73 155.731 34.7299C155.467 34.7298 155.203 34.7299 154.939 34.7303C154.697 34.7307 154.455 34.7308 154.213 34.7305C154.125 34.7304 154.038 34.7305 153.951 34.7308C153.196 34.733 152.393 34.7333 151.668 34.5288C151.629 34.5181 151.589 34.5075 151.548 34.4964C151.152 34.3847 150.786 34.2314 150.423 34.0575C150.392 34.0429 150.361 34.0282 150.329 34.0131C150.133 33.9193 149.939 33.823 149.745 33.7261C149.703 33.7066 149.703 33.7066 149.659 33.6868C149.459 33.5947 149.319 33.4947 149.165 33.3532C149.099 33.2968 149.034 33.2407 148.968 33.1847C148.759 33.0061 148.551 32.8275 148.342 32.6488C148.307 32.6197 148.273 32.5906 148.237 32.5606C148.15 32.484 148.097 32.4172 148.04 32.3225C147.951 32.1795 147.859 32.0382 147.764 31.8979C147.456 31.4421 147.214 30.9983 147.036 30.4943C147.024 30.4625 147.013 30.4307 147.001 30.3979C146.791 29.723 146.884 28.9426 146.884 28.2521C146.884 28.102 146.884 27.952 146.884 27.8019C146.884 27.509 146.884 27.2161 146.884 26.9231C146.884 26.6848 146.884 26.4465 146.884 26.2082C146.884 26.1571 146.884 26.1571 146.884 26.1049C146.884 26.0357 146.884 25.9664 146.884 25.8972C146.884 25.2497 146.884 24.6022 146.884 23.9548C146.885 23.4006 146.885 22.8465 146.884 22.2924C146.884 21.6469 146.884 21.0015 146.884 20.3561C146.884 20.2872 146.884 20.2182 146.884 20.1492C146.884 20.1153 146.884 20.0814 146.884 20.0464C146.884 19.8087 146.884 19.571 146.884 19.3333C146.884 19.0431 146.884 18.753 146.884 18.4629C146.884 18.3152 146.884 18.1675 146.884 18.0198C146.883 16.3689 146.883 16.3689 147.042 15.8635C147.052 15.829 147.063 15.7945 147.074 15.759C147.179 15.4304 147.335 15.1335 147.52 14.8328C147.545 14.7906 147.57 14.7484 147.596 14.705C147.723 14.4966 147.861 14.3061 148.033 14.1223C148.104 14.0439 148.104 14.0439 148.169 13.9449C148.42 13.5951 148.804 13.316 149.165 13.0512C149.206 13.02 149.248 12.9888 149.291 12.9567C150.639 11.9785 152.346 11.6197 154.078 11.6276Z" fill="#0D0D0D"/>
<path d="M67.4488 11.6425C68.6622 11.6425 69.8756 11.6425 71.1257 11.6425C71.1257 15.006 71.1257 18.3695 71.1257 21.8349C71.9099 21.4555 71.9099 21.4555 72.6927 21.0742C73.0813 20.8845 73.4713 20.7019 73.8732 20.5338C74.0782 20.4477 74.2726 20.3534 74.4667 20.2506C74.9227 20.017 75.392 19.7962 75.8701 19.5975C76.2446 19.4406 76.6007 19.2553 76.9605 19.0753C77.1397 18.986 77.3196 18.8978 77.4999 18.8103C77.5304 18.7953 77.5609 18.7804 77.5924 18.7649C77.7321 18.6973 77.871 18.6371 78.0187 18.5831C78.2078 18.5135 78.3829 18.4317 78.5613 18.3442C78.595 18.3278 78.6288 18.3113 78.6636 18.2944C79.0095 18.1258 79.3542 17.9553 79.6952 17.7793C80.1166 17.5637 80.1166 17.5637 80.3151 17.5078C80.5509 17.4392 80.7497 17.3203 80.9593 17.2072C81.4604 16.9396 81.985 16.7057 82.5145 16.4825C82.7467 16.384 82.9704 16.2766 83.1932 16.1631C83.7821 15.8637 84.3781 15.5737 84.9936 15.3164C85.2288 15.2176 85.4539 15.1083 85.6789 14.9936C86.2091 14.7261 86.7528 14.4787 87.2959 14.2311C87.7752 14.0125 88.2507 13.7903 88.7161 13.5505C88.9594 13.4255 89.1961 13.3076 89.459 13.2145C89.6945 13.1224 89.9174 13.0076 90.1424 12.8984C90.1962 12.8725 90.25 12.8465 90.3054 12.8198C90.5329 12.71 90.7601 12.5998 90.9863 12.4879C91.0167 12.4729 91.0471 12.4579 91.0784 12.4424C91.1547 12.4045 91.2309 12.3664 91.307 12.3282C91.5531 12.2142 91.8079 12.1292 92.0747 12.0568C92.0747 12.0294 92.0747 12.0021 92.0747 11.9739C92.5796 11.6996 92.9871 11.5942 93.5889 11.6048C93.6648 11.6049 93.7407 11.6049 93.8166 11.6047C94.0202 11.6046 94.2237 11.6065 94.4273 11.6089C94.641 11.6109 94.8546 11.6111 95.0683 11.6115C95.4718 11.6125 95.8753 11.6153 96.2788 11.6186C96.7386 11.6223 97.1984 11.6241 97.6583 11.6258C98.6032 11.6292 99.548 11.6351 100.493 11.6425C100.392 11.7316 100.3 11.7961 100.173 11.8561C100.139 11.872 100.106 11.8878 100.072 11.9042C100.037 11.9203 100.002 11.9365 99.9668 11.9532C99.8984 11.9855 99.8299 12.0179 99.7615 12.0503C99.7289 12.0657 99.6962 12.0811 99.6626 12.0969C99.5904 12.1316 99.5196 12.1684 99.4493 12.2057C99.3318 12.2639 99.3318 12.2639 99.1685 12.3238C98.9898 12.3895 98.8227 12.466 98.6544 12.5488C98.6057 12.5725 98.6057 12.5725 98.5559 12.5967C98.3994 12.6728 98.2433 12.7493 98.0871 12.8258C97.5938 13.0673 97.1019 13.3071 96.5912 13.5206C96.3594 13.618 96.1377 13.7257 95.916 13.8389C95.6999 13.9472 95.4811 14.0509 95.2617 14.1543C95.2219 14.1732 95.1821 14.192 95.141 14.2115C94.9435 14.3044 94.745 14.3943 94.5428 14.4796C94.2929 14.5857 94.0516 14.7028 93.8103 14.8224C93.7214 14.8662 93.6324 14.9099 93.5435 14.9537C93.4998 14.9752 93.4562 14.9966 93.4113 15.0188C93.2261 15.11 93.0406 15.2008 92.8548 15.2911C92.8247 15.3059 92.7945 15.3207 92.7635 15.336C92.6008 15.4148 92.437 15.4808 92.2645 15.5422C92.0659 15.6198 91.8792 15.7177 91.6906 15.8116C91.5998 15.8564 91.509 15.9012 91.4181 15.9459C91.3512 15.979 91.3512 15.979 91.2829 16.0127C90.8202 16.2413 90.3565 16.462 89.877 16.6639C89.6622 16.7549 89.4564 16.8537 89.2523 16.9615C88.836 17.1785 88.4092 17.3791 87.9714 17.5621C87.5581 17.7353 87.1636 17.9339 86.767 18.1332C86.3107 18.3617 85.8502 18.5793 85.3757 18.779C85.1627 18.8688 84.9547 18.9637 84.7499 19.0667C84.6724 19.1003 84.6724 19.1003 84.5756 19.1003C84.5756 19.1277 84.5756 19.155 84.5756 19.1832C84.4822 19.2253 84.3889 19.2674 84.2955 19.3094C84.2131 19.3466 84.1307 19.3837 84.0483 19.4209C83.8372 19.5161 83.626 19.6112 83.4145 19.7056C82.9864 19.8971 82.5636 20.0935 82.1456 20.3009C81.7159 20.5134 81.2851 20.7197 80.839 20.906C80.6587 20.9852 80.4875 21.0752 80.3162 21.1677C80.2213 21.2134 80.2213 21.2134 80.1246 21.2134C80.3094 21.3815 80.52 21.5047 80.7407 21.6358C80.7768 21.6605 80.813 21.6852 80.8503 21.7106C80.8503 21.7379 80.8503 21.7653 80.8503 21.7934C80.89 21.802 80.9297 21.8105 80.9707 21.8193C81.1896 21.8927 81.3526 22.0017 81.5367 22.1249C81.6049 22.1698 81.6731 22.2147 81.7414 22.2596C81.7712 22.2794 81.801 22.2993 81.8317 22.3198C81.9057 22.3677 81.9826 22.4123 82.0598 22.4564C82.0598 22.4837 82.0598 22.5111 82.0598 22.5392C82.1019 22.556 82.1019 22.556 82.1449 22.573C82.2542 22.6225 82.3439 22.6783 82.4408 22.7438C82.5553 22.8189 82.6558 22.8773 82.7855 22.9328C82.9791 23.0157 83.1574 23.1185 83.3177 23.2436C83.3177 23.2709 83.3177 23.2983 83.3177 23.3264C83.343 23.3361 83.3682 23.3457 83.3943 23.3556C83.5509 23.4275 83.6915 23.5166 83.8348 23.6061C84.024 23.7233 84.2132 23.8393 84.4093 23.9479C84.6457 24.081 84.8672 24.2301 85.0902 24.3788C85.2957 24.5156 85.5051 24.6479 85.7145 24.7803C85.8335 24.8594 85.8335 24.8594 85.9042 24.9243C85.981 24.9914 85.981 24.9914 86.1085 25.038C86.3114 25.1266 86.4802 25.2393 86.659 25.3592C86.695 25.383 86.7309 25.4068 86.7679 25.4313C86.9368 25.5431 87.1049 25.6557 87.273 25.7684C87.3008 25.7868 87.3285 25.8053 87.357 25.8244C87.4311 25.8738 87.5049 25.9234 87.5786 25.9731C87.6832 26.038 87.7809 26.092 87.8929 26.1452C88.0424 26.2186 88.162 26.2938 88.2919 26.3899C88.5218 26.5543 88.7589 26.7066 89.0025 26.856C89.0392 26.8785 89.076 26.9011 89.1138 26.9243C89.1514 26.9473 89.1889 26.9703 89.2275 26.994C89.4694 27.1424 89.7094 27.2927 89.9489 27.4438C90.0041 27.4785 90.0041 27.4785 90.0604 27.5139C90.3601 27.7031 90.6577 27.8948 90.9437 28.099C91.0612 28.1793 91.0612 28.1793 91.2136 28.2488C91.398 28.3381 91.57 28.4387 91.742 28.5444C91.7708 28.5616 91.7995 28.5789 91.8292 28.5967C92.009 28.7067 92.1609 28.8262 92.3166 28.9613C92.5243 29.0988 92.7402 29.2267 92.9727 29.3316C93.1114 29.3967 93.2193 29.4755 93.3356 29.5672C93.5941 29.7699 93.8774 29.9388 94.1641 30.1102C94.3885 30.2448 94.6107 30.382 94.8334 30.5186C94.9021 30.5606 94.9709 30.6026 95.0398 30.6445C95.1573 30.7159 95.2745 30.7877 95.3918 30.8594C95.4286 30.8817 95.4655 30.9041 95.5035 30.9271C95.7009 31.0483 95.8707 31.1746 96.0419 31.3229C96.1512 31.3869 96.1512 31.3869 96.2656 31.4395C96.5424 31.5769 96.8131 31.726 97.0579 31.903C97.0579 31.9303 97.0579 31.9577 97.0579 31.9858C97.0836 31.9958 97.1093 32.0058 97.1357 32.0161C97.2835 32.0833 97.4175 32.1648 97.5538 32.2474C97.7585 32.3706 97.964 32.4898 98.1812 32.5963C98.2674 32.6488 98.2674 32.6488 98.3782 32.7452C98.523 32.8675 98.6753 32.9641 98.8419 33.0631C98.8993 33.0976 98.9566 33.1322 99.0139 33.1667C99.1034 33.2206 99.193 33.274 99.2836 33.3264C99.3659 33.3748 99.4458 33.4259 99.5253 33.4774C99.5253 33.5048 99.5253 33.5321 99.5253 33.5603C99.5531 33.5647 99.5808 33.5691 99.6094 33.5737C99.7353 33.606 99.8156 33.6526 99.9214 33.7192C99.9592 33.7428 99.997 33.7664 100.036 33.7908C100.075 33.8155 100.114 33.8403 100.154 33.8659C100.193 33.8903 100.232 33.9148 100.273 33.94C100.379 34.0065 100.484 34.0732 100.59 34.1403C100.626 34.1618 100.662 34.1832 100.699 34.2053C100.727 34.2249 100.755 34.2445 100.783 34.2646C100.783 34.292 100.783 34.3193 100.783 34.3475C100.81 34.3586 100.837 34.3696 100.864 34.381C100.989 34.4359 101.11 34.4957 101.231 34.5573C101.274 34.5791 101.317 34.6009 101.362 34.6235C101.394 34.6418 101.427 34.6601 101.461 34.679C101.461 34.6926 101.461 34.7063 101.461 34.7204C100.629 34.7262 99.7977 34.7306 98.9662 34.7333C98.5801 34.7346 98.194 34.7363 97.8079 34.7392C97.4713 34.7416 97.1346 34.7432 96.798 34.7438C96.6198 34.7441 96.4417 34.7449 96.2636 34.7467C96.0644 34.7487 95.8652 34.7487 95.666 34.7486C95.5781 34.75 95.5781 34.75 95.4884 34.7513C95.1072 34.7489 94.8806 34.6842 94.5905 34.4718C94.5601 34.4499 94.5296 34.4281 94.4983 34.4056C94.4442 34.366 94.3905 34.3259 94.3372 34.2856C94.1805 34.1712 94.0114 34.0714 93.8436 33.9694C93.5182 33.7701 93.1961 33.5677 92.877 33.3611C92.7327 33.2677 92.5879 33.1752 92.4403 33.0856C92.3915 33.056 92.3427 33.0263 92.2924 32.9958C92.25 32.9705 92.2076 32.9451 92.1639 32.9191C92.1344 32.8982 92.105 32.8774 92.0747 32.8559C92.0747 32.8286 92.0747 32.8012 92.0747 32.7731C92.0397 32.7628 92.0048 32.7526 91.9688 32.742C91.8194 32.6851 91.7182 32.612 91.5908 32.5245C91.5029 32.4751 91.4142 32.4268 91.3247 32.3795C91.1455 32.2846 90.9749 32.1885 90.8167 32.0687C90.8167 32.0414 90.8167 32.014 90.8167 31.9858C90.7899 31.9753 90.763 31.9648 90.7353 31.954C90.6061 31.8952 90.4953 31.8253 90.3783 31.7502C90.145 31.6024 89.9052 31.4694 89.6565 31.3414C89.6243 31.3216 89.5921 31.3019 89.5588 31.2815C89.5588 31.2542 89.5588 31.2268 89.5588 31.1986C89.5311 31.1875 89.5033 31.1763 89.4747 31.1648C89.3627 31.1146 89.265 31.0579 89.1627 30.9942C89.1249 30.9707 89.0871 30.9473 89.0482 30.9231C89.0092 30.8987 88.9701 30.8742 88.9299 30.849C88.8909 30.8248 88.8518 30.8005 88.8116 30.7755C88.7057 30.7096 88.5999 30.6436 88.4945 30.5771C88.4584 30.5557 88.4222 30.5343 88.385 30.5122C88.3573 30.4926 88.3295 30.473 88.3009 30.4528C88.3009 30.4255 88.3009 30.3982 88.3009 30.37C88.2731 30.3655 88.2453 30.3611 88.2167 30.3565C88.0915 30.3245 88.0127 30.2787 87.9078 30.2122C87.851 30.1763 87.851 30.1763 87.793 30.1397C87.7531 30.114 87.7131 30.0883 87.672 30.0618C87.6309 30.0357 87.5897 30.0095 87.5474 29.9826C87.3145 29.8334 87.0886 29.6799 86.8677 29.518C86.7146 29.406 86.5724 29.3113 86.3929 29.2332C86.1621 29.1324 85.9768 28.9909 85.7826 28.8465C85.5072 28.6423 85.2185 28.4562 84.9137 28.2852C84.6445 28.1341 84.3896 27.972 84.1372 27.8012C83.7707 27.5544 83.4044 27.3105 83.0184 27.0864C82.5968 26.8391 82.1957 26.5706 81.7998 26.2941C81.6708 26.205 81.5458 26.1241 81.4006 26.0558C81.2048 25.9627 81.0165 25.8589 80.8503 25.7295C80.8503 25.7022 80.8503 25.6748 80.8503 25.6467C80.8238 25.6363 80.7973 25.6259 80.77 25.6153C80.635 25.5539 80.5168 25.4808 80.3937 25.4033C80.3488 25.3752 80.304 25.3471 80.2578 25.3181C80.1695 25.2613 80.0825 25.203 79.9968 25.1433C79.8695 25.0578 79.7388 25.0006 79.5924 24.9423C79.5924 24.915 79.5924 24.8876 79.5924 24.8594C79.5646 24.8482 79.5368 24.837 79.5082 24.8254C79.3146 24.7389 79.143 24.6245 78.9665 24.515C78.9278 24.4915 78.8892 24.4679 78.8494 24.4436C78.6871 24.3433 78.5386 24.2472 78.3978 24.1248C78.272 24.0189 78.1536 23.9734 77.9958 23.9065C77.8508 23.8193 77.7118 23.7257 77.5725 23.632C77.4992 23.5831 77.4259 23.5342 77.3525 23.4854C77.3204 23.4638 77.2883 23.4423 77.2552 23.42C77.1741 23.3652 77.1741 23.3652 77.0766 23.3264C77.0766 23.2991 77.0766 23.2718 77.0766 23.2436C77.0392 23.2295 77.0392 23.2295 77.001 23.2151C76.8934 23.1655 76.8116 23.1119 76.7167 23.0468C76.5872 22.9626 76.5872 22.9626 76.4295 22.9691C76.3876 22.9913 76.3457 23.0135 76.3025 23.0364C76.2363 23.0685 76.1698 23.1002 76.1033 23.1317C76.0646 23.1501 76.0258 23.1685 75.9859 23.1874C75.8761 23.2393 75.7661 23.2911 75.6561 23.3428C75.3162 23.5029 74.9795 23.6643 74.6515 23.8418C74.4631 23.9429 74.29 24.0203 74.0798 24.0798C73.8963 24.1421 73.7315 24.2343 73.5623 24.3207C73.0186 24.5981 72.4613 24.8527 71.8989 25.1014C71.8537 25.1213 71.8086 25.1413 71.7621 25.1619C71.7022 25.1883 71.7022 25.1883 71.6411 25.2152C71.5776 25.2442 71.5776 25.2442 71.5128 25.2738C71.4263 25.3051 71.4263 25.3051 71.3381 25.337C71.2325 25.3895 71.1838 25.4161 71.1427 25.5156C71.1304 25.6153 71.1293 25.7115 71.1315 25.8118C71.1308 25.8688 71.1308 25.8688 71.1301 25.927C71.1288 26.0548 71.13 26.1825 71.1312 26.3103C71.1308 26.4017 71.1303 26.4932 71.1296 26.5847C71.1283 26.8332 71.1289 27.0818 71.13 27.3304C71.1308 27.5901 71.1296 27.8497 71.1286 28.1094C71.1273 28.5454 71.1271 28.9813 71.1279 29.4172C71.1286 29.8663 71.1287 30.3153 71.1278 30.7643C71.1277 30.792 71.1277 30.8196 71.1276 30.8482C71.1273 30.987 71.1271 31.1259 71.1267 31.2647C71.1243 32.4166 71.1245 33.5685 71.1257 34.7204C69.9123 34.7204 68.6989 34.7204 67.4488 34.7204C67.4488 27.1047 67.4488 19.489 67.4488 11.6425Z" fill="#0D0D0D"/>
<path d="M48.8009 12.1028C48.9105 12.1754 49.0216 12.2363 49.14 12.2977C49.8754 12.7127 50.4541 13.5042 50.8424 14.1673C51.1725 14.7201 51.5347 15.2544 51.909 15.786C52.0263 15.9526 52.1399 16.1157 52.2273 16.2959C52.303 16.4522 52.4028 16.5921 52.5058 16.7362C52.6816 16.983 52.851 17.2332 53.0218 17.4827C53.0746 17.5596 53.1279 17.6364 53.1813 17.7131C53.327 17.9236 53.4512 18.1296 53.5638 18.3546C53.6138 18.4308 53.6649 18.5065 53.7167 18.5818C53.7622 18.6482 53.7622 18.6482 53.8087 18.7159C53.8958 18.8421 53.9829 18.9683 54.0701 19.0946C54.3415 19.4883 54.6077 19.8806 54.8403 20.2923C54.9481 20.4817 55.0716 20.6557 55.2067 20.8315C55.5461 21.2894 55.8523 21.7657 56.1276 22.2539C56.2694 22.5009 56.4376 22.7318 56.6081 22.9649C56.7762 23.197 56.9222 23.4342 57.0616 23.6798C57.1652 23.8618 57.2769 24.0356 57.4012 24.2078C57.7954 24.7553 58.1929 25.3132 58.5198 25.8927C58.6804 26.1743 58.8736 26.4405 59.0603 26.7097C59.3633 27.1472 59.6641 27.5829 59.9195 28.0425C59.9976 28.1727 60.0841 28.2941 60.1756 28.4175C60.2882 28.5707 60.3943 28.7271 60.5004 28.8837C60.5238 28.9181 60.5471 28.9525 60.5712 28.988C60.7048 29.1869 60.8305 29.3869 60.9479 29.5932C61.0752 29.8166 61.2169 30.0295 61.3679 30.2415C61.7163 30.7312 62.054 31.2272 62.3464 31.7433C62.4635 31.9382 62.5985 32.1239 62.7314 32.3111C62.8691 32.5053 63.0036 32.7011 63.1372 32.8974C63.1596 32.9301 63.1821 32.9628 63.2052 32.9965C63.3301 33.1805 63.4325 33.3645 63.5303 33.5604C63.601 33.6729 63.6772 33.7823 63.754 33.8918C63.7854 33.9372 63.7854 33.9372 63.8175 33.9834C63.9248 34.1381 64.0334 34.2921 64.1426 34.4458C64.1627 34.4742 64.1828 34.5026 64.2035 34.5318C64.2419 34.5859 64.2804 34.6399 64.3192 34.6937C64.4495 34.877 64.4495 34.877 64.4495 34.9691C63.904 34.9748 63.3586 34.9792 62.8131 34.9819C62.5598 34.9832 62.3066 34.985 62.0533 34.9878C61.8089 34.9905 61.5646 34.992 61.3202 34.9927C61.2269 34.9931 61.1336 34.994 61.0403 34.9954C60.9098 34.9972 60.7793 34.9974 60.6487 34.9973C60.6101 34.9982 60.5714 34.9991 60.5316 35C60.4234 34.999 60.4234 34.999 60.2404 34.9691C60.0468 34.7778 60.0468 34.7778 60.0468 34.6376C60.0149 34.6376 59.983 34.6376 59.9501 34.6376C59.6809 34.225 59.6809 34.225 59.5902 34.0394C59.5224 33.907 59.4471 33.7888 59.3616 33.6644C59.3312 33.6202 59.3009 33.576 59.2697 33.5305C59.1826 33.4043 59.0955 33.2781 59.0083 33.1519C58.7383 32.7601 58.4731 32.3698 58.2417 31.9601C58.1199 31.7462 57.9792 31.5465 57.8311 31.3453C57.5423 30.9515 57.2654 30.548 57.0291 30.1292C56.7918 29.7116 56.5032 29.318 56.2247 28.9199C56.1569 28.8225 56.0894 28.725 56.0221 28.6273C55.9975 28.5918 55.9729 28.5563 55.9475 28.5197C55.8861 28.4227 55.8861 28.4227 55.843 28.3272C55.7858 28.2083 55.7174 28.1011 55.6423 27.9898C55.6142 27.9478 55.5862 27.9059 55.5572 27.8627C55.4979 27.7746 55.4386 27.6866 55.3792 27.5985C55.3513 27.5567 55.3233 27.5149 55.2945 27.4719C55.2688 27.4337 55.2431 27.3955 55.2166 27.3562C55.1604 27.2626 55.1604 27.2626 55.1604 27.1797C55.1284 27.1797 55.0965 27.1797 55.0636 27.1797C54.9938 27.0754 54.9243 26.9709 54.855 26.8664C54.8354 26.8372 54.8159 26.808 54.7957 26.778C54.7765 26.749 54.7574 26.72 54.7376 26.6902C54.7201 26.6639 54.7026 26.6377 54.6846 26.6106C54.6096 26.4859 54.5476 26.3557 54.483 26.2268C49.0547 26.2268 43.6264 26.2268 38.0335 26.2268C37.7222 26.6985 37.7222 26.6985 37.4046 27.1797C37.3567 27.2344 37.3088 27.2891 37.2594 27.3455C37.2101 27.4418 37.1618 27.5385 37.1143 27.6355C37.0626 27.7183 37.0091 27.8003 36.954 27.8815C36.9379 27.9055 36.9218 27.9294 36.9052 27.9541C36.7939 28.1188 36.6811 28.2827 36.5683 28.4467C36.3026 28.8336 36.0389 29.2199 35.7989 29.6191C35.5663 30.0059 35.303 30.3742 35.0339 30.7429C34.9772 30.8213 34.9207 30.8999 34.8646 30.9786C34.8441 31.007 34.8237 31.0353 34.8026 31.0645C34.7379 31.1625 34.7379 31.1625 34.6775 31.2927C34.5937 31.4638 34.4861 31.6199 34.3747 31.7788C34.3534 31.8095 34.3321 31.8403 34.3102 31.8719C34.2089 32.0178 34.1067 32.1632 34.0032 32.308C33.7807 32.62 33.5762 32.937 33.3799 33.2616C33.1873 33.5782 32.9763 33.8842 32.7628 34.1906C32.6612 34.3378 32.5653 34.4875 32.4697 34.6376C32.4378 34.6376 32.4059 34.6376 32.373 34.6376C32.358 34.6769 32.343 34.7162 32.3276 34.7567C32.2762 34.8862 32.2762 34.8862 32.2278 34.9691C30.8228 34.9691 29.4179 34.9691 27.9703 34.9691C28.1847 34.6019 28.1847 34.6019 28.2878 34.4693C28.3772 34.3497 28.4439 34.2316 28.5061 34.0996C28.5642 33.9913 28.6337 33.8907 28.7043 33.7881C28.7346 33.7439 28.7649 33.6998 28.7962 33.6543C28.8424 33.5873 28.8424 33.5873 28.8895 33.5189C29.2421 33.0064 29.5929 32.4948 29.9131 31.9668C30.0196 31.7917 30.131 31.6193 30.2442 31.4473C30.2761 31.4473 30.3081 31.4473 30.341 31.4473C30.3522 31.4133 30.3634 31.3793 30.375 31.3442C30.4507 31.1686 30.5543 31.0189 30.6675 30.8595C30.7117 30.7963 30.7558 30.7331 30.7998 30.6698C30.821 30.6394 30.8422 30.6091 30.864 30.5778C30.9581 30.4414 31.0458 30.3022 31.1336 30.1627C31.4046 29.7328 31.6777 29.3053 31.9867 28.8943C32.0708 28.7716 32.1449 28.6486 32.2182 28.521C32.369 28.2596 32.5359 28.0083 32.7086 27.7572C32.7368 27.7158 32.7649 27.6745 32.7939 27.6319C32.9626 27.3854 33.1372 27.1432 33.3192 26.9038C33.4082 26.7802 33.4702 26.6512 33.5341 26.5168C33.7953 26.0788 34.1036 25.656 34.405 25.2376C34.5425 25.0429 34.6635 24.8413 34.786 24.6394C34.9531 24.3644 35.1282 24.0987 35.321 23.8362C35.625 23.4203 35.9086 22.9991 36.1593 22.5579C36.3045 22.3112 36.4676 22.0733 36.6305 21.8349C36.6624 21.8349 36.6943 21.8349 36.7272 21.8349C36.7399 21.7988 36.7526 21.7627 36.7656 21.7255C36.8238 21.5868 36.8949 21.4737 36.9843 21.3481C37.0897 21.1995 37.1863 21.05 37.2755 20.894C37.4083 20.6638 37.5589 20.4444 37.713 20.2243C37.769 20.1437 37.8249 20.0631 37.8808 19.9825C37.9505 19.8824 38.0202 19.7824 38.09 19.6825C38.2703 19.4246 38.4336 19.1628 38.5877 18.8928C38.6839 18.7263 38.7925 18.5763 38.9169 18.4247C39.0623 18.2322 39.1874 18.0296 39.3149 17.8282C39.4713 17.5826 39.4713 17.5826 39.563 17.4802C39.6599 17.3668 39.7118 17.2408 39.7752 17.1116C39.831 17.0228 39.8885 16.9348 39.9476 16.8475C39.9643 16.8227 39.9811 16.7978 39.9983 16.7722C40.0888 16.6383 40.1805 16.5051 40.273 16.3723C40.5111 16.03 40.7379 15.684 40.9576 15.3326C41.2063 14.9351 41.4712 14.5492 41.7497 14.1665C41.9524 13.8865 42.152 13.608 42.291 13.2998C42.323 13.2998 42.3549 13.2998 42.3878 13.2998C42.4003 13.2764 42.4128 13.2531 42.4256 13.2289C42.9293 12.4188 44.0472 11.7687 45.0603 11.5024C46.3353 11.206 47.7539 11.4016 48.8009 12.1028ZM45.6687 14.8006C45.525 14.9213 45.423 15.0595 45.3179 15.2057C45.2953 15.2365 45.2727 15.2672 45.2495 15.2989C45.1818 15.3917 45.1151 15.4851 45.0488 15.5786C45.0292 15.6061 45.0096 15.6335 44.9894 15.6618C44.7907 15.9423 44.619 16.2137 44.5166 16.5316C44.4846 16.5316 44.4527 16.5316 44.4198 16.5316C44.4008 16.5608 44.3818 16.59 44.3622 16.6201C44.2747 16.7546 44.187 16.8891 44.0993 17.0236C44.0694 17.0695 44.0395 17.1155 44.0088 17.1628C43.8711 17.3738 43.7322 17.5837 43.5856 17.7903C43.4738 17.9484 43.3758 18.1075 43.2829 18.2743C43.1726 18.4681 43.0521 18.6468 42.9075 18.8232C42.7621 19.0156 42.637 19.2182 42.5095 19.4197C42.3531 19.6652 42.3531 19.6652 42.2614 19.7677C42.1645 19.881 42.1128 20.0071 42.0491 20.1362C41.9893 20.2311 41.9278 20.3252 41.8647 20.4185C41.8476 20.4439 41.8304 20.4693 41.8128 20.4955C41.718 20.6356 41.6213 20.7747 41.523 20.9131C41.3721 21.1268 41.2314 21.3451 41.0906 21.5638C40.9676 21.7545 40.8431 21.9444 40.717 22.1336C40.6882 22.1768 40.6594 22.2201 40.6297 22.2647C40.5727 22.3502 40.5155 22.4357 40.4581 22.521C40.4193 22.5794 40.4193 22.5794 40.3796 22.639C40.3564 22.6737 40.3331 22.7085 40.3091 22.7443C40.2518 22.8258 40.2518 22.8258 40.2591 22.9122C40.2271 22.9122 40.1952 22.9122 40.1623 22.9122C40.1144 23.0147 40.1144 23.0147 40.0655 23.1194C44.1527 23.1194 48.24 23.1194 52.451 23.1194C52.1723 22.6419 51.8879 22.178 51.5688 21.7215C51.2534 21.2689 50.9604 20.8071 50.6706 20.3421C50.5409 20.1341 50.4087 19.9275 50.2739 19.7219C50.242 19.7219 50.21 19.7219 50.1771 19.7219C50.1592 19.6694 50.1592 19.6694 50.1408 19.6159C50.0746 19.4598 49.9859 19.3225 49.8868 19.1807C49.7052 18.9189 49.7052 18.9189 49.6459 18.7909C49.5771 18.6447 49.4823 18.5128 49.3879 18.3779C49.3671 18.3479 49.3464 18.3179 49.325 18.287C49.2273 18.146 49.1291 18.0052 49.0309 17.8645C48.9742 17.7833 48.9176 17.7021 48.8611 17.6208C48.8061 17.5418 48.751 17.4629 48.6957 17.3841C48.5584 17.1866 48.4383 16.9935 48.3387 16.7802C48.291 16.697 48.2428 16.614 48.1935 16.5316C48.1616 16.5316 48.1297 16.5316 48.0968 16.5316C48.0804 16.4816 48.0804 16.4816 48.0637 16.4306C47.9832 16.2441 47.8729 16.081 47.7551 15.9101C47.7194 15.8582 47.7194 15.8582 47.6831 15.8053C47.6346 15.7352 47.586 15.6652 47.5372 15.5952C47.4936 15.5327 47.4503 15.4701 47.4073 15.4073C47.1491 15.0307 46.8877 14.6813 46.3671 14.5609C46.056 14.5199 45.8949 14.6327 45.6687 14.8006Z" fill="#0D0D0D"/>
<path d="M0.00597392 11.6425C1.21937 11.6425 2.43276 11.6425 3.68292 11.6425C3.68331 11.8582 3.6837 12.0738 3.68411 12.2961C3.68774 14.2746 3.69185 16.2532 3.69647 18.2318C3.69708 18.4912 3.69768 18.7506 3.69828 19.01C3.6984 19.0616 3.69851 19.1133 3.69864 19.1665C3.70056 20.0023 3.70214 20.8381 3.7036 21.6739C3.70511 22.5317 3.70698 23.3895 3.70918 24.2474C3.71053 24.7766 3.7116 25.3057 3.7123 25.8349C3.71281 26.198 3.71367 26.561 3.71481 26.924C3.71546 27.1334 3.71595 27.3427 3.71602 27.5521C3.71609 27.744 3.71661 27.936 3.71747 28.128C3.7177 28.1971 3.71778 28.2663 3.71767 28.3354C3.71632 29.3832 3.97424 30.162 4.82857 30.9413C5.50524 31.4804 6.3563 31.5493 7.23688 31.5466C7.31454 31.5468 7.39219 31.5471 7.46985 31.5475C7.68114 31.5482 7.89242 31.5482 8.1037 31.548C8.33234 31.548 8.56098 31.5487 8.78961 31.5493C9.18504 31.5502 9.58047 31.5507 9.9759 31.5509C10.5476 31.5512 11.1193 31.5521 11.691 31.5532C12.6188 31.555 13.5465 31.5563 14.4742 31.5572C15.375 31.558 16.2759 31.5592 17.1767 31.5607C17.2601 31.5608 17.2601 31.5608 17.3451 31.5609C17.6241 31.5614 17.903 31.5619 18.1819 31.5623C20.4931 31.5662 22.8044 31.569 25.1157 31.5715C25.1157 32.6107 25.1157 33.6498 25.1157 34.7204C22.7276 34.7222 20.3395 34.7238 17.9514 34.7246C17.6691 34.7247 17.3869 34.7248 17.1046 34.725C17.0204 34.725 17.0204 34.725 16.9344 34.725C16.0258 34.7254 15.1173 34.726 14.2088 34.7268C13.2758 34.7276 12.3428 34.728 11.4099 34.7282C10.8347 34.7283 10.2594 34.7287 9.68424 34.7293C9.28924 34.7298 8.89425 34.7299 8.49925 34.7298C8.27172 34.7298 8.04418 34.7298 7.81665 34.7303C5.48312 34.7346 5.48312 34.7346 4.55378 34.4304C4.52206 34.4201 4.49033 34.4098 4.45765 34.3991C3.93509 34.2253 3.47222 33.9899 3.00559 33.726C2.961 33.7015 2.91641 33.6769 2.87046 33.6516C2.54673 33.4714 2.27768 33.2749 2.02739 33.023C1.94675 32.9442 1.86292 32.8716 1.7749 32.799C1.38739 32.4723 1.07545 32.0939 0.834496 31.6777C0.817798 31.6489 0.8011 31.6201 0.783895 31.5904C0.213064 30.5907 -0.00222967 29.6327 0.000155901 28.528C0.000134777 28.455 9.23684e-05 28.3819 3.06349e-05 28.3089C-7.71233e-05 28.1092 0.000115402 27.9094 0.000358564 27.7097C0.00056804 27.494 0.000496753 27.2782 0.000460053 27.0625C0.000434719 26.689 0.000586155 26.3155 0.000858607 25.942C0.00125227 25.4021 0.00137785 24.8621 0.0014386 24.3221C0.00154441 23.4459 0.00186618 22.5698 0.00232409 21.6936C0.00276837 20.8427 0.00311074 19.9917 0.00331628 19.1407C0.00332899 19.0883 0.0033417 19.0358 0.0033548 18.9817C0.00341794 18.7184 0.00347908 18.4552 0.00353922 18.1919C0.00404054 16.0088 0.00490582 13.8256 0.00597392 11.6425Z" fill="#0D0D0D"/>
<path d="M171.564 0C171.602 0.0819586 171.639 0.163972 171.676 0.246006C171.707 0.314503 171.707 0.314503 171.739 0.384384C171.786 0.492608 171.83 0.59979 171.871 0.709533C171.968 0.961714 172.086 1.20669 172.202 1.45273C172.225 1.50045 172.247 1.54817 172.27 1.59734C172.325 1.71404 172.38 1.8307 172.435 1.94733C172.113 2.09191 171.78 2.21255 171.443 2.33116C171.35 2.36415 171.256 2.3974 171.163 2.43068C170.881 2.53094 170.598 2.62707 170.307 2.70682C170.136 2.75545 169.971 2.81496 169.804 2.87438C169.769 2.88709 169.733 2.8998 169.696 2.91289C169.458 2.99767 169.224 3.08744 168.991 3.18011C168.795 3.2544 168.597 3.32089 168.398 3.38775C168.214 3.44984 168.035 3.51661 167.857 3.5891C167.675 3.66161 167.497 3.71537 167.304 3.76259C167.061 3.82419 166.832 3.9005 166.602 3.99047C166.182 4.15482 165.757 4.30918 165.33 4.46163C165.254 4.48897 165.178 4.51637 165.101 4.54383C164.684 4.69373 164.267 4.83507 163.84 4.96287C163.56 5.05004 163.289 5.15229 163.016 5.25417C162.927 5.28704 162.838 5.31992 162.749 5.35277C162.607 5.40525 162.465 5.45791 162.323 5.51053C162.152 5.5739 161.981 5.63692 161.809 5.69957C161.758 5.71882 161.758 5.71882 161.705 5.73846C161.528 5.80275 161.353 5.85628 161.169 5.90155C160.907 5.96665 160.662 6.05578 160.412 6.15015C160.327 6.18208 160.242 6.21396 160.157 6.2458C160.115 6.26135 160.074 6.2769 160.031 6.29292C159.864 6.35415 159.694 6.41136 159.525 6.46873C159.409 6.50911 159.295 6.55382 159.182 6.60073C158.948 6.69303 158.71 6.76953 158.468 6.84414C157.906 7.01801 157.358 7.21701 156.808 7.41643C156.694 7.4576 156.58 7.49876 156.466 7.53992C156.25 7.61814 156.034 7.69645 155.818 7.77492C155.771 7.7919 155.724 7.80887 155.675 7.82636C155.575 7.86318 155.475 7.90123 155.375 7.93968C155.245 7.98485 155.122 8.01959 154.988 8.05216C154.68 8.12882 154.392 8.23873 154.099 8.34866C154.01 8.38161 153.921 8.41455 153.831 8.44747C153.588 8.53758 153.345 8.62856 153.102 8.72017C152.96 8.77367 152.817 8.82651 152.675 8.87952C152.622 8.89965 152.569 8.91979 152.515 8.94053C152.466 8.95869 152.417 8.97685 152.366 8.99556C152.323 9.01171 152.281 9.02785 152.237 9.04449C152.09 9.07982 152.015 9.08178 151.873 9.0323C151.802 8.93608 151.802 8.93608 151.745 8.8083C151.724 8.76152 151.702 8.71473 151.68 8.66653C151.658 8.61632 151.636 8.56612 151.613 8.51439C151.567 8.4121 151.52 8.30981 151.474 8.20753C151.451 8.15738 151.429 8.10723 151.405 8.05556C151.308 7.83975 151.202 7.62673 151.096 7.41392C151.038 7.29655 151.002 7.21375 151.002 7.08497C151.074 7.05979 151.145 7.0348 151.217 7.00987C151.257 6.99593 151.297 6.98199 151.338 6.96763C151.453 6.93004 151.567 6.89656 151.685 6.86437C151.963 6.78575 152.23 6.68671 152.499 6.58778C152.554 6.56793 152.608 6.54807 152.664 6.52762C152.892 6.44455 153.12 6.36114 153.347 6.27742C154.417 5.88371 154.417 5.88371 154.843 5.76172C155.393 5.60375 155.921 5.39557 156.453 5.19758C156.678 5.11396 156.903 5.03088 157.129 4.9486C157.18 4.92934 157.18 4.92934 157.233 4.9097C157.411 4.84506 157.587 4.79124 157.772 4.74549C158.016 4.6847 158.245 4.60413 158.477 4.51615C158.567 4.48279 158.657 4.44945 158.746 4.41613C158.817 4.38991 158.817 4.38991 158.888 4.36316C159.646 4.08083 160.406 3.8133 161.18 3.56576C161.688 3.40227 162.184 3.22007 162.679 3.03162C162.888 2.95275 163.097 2.87568 163.306 2.79929C163.342 2.78611 163.377 2.77294 163.414 2.75936C163.595 2.69356 163.774 2.63812 163.964 2.5918C164.223 2.52738 164.464 2.4382 164.709 2.34353C165.153 2.17575 165.598 2.01278 166.046 1.85411C166.076 1.84333 166.107 1.83254 166.138 1.82143C166.459 1.70774 166.781 1.59616 167.107 1.49416C167.493 1.37319 167.871 1.23681 168.25 1.10055C168.283 1.08866 168.316 1.07676 168.35 1.0645C168.716 0.932982 169.08 0.799367 169.442 0.660331C169.702 0.561529 169.96 0.488435 170.233 0.421447C170.561 0.327698 170.874 0.198679 171.188 0.0739333C171.32 0.0239807 171.418 0 171.564 0Z" fill="#0D0D0D"/>
</svg>
