<svg width="175" height="28" viewBox="0 0 175 28" fill="none" xmlns="http://www.w3.org/2000/svg">
<path d="M95.2063 25.2998H117.789V22.9368H99.0777V15.3754H113.132V12.9844H99.0777V6.01803H117.789V3.66361H95.2063V25.2998Z" fill="#0D0D0D"/>
<path d="M106.942 0.166144L103.885 3.10862L113.483 0.166144H106.942Z" fill="#0D0D0D"/>
<path d="M155.7 22.9368V3.66361H152.171V25.2998H175V22.9368H155.7Z" fill="#0D0D0D"/>
<path d="M132.423 3.66361L119.581 25.2998H123.922L127.207 19.6997H142.609L145.923 25.2998H150.219L137.366 3.66361H132.423ZM128.832 16.9877L134.884 6.6533L141.006 16.9877H128.832Z" fill="#0D0D0D"/>
<path d="M82.9528 16.2526C88.739 14.93 89.3012 11.2418 89.2718 9.92334C88.9264 6.05813 85.8865 3.66361 80.424 3.66361H64.5056V25.2998H68.1344V16.2237H78.4977L86.1218 25.2998H90.6957C90.6957 25.2998 85.209 19.1915 82.9528 16.2526ZM79.9286 13.6673H68.1344V6.22454H80.3396C83.1497 6.22454 84.7304 7.34835 85.2998 8.77592C85.6765 9.75449 85.435 11.0391 84.8117 11.9137C83.7917 13.3596 81.854 13.6673 79.9286 13.6673Z" fill="#0D0D0D"/>
<path d="M42.6977 0C32.4541 0 25.4722 6.18721 25.4722 13.6759C25.4722 21.5596 33.1847 27.125 42.6977 27.125C52.2044 27.125 59.9138 21.639 59.9138 13.6759C59.9138 6.18721 52.8456 0 42.6977 0ZM42.5748 24.4393C35.4877 24.4393 29.6484 19.5604 29.6484 13.6832C29.6484 7.81398 35.2121 2.70148 42.8496 2.70148C50.2978 2.70148 55.7729 7.81398 55.7729 13.6832C55.7729 19.5603 49.6588 24.4393 42.5748 24.4393Z" fill="#0D0D0D"/>
<path d="M16.3328 11.3177H18.9512L23.704 3.66361H19.8794L16.3328 11.3177Z" fill="#0D0D0D"/>
<path d="M3.53173 22.9368V3.66361H0V25.2998H22.8286V22.9368H3.53173Z" fill="#0D0D0D"/>
</svg>
