<svg width="175" height="32" viewBox="0 0 175 32" fill="none" xmlns="http://www.w3.org/2000/svg">
<path d="M95.2063 29.4184H117.789V26.6707H99.0777V17.8784H113.132V15.0982H99.0777V6.99771H117.789V4.26001H95.2063V29.4184Z" fill="white"/>
<path d="M106.942 0.193191L103.885 3.61467L113.483 0.193191H106.942Z" fill="white"/>
<path d="M155.7 26.6707V4.26001H152.171V29.4184H175V26.6707H155.7Z" fill="white"/>
<path d="M132.423 4.26001L119.581 29.4184H123.922L127.207 22.9066H142.609L145.923 29.4184H150.219L137.366 4.26001H132.423ZM128.832 19.7532L134.884 7.7364L141.006 19.7532H128.832Z" fill="white"/>
<path d="M82.9528 18.8984C88.739 17.3604 89.3012 13.0719 89.2718 11.5388C88.9264 7.04434 85.8865 4.26001 80.424 4.26001H64.5056V29.4184H68.1344V18.8648H78.4977L86.1218 29.4184H90.6957C90.6957 29.4184 85.209 22.3157 82.9528 18.8984ZM79.9286 15.8922H68.1344V7.23784H80.3396C83.1497 7.23784 84.7304 8.54459 85.2998 10.2046C85.6765 11.3424 85.435 12.8361 84.8117 13.8531C83.7917 15.5344 81.854 15.8922 79.9286 15.8922Z" fill="white"/>
<path d="M42.6977 0C32.4541 0 25.4722 7.19443 25.4722 15.9022C25.4722 25.0693 33.1847 31.5407 42.6977 31.5407C52.2044 31.5407 59.9138 25.1617 59.9138 15.9022C59.9138 7.19443 52.8456 0 42.6977 0ZM42.5748 28.4177C35.4877 28.4177 29.6484 22.7447 29.6484 15.9107C29.6484 9.08603 35.2121 3.14126 42.8496 3.14126C50.2978 3.14126 55.7729 9.08603 55.7729 15.9107C55.7729 22.7445 49.6588 28.4177 42.5748 28.4177Z" fill="white"/>
<path d="M16.3328 13.1602H18.9512L23.704 4.26001H19.8794L16.3328 13.1602Z" fill="white"/>
<path d="M3.53173 26.6707V4.26001H0V29.4184H22.8286V26.6707H3.53173Z" fill="white"/>
</svg>
