<svg width="175" height="26" viewBox="0 0 175 26" fill="none" xmlns="http://www.w3.org/2000/svg">
<path d="M132.091 0.496899C132.183 0.517689 132.274 0.538479 132.368 0.559899C135.206 1.22065 137.856 2.34469 140.084 4.01022C140.254 4.13062 140.254 4.13062 140.427 4.25346C142.655 5.88884 144.218 8.08687 144.852 10.5523C144.876 10.6466 144.9 10.741 144.926 10.8383C145.495 13.5774 144.641 16.3699 142.932 18.6844C141.838 20.0266 140.631 21.1987 139.103 22.1825C138.982 22.2642 138.861 22.3459 138.737 22.43C137.299 23.379 135.76 24.0562 134.063 24.5828C133.956 24.6165 133.85 24.6501 133.74 24.6848C131.467 25.3566 129.247 25.3834 126.872 25.3737C126.519 25.3736 126.166 25.3736 125.814 25.3738C125.059 25.3739 124.304 25.3729 123.549 25.3708C122.458 25.3679 121.367 25.3669 120.276 25.3665C118.504 25.3657 116.733 25.3633 114.962 25.3598C113.243 25.3565 111.524 25.3539 109.805 25.3524C109.698 25.3523 109.591 25.3522 109.48 25.3521C108.641 25.3513 107.802 25.3506 106.962 25.3499C102.859 25.3465 98.755 25.3392 94.6514 25.3324C94.6514 17.3366 94.6514 9.34076 94.6514 1.10264C96.3172 1.10264 97.9831 1.10264 99.6995 1.10264C99.6995 8.53876 99.6995 15.9749 99.6995 23.6363C104.903 23.6253 104.903 23.6253 110.107 23.611C112.23 23.6044 114.353 23.5982 116.476 23.5944C118.023 23.5916 119.569 23.5875 121.116 23.582C121.934 23.5791 122.752 23.5768 123.57 23.576C124.342 23.5753 125.113 23.5729 125.885 23.5692C126.167 23.5681 126.448 23.5677 126.73 23.5679C130.249 23.5697 133.104 23.0449 135.755 20.8953C138.466 18.4638 139.325 15.2215 139.282 11.9417C139.186 9.12165 137.743 6.5113 135.383 4.56627C132.987 2.79449 129.95 1.75635 126.763 1.95069C123.444 2.20205 120.405 3.38805 118.226 5.60929C115.948 8.20773 115.179 11.2812 115.61 14.5024C116.067 17.2858 117.839 19.9044 120.426 21.6247C120.863 21.9017 121.308 22.1688 121.755 22.4329C121.881 22.5102 122.006 22.5875 122.135 22.6671C122.135 22.7071 122.135 22.7471 122.135 22.7883C119.991 22.9059 117.995 22.2717 116.106 21.4557C115.956 21.3908 115.805 21.326 115.651 21.2593C114.525 20.7319 113.64 20.051 112.74 19.275C112.647 19.1953 112.553 19.1157 112.456 19.0336C110.302 17.0669 109.718 14.5166 109.758 11.901C109.865 8.91889 111.864 6.31526 114.301 4.31356C116.538 2.53516 119.351 1.29893 122.276 0.618048C122.377 0.592924 122.478 0.567801 122.583 0.541916C125.505 -0.162208 129.157 -0.183275 132.091 0.496899Z" fill="#0D0D0D"/>
<path d="M0 0.887207C2.84296 0.87971 5.68593 0.872214 8.61504 0.864491C9.50842 0.861182 10.4018 0.857873 11.3223 0.854464C12.4241 0.852823 12.4241 0.852823 12.9421 0.852518C13.2992 0.851964 13.6563 0.850696 14.0134 0.848835C17.9193 0.829525 21.8392 1.07849 24.8197 3.55248C26.338 5.10798 26.6827 6.661 26.5024 8.64073C26.3873 9.1271 26.2067 9.5343 25.9415 9.97337C25.8788 10.0788 25.8161 10.1842 25.7515 10.2928C24.639 12.0166 22.6143 13.1241 20.4728 13.729C20.0078 13.8294 19.5446 13.9106 19.0705 13.9713C19.5772 14.5947 20.1229 15.1382 20.7543 15.6693C21.1016 15.9681 21.419 16.2845 21.7386 16.6053C22.0758 16.9388 22.4219 17.2649 22.7689 17.5906C23.5608 18.3344 24.3433 19.0852 25.1243 19.8375C25.7026 20.3939 26.2845 20.9472 26.8705 21.4977C27.3687 21.9657 27.8597 22.438 28.3401 22.9197C28.5559 23.13 28.7753 23.3354 28.9985 23.5397C29.0681 23.6038 29.1377 23.6679 29.2094 23.7339C29.3472 23.8605 29.4857 23.9864 29.6252 24.1116C30.0144 24.4704 30.234 24.7798 30.4287 25.2381C29.5281 25.2597 28.6276 25.2745 27.7267 25.2847C27.4206 25.289 27.1144 25.2947 26.8083 25.3021C26.3672 25.3124 25.9265 25.3172 25.4852 25.3209C25.2812 25.3275 25.2812 25.3275 25.073 25.3342C24.3449 25.3346 23.9424 25.2809 23.4136 24.8294C23.2708 24.6858 23.1314 24.5395 22.9968 24.3901C22.8903 24.282 22.7839 24.1739 22.6742 24.0626C22.5811 23.9608 22.488 23.859 22.3921 23.7541C21.9553 23.2851 21.5058 22.8338 21.0337 22.3911C20.4597 21.8523 19.9225 21.2951 19.3904 20.7253C19.0611 20.3824 18.7187 20.0537 18.3694 19.7259C17.7954 19.1871 17.2582 18.6298 16.7261 18.0601C16.2866 17.6023 15.8198 17.1681 15.3535 16.7307C14.8905 16.285 14.4559 15.8216 14.0235 15.3536C13.7475 15.0569 13.7475 15.0569 13.4254 14.7961C13.1811 14.577 13.1811 14.577 13.1811 14.3347C10.4972 14.3347 7.81331 14.3347 5.04808 14.3347C5.04808 17.8929 5.04808 21.451 5.04808 25.117C3.38221 25.117 1.71635 25.117 0 25.117C0 17.1212 0 9.12533 0 0.887207ZM5.04808 2.70444C5.04808 5.94275 5.04808 9.18106 5.04808 12.5175C7.76813 12.5325 7.76813 12.5325 10.5431 12.5478C11.3967 12.5544 11.3967 12.5544 12.2676 12.5612C12.7851 12.5628 12.7851 12.5628 13.3026 12.5637C13.5302 12.5645 13.7577 12.5662 13.9853 12.5687C16.2395 12.592 18.1747 12.3099 19.9206 10.9615C21.1746 9.82211 21.5262 8.47798 21.4927 6.95885C21.4307 5.80243 20.8417 4.85431 19.9119 4.03708C18.1669 2.69669 16.1741 2.63409 13.9627 2.65712C13.7044 2.65802 13.4461 2.65871 13.1877 2.65919C12.5139 2.66103 11.8401 2.66577 11.1663 2.67116C10.3546 2.67704 9.54283 2.67923 8.73109 2.68205C7.50337 2.68672 6.2758 2.69601 5.04808 2.70444Z" fill="#0D0D0D"/>
<path d="M149.339 0.84787C153.686 0.84787 153.686 0.84787 154.589 1.45361C154.787 1.67234 154.787 1.67234 154.927 1.88284C155.459 2.58294 156.174 3.14033 156.865 3.72087C157.233 4.03018 157.597 4.34217 157.961 4.65507C158.065 4.74408 158.065 4.74408 158.17 4.8349C158.533 5.14863 158.881 5.46763 159.213 5.80503C159.936 6.53657 160.747 7.19882 161.538 7.8745C163.335 9.40852 163.335 9.40852 164.079 10.1636C164.717 10.7802 165.415 11.3518 166.096 11.933C167.814 13.3992 167.814 13.3992 168.332 13.9253C169.068 14.6725 169.898 15.3474 170.706 16.0369C171.037 16.3202 171.368 16.6039 171.699 16.8878C171.813 16.9847 171.813 16.9847 171.929 17.0836C172.46 17.5391 172.46 17.5391 172.616 17.8087C172.662 12.2116 172.709 6.61455 172.756 0.84787C173.497 0.84787 174.237 0.84787 175 0.84787C175 8.84369 175 16.8395 175 25.0776C173.317 25.0776 173.317 25.0776 172.911 24.8732C172.778 24.7345 172.778 24.7345 172.642 24.593C172.552 24.5031 172.461 24.4131 172.368 24.3205C172.265 24.2105 172.162 24.1006 172.055 23.9873C171.227 23.1284 170.311 22.3487 169.391 21.5643C167.748 20.1626 167.748 20.1626 167.222 19.6297C166.523 18.9219 165.74 18.2804 164.974 17.627C163.256 16.1609 163.256 16.1609 162.506 15.4006C161.867 14.7835 161.169 14.211 160.487 13.6291C158.769 12.163 158.769 12.163 158.019 11.4027C157.379 10.7856 156.681 10.2131 156 9.63116C154.282 8.16537 154.282 8.16537 153.743 7.62085C153.106 6.9899 152.408 6.40692 151.723 5.81497C151.676 12.2116 151.63 18.6083 151.583 25.1988C150.842 25.2388 150.102 25.2787 149.339 25.3199C149.339 17.2442 149.339 9.16837 149.339 0.84787Z" fill="#0D0D0D"/>
<path d="M34.6354 1.09037C41.6691 1.09037 48.7028 1.09037 55.9496 1.09037C56.9311 2.66531 56.9311 2.66531 56.9311 3.02876C51.2394 3.02876 45.5477 3.02876 39.6835 3.02876C39.6835 6.10715 39.6835 9.18554 39.6835 12.3572C43.6631 12.3572 47.6427 12.3572 51.7428 12.3572C51.7428 12.9569 51.7428 13.5566 51.7428 14.1744C47.7632 14.1744 43.7837 14.1744 39.6835 14.1744C39.6835 17.2528 39.6835 20.3312 39.6835 23.5029C45.9768 23.5029 52.2701 23.5029 58.754 23.5029C58.4736 24.2298 58.4736 24.2298 57.7725 25.3201C50.1372 25.3201 42.502 25.3201 34.6354 25.3201C34.6354 17.3243 34.6354 9.3285 34.6354 1.09037Z" fill="#0D0D0D"/>
<path d="M60.0159 1.09037C61.9595 1.09037 63.903 1.09037 65.9054 1.09037C66.131 1.48267 66.3565 1.87496 66.589 2.27915C67.144 3.24048 67.71 4.19587 68.2922 5.1451C68.8052 5.98178 69.3103 6.82188 69.8141 7.6627C70.6365 9.03462 71.4622 10.405 72.2901 11.7744C72.569 12.2359 72.8477 12.6974 73.1264 13.1589C73.2666 13.391 73.4068 13.6231 73.5471 13.8552C73.9021 14.4428 74.2564 15.0307 74.6091 15.6192C74.6809 15.7387 74.7527 15.8582 74.8266 15.9813C74.9598 16.2031 75.0928 16.425 75.2254 16.6471C75.8785 17.7333 76.5721 18.8002 77.2635 19.8684C77.735 19.057 78.2059 18.2453 78.6766 17.4335C78.836 17.1587 78.9954 16.8839 79.155 16.6092C80.0344 15.0954 80.9028 13.5782 81.744 12.0483C82.5139 10.6516 83.3219 9.2715 84.1272 7.88985C84.9562 6.46655 85.773 5.03937 86.5613 3.59881C87.0293 2.74556 87.5301 1.91573 88.0608 1.09037C88.8938 1.09037 89.7267 1.09037 90.5849 1.09037C90.4769 1.55676 90.3956 1.82615 90.1604 2.2318C90.1009 2.33532 90.0414 2.43884 89.98 2.5455C89.8818 2.71353 89.8818 2.71353 89.7816 2.88495C89.7127 3.00423 89.6439 3.12351 89.5729 3.24641C89.3445 3.64146 89.1148 4.03597 88.8852 4.43049C88.7252 4.70656 88.5653 4.98266 88.4054 5.2588C88.0694 5.8389 87.7328 6.41878 87.3958 6.99845C86.9674 7.73517 86.54 8.47232 86.113 9.20963C85.7024 9.91858 85.2912 10.6273 84.88 11.336C84.8032 11.4684 84.7265 11.6009 84.6473 11.7374C83.8619 13.0915 83.0695 14.4415 82.2487 15.78C81.6512 16.7558 81.0793 17.7422 80.5095 18.7303C80.3984 18.9226 80.2872 19.1149 80.176 19.3071C79.8885 19.8043 79.6014 20.3016 79.3143 20.799C79.0193 21.3101 78.724 21.821 78.4286 22.3319C77.853 23.3278 77.2777 24.3239 76.7027 25.3201C76.1011 25.3201 75.4995 25.3201 74.8797 25.3201C74.1259 24.2055 73.4213 23.0754 72.7345 21.929C72.2519 21.1253 71.7569 20.3285 71.2514 19.5353C70.532 18.4051 69.8436 17.2623 69.1599 16.1157C68.6516 15.2654 68.1316 14.4219 67.5968 13.5838C66.8947 12.4831 66.2243 11.3692 65.5594 10.2514C64.9847 9.2858 64.3998 8.32603 63.7932 7.37497C63.1575 6.3777 62.5415 5.37223 61.9353 4.36139C61.8564 4.22988 61.7774 4.09837 61.6961 3.96287C61.1262 3.00936 60.5715 2.05041 60.0159 1.09037Z" fill="#0D0D0D"/>
</svg>
