<svg width="175" height="30" viewBox="0 0 175 30" fill="none" xmlns="http://www.w3.org/2000/svg">
<path d="M132.091 0.57779C132.183 0.601964 132.274 0.626138 132.368 0.651045C135.206 1.41936 137.856 2.72639 140.084 4.66304C140.254 4.80305 140.254 4.80305 140.427 4.94588C142.655 6.84749 144.218 9.40334 144.852 12.2701C144.876 12.3798 144.9 12.4896 144.926 12.6027C145.495 15.7877 144.641 19.0347 142.932 21.726C141.838 23.2867 140.631 24.6496 139.103 25.7937C138.982 25.8886 138.861 25.9836 138.737 26.0814C137.299 27.1849 135.76 27.9723 134.063 28.5847C133.956 28.6238 133.85 28.6629 133.74 28.7033C131.467 29.4844 129.247 29.5156 126.872 29.5043C126.519 29.5042 126.166 29.5042 125.814 29.5045C125.059 29.5046 124.304 29.5034 123.549 29.501C122.458 29.4975 121.367 29.4964 120.276 29.4959C118.504 29.495 116.733 29.4922 114.962 29.4882C113.243 29.4843 111.524 29.4813 109.805 29.4795C109.698 29.4794 109.591 29.4793 109.48 29.4792C108.641 29.4783 107.802 29.4775 106.962 29.4767C102.859 29.4727 98.755 29.4642 94.6514 29.4563C94.6514 20.1588 94.6514 10.8614 94.6514 1.28214C96.3172 1.28214 97.9831 1.28214 99.6995 1.28214C99.6995 9.92879 99.6995 18.5754 99.6995 27.4841C104.903 27.4713 104.903 27.4713 110.107 27.4547C112.23 27.447 114.353 27.4398 116.476 27.4353C118.023 27.4321 119.569 27.4273 121.116 27.4209C121.934 27.4175 122.752 27.4149 123.57 27.414C124.342 27.4131 125.113 27.4103 125.885 27.406C126.167 27.4048 126.448 27.4043 126.73 27.4045C130.249 27.4067 133.104 26.7964 135.755 24.2969C138.466 21.4695 139.325 17.6994 139.282 13.8857C139.186 10.6066 137.743 7.57127 135.383 5.30962C132.987 3.2494 129.95 2.04227 126.763 2.26824C123.444 2.56052 120.405 3.93959 118.226 6.52242C115.948 9.54387 115.179 13.1177 115.61 16.8632C116.067 20.0997 117.839 23.1447 120.426 25.1449C120.863 25.4671 121.308 25.7777 121.755 26.0848C121.881 26.1746 122.006 26.2645 122.135 26.3571C122.135 26.4036 122.135 26.4501 122.135 26.498C119.991 26.6348 117.995 25.8973 116.106 24.9484C115.956 24.8731 115.805 24.7977 115.651 24.7201C114.525 24.1068 113.64 23.3151 112.74 22.4128C112.647 22.3201 112.553 22.2275 112.456 22.1321C110.302 19.8452 109.718 16.8797 109.758 13.8383C109.865 10.3708 111.864 7.34332 114.301 5.01577C116.538 2.94786 119.351 1.51039 122.276 0.71866C122.377 0.689447 122.478 0.660233 122.583 0.630135C125.505 -0.188614 129.157 -0.213111 132.091 0.57779Z" fill="white"/>
<path d="M0 1.03164C2.84296 1.02292 5.68593 1.0142 8.61504 1.00522C9.50842 1.00137 10.4018 0.997527 11.3223 0.993563C12.4241 0.991654 12.4241 0.991654 12.9421 0.9913C13.2992 0.990656 13.6563 0.989182 14.0134 0.987018C17.9193 0.964564 21.8392 1.25406 24.8197 4.13079C26.338 5.93951 26.6827 7.74534 26.5024 10.0474C26.3873 10.6129 26.2067 11.0864 25.9415 11.5969C25.8788 11.7195 25.8161 11.8421 25.7515 11.9684C24.639 13.9728 22.6143 15.2606 20.4728 15.9639C20.0078 16.0807 19.5446 16.1751 19.0705 16.2457C19.5772 16.9706 20.1229 17.6025 20.7543 18.2201C21.1016 18.5676 21.419 18.9355 21.7386 19.3085C22.0758 19.6962 22.4219 20.0754 22.7689 20.4542C23.5608 21.319 24.3433 22.1921 25.1243 23.0669C25.7026 23.7139 26.2845 24.3573 26.8705 24.9973C27.3687 25.5415 27.8597 26.0907 28.3401 26.6509C28.5559 26.8954 28.7753 27.1342 28.9985 27.3717C29.0681 27.4463 29.1377 27.5208 29.2094 27.5976C29.3472 27.7448 29.4857 27.8912 29.6252 28.0367C30.0144 28.4539 30.234 28.8137 30.4287 29.3467C29.5281 29.3717 28.6276 29.389 27.7267 29.4008C27.4206 29.4058 27.1144 29.4125 26.8083 29.421C26.3672 29.4331 25.9265 29.4386 25.4852 29.443C25.2812 29.4506 25.2812 29.4506 25.073 29.4584C24.3449 29.4588 23.9424 29.3964 23.4136 28.8714C23.2708 28.7044 23.1314 28.5343 22.9968 28.3606C22.8903 28.2349 22.7839 28.1092 22.6742 27.9798C22.5811 27.8614 22.488 27.743 22.3921 27.621C21.9553 27.0757 21.5058 26.5509 21.0337 26.0362C20.4597 25.4097 19.9225 24.7617 19.3904 24.0992C19.0611 23.7004 18.7187 23.3183 18.3694 22.937C17.7954 22.3105 17.2582 21.6626 16.7261 21.0001C16.2866 20.4678 15.8198 19.9629 15.3535 19.4543C14.8905 18.936 14.4559 18.3972 14.0235 17.853C13.7475 17.5081 13.7475 17.508 13.4254 17.2048C13.1811 16.95 13.1811 16.95 13.1811 16.6683C10.4972 16.6683 7.81331 16.6683 5.04808 16.6683C5.04808 20.8057 5.04808 24.943 5.04808 29.2058C3.38221 29.2058 1.71635 29.2058 0 29.2058C0 19.9083 0 10.6108 0 1.03164ZM5.04808 3.1447C5.04808 6.91017 5.04808 10.6756 5.04808 14.5552C7.76813 14.5727 7.76813 14.5727 10.5431 14.5904C11.3967 14.5981 11.3967 14.5981 12.2676 14.606C12.7851 14.6079 12.7851 14.6079 13.3026 14.609C13.5302 14.6099 13.7577 14.6118 13.9853 14.6147C16.2395 14.6419 18.1747 14.3139 19.9206 12.7459C21.1746 11.4211 21.5262 9.85811 21.4927 8.09168C21.4307 6.74701 20.8417 5.64455 19.9119 4.69427C18.1669 3.13569 16.1741 3.0629 13.9627 3.08967C13.7044 3.09072 13.4461 3.09152 13.1877 3.09209C12.5139 3.09422 11.8401 3.09974 11.1663 3.10601C10.3546 3.11284 9.54283 3.11538 8.73109 3.11866C7.50337 3.12409 6.2758 3.1349 5.04808 3.1447Z" fill="white"/>
<path d="M149.339 0.985895C153.686 0.985895 153.686 0.985895 154.589 1.69025C154.787 1.94458 154.787 1.94458 154.927 2.18935C155.459 3.00341 156.174 3.65154 156.865 4.32659C157.233 4.68625 157.597 5.04903 157.961 5.41287C158.065 5.51638 158.065 5.51638 158.17 5.62198C158.533 5.98678 158.881 6.35771 159.213 6.75004C159.936 7.60066 160.747 8.37072 161.538 9.1564C163.335 10.9401 163.335 10.9401 164.079 11.8181C164.717 12.5351 165.415 13.1998 166.096 13.8756C167.814 15.5805 167.814 15.5805 168.332 16.1922C169.068 17.061 169.898 17.8458 170.706 18.6476C171.037 18.977 171.368 19.3068 171.699 19.637C171.813 19.7496 171.813 19.7496 171.929 19.8646C172.46 20.3943 172.46 20.3943 172.616 20.7078C172.662 14.1996 172.709 7.69134 172.756 0.985895C173.497 0.985895 174.237 0.985895 175 0.985895C175 10.2834 175 19.5808 175 29.16C173.317 29.16 173.317 29.16 172.911 28.9223C172.778 28.7611 172.778 28.7611 172.642 28.5966C172.552 28.492 172.461 28.3874 172.368 28.2796C172.265 28.1518 172.162 28.0239 172.055 27.8922C171.227 26.8935 170.311 25.9869 169.391 25.0748C167.748 23.4449 167.748 23.4449 167.222 22.8253C166.523 22.0022 165.74 21.2563 164.974 20.4965C163.256 18.7918 163.256 18.7918 162.506 17.9077C161.867 17.1901 161.169 16.5244 160.487 15.8478C158.769 14.143 158.769 14.143 158.019 13.259C157.379 12.5414 156.681 11.8757 156 11.199C154.282 9.49462 154.282 9.49462 153.743 8.86145C153.106 8.12779 152.408 7.44991 151.723 6.7616C151.676 14.1996 151.63 21.6375 151.583 29.3009C150.842 29.3474 150.102 29.3939 149.339 29.4418C149.339 20.0513 149.339 10.6609 149.339 0.985895Z" fill="white"/>
<path d="M34.6354 1.26788C41.6691 1.26788 48.7028 1.26788 55.9496 1.26788C56.9311 3.0992 56.9311 3.0992 56.9311 3.52181C51.2394 3.52181 45.5477 3.52181 39.6835 3.52181C39.6835 7.10133 39.6835 10.6809 39.6835 14.3689C43.6631 14.3689 47.6427 14.3689 51.7428 14.3689C51.7428 15.0662 51.7428 15.7635 51.7428 16.4819C47.7632 16.4819 43.7837 16.4819 39.6835 16.4819C39.6835 20.0614 39.6835 23.641 39.6835 27.329C45.9768 27.329 52.2701 27.329 58.754 27.329C58.4736 28.1742 58.4736 28.1742 57.7725 29.442C50.1372 29.442 42.502 29.442 34.6354 29.442C34.6354 20.1446 34.6354 10.8471 34.6354 1.26788Z" fill="white"/>
<path d="M60.0159 1.26788C61.9595 1.26788 63.903 1.26788 65.9054 1.26788C66.131 1.72403 66.3565 2.18019 66.589 2.65017C67.144 3.768 67.71 4.87892 68.2922 5.98268C68.8052 6.95556 69.3103 7.93242 69.8141 8.91012C70.6365 10.5054 71.4622 12.0988 72.2901 13.6912C72.569 14.2277 72.8477 14.7644 73.1264 15.3011C73.2666 15.571 73.4068 15.8409 73.5471 16.1107C73.9021 16.7939 74.2564 17.4775 74.6091 18.1619C74.6809 18.3008 74.7527 18.4397 74.8266 18.5829C74.9598 18.8408 75.0928 19.0989 75.2254 19.3571C75.8785 20.6202 76.5721 21.8607 77.2635 23.1028C77.735 22.1593 78.2059 21.2155 78.6766 20.2715C78.836 19.952 78.9954 19.6325 79.155 19.3131C80.0344 17.5528 80.9028 15.7886 81.744 14.0097C82.5139 12.3856 83.3219 10.7808 84.1272 9.17425C84.9562 7.51924 85.773 5.85973 86.5613 4.18467C87.0293 3.19251 87.5301 2.2276 88.0608 1.26788C88.8938 1.26788 89.7267 1.26788 90.5849 1.26788C90.4769 1.81018 90.3956 2.12343 90.1604 2.59511C90.1009 2.71549 90.0414 2.83586 89.98 2.95988C89.8818 3.15526 89.8818 3.15526 89.7816 3.35459C89.7127 3.49329 89.6439 3.63199 89.5729 3.77489C89.3445 4.23425 89.1148 4.69299 88.8852 5.15173C88.7252 5.47274 88.5653 5.7938 88.4054 6.11488C88.0694 6.78942 87.7328 7.4637 87.3958 8.13773C86.9674 8.99438 86.54 9.85154 86.113 10.7089C85.7024 11.5332 85.2912 12.3573 84.88 13.1814C84.8032 13.3354 84.7265 13.4894 84.6473 13.6481C83.8619 15.2227 83.0695 16.7925 82.2487 18.3488C81.6512 19.4835 81.0793 20.6305 80.5095 21.7794C80.3984 22.003 80.2872 22.2266 80.176 22.4502C79.8885 23.0283 79.6014 23.6066 79.3143 24.1849C79.0193 24.7791 78.724 25.3732 78.4286 25.9673C77.853 27.1254 77.2777 28.2836 76.7027 29.442C76.1011 29.442 75.4995 29.442 74.8797 29.442C74.1259 28.1459 73.4213 26.8319 72.7345 25.4988C72.2519 24.5643 71.7569 23.6377 71.2514 22.7154C70.532 21.4013 69.8436 20.0724 69.1599 18.7392C68.6516 17.7505 68.1316 16.7697 67.5968 15.7952C66.8947 14.5152 66.2243 13.22 65.5594 11.9203C64.9847 10.7974 64.3998 9.68143 63.7932 8.57555C63.1575 7.41592 62.5415 6.24678 61.9353 5.07139C61.8564 4.91846 61.7774 4.76554 61.6961 4.60799C61.1262 3.49926 60.5715 2.3842 60.0159 1.26788Z" fill="white"/>
</svg>
