<svg width="48" height="48" viewBox="0 0 48 48" fill="none" xmlns="http://www.w3.org/2000/svg">
<path d="M16.9679 13.2002C16.6308 13.1998 16.297 13.2666 15.9856 13.3967C15.6741 13.5267 15.391 13.7176 15.1526 13.9583C14.9141 14.1991 14.7249 14.4849 14.5959 14.7996C14.4668 15.1143 14.4004 15.4516 14.4004 15.7922C14.4004 17.2257 15.5496 18.4137 16.965 18.4137C18.3823 18.4137 19.5324 17.2257 19.5324 15.7942C19.5327 15.4536 19.4666 15.1163 19.3378 14.8016C19.209 14.4869 19.0202 14.201 18.782 13.9601C18.5438 13.7192 18.261 13.5281 17.9497 13.3977C17.6385 13.2673 17.3048 13.2002 16.9679 13.2002ZM29.4915 20.0729C27.3359 20.0729 26.1032 21.2118 25.5106 22.3449H25.4484V20.3783H21.2004V34.8002H25.6272V27.6614C25.6272 25.7802 25.7671 23.9619 28.0703 23.9619C30.3406 23.9619 30.3736 26.1072 30.3736 27.7802V34.8002H34.8004V26.8789C34.8004 23.0027 33.9756 20.0729 29.4915 20.0729ZM14.753 20.3773V34.8002H19.1827V20.3773H14.753Z" fill="#0D0D0D"/>
<rect x="0.5" y="0.5" width="47" height="47" rx="23.5" stroke="#D8D8D8"/>
</svg>
