<svg width="48" height="48" viewBox="0 0 48 48" fill="none" xmlns="http://www.w3.org/2000/svg">
<rect x="0.5" y="0.5" width="47" height="47" rx="23.5" stroke="#D8D8D8"/>
<path d="M29.5387 20.1233C30.4563 20.1233 31.2002 19.3794 31.2002 18.4617C31.2002 17.5441 30.4563 16.8002 29.5387 16.8002C28.621 16.8002 27.8771 17.5441 27.8771 18.4617C27.8771 19.3794 28.621 20.1233 29.5387 20.1233Z" fill="#0D0D0D"/>
<path fill-rule="evenodd" clip-rule="evenodd" d="M19.5694 14.8617C16.971 14.8617 14.8617 16.971 14.8617 19.5694V28.431C14.8617 31.0294 16.971 33.1387 19.5694 33.1387H28.431C31.0294 33.1387 33.1387 31.0294 33.1387 28.431V19.5694C33.1387 16.971 31.0294 14.8617 28.431 14.8617H19.5694ZM13.2002 19.5694C13.2002 16.0534 16.0534 13.2002 19.5694 13.2002H28.431C31.947 13.2002 34.8002 16.0534 34.8002 19.5694V28.431C34.8002 31.947 31.947 34.8002 28.431 34.8002H19.5694C16.0534 34.8002 13.2002 31.947 13.2002 28.431V19.5694Z" fill="#0D0D0D"/>
<path fill-rule="evenodd" clip-rule="evenodd" d="M24.0002 20.4002C22.011 20.4002 20.4002 22.011 20.4002 24.0002C20.4002 25.9894 22.011 27.6002 24.0002 27.6002C25.9894 27.6002 27.6002 25.9894 27.6002 24.0002C27.6002 22.011 25.9894 20.4002 24.0002 20.4002ZM18.7387 24.0002C18.7387 21.0934 21.0934 18.7387 24.0002 18.7387C26.907 18.7387 29.2617 21.0934 29.2617 24.0002C29.2617 26.907 26.907 29.2617 24.0002 29.2617C21.0934 29.2617 18.7387 26.907 18.7387 24.0002Z" fill="#0D0D0D"/>
</svg>
