<svg width="48" height="48" viewBox="0 0 48 48" fill="none" xmlns="http://www.w3.org/2000/svg">
<path d="M35.9619 14.7979L31.8095 31.9816C31.6141 32.7909 30.7103 33.2078 29.9694 32.8236L24.7177 30.1013L22.2344 34.1806C21.5586 35.2924 19.8488 34.8101 19.8488 33.5103V28.965C19.8488 28.6135 19.9954 28.2783 20.2478 28.0331L30.4823 18.2232C30.4742 18.1006 30.3439 17.9943 30.2136 18.0842L18.0006 26.6188L13.897 24.4933C12.9362 23.9947 12.9769 22.5968 13.9702 22.1635L34.2032 13.3101C35.1721 12.885 36.2143 13.7597 35.9619 14.7979Z" fill="#0D0D0D"/>
<rect x="0.5" y="0.5" width="47" height="47" rx="23.5" stroke="#D8D8D8"/>
</svg>
