<svg width="259" height="24" viewBox="0 0 259 24" fill="none" xmlns="http://www.w3.org/2000/svg">
<path d="M129.257 12.0005C129.283 13.1804 128.318 14.3593 127.009 14.4449C126.373 14.4939 125.693 14.279 125.19 13.8262C124.685 13.3745 124.386 12.6911 124.383 12.0016C124.385 11.312 124.683 10.6276 125.189 10.1759C125.692 9.72099 126.373 9.50817 127.009 9.55616C128.319 9.64066 129.282 10.8206 129.257 12.0005ZM129.257 12.0005C129.253 11.409 128.996 10.8268 128.561 10.444C128.126 10.0601 127.547 9.88896 127.009 9.93695C125.902 10.0277 125.12 11.024 125.139 12.0016C125.119 12.978 125.9 13.9775 127.009 14.0672C127.548 14.1152 128.127 13.9431 128.562 13.5581C128.996 13.1742 129.253 12.592 129.257 12.0005Z" fill="#D1AE62"/>
<path d="M127.008 0C128.484 0 129.681 1.19975 129.681 2.68013C129.681 4.16051 128.484 9.70438 127.008 9.70438C125.532 9.70438 124.336 4.16051 124.336 2.68013C124.337 1.19975 125.533 0 127.008 0Z" fill="#D1AE62"/>
<path d="M116.646 5.99985C117.384 4.71769 119.018 4.27847 120.297 5.01919C121.575 5.75886 125.764 9.56988 125.025 10.852C124.288 12.1342 118.903 10.4014 117.624 9.66064C116.347 8.92097 115.909 7.28201 116.646 5.99985Z" fill="#D1AE62"/>
<path d="M116.646 18.0002C115.909 16.7181 116.347 15.0791 117.624 14.3394C118.903 13.5998 124.288 11.8669 125.025 13.148C125.763 14.4292 121.574 18.2412 120.297 18.9809C119.019 19.7206 117.384 19.2813 116.646 18.0002Z" fill="#D1AE62"/>
<path d="M127.008 24C125.532 24 124.336 22.8003 124.336 21.3199C124.336 19.8395 125.532 14.2956 127.008 14.2956C128.484 14.2956 129.681 19.8395 129.681 21.3199C129.681 22.8003 128.484 24 127.008 24Z" fill="#D1AE62"/>
<path d="M137.371 18.0003C136.633 19.2825 134.999 19.7217 133.721 18.981C132.442 18.2413 128.253 14.4303 128.992 13.1481C129.73 11.866 135.115 13.5988 136.393 14.3395C137.67 15.0792 138.108 16.7181 137.371 18.0003Z" fill="#D1AE62"/>
<path d="M137.371 5.99967C138.108 7.28183 137.67 8.92079 136.393 9.66046C135.115 10.4001 129.729 12.133 128.992 10.8519C128.254 9.56969 132.443 5.75867 133.721 5.019C134.998 4.27934 136.632 4.71855 137.371 5.99967Z" fill="#D1AE62"/>
<path d="M53.9438 14.6776L56.6712 16.1778C56.7753 16.2352 56.8948 16.2352 56.9989 16.1778L59.7263 14.6776C60.029 14.5117 60.029 13.9995 59.7263 13.8326L56.9989 12.3324C56.8948 12.275 56.7753 12.275 56.6712 12.3324L53.9438 13.8326C53.6411 13.9995 53.6411 14.5117 53.9438 14.6776Z" fill="#D1AE62"/>
<path d="M61.6496 14.6776L64.3771 16.1778C64.4811 16.2352 64.6007 16.2352 64.7037 16.1778L67.4311 14.6776C67.7338 14.5117 67.7338 13.9995 67.4311 13.8326L64.7037 12.3324C64.5997 12.275 64.48 12.275 64.3771 12.3324L61.6496 13.8326C61.3469 13.9995 61.3469 14.5117 61.6496 14.6776Z" fill="#D1AE62"/>
<path d="M69.3544 14.6776L72.0818 16.1778C72.1858 16.2352 72.3055 16.2352 72.4095 16.1778L75.1369 14.6776C75.4396 14.5117 75.4396 13.9995 75.1369 13.8326L72.4095 12.3324C72.3055 12.275 72.1858 12.275 72.0818 12.3324L69.3544 13.8326C69.0528 13.9995 69.0528 14.5117 69.3544 14.6776Z" fill="#D1AE62"/>
<path d="M78.548 14.2553C85.2063 13.6523 91.8647 13.5135 98.5231 13.4885C105.181 13.5104 111.84 13.6481 118.498 14.2553C111.84 14.8624 105.181 15.0002 98.5231 15.0221C91.8647 14.997 85.2063 14.8583 78.548 14.2553Z" fill="#D1AE62"/>
<path d="M2.42652 14.2553C10.5412 13.6523 18.6559 13.5135 26.7695 13.4885C34.8842 13.5104 42.9988 13.6481 51.1125 14.2553C42.9978 14.8624 34.8842 15.0002 26.7695 15.0221C18.6548 14.997 10.5412 14.8583 2.42652 14.2553Z" fill="#D1AE62"/>
<path d="M0.5 14.2552C0.5 13.478 1.12828 12.8489 1.90219 12.8489C2.67715 12.8489 5.57724 13.479 5.57724 14.2552C5.57724 15.0325 2.67611 15.6615 1.90219 15.6615C1.12724 15.6615 0.5 15.0325 0.5 14.2552Z" fill="#D1AE62"/>
<path d="M205.056 14.6776L202.329 16.1778C202.225 16.2352 202.105 16.2352 202.001 16.1778L199.273 14.6776C198.971 14.5117 198.971 13.9995 199.273 13.8326L202.001 12.3324C202.105 12.275 202.225 12.275 202.329 12.3324L205.056 13.8326C205.358 13.9995 205.358 14.5117 205.056 14.6776Z" fill="#D1AE62"/>
<path d="M197.35 14.6776L194.623 16.1778C194.519 16.2352 194.399 16.2352 194.295 16.1778L191.568 14.6776C191.265 14.5117 191.265 13.9995 191.568 13.8326L194.295 12.3324C194.399 12.275 194.519 12.275 194.623 12.3324L197.35 13.8326C197.653 13.9995 197.653 14.5117 197.35 14.6776Z" fill="#D1AE62"/>
<path d="M189.644 14.6776L186.917 16.1778C186.813 16.2352 186.693 16.2352 186.589 16.1778L183.862 14.6776C183.559 14.5117 183.559 13.9995 183.862 13.8326L186.589 12.3324C186.693 12.275 186.813 12.275 186.917 12.3324L189.644 13.8326C189.947 13.9995 189.947 14.5117 189.644 14.6776Z" fill="#D1AE62"/>
<path d="M180.451 14.2553C173.793 14.8583 167.134 14.997 160.476 15.0221C153.817 15.0002 147.159 14.8624 140.501 14.2553C147.159 13.6481 153.817 13.5104 160.476 13.4885C167.134 13.5135 173.793 13.6523 180.451 14.2553Z" fill="#D1AE62"/>
<path d="M256.573 14.2553C248.459 14.8583 240.344 14.997 232.23 15.0221C224.116 15.0002 216.002 14.8624 207.887 14.2553C216.002 13.6481 224.117 13.5104 232.23 13.4885C240.344 13.5135 248.459 13.6523 256.573 14.2553Z" fill="#D1AE62"/>
<path d="M258.5 14.2552C258.5 13.478 257.872 12.8489 257.098 12.8489C256.323 12.8489 253.423 13.479 253.423 14.2552C253.423 15.0325 256.324 15.6615 257.098 15.6615C257.872 15.6615 258.5 15.0325 258.5 14.2552Z" fill="#D1AE62"/>
</svg>
