<svg width="24" height="25" viewBox="0 0 24 25" fill="none" xmlns="http://www.w3.org/2000/svg">
<path d="M1.88057 24.7402H0C0.036671 22.1932 0.756928 19.8767 2.23223 17.7973C3.70942 15.7151 5.67931 14.2906 8.07609 13.3976C6.11654 11.927 5.04838 10 5.08035 7.55556C5.10573 5.63047 5.85326 3.97165 7.25898 2.64968C9.94819 0.119592 14.0591 0.0772516 16.7831 2.68167C18.3571 4.18712 19.0755 6.06893 18.9128 8.24242C18.7502 10.4206 17.6726 12.1029 15.9303 13.3976C19.1329 14.5869 21.4751 16.7011 22.9297 19.7892C23.7478 21.5252 24.0383 23.6159 23.996 24.7402H22.1493C22.0581 21.2043 20.58 18.3948 17.6867 16.3624C15.8701 15.0866 13.8165 14.554 11.605 14.6265C9.84758 14.6838 8.21713 15.1797 6.72114 16.1009C5.22233 17.0248 4.02911 18.2546 3.16969 19.792C2.31404 21.3229 1.87963 22.9713 1.88057 24.7402ZM17.068 7.75974C17.1404 5.03676 14.9364 2.63087 12.0328 2.61111C9.26272 2.59229 7.01451 4.81471 6.94023 7.54239C6.865 10.2917 9.0521 12.7606 12.0685 12.7428C14.7794 12.7268 17.0454 10.5062 17.068 7.76068V7.75974Z" fill="white"/>
</svg>
