<svg width="60" height="58" viewBox="0 0 60 58" fill="none" xmlns="http://www.w3.org/2000/svg">
<g clip-path="url(#clip0_149_10321)">
<path d="M34.395 17.0977C38.6425 16.0732 40.5956 17.8724 41.6623 19.1612C42.7289 20.4501 43.7985 22.6352 43.6097 24.7982C43.3691 27.5521 41.3249 31.3114 37.1129 31.7068C32.9019 32.1033 32.9843 28.3622 32.9843 28.3622C32.9843 28.3622 32.5521 29.921 31.5343 31.1955C30.0048 33.1106 27.4862 34.1687 27.4862 34.1687C28.8087 33.6382 32.3767 32.4614 33.2622 32.5849C33.705 32.6471 34.4017 32.8319 34.9576 33.1412C36.6405 34.0758 38.6176 34.3879 40.4825 33.9063C42.474 33.3911 44.2249 32.1205 45.4698 30.4103C47.6022 27.4812 47.3089 23.7813 47.0176 22.0061C46.7272 20.2308 45.3433 17.3467 42.2641 15.7754C39.1859 14.2041 36.3692 14.6359 34.3711 15.3416C32.3729 16.0473 30.7187 16.7626 28.2462 15.988C25.7736 15.2133 24.6705 12.9497 24.6705 12.9497C26.4799 17.6646 30.1456 18.1233 34.3931 17.0977H34.395Z" fill="url(#paint0_linear_149_10321)"/>
<path d="M29.8821 21.3699C30.9076 25.6137 29.425 27.0855 28.0507 28.4997C26.7176 29.8709 24.3399 30.7662 22.175 30.5776C19.4187 30.3372 15.6562 28.2939 15.2604 24.0865C14.8636 19.879 18.6079 19.9614 18.6079 19.9614C18.6079 19.9614 17.0477 19.5295 15.7722 18.5126C13.8554 16.9844 12.806 14.5571 12.806 14.5571C13.337 15.8785 14.5052 19.3553 14.3806 20.2391C14.3183 20.6815 14.1334 21.3776 13.8238 21.933C12.8885 23.6144 12.576 25.5898 13.0581 27.4531C13.5737 29.4429 14.8454 31.1923 16.5571 32.4362C19.4887 34.5667 23.1918 34.2737 24.9686 33.9826C26.7454 33.6924 29.632 32.3098 31.2046 29.2332C32.7773 26.1576 32.3451 23.3434 31.6388 21.3469C30.9325 19.3505 30.2166 17.6978 30.9919 15.2273C31.7672 12.7569 34.0328 11.6548 34.0328 11.6548C29.3138 13.4626 28.8547 17.1252 29.8811 21.369L29.8821 21.3699Z" fill="url(#paint1_linear_149_10321)"/>
<path d="M25.6069 17.088C21.3594 18.1126 19.4887 16.1046 18.4106 15.1528C16.9768 13.8879 16.2034 11.5506 16.3922 9.38752C16.6328 6.63365 18.677 2.87437 22.889 2.47891C27.1 2.08249 27.0176 5.82358 27.0176 5.82358C27.0176 5.82358 27.4498 4.26471 28.4676 2.99023C29.9952 1.07517 32.464 0.0170898 32.464 0.0170898C31.1414 0.547564 27.6223 1.72437 26.7378 1.60085C26.295 1.53861 25.5983 1.35381 25.0424 1.04452C23.3595 0.109971 21.3824 -0.202186 19.5175 0.279454C17.526 0.794608 15.7751 2.06526 14.5302 3.77541C12.3978 6.70451 12.6911 10.4044 12.9824 12.1797C13.2728 13.955 14.6567 16.8391 17.7359 18.4104C20.8141 19.9817 23.6307 19.5498 25.6289 18.8441C27.6271 18.1384 29.2812 17.4231 31.7538 18.1978C34.2264 18.9724 35.3295 21.2361 35.3295 21.2361C33.5201 16.5212 29.8543 16.0625 25.6069 17.088Z" fill="url(#paint2_linear_149_10321)"/>
<path d="M30.0872 12.8155C29.0618 8.57172 30.945 6.61835 32.0845 5.51144C33.3964 4.23696 35.6294 3.41923 37.7944 3.60786C40.5506 3.8482 44.3131 5.89062 44.7089 10.099C45.1057 14.3064 41.3614 14.224 41.3614 14.224C41.3614 14.224 42.9216 14.6559 44.1972 15.6728C46.1139 17.201 47.1719 19.4847 47.1719 19.4847C46.641 18.1633 45.4632 14.8302 45.5878 13.9464C45.6501 13.504 45.835 12.8079 46.1446 12.2525C47.0799 10.5711 47.3924 8.59566 46.9103 6.7323C46.3947 4.74254 45.123 2.99312 43.4113 1.74929C40.4797 -0.382183 36.7766 -0.0882203 34.9998 0.201913C33.223 0.492045 30.3364 1.87472 28.7637 4.95128C27.1911 8.02688 27.6233 10.8411 28.3296 12.8375C29.0359 14.834 29.7518 16.4867 28.9765 18.9571C28.2012 21.4276 25.9356 22.5297 25.9356 22.5297C30.6546 20.7219 31.1136 17.0593 30.0872 12.8155Z" fill="url(#paint3_linear_149_10321)"/>
<path d="M14.4501 53.2C9.92468 54.6344 8.15171 53.2709 6.5685 52.1486C4.87412 50.9479 3.88221 48.5512 3.92246 46.1928C3.9723 43.19 5.90148 38.9605 10.4345 38.2098C14.9676 37.4591 16.4454 40.7119 16.4454 40.7119V36.2699C15.6518 37.1077 15.4851 37.1833 14.5171 37.1163C14.0332 37.0828 13.2857 36.7831 12.6598 36.491C10.7642 35.6072 8.59735 35.4186 6.6145 36.0831C4.49652 36.7927 2.69576 38.3037 1.47673 40.2522C-0.610584 43.5912 -0.00969163 47.5783 0.441696 49.48C0.892126 51.3817 2.61238 54.4017 6.06823 55.8696C9.52408 57.3375 12.4969 56.02 14.6082 55.1026C16.7195 54.1853 18.4579 53.2843 21.196 53.9344C23.934 54.5846 25.3035 56.9545 25.3035 56.9545C22.9823 51.983 18.9754 51.7666 14.4501 53.201V53.2Z" fill="url(#paint4_linear_149_10321)"/>
<path d="M11.2779 41.4224H9.39093V50.1809H17.3559V48.7963L16.5039 49.5633H11.2779V41.4224Z" fill="url(#paint5_linear_149_10321)"/>
<path d="M20.4111 49.5633V45.8012H25.3036V45.3262H20.4111V42.0563H25.4205L26.2054 42.7399V41.4224H18.5078V50.1809H26.4057V48.8126L25.6045 49.5633H20.4111Z" fill="url(#paint6_linear_149_10321)"/>
<path d="M29.5279 49.5633V45.8012H34.4204V45.3262H29.5279V42.0563H34.5373L35.3222 42.7399V41.4224H27.6246V50.1809H35.5225V48.8126L34.7203 49.5633H29.5279Z" fill="url(#paint7_linear_149_10321)"/>
<path d="M44.6893 40.1125C44.6893 40.1125 45.2068 40.2293 45.8997 40.9465C45.8997 40.9465 45.5115 39.5303 44.3299 38.9692C43.1473 38.4081 42.5742 38.8859 42.4429 39.1779C42.301 39.4939 42.2704 40.3768 43.2949 40.5817C44.2657 40.776 44.9039 40.8067 45.3707 41.0997C45.6294 41.2625 45.8058 41.5306 45.8498 41.8332C45.8863 42.084 45.9169 42.4623 45.9169 43.0224V48.4114L37.4929 41.4214H36.7838V50.18H37.5351V43.1775L46.0252 50.18H46.5887V42.873C46.5887 42.873 46.7018 41.3046 44.6893 40.1125Z" fill="url(#paint8_linear_149_10321)"/>
<path d="M54.1521 41.4224H51.9728L52.4356 42.3023L47.5269 50.1809H48.5121L50.5822 46.911H55.7084L57.8628 50.1809H60L54.1521 41.4224ZM50.7882 46.5461L52.9349 42.9573L55.4459 46.5461H50.7882Z" fill="url(#paint9_linear_149_10321)"/>
<path d="M48.2227 39.8441C48.307 39.3615 47.9189 39.0273 47.365 39.0494C47.0784 39.0609 46.8178 39.0752 46.4766 39.3586C46.2437 39.5521 46.0875 39.8135 46.0242 40.0816C45.8833 40.6868 46.0559 41.244 46.6452 41.2009C47.2136 41.1598 47.0669 40.8811 47.4704 40.5019C47.8183 40.1754 48.1566 40.2156 48.2218 39.8432L48.2227 39.8441Z" fill="url(#paint10_linear_149_10321)"/>
<path d="M28.5266 55.0291C28.5266 55.37 28.3225 55.5787 27.7753 55.5787C27.4983 55.5787 27.1581 55.551 26.9846 55.5538V53.633C27.2079 53.6215 27.4935 53.5938 27.736 53.5938C28.1797 53.5938 28.4068 53.7671 28.4068 54.0601C28.4068 54.2832 28.3119 54.4421 28.1078 54.5178C28.3819 54.5704 28.5266 54.7495 28.5266 55.0281V55.0291ZM28.3225 55.0042C28.3225 54.7916 28.1797 54.5915 27.8452 54.5915H27.1916L27.1888 55.4571C27.3728 55.4571 27.5683 55.4763 27.7753 55.4763C28.0187 55.4763 28.3225 55.4619 28.3225 55.0042ZM27.1907 53.8628V54.4967H27.7216C28.0034 54.4967 28.2276 54.3512 28.2276 54.0945C28.2276 53.8207 28.0513 53.6732 27.6162 53.6732C27.2923 53.6732 27.1916 53.7211 27.1916 53.8628H27.1907Z" fill="url(#paint11_linear_149_10321)"/>
<path d="M30.083 55.2519C30.1529 55.2519 30.1836 55.3381 30.0945 55.4022C29.9411 55.5114 29.7284 55.5756 29.5137 55.5756C29.1313 55.5756 28.7509 55.3659 28.7509 54.8277C28.7509 54.3394 29.1169 54.1191 29.4744 54.1191C29.807 54.1191 30.1309 54.3145 30.1309 54.6659C30.1309 54.9781 29.8626 55.1514 29.5865 55.1514C29.4303 55.1514 29.2741 55.0958 29.1591 54.9809L29.1869 54.9388C29.2818 55.0202 29.3997 55.0556 29.5108 55.0556C29.7255 55.0556 29.9239 54.9101 29.9239 54.6372C29.9239 54.3643 29.6948 54.1852 29.46 54.1852C29.2252 54.1852 28.9684 54.3662 28.9684 54.7913C28.9684 55.2883 29.2674 55.5057 29.5578 55.5057C29.7169 55.5057 29.8731 55.4386 29.9737 55.3161C30.013 55.2682 30.0523 55.2519 30.083 55.2519Z" fill="url(#paint12_linear_149_10321)"/>
<path d="M31.6423 55.5375L31.4353 55.5797C31.4075 55.5127 31.396 55.4006 31.3902 55.2953C31.3069 55.4791 31.0721 55.5826 30.8507 55.5826C30.6025 55.5826 30.3677 55.4542 30.3677 55.1641C30.3677 54.6059 31.3816 54.7591 31.3902 54.4833C31.3845 54.3157 31.2781 54.2018 31.0912 54.2018C30.9849 54.2018 30.8536 54.2382 30.7002 54.3272C30.6552 54.3521 30.6168 54.3636 30.5833 54.3636C30.4328 54.3636 30.4127 54.151 30.6504 54.1463C30.7903 54.1434 30.9274 54.1348 31.0472 54.1348C31.3548 54.1348 31.5781 54.1846 31.5781 54.4948V55.0674C31.5781 55.3125 31.6088 55.4973 31.6423 55.5395V55.5375ZM31.3912 54.6193C31.1957 54.7926 30.5977 54.7648 30.5977 55.1354C30.5977 55.3614 30.7654 55.4705 30.9437 55.4705C31.1583 55.4705 31.3902 55.3202 31.3902 55.032V54.6193H31.3912Z" fill="url(#paint13_linear_149_10321)"/>
<path d="M33.1669 55.5371L32.957 55.5792C32.9293 55.5093 32.9178 55.3954 32.9149 55.2891C32.82 55.4816 32.6379 55.5792 32.4261 55.5792C32.1415 55.5792 31.923 55.3868 31.923 54.9932V54.1362H32.1099V54.9655C32.1099 55.2977 32.2526 55.4509 32.4731 55.4509C32.7107 55.4509 32.912 55.2613 32.912 54.9176V54.1362H33.0989V55.066C33.0989 55.3111 33.1296 55.4959 33.166 55.5381L33.1669 55.5371Z" fill="url(#paint14_linear_149_10321)"/>
<path d="M33.9998 55.5288C33.9184 55.568 33.8321 55.5929 33.7516 55.5929C33.6203 55.5929 33.5111 55.5202 33.5111 55.3133L33.5082 54.2026H33.3798V54.1547H33.3961C33.5331 54.1547 33.6194 54.0293 33.628 53.856H33.6979V54.1346H33.8963V54.2016H33.6979V55.276C33.6979 55.41 33.7401 55.4905 33.8513 55.4905C33.8877 55.4905 33.9299 55.4847 33.9768 55.4684L33.9989 55.5269L33.9998 55.5288Z" fill="url(#paint15_linear_149_10321)"/>
<path d="M35.4614 54.1357L34.8193 55.5816C34.6238 56.0144 34.4369 56.1734 34.0737 56.1734C33.8331 56.1734 33.8331 55.9081 34.0373 55.9081C34.065 55.9081 34.0928 55.911 34.1264 55.9225C34.1848 55.9416 34.2385 55.9503 34.2855 55.9503C34.503 55.9503 34.6266 55.7712 34.7551 55.4897L34.0813 54.1357H34.2855L34.8557 55.2608L35.2553 54.3426C35.2889 54.2698 35.3052 54.2114 35.2745 54.1357H35.4614Z" fill="url(#paint16_linear_149_10321)"/>
<path d="M38.1878 55.2245C38.0038 55.4705 37.6655 55.6094 37.3244 55.6094C36.8183 55.6094 36.3133 55.302 36.3133 54.5992C36.3133 53.8542 36.8413 53.5947 37.3637 53.5947C37.5707 53.5947 37.7738 53.634 37.9444 53.701C38.1514 53.7824 38.0949 53.949 37.9665 53.949C37.9243 53.949 37.8716 53.9299 37.8179 53.8791C37.6703 53.7422 37.4796 53.6723 37.2956 53.6723C36.918 53.6723 36.5529 53.9567 36.5529 54.5484C36.5529 55.2158 36.9889 55.4667 37.4106 55.4667C37.6952 55.4667 37.9751 55.3518 38.1121 55.1708L38.1878 55.2235V55.2245Z" fill="url(#paint17_linear_149_10321)"/>
<path d="M39.6887 55.2519C39.7586 55.2519 39.7893 55.3381 39.7002 55.4022C39.5469 55.5114 39.3341 55.5756 39.1194 55.5756C38.737 55.5756 38.3566 55.3659 38.3566 54.8277C38.3566 54.3394 38.7227 54.1191 39.0801 54.1191C39.4127 54.1191 39.7366 54.3145 39.7366 54.6659C39.7366 54.9781 39.4683 55.1514 39.1923 55.1514C39.036 55.1514 38.8798 55.0958 38.7648 54.9809L38.7926 54.9388C38.8875 55.0202 39.0054 55.0556 39.1165 55.0556C39.3312 55.0556 39.5296 54.9101 39.5296 54.6372C39.5296 54.3643 39.3006 54.1852 39.0658 54.1852C38.831 54.1852 38.5741 54.3662 38.5741 54.7913C38.5741 55.2883 38.8731 55.5057 39.1635 55.5057C39.3226 55.5057 39.4788 55.4386 39.5794 55.3161C39.6187 55.2682 39.658 55.2519 39.6887 55.2519Z" fill="url(#paint18_linear_149_10321)"/>
<path d="M41.3168 55.5621H41.0878V54.7357C41.0878 54.3728 40.9622 54.211 40.7274 54.211C40.4763 54.211 40.2521 54.4207 40.2521 54.7635L40.2492 54.7606V55.5621H40.0623V54.6409C40.0623 54.3958 40.0345 54.211 39.9981 54.166L40.2051 54.1238C40.2358 54.1966 40.2473 54.3192 40.2502 54.4255C40.3537 54.2359 40.552 54.1152 40.7667 54.1152C41.0964 54.1152 41.2756 54.2943 41.2756 54.7041V55.0641C41.2756 55.4184 41.2814 55.519 41.3178 55.5611L41.3168 55.5621Z" fill="url(#paint19_linear_149_10321)"/>
<path d="M42.1218 55.5288C42.0404 55.568 41.9541 55.5929 41.8736 55.5929C41.7423 55.5929 41.6331 55.5202 41.6331 55.3133L41.6302 54.2026H41.5018V54.1547H41.5181C41.6551 54.1547 41.7414 54.0293 41.75 53.856H41.8199V54.1346H42.0183V54.2016H41.8199V55.276C41.8199 55.41 41.8621 55.4905 41.9733 55.4905C42.0097 55.4905 42.0519 55.4847 42.0988 55.4684L42.1209 55.5269L42.1218 55.5288Z" fill="url(#paint20_linear_149_10321)"/>
<path d="M43.5269 55.2519C43.5969 55.2519 43.6276 55.3381 43.5384 55.4022C43.3851 55.5114 43.1724 55.5756 42.9577 55.5756C42.5753 55.5756 42.1948 55.3659 42.1948 54.8277C42.1948 54.3394 42.5609 54.1191 42.9184 54.1191C43.2509 54.1191 43.5749 54.3145 43.5749 54.6659C43.5749 54.9781 43.3065 55.1514 43.0305 55.1514C42.8743 55.1514 42.7181 55.0958 42.6031 54.9809L42.6309 54.9388C42.7258 55.0202 42.8436 55.0556 42.9548 55.0556C43.1695 55.0556 43.3679 54.9101 43.3679 54.6372C43.3679 54.3643 43.1388 54.1852 42.904 54.1852C42.6692 54.1852 42.4124 54.3662 42.4124 54.7913C42.4124 55.2883 42.7114 55.5057 43.0018 55.5057C43.1609 55.5057 43.3171 55.4386 43.4177 55.3161C43.457 55.2682 43.4963 55.2519 43.5269 55.2519Z" fill="url(#paint21_linear_149_10321)"/>
<path d="M44.4269 54.2813C44.3991 54.2727 44.3713 54.2698 44.3435 54.2698C44.2007 54.2698 44.0895 54.3867 44.0895 54.7697V55.5625H43.9027V54.6414C43.9027 54.3962 43.8749 54.2114 43.8384 54.1664L44.0454 54.1243C44.0732 54.1884 44.0847 54.289 44.0905 54.3867C44.1518 54.222 44.2831 54.1128 44.4345 54.1128C44.6473 54.1128 44.608 54.3273 44.4288 54.2804L44.4269 54.2813Z" fill="url(#paint22_linear_149_10321)"/>
<path d="M46.8131 55.2358C46.9195 55.4062 46.9502 55.5987 46.8189 55.8333L46.7854 55.8247C46.8304 55.6571 46.7854 55.5144 46.6905 55.3832C46.5371 55.5288 46.3359 55.5977 46.1433 55.5977C45.7992 55.5977 45.4781 55.3804 45.4781 54.9897C45.4781 54.7723 45.5979 54.5712 45.7887 54.465C45.7187 54.351 45.6794 54.2198 45.6765 54.0858C45.6765 53.7344 45.942 53.5859 46.2266 53.5859C46.3665 53.5859 46.5141 53.6195 46.6349 53.6865C46.8026 53.7755 46.7413 53.9239 46.6464 53.9239C46.6042 53.9239 46.5573 53.8962 46.518 53.8292C46.4423 53.7008 46.3081 53.6367 46.1797 53.6367C46.0062 53.6367 45.8414 53.7506 45.8414 53.9718C45.8414 54.4937 46.4863 54.7924 46.7719 55.1774C46.839 55.0376 46.8419 54.848 46.7269 54.6134C46.6656 54.4851 46.7326 54.4094 46.8074 54.4094C46.8687 54.4094 46.9416 54.465 46.9502 54.5904C46.9694 54.8643 46.9138 55.0759 46.8131 55.2348V55.2358ZM46.2736 55.456C46.4106 55.456 46.5477 55.4139 46.6512 55.3306C46.4336 55.0625 46.034 54.8279 45.8212 54.5157C45.7292 54.6076 45.6756 54.7331 45.6756 54.8614C45.6756 55.2664 45.9775 55.456 46.2736 55.456Z" fill="url(#paint23_linear_149_10321)"/>
<path d="M49.1823 55.1324H48.1348L48.0428 55.3555C48.0179 55.4196 47.9929 55.5058 48.0121 55.5623H47.853L48.6494 53.6108H48.7865L49.5857 55.5623H49.3567L49.1832 55.1324H49.1823ZM49.1516 55.0625L48.66 53.8569L48.1626 55.0625H49.1516Z" fill="url(#paint24_linear_149_10321)"/>
<path d="M51.0768 55.2136C50.9397 55.454 50.6772 55.5765 50.4203 55.5765C50.06 55.5765 49.7083 55.3362 49.7083 54.8316C49.7083 54.3269 50.0379 54.1201 50.4376 54.1201C50.5631 54.1201 50.6973 54.1393 50.8286 54.1728C51.0212 54.2207 50.9714 54.4074 50.8477 54.4074C50.8085 54.4074 50.7586 54.3882 50.7078 54.3346C50.6158 54.2427 50.4874 54.1871 50.3619 54.1871C50.1414 54.1871 49.9258 54.3547 49.9258 54.7789C49.9258 55.2615 50.2191 55.4655 50.5152 55.4655C50.7222 55.4655 50.9282 55.362 51.0317 55.1868L51.0768 55.2146V55.2136Z" fill="url(#paint25_linear_149_10321)"/>
<path d="M52.5182 55.5375L52.3112 55.5797C52.2834 55.5127 52.2719 55.4006 52.2662 55.2953C52.1828 55.4791 51.948 55.5826 51.7266 55.5826C51.4784 55.5826 51.2436 55.4542 51.2436 55.1641C51.2436 54.6059 52.2575 54.7591 52.2662 54.4833C52.2604 54.3157 52.154 54.2018 51.9672 54.2018C51.8608 54.2018 51.7295 54.2382 51.5761 54.3272C51.5311 54.3521 51.4928 54.3636 51.4592 54.3636C51.3088 54.3636 51.2886 54.151 51.5263 54.1463C51.6662 54.1434 51.8033 54.1348 51.9231 54.1348C52.2307 54.1348 52.454 54.1846 52.454 54.4948V55.0674C52.454 55.3125 52.4847 55.4973 52.5182 55.5395V55.5375ZM52.2671 54.6193C52.0716 54.7926 51.4736 54.7648 51.4736 55.1354C51.4736 55.3614 51.6413 55.4705 51.8196 55.4705C52.0342 55.4705 52.2662 55.3202 52.2662 55.032V54.6193H52.2671Z" fill="url(#paint26_linear_149_10321)"/>
<path d="M54.2921 55.5374L54.0851 55.5795C54.0573 55.501 54.0429 55.4177 54.0429 55.3363C53.9289 55.4866 53.697 55.5795 53.4622 55.5795C53.1133 55.5795 52.7559 55.3756 52.7559 54.8623C52.7559 54.3491 53.1277 54.1116 53.5321 54.1116C53.7027 54.1116 53.881 54.1566 54.0381 54.2399V53.45L54.225 53.4136V55.0663C54.225 55.3114 54.2557 55.4962 54.2921 55.5383V55.5374ZM54.041 54.7388L54.0381 54.7445C54.0381 54.3874 53.8149 54.1806 53.5273 54.1806C53.2398 54.1806 52.9744 54.3903 52.9744 54.8642C52.9744 55.2798 53.237 55.478 53.5475 55.478C53.8129 55.478 54.0391 55.3133 54.0391 54.9925L54.042 54.7388H54.041Z" fill="url(#paint27_linear_149_10321)"/>
<path d="M55.863 55.2519C55.933 55.2519 55.9636 55.3381 55.8745 55.4022C55.7212 55.5114 55.5084 55.5756 55.2937 55.5756C54.9114 55.5756 54.5309 55.3659 54.5309 54.8277C54.5309 54.3394 54.897 54.1191 55.2544 54.1191C55.587 54.1191 55.9109 54.3145 55.9109 54.6659C55.9109 54.9781 55.6426 55.1514 55.3666 55.1514C55.2104 55.1514 55.0541 55.0958 54.9391 54.9809L54.9669 54.9388C55.0618 55.0202 55.1797 55.0556 55.2909 55.0556C55.5055 55.0556 55.7039 54.9101 55.7039 54.6372C55.7039 54.3643 55.4749 54.1852 55.2401 54.1852C55.0053 54.1852 54.7484 54.3662 54.7484 54.7913C54.7484 55.2883 55.0474 55.5057 55.3378 55.5057C55.4969 55.5057 55.6531 55.4386 55.7538 55.3161C55.793 55.2682 55.8323 55.2519 55.863 55.2519Z" fill="url(#paint28_linear_149_10321)"/>
<path d="M58.5165 55.5621H58.2875V54.7357C58.2875 54.3728 58.1619 54.211 57.9271 54.211C57.676 54.211 57.4499 54.4207 57.4499 54.7635V55.5621H57.263V54.7357C57.263 54.3728 57.1374 54.211 56.9027 54.211C56.6516 54.211 56.4273 54.4207 56.4273 54.7635L56.4244 54.7606V55.5621H56.2375V54.6409C56.2375 54.3958 56.2098 54.211 56.1733 54.166L56.3803 54.1238C56.411 54.1966 56.4225 54.3192 56.4254 54.4255C56.5289 54.2359 56.7273 54.1152 56.9419 54.1152C57.2017 54.1152 57.3665 54.2273 57.425 54.4724C57.5083 54.2914 57.6962 54.1152 57.9674 54.1152C58.2942 54.1152 58.4763 54.2943 58.4763 54.7041V55.0641C58.4763 55.4184 58.482 55.519 58.5184 55.5611L58.5165 55.5621Z" fill="url(#paint29_linear_149_10321)"/>
<path d="M60.0001 54.1357L59.358 55.5816C59.1625 56.0144 58.9756 56.1734 58.6124 56.1734C58.3719 56.1734 58.3719 55.9081 58.576 55.9081C58.6038 55.9081 58.6316 55.911 58.6651 55.9225C58.7236 55.9416 58.7773 55.9503 58.8242 55.9503C59.0418 55.9503 59.1654 55.7712 59.2938 55.4897L58.6201 54.1357H58.8242L59.3944 55.2608L59.7941 54.3426C59.8276 54.2698 59.8439 54.2114 59.8133 54.1357H60.0001Z" fill="url(#paint30_linear_149_10321)"/>
</g>
<defs>
<linearGradient id="paint0_linear_149_10321" x1="16.4186" y1="-2.6911" x2="29.3032" y2="15.9808" gradientUnits="userSpaceOnUse">
<stop stop-color="#B08B3B"/>
<stop offset="1" stop-color="#EAC980"/>
</linearGradient>
<linearGradient id="paint1_linear_149_10321" x1="10.6259" y1="1.30543" x2="23.5114" y2="19.9773" gradientUnits="userSpaceOnUse">
<stop stop-color="#B08B3B"/>
<stop offset="1" stop-color="#EAC980"/>
</linearGradient>
<linearGradient id="paint2_linear_149_10321" x1="16.2772" y1="-2.59405" x2="29.1627" y2="16.0779" gradientUnits="userSpaceOnUse">
<stop stop-color="#B08B3B"/>
<stop offset="1" stop-color="#EAC980"/>
</linearGradient>
<linearGradient id="paint3_linear_149_10321" x1="22.0652" y1="-6.58801" x2="34.9498" y2="12.0839" gradientUnits="userSpaceOnUse">
<stop stop-color="#B08B3B"/>
<stop offset="1" stop-color="#EAC980"/>
</linearGradient>
<linearGradient id="paint4_linear_149_10321" x1="-1.06293" y1="34.0857" x2="17.5426" y2="53.0227" gradientUnits="userSpaceOnUse">
<stop stop-color="#B08B3B"/>
<stop offset="1" stop-color="#EAC980"/>
</linearGradient>
<linearGradient id="paint5_linear_149_10321" x1="-1.13092" y1="34.1528" x2="17.4746" y2="53.0897" gradientUnits="userSpaceOnUse">
<stop stop-color="#B08B3B"/>
<stop offset="1" stop-color="#EAC980"/>
</linearGradient>
<linearGradient id="paint6_linear_149_10321" x1="4.9815" y1="28.1471" x2="23.5871" y2="47.084" gradientUnits="userSpaceOnUse">
<stop stop-color="#B08B3B"/>
<stop offset="1" stop-color="#EAC980"/>
</linearGradient>
<linearGradient id="paint7_linear_149_10321" x1="63.8267" y1="53.629" x2="40.3673" y2="47.9435" gradientUnits="userSpaceOnUse">
<stop stop-color="#B08B3B"/>
<stop offset="1" stop-color="#EAC980"/>
</linearGradient>
<linearGradient id="paint8_linear_149_10321" x1="64.6184" y1="50.3629" x2="41.159" y2="44.6774" gradientUnits="userSpaceOnUse">
<stop stop-color="#B08B3B"/>
<stop offset="1" stop-color="#EAC980"/>
</linearGradient>
<linearGradient id="paint9_linear_149_10321" x1="64.8991" y1="49.2033" x2="41.4407" y2="43.5178" gradientUnits="userSpaceOnUse">
<stop stop-color="#B08B3B"/>
<stop offset="1" stop-color="#EAC980"/>
</linearGradient>
<linearGradient id="paint10_linear_149_10321" x1="47.1062" y1="35.0641" x2="47.1062" y2="49.5325" gradientUnits="userSpaceOnUse">
<stop stop-color="#B08B3B"/>
<stop offset="1" stop-color="#EAC980"/>
</linearGradient>
<linearGradient id="paint11_linear_149_10321" x1="58.4351" y1="61.6571" x2="34.4149" y2="56.1595" gradientUnits="userSpaceOnUse">
<stop stop-color="#B08B3B"/>
<stop offset="1" stop-color="#EAC980"/>
</linearGradient>
<linearGradient id="paint12_linear_149_10321" x1="58.4773" y1="61.473" x2="34.4571" y2="55.9745" gradientUnits="userSpaceOnUse">
<stop stop-color="#B08B3B"/>
<stop offset="1" stop-color="#EAC980"/>
</linearGradient>
<linearGradient id="paint13_linear_149_10321" x1="58.5502" y1="61.1544" x2="34.53" y2="55.6559" gradientUnits="userSpaceOnUse">
<stop stop-color="#B08B3B"/>
<stop offset="1" stop-color="#EAC980"/>
</linearGradient>
<linearGradient id="paint14_linear_149_10321" x1="58.6363" y1="60.7767" x2="34.6161" y2="55.2782" gradientUnits="userSpaceOnUse">
<stop stop-color="#B08B3B"/>
<stop offset="1" stop-color="#EAC980"/>
</linearGradient>
<linearGradient id="paint15_linear_149_10321" x1="58.714" y1="60.439" x2="34.6938" y2="54.9405" gradientUnits="userSpaceOnUse">
<stop stop-color="#B08B3B"/>
<stop offset="1" stop-color="#EAC980"/>
</linearGradient>
<linearGradient id="paint16_linear_149_10321" x1="58.6719" y1="60.6211" x2="34.6527" y2="55.1226" gradientUnits="userSpaceOnUse">
<stop stop-color="#B08B3B"/>
<stop offset="1" stop-color="#EAC980"/>
</linearGradient>
<linearGradient id="paint17_linear_149_10321" x1="58.9229" y1="59.5276" x2="34.9027" y2="54.029" gradientUnits="userSpaceOnUse">
<stop stop-color="#B08B3B"/>
<stop offset="1" stop-color="#EAC980"/>
</linearGradient>
<linearGradient id="paint18_linear_149_10321" x1="58.9546" y1="59.3865" x2="34.9344" y2="53.888" gradientUnits="userSpaceOnUse">
<stop stop-color="#B08B3B"/>
<stop offset="1" stop-color="#EAC980"/>
</linearGradient>
<linearGradient id="paint19_linear_149_10321" x1="59.0245" y1="59.082" x2="35.0042" y2="53.5834" gradientUnits="userSpaceOnUse">
<stop stop-color="#B08B3B"/>
<stop offset="1" stop-color="#EAC980"/>
</linearGradient>
<linearGradient id="paint20_linear_149_10321" x1="59.1174" y1="58.6752" x2="35.0972" y2="53.1776" gradientUnits="userSpaceOnUse">
<stop stop-color="#B08B3B"/>
<stop offset="1" stop-color="#EAC980"/>
</linearGradient>
<linearGradient id="paint21_linear_149_10321" x1="59.1453" y1="58.5535" x2="35.1251" y2="53.0549" gradientUnits="userSpaceOnUse">
<stop stop-color="#B08B3B"/>
<stop offset="1" stop-color="#EAC980"/>
</linearGradient>
<linearGradient id="paint22_linear_149_10321" x1="59.2096" y1="58.2723" x2="35.1903" y2="52.7738" gradientUnits="userSpaceOnUse">
<stop stop-color="#B08B3B"/>
<stop offset="1" stop-color="#EAC980"/>
</linearGradient>
<linearGradient id="paint23_linear_149_10321" x1="59.3571" y1="57.6306" x2="35.3369" y2="52.132" gradientUnits="userSpaceOnUse">
<stop stop-color="#B08B3B"/>
<stop offset="1" stop-color="#EAC980"/>
</linearGradient>
<linearGradient id="paint24_linear_149_10321" x1="59.4703" y1="57.1346" x2="35.4501" y2="51.637" gradientUnits="userSpaceOnUse">
<stop stop-color="#B08B3B"/>
<stop offset="1" stop-color="#EAC980"/>
</linearGradient>
<linearGradient id="paint25_linear_149_10321" x1="59.52" y1="56.9171" x2="35.4997" y2="51.4185" gradientUnits="userSpaceOnUse">
<stop stop-color="#B08B3B"/>
<stop offset="1" stop-color="#EAC980"/>
</linearGradient>
<linearGradient id="paint26_linear_149_10321" x1="59.588" y1="56.6215" x2="35.5678" y2="51.1229" gradientUnits="userSpaceOnUse">
<stop stop-color="#B08B3B"/>
<stop offset="1" stop-color="#EAC980"/>
</linearGradient>
<linearGradient id="paint27_linear_149_10321" x1="59.7624" y1="55.8591" x2="35.7422" y2="50.3615" gradientUnits="userSpaceOnUse">
<stop stop-color="#B08B3B"/>
<stop offset="1" stop-color="#EAC980"/>
</linearGradient>
<linearGradient id="paint28_linear_149_10321" x1="59.7588" y1="55.8743" x2="35.7385" y2="50.3757" gradientUnits="userSpaceOnUse">
<stop stop-color="#B08B3B"/>
<stop offset="1" stop-color="#EAC980"/>
</linearGradient>
<linearGradient id="paint29_linear_149_10321" x1="59.8534" y1="55.4587" x2="35.8342" y2="49.9601" gradientUnits="userSpaceOnUse">
<stop stop-color="#B08B3B"/>
<stop offset="1" stop-color="#EAC980"/>
</linearGradient>
<linearGradient id="paint30_linear_149_10321" x1="59.8918" y1="55.2924" x2="35.8716" y2="49.7939" gradientUnits="userSpaceOnUse">
<stop stop-color="#B08B3B"/>
<stop offset="1" stop-color="#EAC980"/>
</linearGradient>
<clipPath id="clip0_149_10321">
<rect width="60.0003" height="57.4806" fill="white"/>
</clipPath>
</defs>
</svg>
