<svg width="96" height="95" viewBox="0 0 96 95" fill="none" xmlns="http://www.w3.org/2000/svg">
<path d="M11.7091 0.00578618C11.8313 0.00387674 11.9535 0.0019673 12.0794 0C12.6395 0.148775 12.8382 0.378606 13.1904 0.838996C13.2549 1.37341 13.2771 1.83677 13.2627 2.36944C13.2619 2.49973 13.2612 2.63002 13.2604 2.76426C13.2566 3.24893 13.2462 3.73353 13.2366 4.21812C13.2214 5.30269 13.2061 6.38725 13.1904 7.50467C16.6121 7.50467 20.0338 7.50467 23.5592 7.50467C23.5373 5.54379 23.5373 5.54379 23.5091 3.583C23.5075 3.33519 23.5061 3.08738 23.5049 2.83957C23.5007 2.6502 23.5007 2.6502 23.4963 2.457C23.4959 1.59684 23.6594 1.01303 24.1147 0.283523C24.6941 -0.0061958 25.3387 -0.0306935 25.9662 0.098365C26.4443 0.481725 26.6803 0.703649 26.7999 1.31296C26.8001 1.49308 26.8003 1.6732 26.8005 1.85877C26.8025 2.06615 26.8046 2.27352 26.8067 2.48718C26.8051 2.7139 26.8036 2.94062 26.8021 3.17422C26.8034 3.41364 26.8047 3.65307 26.8061 3.89976C26.8089 4.42029 26.8094 4.94075 26.8082 5.46129C26.8062 6.2855 26.8094 7.10964 26.8133 7.93384C26.8189 9.23875 26.8211 10.5436 26.8217 11.8486C26.823 14.1819 26.8284 16.5152 26.8375 18.8484C26.8405 19.6665 26.8416 20.4845 26.8409 21.3026C26.8408 21.69 26.8416 22.0773 26.8427 22.4647C26.844 22.9353 26.844 23.4059 26.8424 23.8765C26.8582 27.1981 28.3208 29.2702 30.2131 31.8748C31.5923 33.7975 32.5211 35.6392 32.5133 38.042C32.5129 38.2016 32.5124 38.3612 32.5119 38.5256C32.4786 40.3766 32.1804 42.1795 31.8546 43.9983C31.7514 44.5768 31.654 45.1561 31.5571 45.7358C31.4924 46.1101 31.4273 46.4844 31.3619 46.8586C31.319 47.1138 31.319 47.1138 31.2753 47.3742C30.971 49.0411 30.416 50.6102 29.1139 51.7574C27.9462 52.5122 26.8002 52.7952 25.4108 52.6832C23.5228 52.1596 22.5611 51.4843 21.5659 49.8016C21.2377 49.1537 21.1297 48.5828 21.1194 47.8604C21.1158 47.6426 21.1158 47.6426 21.1122 47.4203C21.1108 47.265 21.1094 47.1098 21.108 46.9498C21.1065 46.7886 21.105 46.6275 21.1035 46.4615C21.1009 46.1211 21.0989 45.7807 21.0975 45.4404C21.0954 45.0925 21.0916 44.7447 21.0861 44.3969C21.0782 43.8938 21.0752 43.391 21.0733 42.8879C21.0701 42.733 21.0668 42.5781 21.0635 42.4185C21.0662 41.6752 21.0963 41.2945 21.4934 40.6468C22.0068 40.1722 22.3074 40.0924 23.0037 40.0924C23.6572 40.3894 23.8976 40.6001 24.2998 41.2034C24.3378 41.7158 24.3556 42.2111 24.357 42.7237C24.3616 43.0299 24.3663 43.3361 24.3711 43.6423C24.3764 44.1241 24.3808 44.606 24.3843 45.0879C24.3883 45.5536 24.3956 46.0191 24.4032 46.4847C24.4033 46.6997 24.4033 46.6997 24.4033 46.9191C24.4187 47.7615 24.5222 48.308 25.0405 48.98C25.5076 49.3344 25.7455 49.3511 26.3366 49.3387C27.0658 49.1109 27.2231 48.885 27.6327 48.2394C27.8208 47.6299 27.925 47.0121 28.029 46.3835C28.0768 46.1117 28.0768 46.1117 28.1255 45.8345C28.1921 45.451 28.2574 45.0672 28.3214 44.6831C28.4183 44.1042 28.5205 43.5265 28.6235 42.9486C29.4425 38.6264 29.4425 38.6264 28.0464 34.6057C27.7978 34.2622 27.5452 33.9216 27.2891 33.5837C24.7964 30.2738 23.5207 27.5944 23.5411 23.4622C23.5413 23.2819 23.5415 23.1016 23.5417 22.9158C23.5426 22.2496 23.5452 21.5833 23.5476 20.917C23.5514 19.4239 23.5553 17.9307 23.5592 16.3922C20.1375 16.3922 16.7158 16.3922 13.1904 16.3922C13.2062 20.8233 13.2235 25.2543 13.2436 29.6853C13.2529 31.7428 13.2615 33.8003 13.2685 35.8578C13.2746 37.6516 13.282 39.4455 13.2909 41.2393C13.2955 42.1886 13.2996 43.138 13.3021 44.0873C13.3045 44.982 13.3086 45.8767 13.3139 46.7714C13.3156 47.0986 13.3167 47.4259 13.317 47.7532C13.2742 50.9383 13.2742 50.9383 14.3592 53.8751C14.4549 54.0347 14.4549 54.0347 14.5526 54.1975C15.3257 55.4693 16.1484 56.7118 16.9651 57.9558C17.6786 59.0436 18.3803 60.1388 19.0807 61.2351C19.2038 61.4277 19.327 61.6204 19.4539 61.8188C19.9673 62.622 20.4805 63.4254 20.9933 64.2289C21.2578 64.6433 21.5223 65.0576 21.7869 65.4719C22.0336 65.858 22.28 66.2442 22.5262 66.6305C23.8275 68.8405 23.8275 68.8405 25.4108 70.8286C26.051 70.9212 26.051 70.9212 26.7069 70.8286C27.0988 70.5582 27.0988 70.5582 27.2623 70.088C27.3352 69.0939 27.1521 68.3426 26.7655 67.4401C26.6857 67.2462 26.6857 67.2462 26.6043 67.0484C26.4888 66.7684 26.3722 66.4888 26.2547 66.2096C26.0678 65.7653 25.8836 65.3198 25.7001 64.874C25.4369 64.2353 25.1726 63.5971 24.9075 62.9592C24.2455 61.3655 23.5908 59.7689 22.9397 58.1707C22.7276 57.6516 22.5137 57.1333 22.2997 56.615C22.1697 56.297 22.0399 55.979 21.9101 55.6609C21.8491 55.5144 21.7881 55.368 21.7253 55.2171C21.585 54.8704 21.4595 54.5178 21.3373 54.1644C21.3984 54.0422 21.4595 53.92 21.5225 53.7941C21.734 53.9047 21.734 53.9047 21.9499 54.0176C22.1411 54.1157 22.3323 54.2138 22.5293 54.3149C22.7161 54.4115 22.903 54.5082 23.0956 54.6078C23.6927 54.9088 23.6927 54.9088 24.1596 54.9971C24.8221 55.1495 25.2697 55.2695 25.6838 55.8301C25.9352 56.35 26.1391 56.8735 26.3366 57.4163C26.5053 57.8498 26.6744 58.2833 26.8436 58.7167C26.8889 58.8356 26.9342 58.9545 26.9809 59.0769C27.3866 60.1383 27.8297 61.1817 28.2771 62.226C28.4957 62.7425 28.7135 63.2593 28.9311 63.7762C29.0747 64.1155 29.2197 64.4542 29.3663 64.7922C30.2742 66.8942 31.184 69.0045 30.4394 71.3113C30.2747 71.6771 30.0871 71.9838 29.8546 72.3099C29.7553 72.4741 29.656 72.6383 29.5537 72.8075C28.5032 73.8303 27.4019 74.2218 25.9431 74.2656C24.4937 74.2044 23.5866 73.8817 22.5755 72.8422C21.7378 71.8173 21.0906 70.6575 20.4122 69.5246C19.8654 68.6147 19.292 67.7241 18.7104 66.8362C17.674 65.2515 16.649 63.66 15.6303 62.0639C15.048 61.1516 14.4649 60.2398 13.8763 59.3314C13.6736 59.0185 13.4713 58.7053 13.2691 58.3921C13.0162 58.0006 12.7625 57.6095 12.5081 57.219C11.0362 54.9358 10.1704 53.118 10.1783 50.3859C10.1771 50.0686 10.1771 50.0686 10.1758 49.7449C10.1734 49.0368 10.1737 48.3286 10.174 47.6205C10.1731 47.1125 10.1717 46.6046 10.1703 46.0967C10.1672 44.8608 10.1662 43.6249 10.166 42.3891C10.1658 41.3848 10.165 40.3806 10.1639 39.3764C10.1606 36.5291 10.1589 33.6819 10.1592 30.8346C10.1592 30.6812 10.1592 30.5278 10.1592 30.3698C10.1592 30.2162 10.1592 30.0627 10.1593 29.9044C10.1594 27.4128 10.1559 24.9211 10.1506 22.4295C10.1453 19.871 10.1428 17.3125 10.1431 14.7539C10.1432 13.3175 10.1422 11.8811 10.1382 10.4447C10.1348 9.22251 10.134 8.00034 10.1365 6.77812C10.1378 6.15437 10.1374 5.53073 10.1346 4.90698C10.1317 4.23143 10.1334 3.55605 10.1363 2.88051C10.1344 2.68255 10.1325 2.48459 10.1305 2.28063C10.143 0.957237 10.143 0.957237 10.5807 0.347233C10.9982 0.079259 11.2167 -0.0019072 11.7091 0.00578618ZM13.1904 10.4672C13.1904 11.4448 13.1904 12.4225 13.1904 13.4297C16.6121 13.4297 20.0338 13.4297 23.5592 13.4297C23.5592 12.4521 23.5592 11.4745 23.5592 10.4672C20.1375 10.4672 16.7158 10.4672 13.1904 10.4672Z" fill="#D1AE62"/>
<path d="M71.1628 0.0253145C71.706 0.137967 71.9398 0.39674 72.2556 0.838996C72.4759 1.49982 72.4639 2.09796 72.4589 2.78532C72.4587 2.90488 72.4585 3.02443 72.4583 3.14761C72.4574 3.59318 72.4548 4.03873 72.4524 4.48429C72.4486 5.48102 72.4447 6.47774 72.4408 7.50467C75.8625 7.50467 79.2842 7.50467 82.8096 7.50467C82.7804 5.34428 82.7804 5.34428 82.7429 3.18403C82.7407 2.9125 82.7389 2.64097 82.7373 2.36944C82.7335 2.22931 82.7297 2.08917 82.7258 1.94479C82.7254 1.28022 82.7515 0.915017 83.1613 0.379176C83.5821 0.0753485 83.778 -0.00222788 84.2909 0.00578618C84.4131 0.00387674 84.5353 0.0019673 84.6612 0C85.2436 0.154701 85.4161 0.343457 85.7722 0.838996C85.8868 1.51591 85.8719 2.18917 85.8662 2.87428C85.8674 3.0843 85.8685 3.29432 85.8697 3.5107C85.8727 4.21716 85.8703 4.92349 85.868 5.62995C85.8686 6.13541 85.8703 6.64086 85.8719 7.14631C85.8752 8.37868 85.8745 9.611 85.8724 10.8434C85.8707 11.8457 85.8705 12.8479 85.8713 13.8502C85.8714 13.9928 85.8715 14.1355 85.8716 14.2824C85.8718 14.5722 85.8721 14.862 85.8723 15.1517C85.8744 17.8708 85.872 20.5899 85.868 23.309C85.8647 25.6394 85.8653 27.9696 85.8687 30.3C85.8727 33.007 85.8742 35.714 85.872 38.4211C85.8717 38.7102 85.8715 38.9994 85.8713 39.2886C85.8711 39.4308 85.871 39.5731 85.8709 39.7197C85.8703 40.7193 85.8714 41.719 85.8731 42.7187C85.8752 43.9391 85.8746 45.1595 85.8707 46.3799C85.8687 47.002 85.8683 47.6239 85.8704 48.246C85.8724 48.9222 85.8699 49.5984 85.8662 50.2746C85.8679 50.4686 85.8695 50.6627 85.8712 50.8626C85.8526 52.6375 85.3901 54.2972 84.4233 55.7983C84.3108 55.9754 84.1984 56.1525 84.0826 56.335C83.9642 56.5162 83.8458 56.6973 83.7238 56.8839C83.6001 57.0775 83.4764 57.271 83.3489 57.4704C82.9863 58.0364 82.6207 58.6002 82.2542 59.1637C82.0727 59.4449 81.8914 59.7263 81.7103 60.0077C81.3872 60.5088 81.0628 61.0089 80.7375 61.5085C80.1253 62.4507 79.5236 63.3995 78.9213 64.3481C78.062 65.7008 77.2007 67.0521 76.3257 68.3947C75.8955 69.0549 75.4715 69.7181 75.0554 70.3874C74.922 70.5998 74.922 70.5998 74.7858 70.8165C74.6175 71.0845 74.4508 71.3535 74.2861 71.6237C73.574 72.7507 72.6655 73.8102 71.3299 74.1615C69.6871 74.352 68.2296 74.263 66.8861 73.2357C65.8757 72.1916 65.3535 71.1217 65.3122 69.6598C65.3376 68.644 65.4852 67.8816 65.8612 66.9251C65.9098 66.8002 65.9585 66.6752 66.0086 66.5465C66.1752 66.1213 66.3452 65.6975 66.5158 65.2739C66.5785 65.1168 66.6413 64.9596 66.706 64.7977C67.1235 63.7537 67.5465 62.7119 67.9726 61.6714C68.1949 61.1282 68.4158 60.5846 68.6367 60.041C68.7805 59.6892 68.9243 59.3375 69.0682 58.9858C69.1328 58.8264 69.1975 58.667 69.2641 58.5029C70.536 55.409 70.536 55.409 71.3393 54.9586C71.5386 54.918 71.7379 54.8774 71.9432 54.8356C72.9518 54.5949 73.7555 54.2922 74.6627 53.7941C74.2121 55.4984 73.5293 57.0921 72.8465 58.7132C72.4914 59.5572 72.1403 60.4028 71.7884 61.2481C71.6472 61.5869 71.506 61.9257 71.3648 62.2645C71.2297 62.5887 71.0946 62.9129 70.9595 63.2371C70.898 63.3849 70.8364 63.5327 70.7729 63.685C70.4446 64.4737 70.1186 65.2632 69.7965 66.0545C69.6553 66.3996 69.5117 66.7439 69.368 67.088C68.7695 68.5444 68.7695 68.5444 68.7376 70.088C68.9012 70.5582 68.9012 70.5582 69.2931 70.8286C69.9087 71.0297 69.9087 71.0297 70.5892 70.8286C71.668 69.749 72.436 68.3263 73.2277 67.0329C73.4737 66.6352 73.7198 66.2376 73.9662 65.8402C74.0854 65.6476 74.2047 65.4549 74.3275 65.2564C74.7669 64.5511 75.2159 63.8524 75.6695 63.1561C76.8906 61.2796 78.0969 59.3937 79.3012 57.5063C79.6419 56.9732 79.9838 56.441 80.3259 55.909C80.5251 55.5975 80.7243 55.286 80.9233 54.9745C81.0132 54.8355 81.103 54.6965 81.1956 54.5533C82.3183 52.7894 82.6509 51.2385 82.6538 49.1679C82.6547 49.0267 82.6556 48.8856 82.6565 48.7402C82.6594 48.2714 82.6609 47.8026 82.6625 47.3338C82.6643 46.9961 82.6661 46.6584 82.668 46.3208C82.673 45.4069 82.6769 44.4931 82.6806 43.5793C82.6847 42.6232 82.6898 41.6671 82.6947 40.7111C82.7039 38.9019 82.7123 37.0927 82.7203 35.2835C82.7294 33.2233 82.7396 31.163 82.7498 29.1028C82.7709 24.866 82.7906 20.6291 82.8096 16.3922C79.3879 16.3922 75.9662 16.3922 72.4408 16.3922C72.4554 19.3306 72.4554 19.3306 72.4742 22.269C72.4972 27.4734 72.4972 27.4734 71.4919 29.3764C71.435 29.4844 71.3781 29.5923 71.3195 29.7035C70.853 30.5637 70.3016 31.3411 69.7112 32.1191C69.1829 32.8356 68.6921 33.5727 68.2053 34.3178C68.0729 34.5172 68.0729 34.5172 67.9379 34.7206C67.8548 34.8485 67.7717 34.9765 67.686 35.1084C67.5751 35.278 67.5751 35.278 67.4619 35.4511C66.1681 37.8607 67.0244 40.9737 67.4782 43.5197C67.5813 44.1012 67.6787 44.6835 67.7757 45.266C67.8405 45.6385 67.9055 46.011 67.971 46.3835C67.9996 46.5563 68.0281 46.7291 68.0576 46.9071C68.2285 47.8395 68.3946 48.4887 69.108 49.1652C69.6362 49.3972 69.6362 49.3972 70.2189 49.3503C71.0899 48.8979 71.0899 48.8979 71.515 48.0542C71.5347 47.5306 71.5448 47.0106 71.5476 46.4869C71.5519 46.1714 71.5563 45.8559 71.5609 45.5405C71.5675 45.0435 71.5729 44.5467 71.5754 44.0497C71.5782 43.5697 71.5857 43.09 71.5938 42.6101C71.5935 42.4618 71.5931 42.3135 71.5928 42.1606C71.6075 41.4924 71.6391 41.0987 72.0489 40.5585C72.5124 40.2263 72.7968 40.1202 73.3666 40.0924C73.889 40.2293 74.2021 40.3765 74.5926 40.7495C74.9629 41.4079 74.9308 42.0477 74.9281 42.7837C74.9291 42.9381 74.9301 43.0925 74.9311 43.2516C74.9323 43.5786 74.932 43.9056 74.9304 44.2326C74.9289 44.7268 74.9342 45.2206 74.9401 45.7148C74.9489 47.8041 74.8757 49.6298 73.4476 51.2829C72.434 52.2038 71.2625 52.6019 69.918 52.7642C68.3252 52.5577 66.9783 51.9852 65.9256 50.739C64.733 49.0089 64.6084 46.5139 64.2537 44.4763C64.196 44.1483 64.137 43.8206 64.0765 43.4932C62.8811 37.0229 62.8811 37.0229 64.2939 34.3525C64.4288 34.093 64.4288 34.093 64.5665 33.8282C65.1482 32.779 65.8121 31.8036 66.5158 30.8345C68.3872 28.2552 69.1661 26.3937 69.1553 23.1951C69.1563 22.8251 69.1573 22.4551 69.1584 22.0852C69.1592 21.6907 69.1591 21.2962 69.1588 20.9017C69.1582 20.0776 69.1609 19.2537 69.1641 18.4296C69.1728 16.0877 69.1773 13.7458 69.1785 11.4038C69.1792 10.1078 69.1825 8.81188 69.1887 7.51592C69.1924 6.69681 69.1929 5.87779 69.1908 5.05867C69.1903 4.4305 69.1945 3.80238 69.1979 3.17422C69.1964 2.94749 69.1949 2.72077 69.1933 2.48718C69.1954 2.27981 69.1974 2.07243 69.1995 1.85877C69.1998 1.5886 69.1998 1.5886 69.2001 1.31296C69.4164 0.210727 70.163 -0.0249511 71.1628 0.0253145ZM72.4408 10.4672C72.4408 11.4448 72.4408 12.4225 72.4408 13.4297C75.8625 13.4297 79.2842 13.4297 82.8096 13.4297C82.8096 12.4521 82.8096 11.4745 82.8096 10.4672C79.3879 10.4672 75.9662 10.4672 72.4408 10.4672Z" fill="#D1AE62"/>
<path d="M30.2249 75.8279C30.4799 76.1703 30.7201 76.5237 30.9539 76.881C34.2706 81.8146 39.0811 86.1734 45.0563 87.4053C48.8486 87.8651 52.1948 87.428 55.5915 85.6412C55.8646 85.4987 55.8646 85.4987 56.1433 85.3534C60.0638 83.1886 63.5667 79.727 65.7751 75.8279C66.784 76.1465 67.7585 76.5402 68.7377 76.9388C68.538 77.5377 68.2911 77.9695 67.8962 78.4521C67.3807 79.1665 67.3135 79.8076 67.3312 80.6728C67.3301 80.8908 67.3301 80.8908 67.3289 81.1131C67.3279 81.4263 67.329 81.7395 67.332 82.0526C67.3368 82.5485 67.3358 83.044 67.3335 83.5399C67.3297 84.5914 67.3333 85.6428 67.3374 86.6943C67.3413 87.9151 67.3422 89.1357 67.3373 90.3565C67.3367 90.8448 67.3406 91.3329 67.3448 91.8212C67.3443 92.1202 67.3437 92.4192 67.3428 92.7182C67.3452 92.8538 67.3476 92.9893 67.35 93.129C67.3437 93.7693 67.3019 94.0999 66.9038 94.6127C66.4831 94.9232 66.2915 94.9998 65.7751 94.9917C65.5918 94.9946 65.5918 94.9946 65.4048 94.9975C64.8622 94.8534 64.6468 94.5899 64.2939 94.1585C64.1978 93.6547 64.1978 93.6547 64.1928 93.0716C64.1892 92.8529 64.1855 92.6343 64.1817 92.409C64.1814 92.0563 64.1814 92.0563 64.1811 91.6965C64.178 91.455 64.1749 91.2136 64.1718 90.9649C64.1637 90.3244 64.16 89.684 64.1572 89.0435C64.1536 88.3894 64.1458 87.7354 64.1384 87.0813C64.1244 85.7989 64.1151 84.5166 64.1087 83.2342C63.9618 83.3834 63.8148 83.5327 63.6634 83.6864C63.4656 83.886 63.2679 84.0856 63.0701 84.2851C62.9738 84.383 62.8776 84.4809 62.7784 84.5818C58.9019 88.4837 53.6299 90.8537 48.1273 90.8835C46.0577 90.8859 44.2219 90.7437 42.2601 90.085C42.1442 90.0463 42.0284 90.0076 41.909 89.9678C39.261 89.0595 36.7663 87.6827 34.6687 85.8264C34.4256 85.6134 34.4256 85.6134 34.1775 85.396C33.391 84.6973 32.6338 83.9796 31.8913 83.2342C31.8906 83.3694 31.8899 83.5046 31.8892 83.6439C31.8822 84.919 31.8717 86.1939 31.8572 87.4689C31.8499 88.1243 31.844 88.7797 31.8411 89.4352C31.8378 90.1891 31.8285 90.9427 31.819 91.6965C31.8186 92.0492 31.8186 92.0492 31.8183 92.409C31.8128 92.737 31.8128 92.737 31.8072 93.0716C31.8056 93.264 31.8039 93.4564 31.8022 93.6547C31.6821 94.2843 31.4604 94.5047 30.9655 94.8991C30.5952 94.9975 30.5952 94.9975 30.2249 94.9917C30.1027 94.9936 29.9805 94.9955 29.8545 94.9975C29.2987 94.8498 29.0957 94.612 28.7436 94.1585C28.6756 93.6556 28.652 93.2288 28.6631 92.727C28.6633 92.5836 28.6634 92.4402 28.6636 92.2924C28.6644 91.9814 28.6668 91.6703 28.6706 91.3592C28.6764 90.8655 28.6771 90.372 28.6764 89.8782C28.6752 88.4746 28.6826 87.071 28.6946 85.6674C28.7017 84.8082 28.7023 83.949 28.6993 83.0897C28.6994 82.7636 28.702 82.4375 28.7071 82.1114C28.7506 79.6875 28.7506 79.6875 27.5409 77.6295C27.2623 77.3091 27.2623 77.3091 27.2623 76.9388C27.6863 76.7528 28.1107 76.5678 28.5353 76.3833C28.7161 76.3039 28.7161 76.3039 28.9006 76.2228C29.8126 75.8279 29.8126 75.8279 30.2249 75.8279Z" fill="#D1AE62"/>
<path d="M87.2209 73.1764C88.5433 73.9788 89.4306 74.9501 90.0308 76.3834C90.0728 76.6201 90.1148 76.8569 90.1581 77.1008C90.3309 77.7013 90.3309 77.7013 90.7758 77.8371C91.0989 77.9197 91.4228 77.9996 91.7471 78.0773C93.1319 78.5091 94.0471 79.5863 94.8094 80.77C95.603 82.3077 95.6459 84.1475 95.2796 85.8235C94.6326 87.6116 93.469 88.6372 91.8173 89.5057C91.342 89.7083 90.9101 89.8199 90.4011 89.8999C90.376 90.0142 90.351 90.1285 90.3252 90.2463C89.8551 92.0954 88.9059 93.2807 87.3106 94.3082C85.7729 95.1018 83.933 95.1447 82.2571 94.7783C80.6288 94.1892 79.5181 93.1242 78.7224 91.6053C78.551 91.196 78.551 91.196 78.4237 90.4785C78.2509 89.878 78.2509 89.878 77.806 89.7422C77.4829 89.6597 77.159 89.5798 76.8347 89.5021C75.4499 89.0702 74.5347 87.993 73.7723 86.8093C72.9788 85.2716 72.9359 83.4318 73.3022 81.7558C73.8913 80.1276 74.9564 79.0169 76.4752 78.2212C76.8846 78.0498 76.8846 78.0498 77.6021 77.9225C78.2026 77.7496 78.2026 77.7496 78.3384 77.3048C78.4209 76.9816 78.5008 76.6578 78.5785 76.3335C79.0104 74.9486 80.0875 74.0335 81.2712 73.2711C83.0252 72.366 85.4335 72.3172 87.2209 73.1764ZM81.826 77.043C81.2806 77.8308 81.2118 78.5988 81.3284 79.531C81.5378 80.226 81.7927 80.8968 82.069 81.5678C81.9392 81.5143 81.8093 81.4608 81.6755 81.4058C80.3522 80.8879 79.3496 80.5453 77.9608 81.0354C77.2416 81.5149 76.7204 82.0812 76.3291 82.8639C76.2285 83.7813 76.2246 84.5065 76.6416 85.3404C77.4151 86.2184 78.0135 86.7042 79.1991 86.8101C80.2255 86.8043 81.1323 86.3973 82.069 86.0116C82.0155 86.1414 81.9621 86.2712 81.907 86.405C81.3892 87.7284 81.0465 88.7309 81.5367 90.1197C82.0162 90.839 82.5825 91.3601 83.3651 91.7514C84.2825 91.8521 85.0077 91.8559 85.8416 91.439C86.7197 90.6654 87.2054 90.067 87.3113 88.8815C87.3055 87.855 86.8985 86.9483 86.5128 86.0116C86.6426 86.065 86.7725 86.1185 86.9062 86.1736C88.2296 86.6914 89.2322 87.034 90.621 86.5439C91.3402 86.0644 91.8614 85.4981 92.2527 84.7155C92.3533 83.798 92.3572 83.0729 91.9402 82.239C91.1667 81.3609 90.5683 80.8751 89.3827 80.7693C88.3563 80.775 87.4495 81.1821 86.5128 81.5678C86.5663 81.4379 86.6197 81.3081 86.6748 81.1743C87.1926 79.851 87.5353 78.8484 87.0451 77.4596C86.5656 76.7403 85.9993 76.2192 85.2167 75.8279C83.7198 75.6637 82.8593 75.8979 81.826 77.043Z" fill="#D1AE62"/>
<path d="M14.6391 73.1764C15.9615 73.9788 16.8488 74.9501 17.449 76.3834C17.491 76.6201 17.533 76.8569 17.5763 77.1008C17.7491 77.7013 17.7491 77.7013 18.194 77.8371C18.5171 77.9197 18.841 77.9996 19.1653 78.0773C20.5502 78.5091 21.4653 79.5863 22.2277 80.77C23.0212 82.3077 23.0641 84.1475 22.6978 85.8235C22.0508 87.6116 20.8872 88.6372 19.2355 89.5057C18.7602 89.7083 18.3284 89.8199 17.8193 89.8999C17.7943 90.0142 17.7692 90.1285 17.7434 90.2463C17.2734 92.0954 16.3241 93.2807 14.7288 94.3082C13.1911 95.1018 11.3512 95.1447 9.67527 94.7783C8.04706 94.1892 6.93635 93.1242 6.14064 91.6053C5.96923 91.196 5.96923 91.196 5.84193 90.4785C5.66908 89.878 5.66908 89.878 5.22426 89.7422C4.9011 89.6597 4.57726 89.5798 4.2529 89.5021C2.86807 89.0702 1.9529 87.993 1.19057 86.8093C0.397005 85.2716 0.354097 83.4318 0.720439 81.7558C1.30953 80.1276 2.3746 79.0169 3.89343 78.2212C4.30281 78.0498 4.30281 78.0498 5.02029 77.9225C5.6208 77.7496 5.6208 77.7496 5.75658 77.3048C5.83911 76.9816 5.91901 76.6578 5.99671 76.3335C6.4286 74.9486 7.50577 74.0335 8.68945 73.2711C10.4434 72.366 12.8517 72.3172 14.6391 73.1764ZM9.2442 77.043C8.6988 77.8308 8.63007 78.5988 8.74659 79.531C8.956 80.226 9.21095 80.8968 9.48722 81.5678C9.35738 81.5143 9.22754 81.4608 9.09376 81.4058C7.77041 80.8879 6.76784 80.5453 5.37904 81.0354C4.6598 81.5149 4.13865 82.0812 3.74733 82.8639C3.64668 83.7813 3.64284 84.5065 4.05979 85.3404C4.83334 86.2184 5.43176 86.7042 6.61728 86.8101C7.64374 86.8043 8.5505 86.3973 9.48722 86.0116C9.43376 86.1414 9.38029 86.2712 9.32521 86.405C8.80738 87.7284 8.46473 88.7309 8.95489 90.1197C9.43439 90.839 10.0007 91.3601 10.7833 91.7514C11.7008 91.8521 12.4259 91.8559 13.2598 91.439C14.1379 90.6654 14.6236 90.067 14.7295 88.8815C14.7238 87.855 14.3167 86.9483 13.931 86.0116C14.0608 86.065 14.1907 86.1185 14.3245 86.1736C15.6478 86.6914 16.6504 87.034 18.0392 86.5439C18.7584 86.0644 19.2796 85.4981 19.6709 84.7155C19.7715 83.798 19.7754 83.0729 19.3584 82.239C18.5849 81.3609 17.9865 80.8751 16.801 80.7693C15.7745 80.775 14.8677 81.1821 13.931 81.5678C13.9845 81.4379 14.0379 81.3081 14.093 81.1743C14.6109 79.851 14.9535 78.8484 14.4633 77.4596C13.9838 76.7403 13.4175 76.2192 12.6349 75.8279C11.138 75.6637 10.2775 75.8979 9.2442 77.043Z" fill="#D1AE62"/>
<path d="M54.2954 15.8368C54.4366 15.8726 54.5779 15.9084 54.7235 15.9453C59.0508 17.0545 63.3212 19.1228 66.5158 22.3173C66.5344 22.8284 66.5414 23.3338 66.5389 23.8449C66.5396 23.9864 66.5403 24.1279 66.5411 24.2738C66.5398 25.004 66.5103 25.6779 66.3306 26.3908C65.7443 26.1342 65.385 25.8414 64.9535 25.3724C60.4411 20.7684 54.1229 18.5421 47.7626 18.4209C41.5371 18.4448 35.675 21.1002 31.1506 25.2798C30.9487 25.4849 30.7476 25.6908 30.5474 25.8975C30.0397 26.3908 30.0397 26.3908 29.6694 26.3908C29.3532 25.0323 29.021 23.1117 29.7583 21.8472C30.1965 21.4476 30.6459 21.1479 31.1506 20.836C31.3576 20.6907 31.5637 20.544 31.769 20.3963C38.1114 15.9026 46.6546 13.7868 54.2954 15.8368Z" fill="#D1AE62"/>
<path d="M52.9993 4.91245C53.1179 4.96314 53.2366 5.01383 53.3588 5.06605C56.8838 6.60609 59.6186 9.11302 61.1185 12.6949C61.9791 14.9194 61.9791 14.9194 61.7017 15.8368C61.1557 15.6139 60.6127 15.3846 60.07 15.154C59.9157 15.0911 59.7614 15.0282 59.6024 14.9634C58.7251 14.5864 58.2124 14.3405 57.8134 13.4297C56.1456 10.5781 53.9959 8.62227 50.7774 7.68982C48.5185 7.09935 45.8651 7.35326 43.7414 8.24529C43.5831 8.30591 43.4249 8.36654 43.2618 8.429C41.216 9.31457 39.4582 11.1348 38.3718 13.0594C38.3014 13.2766 38.231 13.4938 38.1584 13.7176C37.6872 14.5964 37.1532 14.7537 36.2425 15.073C36.028 15.1546 36.028 15.1546 35.8092 15.2379C35.2476 15.4501 34.6827 15.6469 34.1132 15.8368C34.3015 12.6356 36.2248 9.61567 38.557 7.50466C39.8957 6.39385 41.3732 5.5256 43.0007 4.91245C43.1769 4.83989 43.353 4.76733 43.5345 4.69257C46.4046 3.67713 50.1962 3.70628 52.9993 4.91245Z" fill="#D1AE62"/>
<path d="M43.5562 40.4627C44.1083 40.7529 44.6293 41.0798 45.1582 41.4102C49.2653 43.7201 54.4046 43.5916 58.8201 42.3837C59.4379 42.2058 59.4379 42.2058 60.0544 42.0231C60.4056 41.944 60.4056 41.944 61.1462 41.944C61.4329 42.9953 61.593 44.0082 61.7017 45.0917C60.9883 45.2741 60.2746 45.4549 59.5608 45.6356C59.3597 45.687 59.1586 45.7384 58.9514 45.7914C58.7551 45.841 58.5588 45.8905 58.3565 45.9415C58.1771 45.9871 57.9978 46.0327 57.8129 46.0796C52.6481 47.2241 46.7438 46.4288 42.2601 43.6104C41.3965 42.967 41.3965 42.967 41.2547 42.3237C41.2157 41.7019 41.2919 41.274 41.612 40.7405C42.2847 40.3369 42.8092 40.2787 43.5562 40.4627Z" fill="#D1AE62"/>
<path d="M45.0375 30.094C45.5004 30.3717 45.5004 30.3717 45.7781 30.8346C45.9185 31.6005 45.9705 32.029 45.5322 32.6825C45.1927 33.0656 44.8407 33.4321 44.482 33.7971C43.5409 34.8079 42.9875 35.8577 42.4568 37.1184C41.4506 39.4952 40.0329 41.2171 37.6717 42.3368C36.7173 42.7148 35.6999 43.055 34.6687 43.055C34.7037 42.6053 34.7454 42.1579 34.7967 41.7097C34.8312 41.404 34.8581 41.0971 34.8704 40.7897C34.9192 40.3487 34.9791 40.0953 35.2241 39.7222C35.7605 39.3974 36.3139 39.15 36.8848 38.8911C38.5107 38.0802 39.0516 36.5211 39.7646 34.949C40.71 32.8987 42.404 29.6112 45.0375 30.094Z" fill="#D1AE62"/>
<path d="M43.9265 74.3466C44.3776 74.6096 44.7976 74.8959 45.2197 75.203C46.155 75.841 47.2845 75.7434 48.3703 75.6427C49.1584 75.3905 49.7618 74.9699 50.4186 74.4739C50.9625 74.1615 50.9625 74.1615 51.6337 74.1615C52.3244 74.3661 52.6039 74.4863 52.9993 75.0872C53.1324 75.8863 53.0765 76.2572 52.6521 76.9504C51.4788 78.1937 49.8396 78.9459 48.1418 79.0378C45.6465 79.0879 43.7641 78.7143 41.8898 76.9388C41.4318 76.2519 41.4482 75.9 41.5195 75.0872C42.0979 74.0405 42.84 74.0837 43.9265 74.3466Z" fill="#D1AE62"/>
<path d="M45.0259 53.7363C45.5929 54.1644 45.5929 54.1644 45.7781 54.5348C45.8834 55.8405 45.8834 55.8405 45.5004 56.4789C44.8391 56.8757 44.2943 56.905 43.5562 56.7566C43.2396 56.6192 42.9274 56.4716 42.6188 56.3169C40.8453 55.4522 38.9284 55.3411 36.999 55.6464C36.3828 55.6455 36.0836 55.4532 35.5944 55.0902C35.2984 54.4982 35.3164 53.8812 35.4093 53.2387C37.171 50.7848 42.8835 52.4689 45.0259 53.7363Z" fill="#D1AE62"/>
<path d="M57.0496 52.2549C57.3289 52.254 57.3289 52.254 57.6138 52.2531C58.6631 52.2608 59.4587 52.3252 60.3709 52.8914C60.7344 53.4654 60.6836 54.0709 60.5907 54.7199C60.394 55.1712 60.394 55.1712 60.0353 55.4605C59.24 55.6759 58.5926 55.6378 57.7787 55.5415C55.9661 55.3555 54.531 55.7746 52.9147 56.5606C52.1961 56.8597 51.7317 56.878 50.9625 56.7566C50.4997 56.4789 50.4997 56.4789 50.2219 56.016C50.0827 55.3082 50.0883 54.7472 50.4765 54.1297C52.4986 52.7335 54.6146 52.215 57.0496 52.2549Z" fill="#D1AE62"/>
<path d="M58.3688 58.6082C58.8317 58.8859 58.8317 58.8859 59.1095 59.3488C59.2378 60.247 59.2664 60.6094 58.7392 61.3508C57.5605 62.2103 56.4434 62.4024 55.0244 62.3808C54.883 62.3829 54.7416 62.385 54.5959 62.3873C53.4809 62.3815 52.5223 62.2046 51.7032 61.3855C51.527 60.8423 51.4998 60.5292 51.6453 59.9737C51.9381 59.4439 52.0931 59.2677 52.629 58.9785C53.2169 58.9191 53.7982 58.9433 54.388 58.9669C54.7023 58.978 55.0167 58.9875 55.3311 58.9951C55.5393 59.0033 55.5393 59.0033 55.7517 59.0117C56.7257 58.9298 57.3139 58.4395 58.3688 58.6082Z" fill="#D1AE62"/>
<path d="M39.1124 58.6082C39.2256 58.6704 39.3387 58.7326 39.4553 58.7966C39.9038 59.0017 40.1734 59.0123 40.6624 58.9887C40.8146 58.9841 40.9667 58.9796 41.1235 58.9749C41.4408 58.9619 41.7581 58.9475 42.0753 58.9315C42.8368 58.9112 43.2611 58.9165 43.9374 59.2982C44.4422 59.8893 44.4299 60.2424 44.388 60.9921C44.2969 61.3856 44.2969 61.3856 43.8802 61.8485C42.4505 62.6283 40.2843 62.5558 38.7342 62.1718C38.3336 62.0007 37.9895 61.817 37.6312 61.5707C37.4746 61.4638 37.318 61.3569 37.1567 61.2467C36.7583 60.6232 36.7492 60.0671 36.8905 59.3488C37.4173 58.471 38.1725 58.4503 39.1124 58.6082Z" fill="#D1AE62"/>
<path d="M50.9625 67.8661C51.4254 68.1438 51.4254 68.1438 51.7031 68.6067C51.8287 69.3726 51.8817 69.8039 51.4659 70.4655C51.0842 70.9202 50.7564 71.302 50.2219 71.5693C48.9161 71.6746 48.9161 71.6746 48.2777 71.2915C47.9636 70.7679 47.8741 70.348 47.9016 69.7365C48.0824 69.0213 48.5715 68.5334 49.1109 68.0513C49.705 67.7542 50.3181 67.7782 50.9625 67.8661Z" fill="#D1AE62"/>
<path d="M44.6484 67.7677C45.3635 67.9485 45.8514 68.4376 46.3336 68.977C46.6306 69.5711 46.6066 70.1841 46.5187 70.8286C46.241 71.2915 46.241 71.2915 45.7781 71.5692C45.0122 71.6948 44.581 71.7477 43.9193 71.332C43.4646 70.9503 43.0829 70.6225 42.8156 70.088C42.7103 68.7822 42.7103 68.7822 43.0933 68.1438C43.6169 67.8296 44.0368 67.7402 44.6484 67.7677Z" fill="#D1AE62"/>
</svg>
