<svg width="24" height="25" viewBox="0 0 24 25" fill="none" xmlns="http://www.w3.org/2000/svg">
<path d="M17.5657 17.3343C17.7697 17.5383 17.9662 17.7386 18.1655 17.9351C19.8128 19.5524 21.46 21.1678 23.1073 22.785C23.3245 22.9985 23.5398 23.2138 23.7532 23.4319C23.9619 23.6454 24.0588 23.8946 23.9629 24.1898C23.8632 24.4963 23.6441 24.6731 23.3301 24.7305C23.158 24.7615 22.9944 24.7164 22.8487 24.627C22.7566 24.5706 22.6691 24.501 22.5911 24.4258C21.5879 23.446 20.5847 22.4672 19.5862 21.4828C18.8293 20.7371 18.079 19.9858 17.325 19.2374C17.0702 18.9844 16.8088 18.7372 16.5568 18.4814C16.4779 18.4015 16.4309 18.3846 16.3293 18.4635C15.0976 19.4264 13.7108 20.0554 12.183 20.3798C11.0773 20.6149 9.96318 20.6835 8.84245 20.5387C7.50548 20.3657 6.24842 19.9454 5.0741 19.2778C4.33322 18.8566 3.66285 18.3413 3.03573 17.7706C2.78564 17.543 2.56281 17.2826 2.34468 17.0221C1.50132 16.0104 0.860095 14.8849 0.460507 13.6258C0.216993 12.8595 0.0665603 12.0763 0.0186097 11.2751C-0.119601 8.94232 0.513159 6.83047 1.87928 4.94146C2.18673 4.51551 2.51862 4.09803 2.89188 3.73038C3.88756 2.74686 5.03743 1.98523 6.3415 1.46432C7.03631 1.18694 7.75275 0.986662 8.48987 0.870068C9.46675 0.715864 10.4464 0.695178 11.4299 0.828696C12.2855 0.94435 13.1148 1.15779 13.9111 1.48219C15.0854 1.96173 16.1403 2.6359 17.0599 3.51318C18.6112 4.99317 19.6116 6.77405 20.0159 8.88684C20.1964 9.82806 20.2284 10.7712 20.1221 11.719C20.0366 12.4843 19.8645 13.2319 19.6041 13.9587C19.2186 15.0391 18.6479 16.0132 17.923 16.8989C17.8045 17.0437 17.6851 17.1866 17.5629 17.3343H17.5657ZM10.264 19.0813C10.4464 19.0691 10.8065 19.0634 11.1619 19.0164C11.9254 18.9158 12.6738 18.7437 13.3865 18.4438C14.778 17.8589 15.9514 16.9835 16.8803 15.7894C17.9192 14.4533 18.5012 12.9413 18.6131 11.2479C18.6808 10.2324 18.5849 9.23475 18.2849 8.26344C17.75 6.53334 16.7609 5.11635 15.3158 4.01905C14.1386 3.12579 12.8233 2.56726 11.3566 2.36698C10.5753 2.26073 9.793 2.24475 9.00981 2.33502C8.25764 2.42152 7.52992 2.61052 6.83135 2.89824C5.66079 3.3806 4.64537 4.08299 3.78132 5.01762C2.75743 6.12526 2.0739 7.40403 1.74671 8.87086C1.54551 9.77258 1.51918 10.6875 1.60756 11.6061C1.69594 12.5238 1.94979 13.3955 2.34468 14.2267C3.03009 15.669 4.0521 16.8246 5.38437 17.6963C6.80972 18.629 8.38739 19.0691 10.265 19.0794L10.264 19.0813Z" fill="white"/>
</svg>
