<svg width="104" height="95" viewBox="0 0 104 95" fill="none" xmlns="http://www.w3.org/2000/svg">
<path d="M61.55 4.13865C62.3687 4.56505 62.9834 4.49044 63.8912 4.45973C65.9963 4.48557 67.9769 5.6362 69.4858 7.04231C70.4286 8.04315 71.2054 9.25782 71.6406 10.5635C72.137 10.7524 72.137 10.7524 72.7648 10.8632C73.138 10.9415 73.138 10.9415 73.5187 11.0214C73.6561 11.049 73.7935 11.0767 73.935 11.1052C74.5568 11.2313 75.1765 11.3663 75.7966 11.5006C76.3169 11.6133 76.8374 11.725 77.3579 11.8367C99.6103 16.6277 99.6103 16.6277 102.963 21.7051C103.795 23.3677 103.146 25.144 102.616 26.8128C99.763 35.3585 94.2799 44.6946 87.1443 50.3344C78.8161 57.0811 74.982 68.7055 73.3223 78.8848C73.483 78.8878 73.6437 78.8908 73.8093 78.8938C76.3088 79.0051 78.4382 79.7916 80.6932 80.8031C84.5046 82.4535 88.9543 82.6294 92.8727 81.1972C93.7308 80.8548 94.5777 80.4873 95.4249 80.119C97.96 79.0273 100.426 78.6457 103.174 78.8848C103.774 79.4854 103.647 79.8946 103.648 80.7357C103.649 80.9562 103.649 80.9562 103.651 81.1812C103.652 81.6683 103.651 82.1554 103.65 82.6425C103.65 82.9802 103.65 83.318 103.651 83.6557C103.652 84.364 103.651 85.0723 103.649 85.7806C103.646 86.6897 103.648 87.5988 103.65 88.5079C103.652 89.2055 103.651 89.903 103.65 90.6005C103.65 90.9358 103.65 91.2711 103.651 91.6064C103.652 92.0745 103.651 92.5425 103.648 93.0106C103.648 93.2773 103.648 93.5439 103.647 93.8187C103.594 94.441 103.594 94.441 103.174 94.8615C102.619 94.9035 102.086 94.9189 101.531 94.9162C101.359 94.917 101.186 94.9178 101.009 94.9186C100.425 94.9208 99.8406 94.9199 99.2565 94.9191C98.8361 94.9201 98.4156 94.9212 97.9951 94.9224C96.8348 94.9254 95.6746 94.9258 94.5143 94.9257C93.2648 94.926 92.0154 94.9288 90.7659 94.9312C88.1742 94.9358 85.5825 94.9376 82.9908 94.9386C82.8498 94.9386 82.7089 94.9387 82.5637 94.9387C82.4225 94.9388 82.2812 94.9388 82.1358 94.9389C80.5727 94.9395 79.0097 94.9409 77.4466 94.9423C72.7281 94.9464 68.0097 94.9499 63.2912 94.9505C63.1402 94.9505 62.9893 94.9505 62.8337 94.9505C62.2217 94.9506 61.6098 94.9507 60.9978 94.9508C60.5372 94.9508 60.0766 94.9509 59.6159 94.9509C59.3876 94.951 59.3876 94.951 59.1547 94.951C54.3705 94.9516 49.5863 94.9563 44.802 94.9639C39.431 94.9724 34.06 94.9774 28.6889 94.9775C28.1167 94.9775 27.5444 94.9775 26.9721 94.9776C26.8312 94.9776 26.6903 94.9776 26.5451 94.9776C24.2735 94.9778 22.0019 94.9815 19.7303 94.9864C17.4489 94.9912 15.1676 94.992 12.8862 94.989C11.6493 94.9875 10.4124 94.9877 9.17551 94.9924C8.04464 94.9967 6.91389 94.9962 5.78303 94.9918C5.3725 94.9911 4.96196 94.9922 4.55144 94.9951C3.99608 94.9989 3.44113 94.9963 2.88579 94.992C2.72399 94.9946 2.56219 94.9973 2.39549 95C1.94865 94.9925 1.94866 94.9925 1.21707 94.8615C0.558113 94.0774 0.5069 93.4409 0.504803 92.4341C0.502815 92.1598 0.500827 91.8855 0.498779 91.6029C0.499908 91.3051 0.501202 91.0074 0.502648 90.7096C0.502223 90.4026 0.50161 90.0956 0.500819 89.7885C0.499891 89.146 0.501236 88.5035 0.504187 87.861C0.50778 87.0389 0.505712 86.2169 0.501936 85.3948C0.499653 84.7611 0.50038 84.1273 0.502013 83.4936C0.502432 83.1905 0.501926 82.8875 0.500454 82.5844C0.498846 82.1603 0.50173 81.7363 0.504803 81.3122C0.505305 81.0712 0.505807 80.8302 0.506324 80.582C0.596362 79.8556 0.763105 79.4566 1.21707 78.8848C1.80606 78.7774 2.24575 78.7446 2.83313 78.7666C2.99252 78.7704 3.15191 78.7741 3.31613 78.7781C5.8043 78.8814 8.00092 79.6386 10.2828 80.5797C14.5779 82.3446 19.1782 82.7653 23.5644 81.0025C24.2499 80.7142 24.932 80.4186 25.6127 80.119C27.5297 79.2889 29.3845 78.8425 31.4887 78.8848C29.6737 66.7239 25.2841 56.3971 15.893 48.2716C14.4601 47.0192 13.2112 45.6743 12.022 44.1887C11.5957 43.6638 11.1571 43.1536 10.711 42.6455C6.61901 37.9465 0.211695 29.8831 0.510038 23.3195C0.732492 21.6786 1.79608 20.8431 3.04581 19.8682C7.62959 16.6076 13.7674 15.2039 19.1383 13.8744C19.3315 13.8262 19.5248 13.7779 19.7239 13.7281C23.4407 12.8014 27.1796 11.9885 30.9305 11.212C31.134 11.1698 31.3375 11.1275 31.5472 11.084C31.9291 11.005 32.3112 10.9265 32.6935 10.8488C33.5873 10.6777 33.5873 10.6777 34.4317 10.3533C34.6084 9.91496 34.6084 9.91496 34.7504 9.38018C34.8097 9.17978 34.869 8.97939 34.9302 8.77292C35.0516 8.35237 35.1715 7.93139 35.2899 7.50996C36.0595 4.9335 37.6362 3.18952 39.9894 1.90507C46.6117 -1.238 55.8523 -0.490809 61.55 4.13865ZM39.0755 5.51657C38.3735 6.17461 38.3735 6.17461 38.0055 6.98975C38.145 7.01035 38.2846 7.03094 38.4284 7.05216C40.0072 7.31952 40.0072 7.31952 40.6464 7.89632C41.1076 8.30241 41.1076 8.30241 41.5308 8.19441C41.8439 8.08576 42.1542 7.96852 42.462 7.84541C43.1841 7.56946 43.9201 7.36973 44.6668 7.17369C44.9278 7.10378 45.1887 7.03386 45.4576 6.96183C47.1805 6.54106 48.8526 6.51049 50.6186 6.50362C50.7677 6.50286 50.9168 6.5021 51.0704 6.50132C53.5758 6.49619 55.9412 6.74916 58.3879 7.31401C58.9479 7.43948 59.5114 7.53324 60.0785 7.62041C60.1479 7.1348 60.2173 6.6492 60.2887 6.14887C55.0401 2.27381 44.2757 0.0930175 39.0755 5.51657ZM62.6011 6.77953C61.4799 10.1834 61.6595 13.5922 63.2712 16.8044C64.0511 18.1163 65.1132 19.3856 66.3851 20.2336C68.0843 19.1338 69.2167 17.7991 69.7486 15.819C69.9546 13.5505 69.8824 11.4469 68.475 9.56412C67.2457 8.14002 66.1665 7.16924 64.2829 6.77953C63.7168 6.74968 63.1688 6.75961 62.6011 6.77953ZM42.4201 10.3533C42.6282 12.0182 42.8363 13.6831 43.0507 15.3985C43.4401 15.3021 43.8296 15.2056 44.2308 15.1062C49.3327 13.8649 54.4185 13.0683 59.6581 12.6657C59.6581 11.7638 59.6581 10.862 59.6581 9.93282C59.2288 9.80275 58.7996 9.67268 58.3573 9.53866C58.1159 9.4655 57.8744 9.39233 57.6257 9.31695C55.4044 8.72768 53.1705 8.58973 50.8814 8.59267C50.4676 8.59318 50.4676 8.59318 50.0454 8.5937C47.1826 8.62977 45.0042 9.06123 42.4201 10.3533ZM37.3748 9.30217C36.901 10.5137 36.5176 11.7255 36.1792 12.981C36.1319 13.1539 36.0846 13.3268 36.0359 13.5049C35.9209 13.9257 35.8069 14.3468 35.6931 14.7679C36.6643 15.0454 37.6355 15.3229 38.6361 15.6087C38.6361 16.0944 38.6361 16.58 38.6361 17.0803C38.4259 17.2905 38.4259 17.2905 37.7427 17.3168C37.094 17.2952 36.5309 17.2324 35.9033 17.0803C36.131 17.8476 36.131 17.8476 36.6998 18.3695C37.342 18.6214 37.9481 18.6444 38.6312 18.6898C39.0566 18.762 39.0566 18.762 39.477 19.1825C39.5296 19.708 39.5296 19.708 39.477 20.2336C39.2689 20.4417 39.2689 20.4417 39.0566 20.654C38.6608 20.6284 38.2657 20.5903 37.8716 20.5456C37.063 20.5326 36.6803 20.5339 36.0481 21.0527C35.6148 21.6183 35.2496 22.1929 34.8916 22.8088C34.7608 23.0123 34.6301 23.2158 34.4954 23.4255C33.9962 24.2229 33.9962 24.2229 33.5909 25.0686C33.6602 25.3461 33.7296 25.6236 33.8011 25.9095C34.6335 26.1176 34.6335 26.1176 35.4828 26.3299C35.7363 27.3692 35.6151 28.0556 35.2726 29.0628C35.4764 29.1625 35.6802 29.2622 35.8901 29.365C36.5339 29.9037 36.5339 29.9037 36.6423 30.3586C36.666 30.6884 36.6793 31.0191 36.6809 31.3498C36.6983 31.8124 36.6983 31.8124 37.0455 32.0707C37.6237 32.6951 37.6134 33.6132 37.7197 34.4341C37.8355 35.1498 37.9284 35.5123 38.4826 35.9959C39.1209 36.2343 39.5006 36.2536 40.1734 36.1708C40.477 36.1343 40.477 36.1343 40.7868 36.0969C41.2824 36.0145 41.7526 35.9104 42.2361 35.7767C43.4183 35.4907 44.4369 35.3428 45.5602 35.8686C46.562 37.1437 46.568 39.0601 46.4142 40.6249C46.0704 42.5004 45.2183 44.111 43.734 45.3285C42.1331 46.4221 40.3319 46.7281 38.4259 46.511C33.1569 45.4825 28.8076 42.6047 24.8717 39.0211C24.525 38.7009 24.525 38.7009 24.0127 38.3256C23.4304 37.8328 22.9601 37.293 22.4657 36.7136C22.0516 36.2366 21.6264 35.7717 21.1965 35.309C20.352 34.3993 19.5299 33.4799 18.7441 32.5183C18.5918 32.3324 18.4395 32.1465 18.2826 31.955C17.9626 31.55 17.6534 31.1363 17.3531 30.7166C16.5931 29.5936 16.5931 29.5936 15.4742 28.9257C14.9857 28.9317 14.5244 28.9968 14.0405 29.0628C13.6282 29.0473 13.2163 29.0207 12.8054 28.984C12.6152 28.9693 12.4249 28.9547 12.229 28.9396C11.728 28.8526 11.728 28.8526 11.0974 28.4321C11.0448 27.7883 11.0448 27.7883 11.0974 27.1708C11.3076 26.9606 11.3076 26.9606 11.6748 26.9467C11.8316 26.9519 11.9885 26.957 12.1501 26.9622C12.323 26.9658 12.4959 26.9693 12.674 26.9729C13.037 26.9821 13.4 26.993 13.7629 27.0058C15.4743 27.035 16.5052 26.608 17.8375 25.5022C22.4917 21.9363 28.2637 19.8656 33.8011 18.1314C33.7328 17.9444 33.6645 17.7574 33.5941 17.5648C33.4029 16.9424 33.3239 16.4889 33.3281 15.8452C33.3265 15.5989 33.3265 15.5989 33.3248 15.3476C33.4001 14.5655 33.598 13.8451 33.8011 13.0861C25.7064 14.5338 17.3026 16.1892 9.62584 19.1825C9.47487 19.2406 9.3239 19.2988 9.16835 19.3587C5.54494 20.7509 5.54494 20.7509 2.89882 23.3869C2.31844 29.0827 8.95625 36.7157 12.276 40.8335C12.9851 41.6923 13.7186 42.5277 14.4609 43.3577C14.5564 43.4662 14.6519 43.5747 14.7504 43.6865C16.5053 45.6795 18.4207 47.4669 20.4259 49.2044C29.5233 57.1042 32.852 69.8613 34.0858 81.3572C34.1714 82.5322 34.1714 82.5322 34.8473 83.4283C38.627 85.8534 43.036 86.8622 47.4653 87.2936C47.6938 87.3169 47.9222 87.3402 48.1576 87.3642C55.3087 87.9846 64.043 87.6519 70.169 83.5096C70.3772 83.3709 70.5853 83.2321 70.7997 83.0892C70.8611 82.5091 70.8862 81.9623 70.8917 81.3812C71.2663 69.9527 76.2665 57.8594 84.2538 49.6643C84.6502 49.2953 85.0554 48.9415 85.4683 48.591C92.3754 42.7036 97.8894 34.1376 100.598 25.4759C100.654 25.3021 100.71 25.1282 100.767 24.9491C100.976 24.2302 101.102 23.7455 100.951 23.0042C96.8219 16.6924 82.5666 15.2909 75.8047 13.8588C75.4241 13.7802 75.0434 13.7021 74.6625 13.6248C74.4932 13.5903 74.324 13.5558 74.1496 13.5203C73.4341 13.3799 72.7935 13.2963 72.061 13.2963C72.0556 13.4619 72.0502 13.6275 72.0446 13.7981C72.0327 14.0271 72.0208 14.256 72.0085 14.492C71.9987 14.7139 71.989 14.9358 71.9789 15.1645C71.8528 16.4023 71.3958 17.5859 71.0099 18.762C71.1649 18.8252 71.3198 18.8885 71.4795 18.9536C76.4813 20.998 81.4457 23.1099 86.2917 25.5059C88.0763 26.3799 89.5906 27.0562 91.5983 26.9869C93.0484 26.9433 93.0484 26.9433 93.5034 27.1708C93.5034 27.6564 93.5034 28.142 93.5034 28.6424C93.193 28.7149 92.8819 28.7843 92.5706 28.8526C92.3974 28.8916 92.2242 28.9306 92.0458 28.9708C91.4012 29.0628 91.4012 29.0628 90.9577 29.0145C90.2101 28.9406 89.7178 28.8964 89.1123 29.3795C88.7218 29.8391 88.378 30.3123 88.0377 30.8102C87.7822 31.161 87.5266 31.5117 87.2707 31.8622C87.1494 32.0326 87.0281 32.2031 86.9031 32.3788C86.2081 33.3442 85.4384 34.2481 84.6742 35.1592C84.5761 35.2762 84.4781 35.3932 84.377 35.5138C80.6447 39.9559 76.4807 42.3724 71.207 44.7504C71.0148 44.8399 70.8226 44.9294 70.6246 45.0217C68.675 45.8776 66.7119 46.0667 64.6245 45.657C64.4742 45.6285 64.324 45.5999 64.1692 45.5705C61.8291 45.0859 59.5361 44.198 57.9763 42.3066C57.3657 41.0712 57.3195 39.8037 57.3251 38.4455C57.3256 38.2312 57.3256 38.2312 57.326 38.0126C57.3272 37.5607 57.3298 37.1088 57.3325 36.657C57.3336 36.3488 57.3345 36.0406 57.3354 35.7323C57.3377 34.9807 57.3413 34.229 57.3457 33.4774C57.2031 33.4378 57.0604 33.3982 56.9135 33.3575C56.6315 33.2766 56.6315 33.2766 56.3438 33.1941C56.1579 33.1415 55.9719 33.0889 55.7803 33.0347C54.4302 32.5619 53.7563 31.6579 53.0887 30.4292C52.4391 29.0334 52.1498 27.6277 51.88 26.1197C51.7775 25.5937 51.6724 25.0681 51.5646 24.5431C51.5191 24.3111 51.4736 24.0791 51.4267 23.8402C51.183 22.9286 50.8699 22.1666 50.1982 21.4949C49.3783 21.5431 48.7749 21.6823 48.0303 22.0336C46.7651 22.5268 45.5262 22.5616 44.2595 22.0336C42.6685 21.1194 41.8835 19.1849 41.369 17.5007C40.9921 15.9407 40.7374 14.3758 40.5412 12.7839C40.3792 11.5916 40.1221 10.7392 39.477 9.7226C38.7109 9.21189 38.2761 9.26815 37.3748 9.30217ZM54.2186 15.3328C54.0783 15.3513 53.9379 15.3697 53.7933 15.3887C50.4292 15.8331 47.1328 16.4898 43.8916 17.5007C44.0499 18.4519 44.3572 19.0383 44.9427 19.8131C45.7 20.318 45.9391 20.3331 46.8347 20.2336C47.1359 20.1009 47.4335 19.9599 47.7281 19.8131C48.7699 19.3212 49.6901 19.2026 50.8289 19.3927C51.9697 19.942 52.6191 20.718 53.091 21.8932C53.5286 23.1665 53.7779 24.4381 53.9953 25.765C54.0622 26.1717 54.1303 26.5782 54.1998 26.9844C54.2288 27.1617 54.2578 27.339 54.2877 27.5217C54.4039 28.0171 54.5771 28.409 54.823 28.8526C55.7453 27.9902 56.4646 27.0374 57.2011 26.0146C58.3433 24.4455 59.5045 22.8925 60.6829 21.3504C60.8317 21.1555 60.9806 20.9607 61.134 20.7599C61.4826 20.304 61.8315 19.8482 62.1807 19.3927C62.0642 19.1621 61.9477 18.9315 61.8276 18.6939C61.6738 18.3881 61.5199 18.0824 61.3661 17.7766C61.2511 17.5492 61.2511 17.5492 61.1337 17.3172C61.0219 17.0946 61.0219 17.0946 60.9079 16.8676C60.8396 16.7322 60.7714 16.5968 60.7011 16.4573C60.4719 15.9719 60.2736 15.478 60.0785 14.9781C58.095 14.9274 56.1839 15.0695 54.2186 15.3328ZM18.0346 28.0117C19.7704 30.4418 21.8189 32.6419 23.8477 34.8282C24.2392 35.2576 24.6084 35.692 24.9719 36.1446C28.1659 39.8859 34.1163 43.9199 39.0689 44.4556C40.4855 44.5191 41.5309 44.0936 42.6829 43.3183C43.7063 42.2716 44.3433 40.9603 44.3383 39.4818C44.3389 39.3216 44.3394 39.1615 44.34 38.9965C44.3126 38.5325 44.2298 38.1275 44.1018 37.6818C43.9495 37.7097 43.7972 37.7376 43.6403 37.7664C43.2206 37.8431 42.8007 37.9191 42.3807 37.9947C41.9639 38.0705 41.5479 38.1505 41.1325 38.2336C39.6451 38.4276 38.2929 38.4376 36.9544 37.6818C35.9786 36.7573 35.7366 35.6823 35.6274 34.3708C35.5533 33.6503 35.5533 33.6503 34.9573 33.2935C34.7839 33.2154 34.6104 33.1374 34.4317 33.057C34.3624 32.9876 34.293 32.9182 34.2215 32.8467C34.2389 32.5866 34.2562 32.3265 34.2741 32.0584C34.2966 31.5981 34.2966 31.5981 34.2215 31.165C34.0481 31.0002 33.8747 30.8355 33.696 30.6657C33.1704 30.1139 33.1704 30.1139 33.145 29.6122C33.1577 29.4265 33.1704 29.2409 33.1836 29.0497C33.2289 28.5067 33.2289 28.5067 33.1704 28.0117C32.5868 27.4941 32.5868 27.4941 31.9091 27.1708C31.4361 26.5688 31.3759 25.8991 31.3942 25.1401C31.5937 24.1013 32.2007 23.2247 32.75 22.3358C32.8549 22.1637 32.9597 21.9916 33.0678 21.8143C33.3082 21.4251 33.554 21.0391 33.8011 20.654C28.6186 20.654 22.0869 25.0049 18.0346 28.0117ZM68.7369 21.2453C68.2785 21.6044 67.8581 21.9146 67.3393 22.1821C66.6999 22.618 66.5282 22.9581 66.2176 23.6611C66.1169 23.8824 66.0161 24.1037 65.9124 24.3316C65.8082 24.5662 65.7041 24.8007 65.5968 25.0423C64.2183 28.0224 62.683 30.9703 59.8683 32.8467C59.4401 34.5139 59.4086 36.2964 59.3953 38.0103C59.3934 38.1677 59.3914 38.3251 59.3894 38.4874C59.3955 39.5528 59.4811 40.5199 60.1352 41.4074C61.9592 42.9913 64.7088 43.8537 67.1209 43.8044C68.8684 43.5716 70.4923 42.6461 72.061 41.8862C72.2115 41.8136 72.362 41.7409 72.5171 41.6661C73.3621 41.2559 74.2005 40.8345 75.0352 40.4038C75.4108 40.2115 75.7892 40.0247 76.1677 39.8382C79.7902 37.9994 82.3949 34.7132 84.8187 31.5274C85.0973 31.1614 85.3783 30.7973 85.6596 30.4333C86.5756 29.4234 86.5756 29.4234 86.9866 28.2219C83.5559 26.5159 80.1058 24.8764 76.5807 23.3737C76.4298 23.3093 76.2788 23.2448 76.1233 23.1784C74.5364 22.5025 72.9437 21.8408 71.345 21.1935C70.9602 21.0377 70.9602 21.0377 70.5677 20.8787C69.6568 20.5426 69.4731 20.6667 68.7369 21.2453ZM63.6522 21.0745C60.8367 24.761 60.8367 24.761 58.0525 28.4712C57.8424 28.751 57.6298 29.0287 57.4157 29.3053C57.2999 29.4559 57.1841 29.6065 57.0648 29.7616C56.9045 29.968 56.9045 29.968 56.741 30.1785C56.466 30.5215 56.466 30.5215 56.5048 30.9548C57.1214 31.2631 57.4971 31.2416 58.1865 31.165C60.6819 30.26 62.0834 27.2752 63.2449 25.0818C63.3453 24.8926 63.4456 24.7035 63.549 24.5086C64.0269 23.5756 64.4074 22.7673 64.4931 21.7051C64.2156 21.497 63.9381 21.2889 63.6522 21.0745ZM2.89882 81.1972C2.89882 85.0127 2.89882 88.8282 2.89882 92.7593C35.4345 92.7593 67.9702 92.7593 101.492 92.7593C101.492 88.9438 101.492 85.1283 101.492 81.1972C99.1528 81.3327 99.1528 81.3327 97.1166 81.9724C96.8316 82.086 96.5467 82.1996 96.2617 82.3132C95.9729 82.4317 95.6842 82.5502 95.3954 82.6688C89.5226 85.0331 84.1626 84.8288 78.3501 82.3704C76.5989 81.6333 75.0222 81.1159 73.1121 81.1972C73.1091 81.3823 73.1062 81.5674 73.1031 81.7581C73.0211 83.755 73.0211 83.755 72.4815 84.5476C72.1693 84.7622 72.1693 84.7622 71.8508 84.9812C71.7159 85.0812 71.5809 85.1812 71.4419 85.2842C66.7596 88.6322 60.2238 89.4739 54.6128 89.606C54.4656 89.6103 54.3185 89.6146 54.1668 89.619C47.1585 89.805 38.8791 89.1405 33.0259 84.8761C32.08 83.8535 32.0492 82.5281 31.9091 81.1972C29.4938 81.0001 27.2445 81.9374 25.077 82.8921C19.7899 85.1848 14.4078 84.7232 9.13971 82.6556C8.90888 82.5615 8.67805 82.4674 8.44023 82.3704C6.53566 81.6003 4.96084 81.1972 2.89882 81.1972Z" fill="#D1AE62"/>
<path d="M12.1485 50.5053C13.3762 51.2664 13.9558 52.3204 14.4609 53.6586C14.5412 54.0771 14.6139 54.4975 14.6711 54.9199C15.0288 54.9089 15.0288 54.9089 15.3937 54.8977C18.8744 54.8221 18.8744 54.8221 20.439 55.9053C20.9128 56.6065 21.0335 57.2446 20.9777 58.0732C20.5851 59.7255 19.4579 60.7446 18.2448 61.8571C18.0334 62.0662 17.8227 62.2759 17.6142 62.4878C17.7182 62.7392 17.8223 62.9907 17.9295 63.2498C18.3909 64.6427 18.5946 66.3746 18.0773 67.7769C17.7203 68.3357 17.3249 68.6368 16.7733 69.0046C15.0833 69.2717 13.7704 68.8797 12.3587 67.9535C12.1269 67.7523 11.8985 67.5469 11.6755 67.336C11.4847 67.1929 11.2939 67.0498 11.0974 66.9024C10.492 66.9743 10.492 66.9743 9.83604 67.3228C8.21962 68.0246 6.77325 68.4172 5.001 68.1637C4.17423 67.7931 3.86144 67.5505 3.43749 66.7579C3.17807 65.2302 3.50105 64.0544 4.23485 62.707C4.41659 62.2766 4.41659 62.2766 4.22828 61.8456C3.93447 61.414 3.62529 61.0924 3.24041 60.7403C2.14168 59.6622 1.51618 58.6194 1.40674 57.0524C1.43891 56.3458 1.65025 55.9111 2.05792 55.3403C3.06514 54.5716 4.07817 54.4697 5.31633 54.4732C5.60574 54.4723 5.60574 54.4723 5.901 54.4715C6.46203 54.4989 6.97678 54.5848 7.52363 54.7097C7.5323 54.5449 7.54097 54.3801 7.54991 54.2104C7.90504 52.7391 8.74156 51.3163 10.0463 50.5053C10.8573 50.2349 11.3174 50.3081 12.1485 50.5053ZM10.8871 52.8177C9.72717 54.2491 9.26884 55.8329 9.41561 57.6527C9.6996 58.2677 9.6996 58.2677 10.0463 58.7038C10.3205 58.2924 10.5881 57.8764 10.8477 57.4556C11.3076 56.8118 11.3076 56.8118 11.8988 56.4177C12.4528 55.9847 12.4528 55.9847 12.3718 55.1695C12.1987 54.2646 11.8041 53.5865 11.3076 52.8177C11.1688 52.8177 11.0301 52.8177 10.8871 52.8177ZM3.73968 57.2323C4.44344 58.701 5.52115 59.9344 7.0145 60.6426C7.62404 60.8382 8.14878 60.8356 8.78495 60.806C8.62452 60.6109 8.4641 60.4158 8.29881 60.2148C7.59604 59.2445 7.36005 58.1769 7.10319 57.0221C6.49195 56.848 5.93839 56.7778 5.30319 56.7724C5.14249 56.7695 4.9818 56.7665 4.81623 56.7634C4.30695 56.784 4.30695 56.784 3.73968 57.2323ZM13.4098 57.8629C13.0532 58.29 13.0532 58.29 12.7791 58.7038C12.9363 58.7572 13.0935 58.8106 13.2554 58.8656C13.4624 58.9379 13.6695 59.0103 13.8828 59.0848C14.0876 59.1556 14.2925 59.2263 14.5036 59.2992C15.0915 59.5447 15.0915 59.5447 15.535 59.9019C15.9106 60.2198 15.9106 60.2198 16.3578 60.1532C16.856 59.9277 17.1545 59.6606 17.5353 59.2688C17.6594 59.1439 17.7836 59.0189 17.9114 58.8902C18.2433 58.4954 18.4559 58.1222 18.6653 57.6527C17.1297 56.7172 14.9356 57.0718 13.4098 57.8629ZM13.1996 61.2265C13.1893 61.3939 13.179 61.5614 13.1684 61.7339C13.0122 63.9464 13.0122 63.9464 12.5689 65.0104C14.0571 66.3087 14.0571 66.3087 15.9324 66.6922C16.0486 64.8916 15.6855 63.3978 14.566 61.9491C14.044 61.4402 13.8769 61.3542 13.1996 61.2265ZM10.6769 62.2776C10.4818 62.3816 10.2867 62.4857 10.0857 62.5929C9.35555 62.9215 8.81506 62.9058 8.0229 62.8425C7.19086 62.8043 7.19086 62.8043 6.51852 63.2359C5.98207 64.0608 5.70577 64.863 5.63165 65.8513C7.20997 65.9885 8.51099 65.4684 9.82291 64.6031C10.2944 64.1316 10.6131 63.7275 10.8871 63.1184C10.8437 62.6447 10.8437 62.6447 10.6769 62.2776Z" fill="#D1AE62"/>
<path d="M90.1399 61.0161C91.4817 61.7791 91.9003 62.9849 92.4523 64.3797C92.7254 64.3667 92.9986 64.3536 93.28 64.3402C94.3492 64.3453 95.2846 64.507 96.2362 65.0103C96.9273 65.7179 97.068 66.0863 97.1165 67.0731C96.9108 68.1969 96.1644 69.036 95.3954 69.8454C95.0832 70.0535 95.0832 70.0535 94.7647 70.2658C94.8167 70.552 94.8167 70.552 94.8698 70.8439C95.2914 73.9331 95.2914 73.9331 94.5939 75.0352C94.0265 75.635 93.6693 75.7112 92.8596 75.8103C91.5066 75.6815 90.4164 75.0049 89.299 74.26C88.7708 74.3066 88.3091 74.4483 87.811 74.6262C86.5225 75.0864 85.5194 75.3405 84.188 74.8381C83.589 74.448 83.3912 74.3083 83.2026 73.6293C83.1057 72.6597 83.2561 72.0059 83.6099 71.1198C83.8072 70.5896 83.8072 70.5896 83.8333 70.0556C83.5339 69.537 83.1831 69.1818 82.7543 68.7655C82.0876 68.1003 81.7627 67.4261 81.7048 66.4662C81.7517 65.673 81.8848 65.2785 82.4406 64.7081C83.3379 64.174 84.0007 64.1461 85.0289 64.1563C85.4008 64.1591 85.4008 64.1591 85.7803 64.162C85.9702 64.1645 86.1602 64.1669 86.3559 64.1694C86.4172 63.9751 86.4784 63.7808 86.5415 63.5807C87.1613 61.8058 88.1576 60.6289 90.1399 61.0161ZM89.299 63.5388C88.7734 64.1614 88.5485 64.659 88.3924 65.457C88.3542 65.6397 88.316 65.8223 88.2766 66.0105C88.2672 66.166 88.2577 66.3216 88.2479 66.4818C88.3867 66.6206 88.5254 66.7593 88.6683 66.9023C88.8634 66.5966 88.8634 66.5966 89.0625 66.2848C89.5092 65.641 89.5092 65.641 89.9297 65.4308C89.8604 64.3764 89.8604 64.3764 89.299 63.5388ZM84.2537 66.4818C84.5466 67.5069 85.0817 67.9693 85.9355 68.584C86.3803 68.7211 86.3803 68.7211 86.7764 68.7943C86.6765 68.448 86.5755 68.1021 86.4742 67.7563C86.39 67.4673 86.39 67.4673 86.3042 67.1725C86.1898 66.7046 86.1898 66.7046 85.9355 66.4818C85.3741 66.4522 84.8162 66.4729 84.2537 66.4818ZM91.191 67.3227C91.3037 67.3791 91.4164 67.4355 91.5326 67.4935C92.4129 67.9337 92.4129 67.9337 93.2932 68.3738C94.1164 67.7864 94.1164 67.7864 94.5545 66.9023C93.3809 66.3155 92.2735 66.7925 91.191 67.3227ZM91.191 70.0556C91.0522 70.8187 90.9135 71.5818 90.7705 72.368C91.0437 72.5414 91.3168 72.7149 91.5983 72.8935C91.7519 72.9911 91.9056 73.0887 92.0639 73.1892C92.4072 73.4369 92.4072 73.4369 92.6625 73.4191C92.6089 72.0637 92.5184 71.1 91.6114 70.0556C91.4727 70.0556 91.3339 70.0556 91.191 70.0556ZM88.4581 70.8965C87.6698 70.8991 86.9155 70.9284 86.1457 71.1067C85.7011 71.7038 85.515 72.0458 85.515 72.7884C86.6524 72.7031 87.6022 72.2787 88.4581 71.5271C88.4581 71.319 88.4581 71.1109 88.4581 70.8965Z" fill="#D1AE62"/>
<path d="M54.3434 69.4061C55.47 70.0799 56.4398 71.1431 56.9252 72.3681C57.0137 73.285 57.0122 74.2028 57.0146 75.1234C57.0171 75.5697 57.0275 76.0154 57.0381 76.4616C57.0574 78.0685 57.0111 79.3474 55.8741 80.5666C54.5227 81.9093 53.4031 82.131 51.5513 82.1298C50.0721 82.0928 49.2366 81.7166 48.1994 80.666C46.9296 79.2401 46.9602 77.9549 46.9554 76.1296C46.9529 75.6832 46.9426 75.2375 46.932 74.7914C46.9127 73.1845 46.959 71.9055 48.096 70.6863C49.7565 69.0365 52.1201 68.6618 54.3434 69.4061ZM50.089 72.0101C49.0998 73.1161 49.1149 74.1726 49.1077 75.6002C49.1047 75.8663 49.1017 76.1324 49.0986 76.4066C49.1702 77.583 49.3185 78.4082 50.1325 79.2791C50.9196 79.784 51.3674 79.936 52.3004 79.936C53.3853 79.605 54.0128 79.2235 54.6128 78.2542C54.8448 77.3878 54.8579 76.5468 54.8624 75.6528C54.8669 75.2536 54.8669 75.2536 54.8714 74.8464C54.7994 73.662 54.6545 72.8417 53.8245 71.9739C52.6295 71.1926 51.259 71.0114 50.089 72.0101Z" fill="#D1AE62"/>
<path d="M54.3434 54.6908C55.47 55.3645 56.4398 56.4277 56.9252 57.6527C57.0137 58.5696 57.0122 59.4875 57.0146 60.4081C57.0171 60.8544 57.0275 61.3001 57.0381 61.7463C57.0574 63.3531 57.0111 64.6321 55.8741 65.8513C54.5227 67.194 53.4031 67.4157 51.5513 67.4145C50.0721 67.3774 49.2366 67.0012 48.1994 65.9506C46.9296 64.5248 46.9602 63.2395 46.9554 61.4142C46.9529 60.9679 46.9426 60.5222 46.932 60.076C46.9127 58.4691 46.959 57.1902 48.096 55.971C49.7565 54.3211 52.1201 53.9465 54.3434 54.6908ZM50.089 57.2947C49.0998 58.4007 49.1149 59.4572 49.1077 60.8848C49.1047 61.151 49.1017 61.4171 49.0986 61.6912C49.1702 62.8676 49.3185 63.6929 50.1325 64.5637C50.9196 65.0686 51.3674 65.2206 52.3004 65.2206C53.3853 64.8896 54.0128 64.5081 54.6128 63.5389C54.8448 62.6724 54.8579 61.8315 54.8624 60.9374C54.8669 60.5382 54.8669 60.5382 54.8714 60.131C54.7994 58.9466 54.6545 58.1264 53.8245 57.2586C52.6295 56.4772 51.259 56.2961 50.089 57.2947Z" fill="#D1AE62"/>
<path d="M54.3434 38.0834C55.47 38.7572 56.4398 39.8204 56.9252 41.0454C57.0137 41.9623 57.0122 42.8801 57.0146 43.8007C57.0171 44.247 57.0275 44.6927 57.0381 45.1389C57.0574 46.7458 57.0111 48.0247 55.8741 49.2439C54.5227 50.5866 53.4031 50.8083 51.5513 50.8071C50.0721 50.7701 49.2366 50.3939 48.1994 49.3433C46.9296 47.9174 46.9602 46.6322 46.9554 44.8069C46.9529 44.3605 46.9426 43.9148 46.932 43.4687C46.9127 41.8618 46.959 40.5828 48.096 39.3636C49.7565 37.7138 52.1201 37.3391 54.3434 38.0834ZM50.089 40.6874C49.0998 41.7934 49.1149 42.8499 49.1077 44.2775C49.1047 44.5436 49.1017 44.8097 49.0986 45.0839C49.1702 46.2603 49.3185 47.0855 50.1325 47.9564C50.9196 48.4613 51.3674 48.6133 52.3004 48.6133C53.3853 48.2823 54.0128 47.9008 54.6128 46.9315C54.8448 46.0651 54.8579 45.2241 54.8624 44.3301C54.8669 43.9309 54.8669 43.9309 54.8714 43.5237C54.7994 42.3393 54.6545 41.519 53.8245 40.6512C52.6295 39.8699 51.259 39.6887 50.089 40.6874Z" fill="#D1AE62"/>
<path d="M51.4989 40.349C52.603 40.4395 53.1747 40.8815 53.9559 41.6366C54.3015 42.3088 54.2734 42.8251 54.1923 43.568C53.9559 43.9884 53.9559 43.9884 53.5617 44.1986C52.931 44.1986 52.931 44.1986 52.3004 43.9884C52.078 43.6456 51.8689 43.2941 51.6697 42.9373C51.0249 42.4547 51.0249 42.4547 50.4084 42.0964C50.6198 40.4352 50.6198 40.4352 51.4989 40.349Z" fill="#D1AE62"/>
<path d="M52.3004 57.022C53.2078 57.5024 53.7924 57.9586 54.1923 58.914C54.2712 59.6892 54.2712 59.6892 54.1923 60.3855C53.5617 60.806 53.5617 60.806 52.931 60.7928C52.1249 60.5409 52.0715 60.2645 51.6697 59.5446C51.0249 59.062 51.0249 59.062 50.4084 58.7038C50.4621 58.2112 50.533 57.7203 50.6186 57.2322C51.2211 56.931 51.6304 56.9576 52.3004 57.022Z" fill="#D1AE62"/>
<path d="M51.8405 71.7243C52.8137 72.0486 53.7239 72.6925 54.1923 73.6294C54.2318 74.3651 54.2318 74.3651 54.1923 75.1009C53.7719 75.5213 53.7719 75.5213 53.1807 75.6264C52.2416 75.4791 52.0206 74.9983 51.4595 74.26C51.3034 74.195 51.1473 74.13 50.9865 74.0629C50.8651 73.9892 50.7437 73.9155 50.6186 73.8396C50.461 73.0775 50.461 73.0775 50.4084 72.368C50.9009 71.8945 51.1477 71.7396 51.8405 71.7243Z" fill="#D1AE62"/>
</svg>
